<svg xmlns="http://www.w3.org/2000/svg" viewBox="0 0 431.5 127.2" enable-background="new 0 0 431.5 127.2"><g fill="#fff"><path d="M85.3 24.8l-.9 5.2c-.1.7-.7 1.2-1.4 1.2s-1.1-.6-1-1.2l2.3-13c.1-.7.8-1.2 1.5-1.2s1.1.6 1 1.2l-.9 5.3h5.7l.9-5.3c.1-.7.8-1.2 1.4-1.2.7 0 1.1.6 1 1.2l-2.3 13c-.1.7-.8 1.2-1.4 1.2-.7 0-1.1-.6-1-1.2l.9-5.3h-5.8zM99.4 31.3c-.7 0-1.1-.5-1-1.2l2.3-13c.1-.7.8-1.2 1.4-1.2.7 0 1.1.6 1 1.2l-2.3 13c-.1.6-.7 1.2-1.4 1.2zM107 30.4c0 .7-.2 2-1.7 2.3h-.1c-.1 0-.3-.1-.3-.3 0-.2.1-.3.3-.4.6-.1.8-.5 1-.9h-.3c-.5 0-1-.5-1-1.1s.5-1.1 1-1.1 1 .4 1.1.9v.6zM89.9 48.8l5.5-6.1c.3-.3.7-.5 1.1-.5.7 0 1.1.5 1 1.2l-2.3 13c-.1.7-.7 1.2-1.4 1.2s-1.1-.6-1-1.2l1.6-9.2-3.9 4.4c-.3.3-.7.5-1.1.5-.4 0-.7-.2-.9-.5l-2.5-4.4-1.6 9.2c-.1.7-.8 1.2-1.4 1.2-.7 0-1.1-.6-1-1.2l2.3-13c.1-.7.7-1.2 1.4-1.2.4 0 .7.2.9.5l3.3 6.1zM106.1 50.4l-1.1 6c-.1.7-.8 1.2-1.4 1.2-.7 0-1.1-.6-1-1.2l1.1-6-3.5-6.2c-.3-.6 0-1.3.6-1.7.6-.4 1.4-.3 1.7.3l2.9 5.2 4.7-5.2c.5-.6 1.3-.7 1.7-.3.5.4.5 1.1 0 1.7l-5.7 6.2zM122.7 43.5c.1-.4.3-.8.7-1 .6-.4 1.3-.3 1.6.3l5.4 9.9 1.6-9.2c.1-.7.8-1.2 1.4-1.2.7 0 1.1.6 1 1.2l-2.3 12.9c-.1.7-.7 1.2-1.4 1.2-.4 0-.7-.2-.8-.4 0 0-.1-.1-.1-.2l-5.4-9.9-1.6 9.2c-.1.7-.7 1.2-1.4 1.2s-1.1-.5-1-1.2l2.3-12.8zM138.4 56.9c-.3.5-.8.8-1.3.8-.1 0-.3 0-.4-.1-.6-.2-.8-.9-.4-1.6l7.2-13c.3-.5.8-.8 1.3-.8s.9.3 1 .8l2.6 13c.1.6-.3 1.3-1 1.6-.2 0-.3.1-.4.1-.5 0-.9-.3-1-.8l-.6-2.8h-5.4l-1.6 2.8zm6.5-5.3l-.9-4.7-2.6 4.7h3.5zM159.5 48.8l5.5-6.1c.3-.3.7-.5 1.1-.5.7 0 1.1.5 1 1.2l-2.3 13c-.1.7-.7 1.2-1.4 1.2s-1.1-.6-1-1.2l1.6-9.2-3.9 4.4c-.3.3-.7.5-1.1.5-.4 0-.7-.2-.9-.5l-2.4-4.4-1.6 9.2c-.1.7-.8 1.2-1.4 1.2-.7 0-1.1-.6-1-1.2l2.3-13c.1-.7.7-1.2 1.4-1.2.4 0 .7.2.9.5l3.2 6.1zM170.4 56.5l2.3-13c.1-.7.7-1.2 1.4-1.2h7.1c.7 0 1.1.6 1 1.2-.1.7-.8 1.2-1.4 1.2h-6l-.7 4h5.1c.7 0 1.1.5 1 1.2-.1.7-.7 1.2-1.4 1.2h-5.1l-.7 4h6c.7 0 1.1.6 1 1.2-.1.7-.8 1.2-1.4 1.2h-7.2c-.6.2-1.1-.4-1-1zM190.7 57.7c-.7 0-1.1-.6-1-1.2l2.3-13c.1-.7.8-1.2 1.4-1.2.7 0 1.1.6 1 1.2l-2.3 13c-.1.6-.8 1.2-1.4 1.2zM196.4 54c.5-.5 1.2-.5 1.6-.2.8.8 2.3 1.7 3.8 1.7 1.1 0 2.1-.3 2.8-.8.7-.5 1.1-1 1.2-1.5 0-.3 0-.5-.1-.7-.1-.2-.3-.4-.5-.6-.6-.4-1.5-.8-2.8-1-1-.2-1.8-.5-2.6-.8-.7-.4-1.4-.9-1.7-1.7-.2-.5-.3-1.1-.2-1.7.2-1.3 1.2-2.4 2.3-3.1 1.1-.7 2.5-1.1 3.9-1.1 2.1 0 3.4 1 4.4 1.7.5.3.5 1 0 1.5-.4.5-1.1.7-1.6.3-1-.7-1.9-1.4-3.2-1.3-1 0-1.9.3-2.6.7-.6.4-1 .9-1.1 1.4 0 .2 0 .4.1.6.1.2.2.4.5.6.5.4 1.4.7 2.5.9 1.1.2 2 .5 2.8.9.8.4 1.5 1 1.8 1.8.2.5.3 1.2.2 1.8-.2 1.4-1.2 2.6-2.4 3.3-1.2.8-2.7 1.2-4.2 1.2-2.3 0-4.1-1.2-5.1-2.2-.3-.6-.3-1.3.2-1.7zM217.1 54c.5-.5 1.2-.5 1.6-.2.8.8 2.3 1.7 3.8 1.7 1.1 0 2.1-.3 2.8-.8.7-.5 1.1-1 1.2-1.5 0-.3 0-.5-.1-.7-.1-.2-.3-.4-.5-.6-.6-.4-1.5-.8-2.8-1-1-.2-1.8-.5-2.6-.8-.7-.4-1.4-.9-1.7-1.7-.2-.5-.3-1.1-.2-1.7.2-1.3 1.2-2.4 2.3-3.1 1.1-.7 2.5-1.1 3.9-1.1 2.1 0 3.4 1 4.4 1.7.5.3.5 1 0 1.5-.4.5-1.1.7-1.6.3-1-.7-1.9-1.4-3.2-1.3-1 0-1.9.3-2.6.7-.6.4-1 .9-1.1 1.4 0 .2 0 .4.1.6.1.2.2.4.5.6.5.4 1.4.7 2.5.9 1.1.2 2 .5 2.8.9.8.4 1.5 1 1.8 1.8.2.5.3 1.2.2 1.8-.2 1.4-1.2 2.6-2.4 3.3-1.2.8-2.7 1.2-4.2 1.2-2.3 0-4.1-1.2-5.1-2.2-.3-.6-.3-1.3.2-1.7zM233 56.9c-.3.5-.8.8-1.3.8-.1 0-.3 0-.4-.1-.6-.2-.8-.9-.4-1.6l7.2-13c.3-.5.8-.8 1.3-.8s.9.3 1 .8l2.6 13c.1.6-.3 1.3-1 1.6-.2 0-.3.1-.4.1-.5 0-.9-.3-1-.8l-.6-2.9h-5.4l-1.6 2.9zm6.5-5.3l-.9-4.7-2.6 4.7h3.5zM255.6 57.4c-.1 0-.3.1-.5.1s-.5-.1-.8-.2c-.3-.2-.5-.5-.6-.8-.2-.6-.2-1.4 0-2.6.1-.4 0-.7-.1-.9-.1-.3-.3-.5-.5-.7-.4-.3-.9-.5-1.1-.5h-2.6l-.9 4.8c-.1.7-.7 1.2-1.4 1.2s-1.1-.6-1-1.2l2.3-13c.1-.7.7-1.2 1.4-1.2h3.9c2.6 0 4.3 2.1 3.9 4.7-.2 1.5-1.1 2.8-2.3 3.6.2.2.4.5.6.8.3.6.5 1.5.3 2.4-.1.7-.1 1.1-.1 1.3.3.1.6.4.6.7 0 .6-.4 1.3-1.1 1.5zm-5.9-8.2h2.7c1.3 0 2.4-1 2.7-2.3.2-1.3-.6-2.3-1.9-2.3h-2.7l-.8 4.6zM261.4 56.9c-.3.5-.8.8-1.3.8-.1 0-.3 0-.4-.1-.6-.2-.8-.9-.4-1.6l7.2-13c.3-.5.8-.8 1.3-.8s.9.3 1 .8l2.6 13c.1.6-.3 1.3-1 1.6-.2 0-.3.1-.4.1-.5 0-.9-.3-1-.8l-.6-2.8h-5.4l-1.6 2.8zm6.5-5.3l-.9-4.7-2.6 4.7h3.5zM277.9 51.2l-.9 5.3c-.1.7-.7 1.2-1.4 1.2s-1.1-.6-1-1.2l2.3-13c.1-.7.8-1.2 1.5-1.2s1.1.6 1 1.2l-.9 5.3h5.7l.9-5.3c.1-.7.8-1.2 1.4-1.2.7 0 1.1.6 1 1.2l-2.3 13c-.1.7-.8 1.2-1.4 1.2-.7 0-1.1-.6-1-1.2l.9-5.3h-5.8zM302 43.5l-1.1 6.4 8.5-7.2c.6-.5 1.3-.5 1.7 0 .4.5.3 1.3-.3 1.7l-5.8 4.9 4.2 6.4c.3.5.1 1.3-.5 1.7-.2.2-.5.3-.8.3-.4 0-.7-.2-.9-.4l-4-6.3-2.7 2.3-.6 3.2c-.1.7-.7 1.2-1.4 1.2s-1.1-.6-1-1.2l2.3-13c.1-.7.7-1.2 1.4-1.2s1.2.5 1 1.2zM315.3 43.5c.1-.4.3-.8.7-1 .6-.4 1.3-.3 1.6.3l5.4 9.9 1.6-9.2c.1-.7.8-1.2 1.4-1.2.7 0 1.1.6 1 1.2l-2.3 12.9c-.1.7-.7 1.2-1.4 1.2-.4 0-.7-.2-.8-.4 0 0-.1-.1-.1-.2l-5.4-9.9-1.6 9.2c-.1.7-.7 1.2-1.4 1.2s-1.1-.5-1-1.2l2.3-12.8zM331.2 55.4c-1.1-1.4-1.5-3.3-1.2-5.4.4-2.1 1.5-4 3.1-5.4 1.6-1.4 3.6-2.3 5.6-2.3 2 0 3.7.9 4.8 2.3 1.1 1.4 1.5 3.3 1.1 5.4-.4 2.1-1.5 4-3.1 5.4-1.6 1.4-3.6 2.3-5.6 2.3-1.9 0-3.6-.9-4.7-2.3zm1.3-5.4c-.3 1.5.1 2.8.8 3.8.7.9 1.8 1.5 3.2 1.5 1.3 0 2.6-.6 3.7-1.5 1.1-1 1.8-2.3 2.1-3.8.3-1.5-.1-2.8-.8-3.7-.7-.9-1.8-1.5-3.2-1.5s-2.6.6-3.7 1.5c-1 .9-1.8 2.2-2.1 3.7zM369.2 43.9l-7.7 13-.1.2s-.1.1-.1.2h-.1s-.1.1-.2.1-.2.1-.2.1c-.1 0-.1 0-.2.1h-.6c-.1 0-.1 0-.2-.1l-.2-.1-.1-.1s-.1-.1-.1-.2 0-.1-.1-.2l-1.7-6.9-4.1 6.9-.1.2s-.1.1-.1.2c0 0-.1.1-.2.1l-.2.1c-.1 0-.1 0-.2.1h-.6s-.1 0-.2-.1l-.2-.1-.1-.1s-.1-.1-.1-.2l-.1-.2-3.2-13c-.2-.6.3-1.3.9-1.6.7-.3 1.3 0 1.5.6l2.5 10.3 4.1-6.8c.3-.5.8-.7 1.3-.7s.9.3 1 .7l1.7 6.8 6.2-10.3c.4-.6 1.1-.9 1.7-.6.3.3.4 1 .1 1.6zM371.6 56.4l2.3-13c.1-.7.7-1.2 1.4-1.2s1.1.5 1 1.2l-2.1 11.7h6c.7 0 1.1.5 1 1.2-.1.7-.8 1.2-1.5 1.2h-7.1c-.7.1-1.2-.4-1-1.1zM384.4 56.5l2.3-13c.1-.7.7-1.2 1.4-1.2h7.1c.7 0 1.1.6 1 1.2-.1.7-.8 1.2-1.4 1.2h-6l-.7 4h5.1c.7 0 1.1.5 1 1.2-.1.7-.7 1.2-1.4 1.2h-5.1l-.7 4h6c.7 0 1.1.6 1 1.2-.1.7-.8 1.2-1.4 1.2h-7.2c-.6.2-1.1-.4-1-1zM397.3 54c.5-.5 1.2-.5 1.6-.2.8.8 2.3 1.7 3.8 1.7 1.1 0 2.1-.3 2.8-.8.7-.5 1.1-1 1.2-1.5 0-.3 0-.5-.1-.7-.1-.2-.3-.4-.6-.6-.5-.4-1.5-.8-2.8-1-1-.2-1.8-.5-2.6-.8-.7-.4-1.4-.9-1.7-1.7-.2-.5-.3-1.1-.2-1.7.2-1.3 1.2-2.4 2.3-3.1 1.1-.7 2.5-1.1 3.9-1.1 2.1 0 3.4 1 4.4 1.7.5.3.5 1 0 1.5-.4.5-1.1.7-1.6.3-1-.7-1.9-1.4-3.2-1.3-1 0-1.9.3-2.6.7-.6.4-1 .9-1.1 1.4 0 .2 0 .4.1.6.1.2.2.4.5.6.5.4 1.4.7 2.5.9 1.1.2 2 .5 2.8.9.8.4 1.5 1 1.8 1.8.2.5.3 1.2.2 1.8-.2 1.4-1.2 2.6-2.4 3.3-1.2.8-2.7 1.2-4.2 1.2-2.3 0-4.1-1.2-5.1-2.2-.2-.6-.2-1.3.3-1.7zM83.3 83.3c-.3.5-.8.8-1.3.8-.1 0-.3 0-.4-.1-.6-.2-.8-.9-.4-1.6l7.2-13c.3-.5.8-.8 1.3-.8s.9.3 1 .8l2.6 13c.1.6-.3 1.3-1 1.6-.2 0-.3.1-.4.1-.5 0-.9-.3-1-.8l-.6-2.8h-5.4l-1.6 2.8zm6.4-5.3l-.9-4.7-2.6 4.7h3.5zM98.7 69.9c.1-.4.3-.8.7-1 .6-.4 1.3-.3 1.6.3l5.4 9.9 1.6-9.2c.1-.7.8-1.2 1.4-1.2.7 0 1.1.5 1 1.2l-2.3 12.9c-.1.7-.7 1.2-1.4 1.2-.4 0-.7-.2-.8-.4 0 0-.1-.1-.1-.2l-5.4-9.9-1.6 9.2c-.1.7-.7 1.2-1.4 1.2s-1.1-.5-1-1.2l2.3-12.8zM113.7 82.8l2.3-13c.1-.7.8-1.2 1.5-1.2h2.6c4.2 0 7.1 3.4 6.3 7.7-.7 4.2-4.8 7.7-9.1 7.7h-2.6c-.7.1-1.1-.5-1-1.2zm5.9-11.7h-1.4l-1.8 10.5h1.4c2.9 0 5.7-2.4 6.2-5.3.4-2.9-1.5-5.2-4.4-5.2zM137.8 69.9c.1-.4.3-.8.7-1 .6-.4 1.3-.3 1.6.3l5.4 9.9 1.6-9.2c.1-.7.8-1.2 1.4-1.2.7 0 1.1.5 1 1.2l-2.3 12.9c-.1.7-.7 1.2-1.4 1.2-.4 0-.7-.2-.8-.4 0 0-.1-.1-.1-.2l-5.4-9.9-1.6 9.2c-.1.7-.7 1.2-1.4 1.2s-1.1-.5-1-1.2l2.3-12.8zM153.7 81.8c-1.1-1.4-1.5-3.3-1.2-5.4.4-2.1 1.5-4 3.1-5.4 1.6-1.4 3.6-2.3 5.6-2.3 2 0 3.7.9 4.8 2.3 1.1 1.4 1.5 3.3 1.1 5.4-.4 2.1-1.5 4-3.1 5.4-1.6 1.4-3.6 2.3-5.6 2.3-1.9 0-3.6-.9-4.7-2.3zm1.3-5.4c-.3 1.5.1 2.8.8 3.8.7.9 1.8 1.5 3.2 1.5 1.3 0 2.6-.6 3.7-1.5 1.1-1 1.8-2.3 2.1-3.8.3-1.5-.1-2.8-.8-3.7-.7-.9-1.8-1.5-3.2-1.5s-2.6.6-3.7 1.5c-1 .9-1.8 2.2-2.1 3.7zM171.3 84.1c-.6 0-1.1-.5-1.1-1.1 0-.6.5-1.1 1.1-1.1.6 0 1.1.5 1.1 1.1 0 .5-.5 1.1-1.1 1.1zM83.1 110.5c-.7 0-1.1-.5-1-1.2l2.3-13c.1-.7.8-1.2 1.4-1.2.7 0 1.1.5 1 1.2l-2.3 13c0 .6-.7 1.2-1.4 1.2zM89.8 100c1-.3 1.5-1 1.5-2-.6-.2-1.3-.7-1.3-1.5v-.2c0-.8.6-1.5 1.5-1.5 1 0 1.6.7 1.6 1.9v.2c0 1.5-.4 2.5-1.1 3.2-.6.6-1.5.9-2.1.9-.5 0-.7-.3-.7-.6.1-.1.3-.3.6-.4zM103.8 101.6l5.5-6.1c.3-.3.7-.5 1.1-.5.7 0 1.1.5 1 1.2l-2.3 13c-.1.7-.7 1.2-1.4 1.2s-1.1-.6-1-1.2l1.6-9.2-3.9 4.4c-.3.3-.7.5-1.1.5-.4 0-.7-.2-.9-.5l-2.4-4.4-1.6 9.2c-.1.7-.8 1.2-1.4 1.2-.7 0-1.1-.6-1-1.2l2.3-13c.1-.7.7-1.2 1.4-1.2.4 0 .7.2.9.5l3.2 6.1zM123.2 96.3c.1-.4.3-.8.7-1 .6-.4 1.3-.3 1.6.3l5.4 9.9 1.6-9.2c.1-.7.8-1.2 1.4-1.2.7 0 1.1.5 1 1.2l-2.3 12.9c-.1.7-.7 1.2-1.4 1.2-.4 0-.7-.2-.8-.4 0 0-.1-.1-.1-.2l-5.3-9.8-1.6 9.2c-.1.7-.7 1.2-1.4 1.2s-1.1-.5-1-1.2l2.2-12.9zM139.2 108.2c-1.1-1.4-1.5-3.3-1.2-5.4.4-2.1 1.5-4 3.1-5.4 1.6-1.4 3.6-2.3 5.6-2.3 2 0 3.7.9 4.8 2.3 1.1 1.4 1.5 3.3 1.1 5.4-.4 2.1-1.5 4-3.1 5.4-1.6 1.4-3.6 2.3-5.6 2.3-2 0-3.7-.9-4.7-2.3zm1.2-5.4c-.3 1.5.1 2.8.8 3.8.7.9 1.8 1.5 3.2 1.5 1.3 0 2.6-.6 3.7-1.5 1.1-1 1.8-2.3 2.1-3.8.3-1.5-.1-2.8-.8-3.7-.7-.9-1.8-1.5-3.2-1.5s-2.6.6-3.7 1.5c-1 .9-1.8 2.2-2.1 3.7zM156.4 95.1h9.4c.7 0 1.1.5 1 1.2-.1.7-.8 1.2-1.4 1.2h-3.5l-2.1 11.8c-.1.7-.7 1.2-1.4 1.2s-1.1-.5-1-1.2l2.1-11.8h-3.5c-.7 0-1.1-.5-1-1.2.1-.7.8-1.2 1.4-1.2zM185.7 110.2c-.1 0-.3.1-.5.1s-.6-.1-.8-.2c-.3-.2-.5-.5-.6-.8-.2-.6-.2-1.4 0-2.6.1-.4 0-.7-.1-.9-.1-.3-.3-.5-.6-.7-.4-.3-.9-.5-1.1-.5h-2.6l-.9 4.8c-.1.7-.7 1.2-1.4 1.2s-1.1-.5-1-1.2l2.3-13c.1-.7.7-1.2 1.4-1.2h3.9c2.6 0 4.3 2.1 3.9 4.7-.2 1.5-1.1 2.8-2.3 3.6.2.2.4.5.6.8.3.6.5 1.5.3 2.4-.1.7-.1 1.1-.1 1.3.3.1.6.4.6.7.2.6-.3 1.3-1 1.5zm-5.8-8.2h2.7c1.3 0 2.4-1 2.7-2.3.2-1.3-.6-2.3-1.9-2.3h-2.7l-.8 4.6zM190.7 109.3l2.3-13c.1-.7.7-1.2 1.4-1.2h7.1c.7 0 1.1.6 1 1.2-.1.7-.8 1.2-1.4 1.2h-6l-.7 4h5.1c.7 0 1.1.5 1 1.2-.1.7-.7 1.2-1.4 1.2h-5.1l-.7 4h6c.7 0 1.1.6 1 1.2-.1.7-.8 1.2-1.4 1.2h-7.2c-.7.2-1.1-.4-1-1zM204 109.2l2.3-13c.1-.7.7-1.2 1.4-1.2s1.1.5 1 1.2l-2.1 11.7h6c.7 0 1.1.6 1 1.2-.1.7-.8 1.2-1.5 1.2h-7.1c-.6.1-1.1-.4-1-1.1zM218.7 109.7c-.3.5-.8.8-1.3.8-.1 0-.3 0-.4-.1-.6-.2-.8-.9-.4-1.6l7.2-13c.3-.5.8-.8 1.3-.8s.9.3 1 .8l2.6 13c.1.6-.3 1.3-1 1.6-.2 0-.3.1-.4.1-.5 0-.9-.3-1-.8l-.6-2.8h-5.4l-1.6 2.8zm6.5-5.3l-.9-4.7-2.6 4.7h3.5zM231.7 95.1h9.4c.7 0 1.1.5 1 1.2-.1.7-.8 1.2-1.4 1.2h-3.5l-2.1 11.8c-.1.7-.7 1.2-1.4 1.2s-1.1-.5-1-1.2l2.1-11.8h-3.5c-.7 0-1.1-.5-1-1.2.1-.7.7-1.2 1.4-1.2zM244 109.3l2.3-13c.1-.7.7-1.2 1.4-1.2h7.1c.7 0 1.1.6 1 1.2-.1.7-.8 1.2-1.4 1.2h-6l-.7 4h5.1c.7 0 1.1.5 1 1.2-.1.7-.7 1.2-1.4 1.2h-5.1l-.7 4h6c.7 0 1.1.6 1 1.2-.1.7-.8 1.2-1.4 1.2h-7.2c-.7.2-1.1-.4-1-1zM257.4 109.2l2.3-13c.1-.7.8-1.2 1.5-1.2h2.6c4.2 0 7.1 3.4 6.3 7.7-.7 4.2-4.8 7.7-9.1 7.7h-2.6c-.7.1-1.2-.5-1-1.2zm5.8-11.7h-1.4l-1.8 10.5h1.4c2.9 0 5.7-2.4 6.2-5.3s-1.5-5.2-4.4-5.2zM279.4 95.1h9.4c.7 0 1.1.5 1 1.2-.1.7-.8 1.2-1.4 1.2h-3.5l-2.1 11.8c-.1.7-.7 1.2-1.4 1.2s-1.1-.5-1-1.2l2.1-11.8h-3.5c-.7 0-1.1-.5-1-1.2.1-.7.8-1.2 1.4-1.2zM292.1 108.2c-1.1-1.4-1.5-3.3-1.2-5.4.4-2.1 1.5-4 3.1-5.4 1.6-1.4 3.6-2.3 5.6-2.3 2 0 3.7.9 4.8 2.3 1.1 1.4 1.5 3.3 1.1 5.4-.4 2.1-1.5 4-3.1 5.4-1.6 1.4-3.6 2.3-5.6 2.3s-3.6-.9-4.7-2.3zm1.3-5.4c-.3 1.5.1 2.8.8 3.8.7.9 1.8 1.5 3.2 1.5 1.3 0 2.6-.6 3.7-1.5 1.1-1 1.8-2.3 2.1-3.8.3-1.5-.1-2.8-.8-3.7-.7-.9-1.8-1.5-3.2-1.5s-2.6.6-3.7 1.5c-1 .9-1.8 2.2-2.1 3.7zM316.1 109.3l2.3-13c.1-.7.7-1.2 1.4-1.2h3.1c2.3 0 3.9 1.9 3.5 4.2-.2.9-.6 1.8-1.3 2.5 1.2.8 1.8 2.3 1.5 4-.5 2.6-2.9 4.7-5.5 4.7h-3.9c-.8 0-1.2-.6-1.1-1.2zm8.1-3.5c.2-1.3-.6-2.3-1.9-2.3h-2.8l-.8 4.6h2.8c1.3-.1 2.5-1.1 2.7-2.3zm-1.7-8.3h-1.9l-.6 3.5h1.9c1 0 1.9-.8 2.1-1.8.1-.9-.5-1.7-1.5-1.7zM329.8 109.3l2.3-13c.1-.7.7-1.2 1.4-1.2h7.1c.7 0 1.1.6 1 1.2-.1.7-.8 1.2-1.4 1.2h-6l-.7 4h5.1c.7 0 1.1.5 1 1.2-.1.7-.7 1.2-1.4 1.2h-5.1l-.7 4h6c.7 0 1.1.6 1 1.2-.1.7-.8 1.2-1.4 1.2h-7.2c-.7.2-1.2-.4-1-1zM349 103.2l-1.1 6c-.1.7-.8 1.2-1.4 1.2-.7 0-1.1-.5-1-1.2l1.1-6-3.5-6.2c-.3-.6 0-1.3.5-1.7.6-.4 1.4-.3 1.7.3l2.9 5.2 4.7-5.2c.5-.5 1.3-.7 1.7-.3.5.4.5 1.1 0 1.7l-5.6 6.2zM357.1 108.2c-1.1-1.4-1.5-3.3-1.2-5.4.4-2.1 1.5-4 3.1-5.4 1.6-1.4 3.6-2.3 5.6-2.3 2 0 3.7.9 4.8 2.3 1.1 1.4 1.5 3.3 1.1 5.4-.4 2.1-1.5 4-3.1 5.4-1.6 1.4-3.6 2.3-5.6 2.3-1.9 0-3.6-.9-4.7-2.3zm1.3-5.4c-.3 1.5.1 2.8.8 3.8.7.9 1.8 1.5 3.2 1.5 1.3 0 2.6-.6 3.7-1.5 1.1-1 1.8-2.3 2.1-3.8.3-1.5-.1-2.8-.8-3.7-.7-.9-1.8-1.5-3.2-1.5s-2.6.6-3.7 1.5-1.8 2.2-2.1 3.7zM376.7 96.3c.1-.4.3-.8.7-1 .6-.4 1.3-.3 1.6.3l5.4 9.9 1.6-9.2c.1-.7.8-1.2 1.4-1.2.7 0 1.1.5 1 1.2l-2.3 12.9c-.1.7-.7 1.2-1.4 1.2-.4 0-.7-.2-.8-.4 0 0-.1-.1-.1-.2l-5.4-9.9-1.6 9.2c-.1.7-.7 1.2-1.4 1.2s-1.1-.5-1-1.2l2.3-12.8zM391.7 102.8c.8-4.3 4.9-7.7 9.2-7.7 1.8 0 3.5.6 4.6 1.7.5.4.4 1.2-.1 1.7s-1.3.6-1.7.2c-.8-.7-1.9-1.1-3.2-1.1-1.5 0-3 .6-4.1 1.5-1.2 1-2 2.3-2.2 3.7-.3 1.5.1 2.8.9 3.7.8.9 2.1 1.5 3.6 1.5 1.3 0 2.6-.4 3.6-1.1.6-.4 1.3-.3 1.7.2.3.5.1 1.3-.5 1.7-1.5 1.1-3.3 1.7-5.2 1.7-4.4 0-7.4-3.5-6.6-7.7zM407.8 109.3l2.3-13c.1-.7.7-1.2 1.4-1.2h7.1c.7 0 1.1.6 1 1.2-.1.7-.8 1.2-1.4 1.2h-6l-.7 4h5.1c.7 0 1.1.5 1 1.2-.1.7-.7 1.2-1.4 1.2h-5.1l-.7 4h6c.7 0 1.1.6 1 1.2-.1.7-.8 1.2-1.4 1.2h-7.2c-.7.2-1.1-.4-1-1z"/></g><g stroke="#fff" stroke-width="1.5" stroke-miterlimit="10" fill="none"><g stroke-linejoin="bevel"><path d="M53.7 34.3l-9.4 14.2-10.3.1-9.2-14.3 7.4-10.3h14.7zM53.7 34.3h-28.9M49.1 41.2l1.3-6.9-7.5-10.3-4.6 10.3-2.1-10.3-8.2 10.3 1.7-6.7M49.2 27.6l1.2 6.7M47.7 43.3l-9.4-9-8 8.6M27.7 38.8l.3-4.5"/></g><circle cx="39.4" cy="73.8" r="25.8"/><circle cx="39.4" cy="73.8" r="21"/><path d="M30.6 43.3"/></g></svg>