<svg xmlns="http://www.w3.org/2000/svg" viewBox="0 0 576 432" enable-background="new 0 0 576 432"><path fill="#fff" d="M274.5 221.1c-1-.7-1.6-1.8-2.5-2.6-.8.6.4 1.7-.7 2.2-1.1-1 .7-2.3-.3-3.5-.7.6-1.7.8-1.9 1.9-.1-.3-.2-.6-.4-1.1l2.1-1.6-7.7-9.8c.4-.3.7-.6 1-.9l1.5-1.6c.2-.2.4-.5.6-.8.7-.9 1.4-1.9 2.2-2.8.8-.9.6-2.3 1.9-2.9.1 0 .1-.4.1-.7.2-.7.4-1.4.6-2 .4-.9.9-1.8 1.1-2.8.2-.9 0-1.9 0-2.9 0-.7-.3-1.5-.1-2.1.5-1.8.3-3.5-.4-5.2l-.2-1c-.3-1.1-.5-2.2-.9-3.2-.2-.6-.8-1.1-1.2-1.5-.7-.7-1.4-1.4-2-2.2-.4-.4-1.5-1.1-2-.9-.8.3-1.4 0-2-.4-1.4-.9-2.8-1.5-4.5-1-.8.2-1.7.1-2.3.8-.2.3-.7.3-1 .5-.9.3-1.8.8-2.7 1-1 .3-1.8 1.1-3 1-.6 0-1.5 0-1.9.4-1.3 1.3-3.1 1.5-4.7 2.1-1.7.7-3.5 1-5.2 1.6-1.4.5-2.6 1.3-4 2.3.6.4 1.2.6 1.5 1 .8 1 1.6 2 2.3 3.1.5.8.8 1.7.9 2.7.1.9-.1 1.9-.1 2.9-.1 1.2-.2 2.4-.2 3.7 0 .6.2 1.2.2 1.9 0 1.1-.2 2.3.1 3.4.2 1 0 1.9-.3 2.8-.1.4 0 .9.1 1.4 0 .2.3.5.2.7-.5 1.3-.4 2.6-.3 3.9 0 .5-.4 1.1-.6 1.6-.2.7-.4 1.4.4 1.9.2.1.4.6.4.9-.1 1.4.2 2.9-.4 4.3-.1.3-.2.8-.1 1 .8 1 .5 2.1.4 3.1-.1 1.5-.2 3.1-.9 4.4l-2.2 5.6c-.3.7-.3 1.5-.9 2.1-.1.1-.1.7.1.9.4.7 1 .9 1.9.6 1.5-.5 2.9-1.1 4.4-1.8 1.2-.5 2.5-1 3.7-1.6 2.2-1.1 4.6-1.7 6.9-2.5.3-.1.7 0 1 .1l.5.5c.3.1.7.1.9 0 .2-.1.2-.6.1-.9 0-.2-.3-.4-.4-.6-.9-1.2-1.8-2.3-2.8-3.5-.4-.5-.7-.9-.6-1.5.1-1 .1-2.1.1-3.1 0-1.3-.1-2.7 0-4l.3-6c.9.1 1.7.4 2.3 1.2.4.6.9 1.1 1.5 1.6.5.4.8 1 1.7.5.5-.3 1 .3.9 1.2-.3-.1-.6-.2-1.1-.3.2 1.5 1.1 2.3 2.2 2.8.2-.5-.4-1.1.4-1.3 1.2.9 1.4.8 2.1-.5.1-.3.4-.5.6-.7v.1c-.2.6-.5 1.2-.7 1.9-.3.9-.6 1.9-.7 2.8 0 .4.3 1 .7 1.3.6.4.8-.2 1-.6 0-.1.2-.1.4-.1-.1.6-.3 1.1-.2 1.5.4 1.3 0 2.7 0 4v.6c.2 1.2.6 1.4 1.7.9l2.3-1.1c.7-.3 1.6.3 2-.7 0 0 .3.1.4 0 .6-.1 1.3 0 1.8-.3.9-.5 1.9-.6 2.6-1.4.3-.3.8-.4 1.3-.2.3.1.7.1 1 .1v-2.6zm-8.2-40.3c.4-.7.9-1.4 1.3-2 .1.1.2.1.2.2-.2.8-.4 1.5-.7 2.3-.1.2-.5.3-.8.4 0-.4-.1-.7 0-.9zm-26.8 39.1l-.1-.1c.1-.1.2-.3.2-.4l.2.1c-.2.1-.2.2-.3.4zm.3-9.2l-.2-.1.2-.8h.2c0 .2.1.4.1.5 0 .2-.2.3-.3.4zm3.3-10.8c.1 0 .2.1.4.3-.2.1-.4.2-.5.3 0 0-.2-.2-.2-.3l.3-.3zm-.6 4.2c.4-.5.7-.9 1.2-1.5.2.9.7 1.8-.6 2.3-.3.1-.4.7-.7 1.1-.3-.1-.6-.2-1.1-.4l1.2-1.5zm-.2 15.8c.1-1.3 1.1-1.9 1.5-2.8.4 1.4-.5 2.1-1.5 2.8zm.8-20.7c.4-.3.7-.6 1-.8.1.6-.1.9-1 .8zm.8-7.3l-.1-.2c0-.1.1-.2.1-.2s.1.1.3.1l-.3.3zm.3 6.4l.8-.9c-.1.6-.2.9-.8.9zm1.1 2c-.1 0-.2-.1-.2-.1l.3-.8.3.1c-.2.3-.3.6-.4.8zm-.3-3c0-.8.4-1.3 1-1.7-.1 1-.3 1.3-1 1.7zm.8-8.3l-.1-.2c0-.1.1-.2.2-.2 0 0 .1.1.2.1l-.3.3zm1.3 8.1l1.2-.1c.1.1.2.2.2.4-.6.9-1.3 1.7-2 2.8-.4-1.4.4-2.1.6-3.1zm.7-3.5v-.8c.1 0 .2 0 .4.1l-.1.8c-.1-.1-.2-.1-.3-.1zm.1 10.4h.3c.1.4.1.7.2 1.2-.5.1-.7.2-1.3.3.3-.6.6-1 .8-1.5zm0 19.9l.6 1.7c-1.2-.2-.8-1-.6-1.7zm.8-32.6c-.1 0-.1-.1-.1-.2s.1-.1.2-.2c.1.1.1.2.2.4-.2 0-.3.1-.3 0zm-.1-5.5c-.2 0-.4-.2-1-.6.4-.2.6-.3.8-.3.2 0 .4.2.4.4.1.2-.1.5-.2.5zm8.8-2.9c.2 0 .3.2.7.4-.8 0-1.3.4-1.5-.4h.8zm-2.5-.3l1.5.3c-.5 0-1 0-1.6.1l.1-.4zm-2.6 27.4c1 .1 1.3.7 1.6 1.6-.8-.4-1.2-.8-1.6-1.6zm1.1-2.6c0-.1-.1-.2-.1-.4.3-.1.5-.2.8-.2l.1.3c-.3.2-.6.3-.8.3zm-1-1.3c.3-1.4.3-3 2.2-3.2-.5.5-1 .9-1.4 1.4-.3.5-.5 1.2-.8 1.8zm2.2 6.4c-.1-.1-.2-.2-.3-.2.1-.1.1-.2.2-.2s.2.1.3.2c0 .1-.1.2-.2.2zm4.1-8.5s-.1-.1-.2-.1c.1-.2.2-.4.2-.5l.2.1c0 .2-.1.4-.2.5zm-.7-8.6c-.7.6-1.2 1.3-.7 2.4-.5-.3-.9-.5-1.3-.6l.4-.8-.1-.2c-.5.3-1.1.6-1.8 1 .5.4.8.6 1.2.9-1.7.2-3.2.4-5.1.6v-1.8c.1-3.2.3-6.4.4-9.5 0-.9.2-1.8.3-2.7 0-.8.5-1.1 1.2-1.1 1.3 0 2.6 0 3.8.7.5.3 1 .4 1.3.7.5.7 1.2 1.3 1.5 2 .4 1 1 2 .7 3.2-.2.7-.1 1.5-.2 2.3-.1 1-.6 2.1-1.6 2.9zm1.9 12.8c-.2-.2-.3-.3-.3-.4l.3-.9.3.1c-.1.4-.2.7-.3 1.2zm4.9-10.9s-.1-.1-.3-.1l.3-.3.1.2c.1 0 0 .1-.1.2zm-.1-13.8c.2-.4.3-.5.4-.7.1-.3.3-.6.5-1 .2.4.3.7.4 1-.4.3-.7.4-1.3.7zm-2-7c.4.8.1 1.1-.4 1.3.1-.4.2-.7.4-1.3zm-1.9 38.1c-.2-.5-.1-.9.4-1.2-.1.4-.2.8-.4 1.2zm.2-4.4l.2-1.3c.1 0 .3 0 .4.1.3.5 0 .9-.6 1.2zm.8 8.2c0-.1-.1-.2-.1-.2l.2-.2c0 .1.1.1.2.2-.1.1-.2.2-.3.2zm1.9-36.3c.3-.3.4-.8.6-1.3.3-.6.6-1.1 1.5-.7-.3.9-1.3 1.7-.7 2.7h-.1c-1.3.4-1.3.5-.6 1.8-.7.6-1.4 1.2-2.2 1.9.3-1.6.2-3.2 1.5-4.4zm1.8 29.4c-.4.8-.7 1.7-1.2 2.6-.5-1.1 0-2.1.2-3.4-.8.3-1.3.6-2 .8-.1-1 .4-1.7.9-2.4 1.1.3 1.4 1.3 2 2 .2.1.2.3.1.4zm1 2.5v-.8h.4v.8h-.4zM307.8 211.8c-.3-.2-.4-.5-.4-.9 0-.7.1-1.4.2-2.1.2-1.2.5-2.3.6-3.5.2-1.7.3-3.4.4-5 .1-.8.1-1.5.1-2.3 0-.6-.2-1-.9-1.2-.6-.1-.9-.5-.9-1.1 0-.3-.1-.5-.2-.9-.7.4-.7.9-.6 1.4.2.8-.2 1.3-.8 1.7l-1.3 1.1c-1.5 1.3-2.9 2.8-5.1 3.1-2.2.4-4.4 1.1-6.6 1.6-.4.1-.9 0-1.4 0v-7.1c0-.7.4-1.1 1-1.2 2.2-.5 4.5-1.1 6.8-1.6 1.7-.3 3.5-.4 5.3-.7 1.1-.1 1.1-.2 1-1.3-.1-1.5-.7-2.9-1.7-4.1-.8-1-1.5-2-1.3-3.4.1-1.2-.1-2.4-.1-3.6h-.5c-.7.3-1.4.6-2.2.1-.1-.1-.3 0-.4 0-1.9.2-3.8.4-5.6 1.1-.4.2-.9.1-1.5.2-.1-2 .1-3.8.3-5.6.1-.8.4-1.2 1.2-1.4l2.9-.9c1.8-.6 3.7-1.2 5.5-1.7 1.1-.3 2.3-.5 3.4.1.3.1.7.2 1 .1.9-.1 1.2-.6.8-1.4-.3-.8-.7-1.6-1-2.2.3-.8.5-1.4.7-2 .7-2.9.8-5.9 1-8.9 0-.4.3-.9-.3-1.1-.4-.2-1-.4-1.4-.3-.9.2-1.7.6-2.5.9 0 .1 0 .1.1.2.8-.2 1.7-.4 2.7-.7.1.8.4 1.3.3 1.9-.3 2.4-.6 4.9-1 7.3 0 .3-.2.6-.5 1.3-.9-1.7-1.7-3-2.3-4.4-.7-1.5-1.6-2.9-.9-4.6-1.1-.2-2.1-.4-3.1-.6-.1.4-.1.7-.2 1l-3.5 1.1c-.6.2-1.3.2-1.8.5-.8.5-1.6.6-2.5.7-.5.1-1 .2-1.6.3-1.7.3-3.3 1.2-5.2 1.3-.8 0-1.7.5-2.4.9-.8.5-1.6.9-2.5 1.1-.7.1-1.4.4-2.1.4-1 0-.8 1.1-1.4 1.4l-.1.4c1 1.4 2 2.9 3 4.4 1.2 1.8 1.8 3.7 1 5.8-.1.4-.2.7-.2 1.1v6.3c0 1.7.2 3.5-.3 5.1-.4 1.6-.5 3.1-.4 4.7.1 1 0 1.9-.5 2.8-.4.7-.7 1.3-1.1 2.1.3.2.6.4.8.6.3.3.6.7.6 1 0 1.8-.1 3.6-.2 5.4l-.1 1.3c-.2 2.2-.3 4.3-.7 6.5-.4 2-1 3.9-1.5 5.8v3c1.1.2 1.9-.3 2.8-.7.8-.3 1.6-.7 2.4-.9l5-1.4c5.3-1.7 10.5-3.5 15.8-5.3 1.4-.5 2.9-1 4.5-.5h.5c.1-.6.3-1 .7-1.3v-1.2zm-9.5-25c0 .8-.3 1.4-1.4 1.7.3-1.4.3-1.4 1.4-1.7zm-4-1.6c0 .8-.5 1.1-1 1.5.1-.9.1-.9 1-1.5zm-1 1.5c-.2.1-.5.3-1 .5.3-.7.7-.6 1-.5zm8.2-19.3c-1 1-1.7 2.3-3 3-.2.1-.5 0-1 0 .8-.8 1.3-1.5 1.9-2.1l1.7-1.9c.6.3.7.6.4 1zm-.7-3.7c.1.2.2.3.3.4 0 .1-.1.2-.2.3l-.3-.3c0-.2.1-.3.2-.4zm-.9-1.8c.2 0 .3.2.6.3-.3.2-.5.4-.5.4-.2-.1-.3-.2-.4-.3.1-.2.2-.4.3-.4zm-1.7 1.2c.1-.1.4-.1.8-.2-.4 1.5-1.5 2.1-2.3 3.1-.1-.9.5-2 1.5-2.9zm1.5 1.3l.3.1c0 .2.1.6 0 .7-.9 1.1-1.9 2.2-2.8 3.2-.1.1-.3.1-.5.2l-.3-.3c1.1-1.2 2.2-2.6 3.3-3.9zm-3.8 2.2l-.3.5c-.1-.1-.2-.1-.2-.2l.3-.4s.1.1.2.1zm-.7-2.7l.3.2c-.4.6-.8 1.2-1.3 1.7l-.3-.3 1.3-1.6zm-10.4 2.3l.2.2-.6.6-.2-.2.6-.6zm-3.2 7.2l.4-.2.1.2-.5.5-.2-.1.2-.4zm-.1 2.5s.3.1.4.2c-.1.3-.3.6-.4.8l-.4-.2c.2-.2.3-.5.4-.8zm.7 7.7c-.2.7-.4 1.2-.6 1.8-.7-1.1-.7-1.1.6-1.8zm.2 7.1c-.5.7-1.2 1.2-1.9 1.8-.5-.6-.5-.6-.2-1.7 1.6-.2 2.2-1.4 3.2-2.4-.4.8-.6 1.6-1.1 2.3zm1.4 1.3c.1-.1.2-.2.2-.3l.2.2c-.1.1-.2.2-.3.2l-.1-.1zm.7 5.9l-.3-.1c0-.2.1-.4.2-.7.6.4.2.6.1.8zm.9-20.8l-.2-.1.5-.8.2.1c-.2.2-.3.5-.5.8zm-.7-5.3l1.4-1.8c-.1.8-.5 1.5-1.4 1.8zm2.7 15.7l.4-.3.1.3-.5.1c.1 0 0-.1 0-.1zm.5 12.9l-.1-.2.6-.3.1.2-.6.3zm1.4-17.8c-.4.2-.8.4-1.3.7 0-.2-.1-.5 0-.6.6-.6 1.1-1.2.4-2.1-.2-.3 0-.4 1-1v3zm-3-12.8c1-1.5 1.9-3.2 3.5-4.3-.8 1.8-2 3.2-3.5 4.3zm5.6 37.9c.1-1 0-1.7 1-1.9.5.7.5.7-1 1.9zm9.7 3.6s-.2-.1-.3-.1l.3-.3s.1.1.2.1c0 .1-.1.2-.2.3zM443.1 127.5c-.3-.7-.5-1.4-.7-2.1-.1-.5-.1-.9.1-1.2-.3-.8-.6-1.7-.8-2.6-.9-.9-1.5-1.9-1.8-3.2-.2-1-.3-2.1-1.3-2.8-.1-.1-.1-.3-.2-.5-.2-.9-.8-1.4-1.7-1.8-.2.4-.4.8-.6 1.1-.8-.2-1.4-.4-2.1-.6-.5 1.7-2.6 2.9-4.1 2.4-.7-.2-1.1-.1-1.6.3-1.6 1.1-3.5 1.8-5.4 2.5-2.2.8-4.4 1.7-6.6 2.6-.7.3-1.2.6-2 .6s-1.5.6-2.3.4c-.1 0-.2.1-.3.3-.9 1-1.9 1.3-3.2 1.2-.2 0-.5.1-.7.2l-2.7 1c-2.3.7-4.7 1.2-6.9 2-5.5 1.9-11.1 3.7-16.7 5.1-.9.2-1.8.7-2.6 1.2-.9.7-1.7 1.2-3 1 0 .6-.1 1.1-.1 1.6.2 2.8-.4 5.4-1.7 7.8-.8 1.6-1.9 3-3.8 3.6-.4-1.2-.8-2.3-1-3.4-.1-.6-.2-1.3-.1-1.8.3-1.2.8-2.4 1.2-3.5.4-1.1.2-1.6-1-1.8-.4-.1-.8.1-1.3.1l-1.1.2c-.6.1-1.1.2-1.7.4-3.3 1.2-6.6 2.5-9.8 3.8-.8.3-1.7.7-2.5 1.1-1 .5-2.1 1-3 1.4-.2 1.1.3 1.6.9 2 1 .6 1.9 1.5 1.7 2.7-.3 1.7-.2 3.3-.4 4.9l-.1.4-.1.7c.5 2-.1 3.9-.4 5.7-.5 2.8-.6 5.7-1.6 8.5-.8 2.1-1 4.4-1.4 6.6-.2.9-.2 1.8-.3 2.7-.2 1.2-.4 2.4-.5 3.6-.2 3-.3 6-1 8.9-.1.5-.1 1-.1 1.4-.1 1.2 0 2.4-.2 3.6-.3 1.2-.8 2.4-1.2 3.5-.4 1.1-.8 1.3-2.3 1.3 0-.8-.1-1.6 0-2.4.3-3.5.7-7.1 1.1-10.6.1-.9-.2-1.4-1-1.7-.7-.3-1.3-.1-1.8.4-1 1-2 1.9-3.1 2.8-.8.6-1.7 1.2-2.8 1.4-1.3.3-2.6 1-3.9 1.4-.4.2-1 .4-1.4.2-1.3-.7-2.3-.2-3.3.5-.2-1.4-.3-2.8-.4-4.2-.1-1.7-.2-3.5-.2-5.2l.3-6c0-.4-.2-.8-.4-1.2 1-.7 1.1-1.8.7-2.9-.2-.5-.1-.9 0-1.4.2-1.3.6-2.7 0-4.1-.1-.3-.3-.7-.2-1 .4-1.1 0-2.2.2-3.3.1-.9-.4-1-1.2-1.1.5-.9.8-1.7 1.3-2.4.3-.4.5-.8.3-1.3-.4-1.2-.1-2.3.5-3.3l1-1.9c.4-.8.8-1.6 1.1-2.4.2-.4.4-1-.1-1.3-.5-.4-.9-.1-1.3.2l-.8.6c-1.3-.4-2.4.2-3.5.6-2.2.6-4.4 1.4-6.6 2.1-1.8.6-3.8.8-5.5 1.7-.9.5-1.9 1-2.9 1.5-.1.9.7 1.1 1.3 1.5 1.7 1.2 3 2.7 2.7 5.1-.2 1.5-.2 3-.2 4.5 0 2.6 0 5.1-.1 7.7-.1 2 .3 4.1-.7 6-.1.2 0 .6.1.8.5.6.5 1.3.5 2.1-.1 3.2.1 6.4-.4 9.5-.3 2.2-.2 4.5-.3 6.7-.1 1.7 0 3.4-.3 5.1-.4 1.9-1.2 3.5-2.1 5.1v2.4c1.1-.2 2.1-.9 3.3-.7.2 0 .4-.2.6-.3l.6 1c.3-1.6.3-1.6 1.8-1.8 2.1-.4 4.2-.7 6.2-1.2 3.1-.8 6.2-1.9 9.2-2.9.9-.3 1.7-.6 2.5-1.1 1.3-.9 2.6-1.3 4.1-1.6 1.2-.2 2.4-.4 3.4-1 1.4-.9 2.8-1.5 4.3-1.9.9-.3 1.9-.9 2.7-.8 1 .1 1.7-.2 2.4-.6 1.1-.6 2.2-.9 3.5-.9.5 0 1-.2 1.5-.4l1.3-.6c1.4-.7 2.9-1 4.4-1.3 1.2-.2 1.9-1.1 3-2-1.1-.1-1.8-.2-2.2-1l-1.8-3.3c-.1-.2-.1-.6-.1-.8.2-1.5.4-3 .7-4.6.1-.8.5-1.3 1.2-1.7 1.7-1 3.6-1.3 5.4-1.9 1.6-.5 1.9-.5 2.5 1.1l.5 1.3.9 2.3c.2.5.3 1 .2 1.5-.2 1.1-.4 2.3-.7 3.4-.2.8-.6 1.5-1.6 1.7-.7.2-1.3.4-1.7 1.2.5-.1.9-.2 1.2-.2.3 0 .7-.1.8 0 1 .9 1.8.4 2.6-.4.7-.7 1.3-.7 2.2 0 .6.5 1 .4 1.5-.2.2-.3.5-.5.6-.8.1-.6.5-.7 1-.9 2-.6 4-1.2 6-1.7 1.3-.3 2.6-.6 3.6-1.6.6-.5 1.5-.7 2.2-.9l1.1-.3 6.4-1.9c.4-.1.8-.2 1.1-.1 1 .2 1.7-.2 2.2-1 .5-.7 1.2-1.2 2.2-1.3.4-.1.8-.2 1.3-.3.8-.2.9-.6.5-1.2-.8-1.2-1.5-2.3-2.2-3.6-.7-1.3-1.1-2.8-1-4.3.2-3.2.4-6.4.6-9.7v-1.5c-.1 0-.2 0-.2-.1-.2.3-.4.7-.6 1.1-.6-2-.6-12 0-13.8 1.1.2 1.3 0 1.1-1l-.2-1.5c0-.7.1-1.5 0-2.2-.1-.8 0-1.5.4-2.1 1.8-.4 3.5-.7 5.2-1.1l3.8-1c1.1-.3 1.9-1 2-2.1l.8-7.9c.1-1.7.7-3.3 1.8-4.6 1.2 1 1.7 2.1 1.5 3-.2.6-.3 1.3-.3 2l-.5 7.2-.7 5.6c-.3 2.6-.4 5.3-.6 7.9 0 .1 0 .3-.1.4l-.5 7.2c0 .1.1.2.2.4.2-.3.4-.5.8-1v1.7c-.1.8-.2 1.6-.2 2.4 0 4.4-1.1 8.5-2.6 12.6-.3.7-.4 1.5-.5 2.2-.1.8-.4 1.4-1.2 1.6-.4.1-1 .2-1.1.9 1.2.1 2.2.4 3.2-.4.4-.3 1.1-.3 1.6-.3.6.1 1.1-.1 1.6-.4.7-.4 1.5-.8 2.3-1.1 1.1-.4 2.3-.5 3.3-.9 1.6-.6 3.1-1.2 4.8-.9.2 0 .5-.2.8-.3l1.5-.6c2.5-.9 5-1.8 7.5-2.6.4-.2.9-.3 1.1-.3 1 .5 1.7.9 2.5 1.3 0 0 0 .1-.1.1l1.2.2c-.1-1-.1-2-.1-3.1 0-1.2.1-2.3.2-3.5l-.1-.1s.1-.3.2-.4l.4-3.5c-.1-.2-.2-.4-.2-.6 0-.5.1-1 .1-1.4 0-1.6 0-3.3.1-4.9 0-.6.3-1.2.5-1.8.2-.8-.1-1.4-.9-1.4-.8-.1-1.5.1-1.9.9-.5.8-1 1.6-1.6 2.4-.8 1.1-1.8 1.5-3.1 1.5-.5 0-1 0-1.4.2-2 .5-3.9 1-5.6 2.2-.1.1-.3.1-.7.2-.1-.5-.1-.9-.1-1.2l.4-4.3c0-.7.4-1.2 1-1.4l2.7-.9c1.6-.5 3.2-1.2 4.5-2.3.3-.2.7-.3 1.1-.4.6-.1 1.2-.1 1.7-.2.9-.2 1.3-.6 1.3-1.5s0-1.7-.6-2.4c-.7-.8-1.2-1.9-1.1-3.1 0-.3 0-.7-.2-1l-1.5-3.3c.6-.7 1.4-1.3 1.1-2.5-1.1.4-2 1.8-3.1.3-.7.4-1.3.8-1.9 1.1-.7.3-1.4.3-2.1.5-.7.2-1.2-.1-1.2-.8 0-1.1.1-2.3.3-3.4 0-.3.5-.6.8-.8 2.3-1.2 4.7-2.1 7.4-2.5.3 0 .6-.1 1-.2 0-.4.1-.7.1-1 1.4-.5 2.4.5 3.4 1.2.3-.3.6-.5.9-.7.3-.7.4-1.3.1-2zm-119.2 35.9c-.5-.3-.6-.6-.1-1.1.5.4.1.7.1 1.1zm-2.1-7.3c.5-.2 1-.3 1.7-.6-.2 1.3-.4 2.5-.6 3.7.4.3.8.6 1 1 .1.1-.1.6-.3.7-.1.1-.5-.1-.7-.2-.3-.3-.5-.6-.8-1.1-.7 1-1.2 1.8-1.8 2.6l.2.2 1.4-.8c.1.1.2.2.2.3-.4.5-.7 1-1.1 1.4-.5.5-.7 1.1-.6 1.8-.9 0-1.5.5-2 1.2-.2.4-.5.7-1.1.5 0-1.3 1.1-1.7 1.8-2.3-.9-.1-1.8-.2-2.6.4-.5.4-.9.2-1.1-.4 1.1-1.5 2.1-3 3.2-4.4.7-.8 1.5-1.4 2-2.4.7-.6.9-1.1 1.2-1.6zm-5.4 11.8l-.4.7-.3-.2.5-.6.2.1zm-.8-5.6c0-.2 0-.4.1-.6h.4c0 .2 0 .4-.1.6 0 .1-.3 0-.4 0zm-.3-4.3c.3-.3.7-.5.8-.8.4-1.5 1.5-2.1 3.1-2.1l-1.3 1.4c.4 1.3.1 1.8-1.1 2.3-.2.1-.4.3-.4.4-.4.7-.4.7-1.3 1.2-.2-.7.6-1 .7-1.6-.2-.3-.3-.6-.5-.8zm.1 41.8c.3.7.2 1-.6 1 .2-.3.4-.6.6-1zm-.1-41.8c-.3.3-.4.9-1.1.5.2-.7.5-.9 1.1-.5zm4.1 43c-1.4 1.2-2.3 2.8-3.2 4.4-.6.9-.8 1-1.9 1.2 1.5-2.5 3-4.8 5.5-6.4-.2.3-.2.7-.4.8zm-2.7-9.5l-.1-.2.5-.4.2.2c-.2.1-.4.2-.6.4zm.1 2.1c-.1.2-.2.4-.2.6 0-.2 0-.4.1-.6h.1zm-.7-5.4l-.2-.3 1-.8c.1.1.2.2.2.3-.3.4-.6.6-1 .8zm.4 6.1c-.2.3-.2.8-.8.8 0-.5.4-.7.8-.8zm6.2-12.3c-1.3 2-2.5 2.7-3.8 2.2 1.3-.7 2.1-2 3.8-2.2zm-.9-6.5c.1-.1.2-.2.3-.2l.2.2c-.1.1-.2.2-.3.2-.1 0-.2-.2-.2-.2zm-1.7 12.2c.9-1.1 1.8-2.3 3.5-2.4-.5.6-1 1.3-1.5 1.8-.8.9-1.7 1.6-2.6 2.4-.3.3-.7.5-1 0-.3-.5 0-.8.5-1 .5 0 .7-.4 1.1-.8zm3.3 2.4c-.7.7-1.4 1.3-2.1 1.9l-.3-.3c.6-1.1 1.1-2.4 2.5-3.1.3.5.3 1-.1 1.5zm-1-11.3c.7-1.2.8-1.2 1.4-.5-.5.2-.9.4-1.4.5zm1.1-7.8c-.7.8-1.3 1.8-2.2 2.5-.6.4-.9 1.2-.8 1.9.1.6-.2.9-.5 1.3s-.5 1-.9 1.8c-1.7.2-2.1 2.5-3.6 3.5-.5-1.6-.3-2.2 1.4-3.2 0-.3-.1-.6-.1-1 0-.3.1-.6.2-.9 1 0 1.6-.6 1.6-1.7 0-.4.4-.8.7-1.1.6-.6 1.3-1 1.4-2 0-.2.2-.4.4-.6.4-.5.7-1 1.1-1.4.5-.4 1-.8 1.8-1.3.1.9 0 1.5-.5 2.2zm.5-5.7c-.8 1.1-1.7 2.2-2.6 3.3-.2.2-.3.4-.4.7l-.1.4-2.9 2.9c-.3.3-.7.6-.9 1-.3.6-.7.8-1.2 1.2-.9-1.7-.5-3.1.6-4.4.7-.8 1.5-1.5 2.2-2.2.2-.2.5-.5.6-.8.3-.9.8-1.6 1.6-2.1v-.1s-.1 0-.1-.1c.2-.2.3-.5.6-.5.9-.3.9-.2 1.2-.7l1.5-.3c.3.4.3 1.1-.1 1.7zm.4-9.6h-.3l.2-.8h.2c0 .3-.1.6-.1.8zm.8-.7c-.1-.5-.3-1 .3-1.4l.4.1c-.1.5-.2.9-.4 1.4-.1-.1-.2-.1-.3-.1zm2.8 37.5v.3c-.2.1-.5.3-.6.2-.3-.1-.5-.4-.7-.6.4.1.9.1 1.3.1zm2.6 2.2c-1.2-.3-2 .4-2.8 1.1l-.7.5c-.5-.6-.3-1.1.3-1.3 1.3-.5 2.6-.8 3.9-1.2l.2.4c-.4.2-.7.6-.9.5zm6.4 6.3l1.1-1.7c.3 1.3.1 1.5-1.1 1.7zm12.9-3.6c-.8-.1-.7-.6-.3-1.3.4.4.7.6 1 .9-.3.2-.5.5-.7.4zm2.4-52.4c.5.3.8.6 1.2.8-1 .5-1 .4-1.2-.8zm2.2 18.4l-.2-.3c.1 0 .2-.1.2-.1.1 0 .1.1.1.2.1.1 0 .2-.1.2zm1.5-14.4c.1 0 .3.1.3.2s-.1.2-.2.4c-.1-.2-.2-.3-.2-.4-.1-.1 0-.2.1-.2zm-.1 7.3c-.7-1.2.1-2.3 2.3-3.2.1 1.8-1.7 2.1-2.3 3.2zm2.1-7.9c-.1.1-.4-.1-.5-.2-.2-.5.1-.8.7-1 .4.7.2 1-.2 1.2zm1.4 4.9c0-.3 0-.6.1-.9.4.5.4.5-.1.9zm20.9-14.4h.2l-.2.9v-.9zm0 .9c-.4.6-.8 1.1-1.3 1.8.1-1.2.2-1.3 1.3-1.8zm-9.7 16.3l-1.3 1.3c-.1-1.3 0-1.4 1.3-1.3zm-2-7.4c.5 1.2.4 1.6-.8 2.2-.4-1-.4-1 .8-2.2zm0 9.5c0 .1-.1.2-.3.3-.1-.2-.2-.3-.2-.4 0-.1.2-.2.3-.2.1.1.2.2.2.3zm-.7 1.2c-.8 1.9-1.4 2.6-2.3 2.8-.2-1.2 1.1-2.7 2.3-2.8zm-1.6-8.1c.4.1.7.3.5.8-.6.9-1.2 1.8-1.9 2.7-.1.2-.5.2-.9 0 .7-1.1 1.5-2.2 2.3-3.5zm-1 19.4c-.5.5-1 .9-1.6 1.2-.8.5-1.4.1-1.4-.9.1-2.2.2-4.4.4-6.8.3.3.4.5.7.7.3-.4.6-.8 1-1.1.3 1.2.3 1.2-.7 2 .6 1.3 1.3 2.5 1.9 3.9 0 .3-.1.8-.3 1zm1-4.5c-.5-.2-.9-.6-.4-1.3.9.3 1.3-.3 1.6-1.1.4-.9 1-1.7 1.5-2.6.2-.4.3-.9.4-1.3.1-.6.3-1.2 1.1-1.6-.1.4-.2.6-.3.8-.1.2-.2.4-.4.7.7.3 1.3.6 2.1 1-.6 1.1-1.3 2-2.8 2.1-.1.6-.3 1.3-.5 2-.3.8-1.5 1.6-2.3 1.3zm5.3-8c.5-.2 1.1 0 1.3.6.1.4.2.8.3 1.4-.9.3-1.5-.1-1.8-.7-.3-.5-.3-1 .2-1.3zm-2.8 11.1c-.3.6-.6.9-1.3.7.5-1.6 1.2-2.5 2.2-2.8-.3.8-.6 1.4-.9 2.1zm1-2.1c.1-1.3 1.3-1.9 2-3 .3.6.3 1.1-.1 1.5l-1.9 1.5zm4.6-1c-1 1.1-1.5 2.5-2.1 3.7-.4.9-.9 1.1-2.1.6.3-.5.9-1 .9-1.6.1-1 .8-1.6 1.2-2.4.4-1 1.1-1 2-.9.1.3.1.5.1.6zm.4 5.8c-.3-1.4-.1-1.6 1.4-2 .1 1.2-.3 1.7-1.4 2zm4.6 9.2c-.3.3-.7.5-1.1.7-.3-.9.2-1.2.7-1.5.1-.1.5 0 .6.2 0 .2-.1.5-.2.6zm.9-6.9c-.1.1-.3 0-.5-.1 0-.1.1-.3.2-.3.2-.1.3-.1.5-.1-.1.2-.1.4-.2.5zm7.5.4c-.4.3-.5 1.1-.5 1.7-.1 1.6 0 3.2-.4 4.7-.2.7-.4 1.5-.7 2.4-.6-.4-1-.6-1.4-.8-1.5-1-1.7-2.7-2.2-4.2-.3-.8-.5-1.6-.8-2.3-.2-.3-.7-.4-1.1-.6.2-.4.4-.8.4-1.2 0-.2-.4-.4-.6-.7l-1.1-2.5c-.6-1.3-1.5-2.5-1.8-3.9-.3-1.7-1.5-3.3-1.2-5.1.1-.7-.2-1.4-.8-1.9-.7-.5-1.2-1.2-1.2-2.2 0-.5-.3-.9-.5-1.3-.4-.8-.9-1.6-1.4-2.5l-.1-.7c0-1-.1-2-1-2.8-.5-.4-.7-1.1-.4-1.7.3-.6.9-.8 1.6-.7h.9c.7 0 1.1.3 1.1 1 0 .3.2.6.3 1 .7-.8.1-1.5.3-2.1.2-.1.3-.2.5-.2 1.6-.4 3.2-.8 4.6-1.6.7-.4 1.6-.5 2.4-.5.8 0 1.2-.3 1.8-.7.6-.4 1.4-.6 2.1-.7 1-.1 1.4.3 1.5 1.3v3.2c0 .8-.4 1.1-1.1 1.2l-6 .8c-2.5.2-5 .4-7.4.6 2.1 0 4.3.1 6.4 0 2.3-.1 4.6-.5 6.9-.8.8-.1 1 0 1.1.9.1.9 0 1.7 0 2.6l-.1 2.4-.4 6.2c0 .2 0 .4.1.6.6 1.9.2 3.9.1 5.9 0 1 .3 2 .5 2.9.2.9.4 1.6-.4 2.3zm12.9-26.6c-.8-.6-.1-1.2 0-1.7.1.5.6 1.1 0 1.7zm3.7-7.8s-.1-.1-.1-.2l.3-.1s.1.1.1.2l-.3.1zm10.8 17.1h-.3c-.2-.6-.1-1.2.5-1.6l-.2 1.6zm3.1-14.7c0-.1-.1-.2 0-.3 0-.1.1-.1.2-.1 0 .1.1.2.1.2l-.3.2zm.7-8.2c-.3-.5-.3-.9 0-1.5.6.6.4 1.1 0 1.5zm2.9 1.6h-.3c.1-.4.1-.8.2-1.4.7.7.4 1 .1 1.4zm13.1 30.5c-.4 2.5-.8 3.2-2 3.4.4-1.3.9-2.5 2-3.4zM300.4 182.4l.1.3c-.1 0-.2.1-.2.1-.1 0-.1-.1-.1-.2.1-.1.2-.1.2-.2zM241.2 207c0-.1-.1-.2-.1-.2 0-.1.1-.1.2-.2l.1.2-.2.2zM262.4 216.8l-.2-.2.2-.1.1.1s0 .1-.1.2zM287 202.5l-.1-.2.1-.1.2.1c-.1.1-.2.1-.2.2zM323.6 181l-.2-.1c0-.1.1-.2.1-.2s.1.1.2.1c0 .1 0 .2-.1.2zM361.4 143.7l-.2-.2.2-.2c.1.1.2.1.2.2s-.1.1-.2.2zM372.9 164.1s-.1.1-.1.2v-.4s0 .1.1.2zM358.2 165.7c-.1.1-.2.1-.1.2l.1.2c.1-.1.2-.1.2-.2s-.1-.2-.2-.2zM286.3 188.6h-.1v.2h.1v-.2zM362.7 145l.1-.1-.1-.3v.4zM295.9 129l-.4-3.3c-.1-2.2-.1-4.4-.3-6.6-.1-2.4-.4-4.7-.6-7.1l-.3-3.7c0-.6.1-1.2 0-1.8-.3-1.8-.8-3.6-.7-5.4 0-.7-.3-.9-.9-1.1l-2.4-.9c-1.7-.9-3.2-2.1-4.6-3.4-.6-.5-1.4-.9-1.8-1.6-.4-.7-.9-1.1-1.5-1.5-.3-.2-.6-.5-1-.9-.2.1-.5.3-.8.5-.5-.5-.9-1.4-1.6-.9-.7.4-1.3.6-2 .8-1.8.4-3.5 1.1-5.2 1.6-.3.1-.7.1-1 .1-1-.3-1.9 0-2.8.4-.9.4-1.8 1-2.7 1-1.3 0-2.2.5-3.2 1.1-.3.2-.7.4-1 .5-1.5.5-1.8 1-1.1 2.5.1.3.3.6.6.8 1.4 1.1 1.9 2.6 1.9 4.3l.1 1.2c.1 2.9.2 5.8.2 8.7 0 2.8-.3 5.6-.4 8.3l.3 5.5c0 3.7-.2 7.3-.3 11-.1 1.2-.3 2.5-.3 3.7 0 1.1-.3 2.2-.8 3.2l-2 4c-.2.4-.5.9-.6 1.3.1.4.3.7.8 1 .6.4 1.2.8 1.8 1.3.8 0 1.6.3 2.3-.4.2-.2.7-.3.9-.2.8.4 1.4 0 2.1-.1l5.9-1.6c.8-.2 1.7-.4 2.4-.8 2.1-1.2 4.5-1.7 6.8-2.4.3-.1.8-.1 1.1 0 1.2.4 2.1 0 3-.9 1.1-1.1 1.9-2.4 3.4-3.1.3-.1.5-.5.6-.8 1.1-2.1 2.1-4.2 3.8-5.9 1.2-1.3 1.2-3 2.1-4.3 0-.1.1-.2 0-.3-.6-.7 0-1.2.2-1.9.1-.8.1-1.4 0-1.9zm-4.3-13.4c-.4.4-.9.7-1.4 1.1-.2-.8 0-1.3.5-1.5.5-.3.3-.7.4-1.1 1 .3 1.2.8.5 1.5zm-.2 4.1c0 1.2-.8 1.6-1.5 2.1-.4-.9.2-1.7 1.5-2.1zm-1.1-10.7c.6.1 1 .3.7.7-.5.7-.9 1.5-1.8 2.2 0-1.2.8-2 1.1-2.9zm-1.6-4.5c.1 1.4-2 5.5-3.5 6.9-.5-.5-.9-1-.2-1.4 1.4-.9 1.9-2.4 2.7-3.7.3-.5.6-1.1 1-1.8zm-.1 5.6c0 .1-.1.1-.2.1 0-.1-.1-.2-.1-.2 0-.1.1-.1.2-.1s.1.1.1.2zm-.7 1.1c-.4 1.5-1.2 2.9-2 4.6-.5-.9-.6-1.5-.2-2.1.7-.9 1.4-1.7 2.2-2.5zm-.4-10.2l.1.7h-.3c0-.2 0-.5-.1-.7h.3zm-2.5 4.8c.4-.7.9-1.3 1.4-2 .1 1.2-1.3 4.1-2.4 4.9-.6-1.2.5-1.9 1-2.9zm-2.9-.5c.3.4.6.7.7 1 0 .1-.3.4-.5.6l-.7-.7c-.1-.2.2-.5.5-.9zm-1.9-10.3c.1 0 .2.1.4.1 0 .4.2.9.1 1.3-1 3.1-2.5 6-5.1 8.3h-.3c.8-3 2.9-5.1 4.5-7.7-.2-.1-.5-.3-.9-.6.5-.4.9-.9 1.3-1.4zm-.7 8.4c-.3.5-.6 1-.8 1.5-.6-1 .3-1.2.6-1.8 0 .1.1.2.2.3zm-1.7-8.6c-.4 2.6-1.7 4.4-3.5 5.9 1.3-1.8 1.6-4.2 3.5-5.9zm-4.1 6.8c.1 1.2-.4 1.7-1.4 2.4.2-1.1.5-1.8 1.4-2.4zm-1 6.9c.3.8.1 1.5-.6 2-.5-.2-.8-.5-.4-.9l1-1.1zm-.9-8.1c-.3.6-.7 1.2-1 1.9-.4-1 .2-1.5 1-1.9zm-1.2 11.7c.1 0 .3 0 .4.1 0 .2 0 .5-.1.7h-.4l.1-.8zm-1.4-11.6l-.5.6-.3-.3c.2-.2.4-.4.6-.5.1.1.2.1.2.2zm-1-3.9c.1.1.2.2.4.3l-1.3 1.2-.2-.2c.4-.4.8-.8 1.1-1.3zm0 5.3c-.8 1.6-1.6 3.2-3 4.3.3-1.6 1.9-3.8 3-4.3zm-3.2 6.1c.9.8.9 1.2 0 1.8v-1.8zm0 5.2l.4-.1.3 1.1c0 .1-.3.3-.4.2-.7-.4-.4-.8-.3-1.2zm1.1 27.3c.2 1.2-.4 1.9-1.3 2.5-.6-1.3-.2-2.1 1.3-2.5zm-.7 9.1c0-.2.1-.3.2-.4l.3.3c-.1 0-.3 0-.5.1zm1.4-4.5c-.9.2-1.6.8-2.3 1.7-.3-1-.5-1.8.2-2.4.4-.3 1.2-.4 1.8-.4.3 0 .6.2.9.4-.3.3-.4.6-.6.7zm2.6-6.7l-.1-.2c.1-.1.3-.2.4-.2l.1.3c-.2 0-.3.1-.4.1zm.4-4.1l-.2-.1.3-.4.2.1c-.1.1-.2.2-.3.4zm2.5 10.8c-1.2.7-1.1.7-2.2.8.1-1 .5-1.8 1.4-2.2.5-.2 1-.2 1.3.2.3.5-.1.9-.5 1.2zm-1.7-12.8c.1-.3.1-.5.2-.6l.9-.8c.2.9.2.9-1.1 1.4zm3.6 15.5s-.2 0-.2-.1.1-.2.1-.4l.3.1c-.1.2-.1.3-.2.4zm2.3-.7l-.2-.3.6-.5.2.2c-.2.3-.4.5-.6.6zm1.6-5.8c-.1 0-.3-.2-.3-.2 0-.1.2-.3.3-.4 0 0 .2.1.4.3l-.4.3zm-.4-5.4c-.5.2-1 .5-1.5.5-.9.1-1.3-.3-1.2-1.3 0-.3.1-.7 0-1-.6-1.9.1-3.4 1.2-4.8-.4-.4-1-.7-1.1-1.2-.1-.5-.1-1.1.1-1.6.3-1.2.2-2.5.3-3.8 0-.1-.1-.3-.2-.4-.7-.4-.8-.9-.3-1.5-1.9-.4-2.2-.2-2.6 1.3-.2 1-.4 2.1-.7 3.1-.2.6-.4 1.2-.7 1.7-.8 1.2-1.8 2.4-2.9 3.5.1-.3 0-.6.2-.8.6-.4.7-1 .8-1.6 0-.2 0-.4.1-.6 1.1-1.2.9-2.7 1.1-4.2.1-.9.5-1.8.9-2.5.5-.9.6-1.9 1.3-2.6.3-.3.3-.9.4-1.5.5-.1 1.1-.2 1.8-.3-.1-.7.2-1.4-.5-1.9-1.3-.1-1.6 1.1-2.5 1.8-.1-.6 0-1 .2-1.4.8-1 1.7-2 2.4-3 .3-.5.6-1.1.6-1.7 0-1.3-.1-1.3.2-2.3-.5-.4-1.1-.5-1.6 0l-.9.5c.1-.9.8-1.3 1.6-1.5.4-.1.8-.2 1.2-.4 1.8-.6 4.8.1 5.6 1.8.1.2.3.6.6.6 1.6.4 1.5 1.8 1.9 3 .1.5.1 1 .2 1.4.4 3.1.8 6.2.7 9.3 0 .4-.1.9-.2 1.3 0 .3-.3.7-.1.8.7.9 0 1.9.1 2.9.1.6-.3 1.2-.6 1.7-.7 1.6-1.5 3.2-2.8 4.5-.4.4-.9.7-1.4 1-.5.5-1.1.8-1.7 1.2zm3.2 2.3l-.3-.1.4-.8.3.1c-.2.2-.3.5-.4.8zm2.8 3.5c-.9 1-.9 2.5-2.4 3.2.4-1.1.7-2.1 1.2-2.9.5-.9 1.2-1.6 2-2.6.1 1.1-.4 1.8-.8 2.3zm2-1.3l-.3-.1c.1-.3.3-.6.4-.8l.3.1c-.1.2-.3.5-.4.8zm-2.3-6.2l-.4-.1c0-.3 0-.5.1-.8l1.8-3.8c.3-.6.4-1.2 1.5-1-.8 2.1-1.9 3.8-3 5.7zm2.7-9.6c.1-1.9.2-2.1 1.2-2.3-.1 1.1-.1 1.2-1.2 2.3zm.4-4.3c-.1 0-.2 0-.3-.1-.1-.6-.3-1.3-.3-1.9 0-.3.3-.6.5-.8.8-.5 1.4-1.1 1.7-2 .4-.9 1-1.8 1.5-2.6.2-.3.5-.5.8-.7l.3.3c-1.3 2.7-2.7 5.2-4.2 7.8zm2.9 2.2l-.3.3c-.1 0-.2-.1-.3-.2l.3-.3c.1.1.2.2.3.2zm-.9 3.1l-.2.2c0-.1-.1-.2-.1-.2 0-.1.1-.1.2-.2 0 .1 0 .2.1.2zm.3 12.8c-.2-.2-.4-.5-.7-.8l1.3-1.7c.1-.2.4-.5.3-.6-.4-.9.3-1.4.6-2.1.3-.8.6-1.6.9-2.3.3 1.9-1 5.7-2.4 7.5zm2.2-9.2c-.6.8-1.3 1.4-2.2 2.3-.1-.5-.2-.7-.1-.9l2.4-3.4.9-1c.5 1.5-.5 2.2-1 3zm-1.1-2.8c-.4-.6-.3-1.2 0-1.5.7-.9 1.5-1.8 2.4-2.9 0 2.1-1.7 2.9-2.4 4.4zM258.2 152.9c-.6-.6-.9-1.3-.9-2.1l-.1-.2c-.8-1.5-.6-3.2-.7-4.8-.2-2.7-.1-5.4-.2-8.1 0-.7.1-1.5-.1-2.1-.3-1-.5-1.8 0-2.8.2-.4.2-.9.2-1.4-.1-2-.2-3.9-.2-5.9l.1-11.1-.1-2.9c0-1.7 0-3.5.2-5.2.1-.9.2-1.7.5-2.5.3-1.3.8-2.5 1.2-3.7.3-1-.2-1.8-1.2-1.7-.8 0-1.5-.2-2-.8-.6.1-1.1.2-1.6.2-2.1-.1-3.9.8-5.8 1.6-.3.1-.6.3-.9.3-.8.1-1.5.6-1.9 1.2-.5.7-1.1 1.1-1.9 1.5-.9.4-1.8.8-2 1.6 1 1.8 1.9 3.5 2.7 5.1.2.3.3.8.6.9.9.4.9 1.2.8 2-.1 1.6-.2 3.3-.2 4.9 0 .8.2 1.6.4 2.4.1.6.3 1.1-.4 1.5-.2.1-.4.6-.4.9.1 2.2.2 4.3.4 6.5.1 1 .2 1.9-.3 2.8l-.4.3c-.1-.4-.2-.8-.3-1.1-1.3.1-2.6 0-3.7-1-.4-.4-1.1-.6-1.5-.8-.4-.7-.7-1.3-.9-1.9-.9-2-3.1-3.1-3.9-5.2-1-.5-1.2-1.6-1.6-2.5l-.6-1c-.5-.4-.6-.9-.7-1.5-.1-.9-.3-1.9-1.3-2.5.5-.8.8-1.5.8-2.5s0-1.8-.5-2.6c-.2-.3-.1-.6-.1-1 0-.5-.2-.8-.8-.8-.2.4-.4.8-.7 1.2l-.4.1.2-1.2-4.4.4c0 .4 0 .6.1.9-.7.4-1.5.5-2.4.3-.9-.2-2-.3-2.6.4-.7.7-1.6.9-2.4 1.3-.8.4-1.6.7-2.3 1.2-.9.6-.9 1.3 0 2l2.1 1.5c.9.7 1.4 1.5 1.4 2.7 0 3.8.1 7.5.2 11.3 0 .5-.1 1 0 1.4.6 2.4.2 4.8.4 7.2l.3 4.2.1 1 .1 3.4c0 .4.1.8.2 1.1l.4 3.6c.1 1.3.2 2.6.1 3.9-.3 2.7-.3 5.4.3 8.1.1.3 0 .6 0 .8l-1.2 3.3c-.1.3-.4.5-.8 1-1.1-2.6-2.2-5-3.2-7.5-.7-1.6-1.2-3.3-1.8-4.9-.3-.7-.8-1.3-1.7-1.3-.1-1.1.1-2.2-.4-3.3-.9-1.8-1.2-3.8-2.4-5.5l-.9-2.2h-.2c-.1.9-.3 1.7-.4 2.5h-1.2c0 1.4-.7 2.6-.6 4 .2 1.3 0 2.7 0 4 0 .5 0 1.1-.3 1.5-.4.6-.8 1-.8 1.8 0 .1-.3.4-.5.4s-.5-.1-.6-.3c-.3-.4-.3-.9.1-1.3.6-.6.6-1.2.5-2 0-1.3.1-2.6.3-3.9.4-2.9.8-2.4-1.9-4 .7-.1 1.2-.1 1.6-.2 1.2-.1 1.3-.2 1.6-1.4l-.2-.3-.5 1.1c-.4-.1-.8-.2-1.4-.4.3-1.4.5-2.7.8-4 .1-.2.4-.5.7-.6.3-.1.6-.1 1.2-.1-.8-1.8-1.4-3.5-2.2-5.2-.7-1.6-1-3.4-2.2-5.2v2.8c-.2.1-.4.1-.6.1-.2 0-.4-.1-.7-.1.1-.6.2-1.2.2-1.7 0-.4 0-.9-.2-1-1.1-.8-1.2-1.9-1-3-1.1-.4-1.2-.6-.5-1.4.4-.4.5-.8.3-1.3-.1-.2-.1-.5-.1-.7l1.4-5 .4-1.4c.1-.6.1-1.2-.4-1.6-1.4.4-2.6.7-3.8 1.1-1.2.3-2.4.5-3.6.9-1.3.4-2.6.9-3.9 1.5-.8.4-1.6.6-2.5.4-.7-.2-1.1 0-1.4.7-.2.6-.7.8-1.2.9-.4.1-.8.2-1.3.3-2.2.5-2.4 1-1.2 2.9.5.8.9 1.7.8 2.7-.2 1.6-.4 3.2-.6 4.9-.2 2-.5 4-.6 6-.1 1.9-.3 3.7-.7 5.5-.6 3-1.1 6.1-1.6 9.1 0 .3-.2.7-.3.7-.8-.1-.6.5-.7 1-.5 3.5-.8 7.1-1.7 10.5-.2.9-.5 1.9 0 3 .2.5-.1 1.3-.2 1.9-.2 1.1-.7 2.1-.8 3.2-.1 1.3-.4 2.3-1.1 3.3-1.2 1.7-2 3.6-2.6 5.6-.2.8.5 1.5 1.3 1.3.3-.1.6-.2 1-.3.2.4.3.8.5 1.3.3-.2.6-.3.6-.4.3-1.3 1.3-1.7 2.4-1.9.8-.2 1.7-.3 2.4-.7 1.1-.5 2.1-1 3-1.6 1-.6 2.1-.8 3.2-.6.7.1 1-.2 1.3-.6l2.1-2.5c.1.1.1.2.2.2.3.6.9.9 1.4.5.7-.5.1-1-.2-1.5-.1-.2-.2-.3-.4-.5l-2.8-3.6c.7-1.1 1.1-4 .6-5.3-.2.8-.3 1.2-.5 1.7-.1.5-.3 1.1-.5 1.7-.3-.2-.6-.2-.6-.4-.6-1.3-.2-2.7 1-3.5.6-.4 1.4-.9 1.7-1.5.4-.6.7-.9 1.4-.7.6.1 1.1.1 1.3-.6.3-.6.8-.7 1.4-.8.3 0 .6-.1.9-.2l2-.6 2.2-.6c.6-.2 1.1-.4 1.7-.5.6-.1 1.2 0 1.5.6.5.8.9 1.7 1.3 2.6.4 1 .7 2.1 1.3 3.1.8 1.3.7 2.4-.2 3.6-.5.7-.9 1.5-1.2 2.3-.1.3-.1.9.2 1.1.2.2.8.2 1.2.2.4 0 .7-.3 1.1-.4v1.1c1.1-.3 2.1-.7 3.1-.9.7-.2 1.5-.2 2-.8.1-.1.4-.2.5-.2 1.1-.2 2.3-.5 3.4-.6.9-.1 1.8-.3 2.5.6.1-.4.2-.9.3-.9.5-.2 1.1-.2 1.8-.2-.4-1.6 1.2-1.7 1.6-2.5.9 0 1.7.1 2.4 0 1.1-.2 2.1-.6 3.1-1.1 1.7-.9 3.4-1.4 5.4-1.5 1-.1 2.3-.4 2.9-1.3.4-.7.9-1 1.6-.9.1-.8-.1-1.4-.7-1.9l-1.5-1.1c-1-.8-1.9-1.6-1.9-3.1l-.2-4.9c0-2.7-.2-5.4-.3-8.1-.1-2.1-.3-4.3.5-6.4.1-.3-.1-.8-.3-1.2-.4-.9-.4-1.3.2-1.9 1.5 1.8 3.1 3.6 4.6 5.5.5.6.6 1.4.9 2.1.2.5.2 1.1.5 1.4 1 .9 1.2 2.3 2.4 3.1.2.1.2.5.3.8.1.4.1.8.2 1.1.6 2 1.8 3.7 2.9 5.4.8 1.1.8 2.2.2 3.3-.3.5-.5 1-.7 1.6-.1.3.1.9.4 1 .3.2.9.1 1.2 0 .4-.2.6-.7.9-1l2.2 1.6c.5-1 1.2-1.7 2.1-2.1 1.6-.6 3.3-1.2 4.9-1.9.9-.4 1.8-.8 2.5-1.4.7-.5 1.4-.7 2.3-.4.1.1.3 0 .4 0 .1-.3.2-.5.4-.8-.6-.4-1-.7-1.4-1zm-16.1-49.4c.5 0 .8 0 1.3.1-.7.9-.7.9-1.3-.1zm-23.5 16.8c-.5-.9-.2-1.6.4-2.3.2.8-.1 1.6-.4 2.3zm-15.8 19.2c-.4.4-.8.8-1.3 1.2 0-1.2.3-2.4.8-3.6 1.6.9 1.6 1.3.5 2.4zm-1-4.8l-.1.8h-.2c-.1-.3-.1-.5-.1-.8h.4zm-3.6-18.2l.3.2-.6.8c-.1-.2-.2-.3-.2-.3.1-.3.3-.5.5-.7zm-26 64.2c-.1-.1-.2-.1-.4-.2l.5-.8c.1 0 .2.1.2.1 0 .4-.2.7-.3.9zm15.3-6.1c.2.2.4.3.5.5l-.7-.2c.1-.1.2-.2.2-.3zm11.3-26.7l.4.1c-.1.1-.1.2-.2.2s-.3.1-.3.1c-.1 0-.1-.2-.1-.3-.1 0 .1-.1.2-.1zm-.6-3.6c-.1.7-.3 1.1-.4 1.7-1-1.2-.9-1.3.4-1.7zm-3-20h.4l-.2 1.4h-.3c0-.4.1-.9.1-1.4zm-1.7 11.5c1.2.9 1.4 1.4.8 2.3-.9-1.8-.9-1.8-.8-2.3zm-.6-11.1l-.3.2c-.2-.3-.3-.7-.6-1.1 1 0 1 .4.9.9zm-.2 7.9l-.4-.6-.4-1.5c-.3-.9-.2-1.3.8-2.1.3 1.5.9 2.8 0 4.2zm-.3-7c-.5.4-.9.6-1.2.8 0-.6.1-1.5.2-2.3.3.5.6 1 1 1.5zm-1.1-1.5l-.8.6c0-.5.1-1.1.8-.6zm-.8 17.2c-.2.1-.4.1-.7.2l.5-.4.2.2zm-.5-2.2l-.4.2-.3-.3c.1-.1.2-.2.3-.2 0-.1.2.1.4.3zm-.3 2.5l-.3.6c-.1-.1-.2-.1-.2-.2.1-.1.3-.3.5-.4zm-.8-19.8s-.1.1-.2.3v-.6c0 .1.1.2.2.3zm-.2 10.9c.2-.1.5 0 .6.1.1.1.1.5-.1.6-.4.5-.8 1-1.2 1.4l-4.2 4.5c-.3.3-.7.5-1.1.8-.1-.1-.2-.2-.3-.4l.7-1 4.8-5.6c.3 0 .5-.3.8-.4zm-6.2 17.4c0 .1 0 .2-.1.2h-.2c0-.1.1-.2.1-.4l.2.2zm3.4-20.6c.1 0 .1.1.3.1l-.3.3-.1-.2c0-.1.1-.2.1-.2zm1.9.3c-.1 1.3-.9 2.2-1.7 3-.5.5-.8.9-.4 1.8-.5-.2-.9-.3-1.3-.5 1.1-1.7 1.9-3.3 3.4-4.3zm-3.5.9c.4.9-.2 1.4-.6 2.2-.6-1.1-.1-1.6.6-2.2zm-.5-8v2.9c-1-.3-1-1-1-1.7 0-.6.3-1.1 1-1.2zm-1.2 5.7c.1.2.3.4.2.5 0 .1-.1.2-.2.4-.1-.1-.3-.1-.3-.2l.3-.7zm.1 4.4l-.6 2.9c-.5-1.1-.3-2.4.6-2.9zm-2-9.9c.1-.1.2-.2.4-.3l.6.8-.3.3c-.2-.4-.5-.6-.7-.8zm-1.5 26.2c.1 0 .2 0 .3.1l-.3 1.7c-.1 0-.2 0-.4-.1.2-.6.3-1.1.4-1.7zm-1.1 6.1l.9.1c.3 0 .7-.1.9-.3.5-.5.9-1 1.3-1.6.5-.7 1-1.5 1.5-2.3.5-.7 1-1.4.6-2.4 1.1.1 1.1.1 1.8-.9.2-.3.4-.6.6-.8 1.2-1.1 1.8-2.4 2-4 0-.1.1-.3.2-.5.6.2 1.1.4 1.8.7l-1.1 2.8c-.3-.3-.6-.5-.8-.7-.1.1-.3.1-.3.2-.2 1.3-.9 2.3-1.9 3l-.6.6-4.6 6.1c-.7.9-1.1 1.8-1.1 2.9-.1 1.4-.5 1.8-2.1 1.8-.1-1.5.5-3.1.9-4.7zm-1.3 7.9c.2-.2.4-.3.9-.6-.1.9-.4.9-.9.9v-.3zm-.4 9.2l-.3-.2c.6-1.3 1.1-2.5 1.7-3.7.2-.4.8-.7 1.3-1-.5 1.9-1.8 3.3-2.7 4.9zm3-6l.2-.2.2.1c-.1.1-.1.2-.2.2-.1.1-.2 0-.2-.1zm.5 3.5h.2l-.2 1h-.3c.1-.4.2-.7.3-1zm1 3l-1.2.2c.2-.9.2-.9 1.2-.2zm1.6.5c-.4.7-1.2 1-2.1.6.2-.4.4-.8.6-1.1.6-.6 1.3-1.1 2-1.7.1.1.3.2.3.3l-.8 1.9zm-1.5-2.8v-1.9l1.5-1.5c.6.6.2 1.2-.1 1.7-.3.7-.9 1.1-1.4 1.7zm2.1-4.8c.1-.5.5-.4 1-.4-.1.6-.3.9-.8.7-.2 0-.3-.2-.2-.3zm.2 9.5c.4-.7.7-1.3 1-2 .2.3.4.6.7 1-.6.4-1.1.7-1.7 1zm1.9-6.2c0 .1.1.2.1.2l-.2.1c0-.1-.1-.2-.1-.2.1 0 .2 0 .2-.1zm.6-7.8c-.1-.1-.2-.2-.3-.4 0-.1.2-.2.3-.2.1 0 .2.2.3.4 0 .1-.2.2-.3.2zm2.2-3.1c-.3.3-.7.7-1.1.9-1.1.5-1.5 1-1.9 2.1-.7.3-1.3.5-2.1.9.6-1.5 1.2-2.8 2-3.9.3-.4.7-.8.8-1.3.2-.8.4-.8 1.6-.9-.1.5-.2 1-.3 1.6l.9.2c.2.1.2.3.1.4zm.1-4.7c-.1-.1-.3-.2-.3-.3 0-.1.2-.2.3-.3.1 0 .2.1.2.2 0 .2-.1.3-.2.4zm9.4 4.4c-.7.6-1.4 1.1-2.2 1.7-.4-.2-.8-.4-1.2-.4-.4-.1-.8-.1-1.1.3-.4.4-1.1.6-1.6.8-.2-.5-.2-.9.3-1 .4-.1.8-.2.7-.7-.9-.1-.9-.1-1.9 1.1-.5.6-1 1.1-1.6 1.7-.6-1.4.6-2.3.2-3.5.4 0 .6-.1 1.1-.1-.2-.8-.4-1.5-.6-2.4.3-.8 1.1-.2 1.8-.3.7-.6.9-1.8 2.1-1.8v-2.3c-.6-.3-1 .1-1.3.6-.3.5-.6 1-1.4.7-.6-.2-.9-.8-.8-1.4l.3-2.3.1-1c-.1 0-.2-.1-.4-.1-.2.4-.4.8-.5 1.2-.1.4-.2.9-.2 1.3 0 1.2-.6 1.9-1.5 2.6-.8.6-1.3 1.6-2 2.4-1.1 1.4-2.1 2.9-3.1 4.3-.6.8-1.7 1.2-2 2.3 0 .1-.4.3-.6.2-.2-.1-.4-.4-.3-.5.1-.4.3-.7.5-1 .3-.5.7-1 1.1-1.5l2.3-3.3c.5-.8 1-1.7 1.6-2.5.6-.8 1.3-1.5 2-2.3.4-.4.7-.9 1.1-1.4-.2-.4-.4-.8-.7-1.2l2-2 1.1.7c.6-2 .9-4 1.4-5.9h.5c1.3 3.3 2.6 6.7 3.9 10.1-.4.2-.6.3-.9.4-.3.1-.5.2-.9.3l-.2 1.4c1.1-.4 2-.2 2.9.3 1 .6.8 1.7.6 2.8.3-.1.5-.2.6-.2l.8 2.2c-.7 1.2-1.3-.2-2-.3zm2.8-9.2l.1-1.2c.4.4.6.9-.1 1.2zm.7 5.5h-.2v-.7h.3l-.1.7zm11.9 5.8c.3.9.6 1.8.9 2.8h-1.6c-.1-.9-.2-1.8-.3-2.8h1zm-4.3-10.3c.1.9 0 1.7-.7 2.4-.4.4-.5.9-.8 1.3-.7-1-.2-2 .1-2.9.3-.6.7-1 1.4-.8zm-.7 14.8l-.5.7-.2-.2c.2-.2.4-.4.5-.6.1.1.1.1.2.1zm-.4-19c-.3.6-.3 1.1 0 1.7.2.4.2.9.1 1.4-.1.3-.5.6-.8.9-.3-.4-.9-.7-1-1.1-.2-1.4.4-2.3 1.7-2.9zm-1.6 10.7c.4-.9.3-2 1.2-2.7-.5 1.8-.4 3.5.1 5.4l-.9.6c-.1-.1-.2-.1-.2-.2-.2-.7.3-1.5-.4-2.2-.2-.1 0-.6.2-.9zm-.3 5.6c.6 1.4.5 2.1-.5 2.8l.5-2.8zm-.6 9.1c-.5-.4-.6-.8-.3-1.2.1-.1.4-.1.5 0 .4.4.3.8-.2 1.2zm.8-4.8c.1-.2.8-.2 1 0 .4.5 0 .8-.5 1.1-.4-.4-1-.6-.5-1.1zm1 3.4c-.2-.9-.2-.9 1-1.2l.2.3c-.4.2-.8.5-1.2.9zm2.3-2.1h-.3v-1h.4l-.1 1zm-.7-10.3c-.1-1.2.3-2.3.8-3.6.5.3.8.5 1.2.8.4 1.5.9 3 1.4 4.7-.3.2-.8.5-1.3.8l-.3-.2c.1-.4.2-.9.2-1.3 0-.2.2-.5.1-.7-.1-.2-.3-.4-.5-.6-.2.2-.5.4-.6.6-.1.2 0 .4 0 .7-.6-.2-.9-.5-1-1.2zm1.8 4.4l-.3-.3s.1-.1.2-.3c.1.3.1.5.1.6zm-.3 1.6c-.1-.2-.3-.3-.2-.4 0-.1.2-.2.3-.2 0 0 .2.1.2.2-.2.1-.2.2-.3.4zm1.1.2c-.2.7-.4 1.2-.5 1.7-.6-.7-.5-1.2.5-1.7zm1.2 5.6c-.7.4-1.3.4-2.1-.1.3-1.3 1.5-.9 2.3-1.3.4.6.3 1.1-.2 1.4zm1-3.3c.3-.4.5-.9.9-1.6.5 1.1.9 1.9 1.4 3.1-.9-.6-1.5-1-2.3-1.5zm14.7-16.7c0 .2-.1.4-.2.5-.8 1.2-1.6 2.5-2.2 3.9-.2.4-.6.8-1 .4-.3-.2-.5-.8-.4-1.1.3-.8.9-1.6 1.3-2.3.3-.5.8-1 1.1-1.6.1-.2-.1-.5-.2-.7-.2.1-.6.2-.7.3-.4 1-1 1.8-2.4 2.1.5-1.4.9-2.5 1.2-3.7l.1-.3c1.3-.5 1.6-1.6 1.9-2.8.1-.2.3-.3.5-.4 1.1.5.7 1.4.3 1.9-.5.8-.4 1.5-.4 2.4.3.1.8 0 .8.2.3.4.3.9.3 1.2zm-3.3 6.3l.4 1.2-1.5 1.4c-.5-1-.3-1.6 1.1-2.6zm-1.1-3.9l.3-.2s.1.1.1.2l-.3.2-.1-.2zm3.5-16.1c.6.2.6.7.4 1-.4 1-.8 2-1.2 2.9-.5 1-1 2.1-1.7 3-.7 1-.7 1-2 .1l4.5-7zm-1.1-7.6l.1-.2.1.2-.2.2v-.2zm1.3 12.8c-.5 1.8-1.1 3.3-2.8 4-.1-.1-.2-.2-.3-.2l2.5-3.7c0-.2.3-.1.6-.1zm-4.2 3.1l.5.4-.6.6-.3-.3c.1-.2.2-.4.4-.7zm.1 15.8s.1 0 .1.1v.2c-.3.1-.6.2-1.1.3.1-.2.1-.3.1-.4.4-.1.7-.2.9-.2zm4.5-35.4l-.2-.1.2-.3.2.2-.2.2zm0-6c.4 1.5-.2 2.6-.8 3.9-1.3-1.3-1-2.6.8-3.9zm-1-3.9c.2.3.4.5.4.5-.6 1.2-.6 2.8-1.9 3.6.1-1.4.8-2.7 1.5-4.1zm-1.7 15c0 .8.1 1.3 0 1.8-.2.8-.5 1.5-.8 2.3-.1.2-.2.3-.2.5 0 .4.2.8 0 1.1-.7 1-1.6 1.9-2.4 2.9h-.3c-.5-.4-.1-.9 0-1.4.5-.2.6-.6.7-1.1.1-.4.4-.8.7-1.3-.3-.4-.6-.9-.1-1.6.5-.8.9-1.6 1.4-2.3.2-.4.5-.5 1-.9zm-2.4-.3c-.1 1.2-.1 2.4-.8 3.4-.2.3-.3.6-.4.9-.2.7-.2.7-1.3.8.4-2 2.1-3.2 2.5-5.1zm-2.4 1.7c0-.2.3-.3.4-.4.1.2.3.3.5.5-.3.2-.5.4-.6.3-.1 0-.3-.2-.3-.4zm2.5-4c-.4.9-.7 1.5-1 2.3-.5-1.2-.4-1.4 1-2.3zm-1.9 9.5l.5.2h-.5c-.1-.1-.1-.1 0-.2zm1.1-25.8c.4-.6 1.2-1.1 2.3-.7-.7.6-1.4 1-1.9 1.5-.5.6-.9 1.3-1.3 2l-.3-.1c.3-.9.6-1.9 1.2-2.7zm-2.4 1.6l1.3-1.6c0 1.1 0 1.1-1.3 1.6zm1.3 44.1c-.1-.1-.2-.1-.1-.2 0-.1.1-.1.2-.2l.2.2c-.2 0-.3.1-.3.2zm-.1-2.9c-.1-1.9-.2-3.6-.4-5.3.6-.3 1-.1.9.3-.1 1.5.7 3.2-.5 5zm-.1-7.3l.3-.6.2.1c-.1.2-.2.4-.2.6-.2 0-.3-.1-.3-.1zm-.6-3.9v-3.1c1.3.4 2.4 0 3.6-.3-.4 1-1.5.7-2.1 1.4-.1.8.1 2-1.5 2zm7.3 20.9c.2-1 .2-1 .9-1.4.2 1.1.2 1.1-.9 1.4zm1.2-9.3c-.2.6-.5 1.2-.9 1.7-1.1 1.5-1.2 2.4-.4 4 .1.2.1.6-.2.9-.2-.2-.4-.5-.6-.8-.5 1-.9 1.9-1.5 2.8-.4.6-.9 1.1-1.4 1.6-.9.8-.9.8 0 1.8-.1.1-.3.3-.4.3-.2.1-.4.2-.7.3-.3-1.5-.5-2.8.6-4 .8-.9 1.5-2 2-3.1.3-.7.1-1.6.2-2.4l1.4-3c.2-.4.5-.8.8-1 .3-.2.7-.2 1-.2 0 .4.2.8.1 1.1zm.8 6.5c-.1-.1-.2-.2-.2-.3l.1-.2c.1 0 .2.1.3.2 0 .2-.1.3-.2.3zm3 2.1l.3.6-.2.1c-.2-.2-.3-.4-.4-.5l.3-.2zm9.9-27.5c-.5.7-1 1.3-1.4 2-.6 1.3-.6 1.3-1.9.9-.3-.1-.5-.1-.8-.1.8-.4 1.1-1.2 1.5-2 .8-1.3 1.4-1.4 2.6-.8zm-7.1.6l-.1-.2.1-.1.2.1c0 .1-.1.1-.2.2zm.2-2.9l-.6.9c-.3.7-.6 1.5-1.1 2.2-.3-1.7-.2-3.4.4-5.2-.9.3-.9 1.1-1.5 1.6-.7-.3-.9-1-1.1-1.7-.3-1.6-.2-3.2.1-4.7.2-.7.1-1.4.2-2.3.8-.7 1.5.3 2.6.5-.2.4-.3.8-.5 1-.8.9-1 1.4-.6 2.7.7-.1.5-.6.6-1.1.1-.4.3-.8.7-1 .4-.2.8.1 1 .6.2.7 1.2 1.1.8 2.1-.1.2.3.5.5.7 1 .8 1.2 1.7.5 2.7-.1.1-.1.3-.1.4-.5.8-.3 1.5.2 2.2-.6 0-.9-.4-1.2-.9-.3-.3-.7-.4-.9-.7zm2.2 5.1c.2-.5.3-1.1.6-2-1 .6-1.7 1-2.4 1.5-.1-.6 0-1.2.5-1.4.9-.2 1-.9 1.1-1.6.1.1.3.2.3.2.3-.8.6-1.6 1-2.3.3-.4 1-.6 1.8-.9-.8 2.4-1.5 4.4-2.3 6.4-.2.5-.4.9-.7 1.6-.4-.5-.1-1 .1-1.5zm.4 2.4c.1-.4.2-.7.4-1.3.3.4.4.6.5.8l-.7.6c-.1 0-.2 0-.2-.1zm1-.4l.2-.1.6.1-.1.4c-.2-.2-.4-.3-.7-.4zm1.6 2.4c-.4-.3-.9-.6-1.4-.9.4-.1.8-.2 1-.3.7-1.2 1.3-2.3 1.9-3.4.7.6 1 2.2.7 2.9-.4.7-.7 1.5-1.1 2.4-.5.2-.7-.4-1.1-.7zm2.7 2.9c0 .9-.2 1.5-1 1.8.1-.7.1-1.4 1-1.8zm-1 4.7c.5-.1.9-.2 1.3-.3-.5.7-.5.7-1.3.3zm1.5-7.6c0-.1-.1-.2 0-.3 0-.1.1-.1.2-.1 0 .1.1.2.1.2 0 .1-.1.2-.3.2zm7.8-41c.1 0 .2.1.3.2-.2.1-.3.2-.3.2-.1 0-.2-.1-.3-.2.1 0 .2-.1.3-.2zm-2.8.9v.5c-.3.2-.6.3-.9.4 0-.1-.1-.2-.1-.4.3-.1.6-.3 1-.5zm-.7 4.6c-.1-.5-.2-1 .5-1.3.2.6-.3.9-.5 1.3zm0 .1c-.3.8-.5 1.6-1.3 2.1-.5-1.1 0-1.8 1.3-2.1zm-1.6-3.8s.2.2.1.2l-.3.3c-.1-.2-.1-.3-.2-.4l.4-.1zm1.9 7c-.5.7-.8 1.1-1.3 1.9l-.8-2c.8 0 1.3 0 2.1.1zm.1 3c-.3.9-.6 1.7-1.5 2.3-.3-2 0-2.4 1.5-2.3zm-1.1 8.5l1.6-3.5c.3-.6.7-1 .9-1.6.3-.6.6-1.2.8-1.8.3-.8.5-1.7 1.6-2.1-.5 1.7-1 3.3-1.4 4.8.2.1.4.2.7.3-.1.5-.1 1-.2 1.7-1.2-.1-1.4.7-1.7 1.5-.5 1.3-1.2 2.5-1.8 3.7-.1.2-.3.2-.6.5-.5-1.3-.5-2.4.1-3.5zm4.8.3l-.3.3-.2-.1c0-.1.1-.2.2-.3.1-.1.2 0 .3.1zm-.5 8.6c-.1.2-.3.4-.4.7-.1 0-.2-.1-.2-.1.1-.2.3-.4.4-.7.1 0 .1 0 .2.1zm-4.2-.4l-.3-.3.7-.3.2.2-.6.4zm1.1 8.7c.1-1.1.1-2 .6-2.7.5-.7.9-1.4 1.4-2.2.1 1.1-.8 3.7-2 4.9zm2.8 12.9v-.2c.2 0 .5 0 .7-.1v.3h-.7zm.5-12.4c-.1.4-.6.7-.9 1.1l-.3-.3c.7-1.4.6-3.1 1.9-4.4.4 1.3-.4 2.4-.7 3.6zm1.1 6.5l-.1-.4c0-.1.2-.2.3-.3.1.2.2.3.2.4-.1.2-.2.3-.4.3zm.9-27l.2-.1c.1.1.1.1.1.2s-.1.1-.2.2c0-.2 0-.2-.1-.3zm.3 6c0-.4 0-.7-.1-1.1h.2l.1 1.1h-.2zM269.1 104.4s0-.1-.1-.1l-.2.2s0 .1.1.1c.1-.1.2-.1.2-.2zM228.9 109.1c-.1 0-.2.1-.2.1l.1.2c.1 0 .2-.1.2-.1 0-.1 0-.1-.1-.2zM252.8 110.5h.1l-.1-.2h-.1c0 .1 0 .1.1.2zM282.3 146.3s-.1-.1-.1 0l-.1.1c.1 0 .1 0 .2.1v-.2zM257.1 153.9c0-.1 0-.2-.1-.2l-.2.1v.1h.3zM195.9 204.2c-3.1 1-6.1 1.4-8.4 3.6-.6-.5-1.3-.9-2.3-.3.3.6.6 1.3 1 1.9.6.8.8 1.6.5 2.7-.2.6 0 1.3.2 2 .8 2.4.5 5 .6 7.4 0 .2 0 .4-.1.6-.9 1.3-.4 2.6-.1 3.9l.2.9c.2 1 .1 1.8-.7 2.6.7.6 1.3 1.1.7 2-.1.1-.1.3 0 .4.3 2.3.5 4.6.8 6.8 0 .1 0 .3.1.4.1 1.4-.2 1.6-1.9 1.6-.4.8-.8 1.7-1.2 2.6-.1.3-.1.6-.3.8-1.3 1-1.4 2.7-2.3 4v.4l1.2.1-.1.5c-.5.3-1.1.7-1.7.9-1.4.5-2.4 1.4-3.4 2.6-1.5 1.9-3.5 3.4-6 3.7-2.3.3-4.6.5-6.7.7-2.5-2.5-5.5-4.3-6.8-7.9-.4.5-.7.8-1.2 1.3-.3-.6-.6-1-.7-1.4-.2-1.4-.2-2.9-.3-4.3l.1-3.5-.2-2.9-.3-8.2c0-2.4 0-4.7.1-7.1 0-1-.2-1.9-.8-2.4.1-1 .1-1.9.4-2.7.6-1.3.4-2.4 0-3.6-.1-.3.1-.8.4-1 2.1-2.8 3.4-6 4.6-9.3.3-.8.7-1.4 1.5-1.9l1.1-.7c.3-.2.7-.3 1-.3.4-.1.9.1 1.3-.1 1.8-.8 3.7-1.4 5.6-1.7.2 0 .3-.2.6-.3-.2-.6-.4-1.1-.6-1.6.7-.5 1.2-.1 1.6.3.6.6 1.2.6 2 .4.8-.3 1.6-.4 2.5 0l-.3 1.4c2.2 1.9 3.8 4.5 6.4 6.3 0-.9-.1-1.6 0-2.2.2-.6.8-1.1 1.1-1.7.4-.9.8-1.9.9-2.9.2-1.3-.3-1.9-1.5-2.3 0-.8.4-1.2 1-1.6.6-.4 1.2-.9 1.7-1.3.8-.3 1.5-.5 2.2-.8.6-.2 1.2-.5 1.9-.7 1.2-.3 2.2-.8 3.3-1.3 1.7-.7 3.5-1.3 5.4-1.6 1.8-.3 3.6-.8 5.2-1.5 2.5-1.2 5.2-1.7 7.7-2.6 1.7-.6 3.5-.6 5.2-1.7 1-.6 2.4-1.1 3.7-.4.3.1.8 0 1.1 0h1.4c.1 1.1.1 2-.6 2.6-1.1 1-1.6 2.3-2.3 3.5-1 1.7-1.7 3.5-2.4 5.4-.3.9-.2 1.9-.4 2.8-.2 1.1-.3 1.2-1.4.9-.7-.2-1.4-.5-2.2-.8-.6 1.2-1.5 1.5-2.5.8-1.2.6-2.2 1.2-3.2 1.6-1.1.5-1.8 1.1-1.7 2.5.2 5-.3 9.9-.2 14.9 0 2.4-.1 4.7-.2 7.1v.7l.6 7.8c.2 1.6.7 2.9 2 4 1 .9 1.6 2.3 1.3 3.8-2.5.8-4.7 2.1-6.9 3.5-1.4.9-2.9 1.5-4.5 2.1-1.9.8-3.8 1.4-5.7 2-.4.1-.9.2-1.3.1-.7-.1-1-.7-.8-1.3l1.4-4.4c.3-.9.6-1.9 1.1-2.7 1.1-2.1 1.2-4.4 1.3-6.7.1-1.4.1-2.8.1-4.2l-.1-1.7.2-3.3v-12.2c0-1.9.1-3.8.2-5.6.1-.6-.1-1.2-.2-2.2zm9 4.3c-.4.2-1.1-.2-1.5.6.7.3 1.1-.2 1.5-.6.2-.6.7-1.2-.3-1.8.1.7.2 1.3.3 1.8zm8.2-14.7c-.5.5-1.2.8-1.3 1.7.5-.4.9-.9 1.4-1.4 0 0-.1-.2-.1-.3-.2-.1-.3-.3-.4-.4l-.2.2c.2 0 .4.1.6.2zm-18.6 6.7c-1 .5-1.6 1.4-2.2 2.5 1.1-.6 2-1.7 2.2-2.5.4 0 .8.1.5-.7-.1.3-.3.5-.5.7zm-32.2 22.8c.4-.2.9-.2 1.1-.5.7-.7 1.4-1.5 2.1-2.3.3-.4.6-.9.9-1.4l-.3-.2c-1.4 1.3-2.5 3-3.8 4.4-.2.3-.7.3-.6 1 .6-.2.7-.5.6-1zm9.2 16c.8-1.1 1.8-2 2.1-3.4l1-4.4c.3-1.3.5-2.5.7-3.8.2-1.1.3-2.3.4-3.5.2-2.7 0-5.4-1.7-7.7-.7-.9-1.6-1.2-2.4-.4-.6.5-1 1.2-1.6 1.8.3.4.5.7.7 1-.3.4-.6.8-.9 1.1-.7.6-1.2 1.3-1.3 2.2-.2 1.9-.5 3.8-.5 5.7.1 3.3.9 6.5 1.9 9.6.2.9.7 1.4 1.6 1.8zm5.1-17.8c-.1 0-.2 0-.3.1l-.2 2.4c-.1 1.4-.4 2.8-.4 4.2 0 1.6-.4 3.1-.9 4.6-.5 1.3-.7 2.7-.7 4.2.8-.8 1.6-1.5 1.7-2.6.1-1.8 1.7-3.2.9-5.1l.1-.3v-2.3c0-.4-.1-.8-.1-1.1.1-1.2.2-2.4.2-3.5 0-.2-.2-.4-.3-.6zm-9.6 14.5c-1.5 1-2.4 2.1-3.1 3.4-.5.9-1 1.5-2.1 1.4 0 0-.1.1-.2.3l.9 1.9c.6.2.8-.3 1.1-.7 1.3-1.5 2.4-3.2 4.2-4.4-.2-.5-.4-1-.8-1.9zm-1.6 18.3c-1.2-1.7-2.1-2.4-3.8-3 .6 1.3 1.7 2 2.7 2.8.3.2.7.2 1.1.2zm-6.3-13.8c.1.1.2.1.4.2.6-.7 1.2-1.5 1.8-2.3.1-.1 0-.4-.1-.6-.2 0-.6 0-.7.1-.4.4-.8.8-1.1 1.3-.2.4-.2.9-.3 1.3zm51.4-47.5c.4-.4.8-.7 1.1-1.1.3-.4.8-.8.7-1.5-1.1.8-2.1 1.6-3.1 2.4.5 0 .9.1 1.3.2zm-41.4 44.5c-.1-1.7-.5-3-1.3-3.8-.3 1.6.5 2.7 1.3 3.8zm-4.2-2.1c.6 0 1.1.1 1.8.1-.1-.7-.1-1.2-.2-1.7-1.1.1-1.3.7-1.6 1.6zm9.8 18.1c-1.1 0-2.2-.3-3.2.5 1.1.1 2.2.4 3.2-.5zm8.8-40c-1.4.8-2.1 1.7-2.2 2.7 1.1-.5 1.7-1.5 2.4-2.4.1 0-.1-.2-.2-.3zm8.3-18.5c-.4 0-.7 0-.8.1-.7.7-1.1 1.5-1.2 2.4.7-.7 1.5-1.2 2-2.5zm-31 47.3c-.6.2-1.4 0-1.3 1 0 .5.3.7.8.6.5-.1.7-.6.5-1.6zm20.4-10.4c-1.6.8-1.6.8-1.9 2.1.7-.5 1.6-.9 1.9-2.1zm-21.1-.1l-.5.1-.1 1.5.3.2c.3-.3.8-.5.8-.8.1-.3-.3-.7-.5-1zm22.5-1.4c1.6-.3 1.8-.5 1-1.5-.3.6-.7 1.1-1 1.5zm-16.2-6.2c-.6.3-1 .6-.8 1.1.1.1.4.3.6.2.6-.3.5-.7.2-1.3zm36.2-3.3c1.2-.9 1.2-1 .7-2-.3.7-.5 1.3-.7 2zm-30.5 19c1.4-.3 1.5-.4 1-1.4-.4.5-.7 1-1 1.4zm24.8-28.7c-.3 1.1-.3 1.1.1 2 .1-.7.3-1.3-.1-2zm7.1 19c.1-1 .1-1-.9-1.2l.9 1.2zm-1.9-16.3c1.2.2 1.2.2 1-.7-.4.3-.7.5-1 .7zm-.2 8.2c-1 .8-1 .8-.2 1.3 0-.5.1-.9.2-1.3zm-5.2-2h.1v-2.5h-.1v2.5zm-12.3 21c.3-.6.5-.9.6-1.2-.8-.1-1.2.1-.6 1.2zm23.7-1.7l-.2-.4-.8.3.3.6.7-.5zm-5.8-22.3l.3.1c.1-.3.3-.6.3-.9 0-.1-.1-.2-.3-.4-.1.5-.2.9-.3 1.2zm-41.8 2.9c.5-.1.9-.4.5-1-.1.4-.3.7-.5 1zm12.9 23.5l-.1-.1c-.2.2-.4.4-.7.6.1.1.2.2.2.3.3-.3.5-.6.6-.8zm32.2-34.4l-.3-.2-.3.6c.1 0 .3.2.3.1.2-.1.2-.3.3-.5zm-6.3 31.5l-.1-.3c-.1.1-.2.1-.2.2v.2l.3-.1zm-38.1-11.4h.2c0-.2.1-.4.1-.5 0 0-.2 0-.2-.1-.1.2-.1.4-.1.6zm22.1-17.2c-.2-.2-.3-.4-.4-.3l-.4.3c.1.1.2.3.3.3.2 0 .3-.1.5-.3zm19.7-8.3c-.2-.2-.4-.3-.4-.3-.1 0-.2.2-.2.3 0 .1.1.2.2.2 0 .1.2-.1.4-.2zm-2.4 16.8c0-.1 0-.2-.1-.3-.1-.1-.2-.1-.4-.1 0 .1 0 .3.1.3.1.1.3.1.4.1zm-15.7 1.9c-.2-.2-.3-.3-.4-.2l-.2.3.2.1c.2-.1.3-.1.4-.2zm-14.3 18.7l.3-.2-.2-.3-.2.1c0 .2.1.3.1.4zm-7.6-4.5l-.1.2.2.1.1-.1c-.1-.1-.2-.1-.2-.2zm15.4-9.6l-.3-.2-.2.3s.2.2.2.1c.1 0 .2-.1.3-.2zm23-14.5c0-.1.1-.2.1-.2l-.1-.1c0 .1-.1.2-.1.2l.1.1zm-4.4-2.3l-.1-.2h-.1v.2c.1.1.2 0 .2 0zm.1-4.2h-.2v.7h.2v-.7zm16.7-11l-.2.2.1.2.1-.2c.1 0 .1-.1 0-.2zm-21.6 1.7l.3.1c0-.2.1-.4.1-.5-.1 0-.1 0-.2-.1 0 .2-.1.3-.2.5zm-8.1 19.6l.2.2s.1-.1 0-.1c0-.1-.1-.1-.2-.2v.1zm12.8-1.6h-.2c0 .2.1.4.1.5h.2c-.1-.2-.1-.3-.1-.5zM340.6 120.5l-.8-2.4c-.1-.2-.2-.5-.2-.7.5-1.8-.9-3.1-1.4-4.6-.2-.8-.7-1.5-1.9-1.4.6-1.6-.5-2.4-1.3-3.4-.3-.4-.6-1-.9-1.5-.8.1-1.1.7-1.8 1.4.6.4 1 .7 1.5 1-.1.4-.1.8-.3.9-1.8 1.6-1.2 3.7-1.3 5.6 0 1 0 2 .4 3 .3.8-.2 1.6.1 2.5.3.9.3 1.9.3 2.8.1.8.1 1.6.1 2.4 0 .8.3 1.5.8 2.1.7.9 1.5 1.7 2.4 2.8l-1.4.6c-1.2.2-2.3.6-3 1.7-.3.4-1 .6-1.7.9 0-.5 0-.7.1-1l-.7-.1c-1.9.5-3.9 1-5.8 1.6-1 .3-2 .9-3 1.3-.3.1-.7.1-1.1.1-1.1 0-2.1.1-2.9 1-.3.4-.7.6-1.1.3-.4-.4-.2-.7 0-1.1.7-1.1 1.4-2.2 2-3.3.7-1.3 1.1-2.6 1.3-4 .2-1.1.1-2.2.1-3.3v-3.3c0-.1-.1-.2 0-.3l.4-6.6-.1-3.2c0-1.9.1-3.8.1-5.8l.1-9.8c0-1.4.4-2.8.2-4.1-.2-1.9.3-3.7.2-5.6-.1-1.7-.6-3.1-2-4.2-.5-.3-.9-.8-1.3-1.1-.6-.4-.7-.9-.5-1.4 1.3-.3 2.5-.5 3.7-.9.8-.3 1.5-.7 2.3-.9 1.8-.6 3.5-1.5 5.3-2.3 1.9-.8 3.9-1.6 6.1-2.5 0-.1.2-.5.4-1 .2.1.4.1.4.2.1 1 .4 2.1.3 3.1-.2 1.9-.1 3.7.8 5.4 1.5 3 2.4 6.2 3.6 9.3.5 1.3 1.1 2.5 1.7 3.7.1.1.1.3.2.3.9.2.8 1 .8 1.6.1.6.1 1.2.2 1.7 0 .2.3.4.5.7.2-.4.4-.6.4-.8 0-1.8-.1-3.6-.1-5.3 0-.4 0-.9.1-1.3.3-.6.2-1.1-.1-1.6-.1-.2-.2-.5-.1-.8.5-2.3.7-4.5.5-6.9-.1-.7 0-1.5 0-2.6-.5.4-.8.7-1.4 1.2.1-1.3.1-2.5.2-3.6.1-.7 0-1.3-.4-1.9-.3-.4-.5-.9-.7-1.4-.3-.7.5-.9.7-1.3.2-.4.4-.9.7-1.3.5.4 1.1.4 1.8.2 2.5-.7 5-1.5 7.5-2.1 1.1-.3 2.1-.5 3.1-1.1.6-.3 1.6-.1 2.4-.1.5.6.3 1.2-.1 1.7-.7.9-.9 2-1 3.1l-.8 5.3c-.1 1-.1 2.1-.1 3.2 0 .3.4.6.6.9l1.1.6c-1.1 1.1-1.6 2.3-1.8 3.7-.1.6-.2 1.3-.1 1.9.5 2.2.2 4.3-.2 6.4-.1.5-.2 1.2 0 1.7.3.7 0 1.1-.4 1.5.9 1.1.8 1.8.2 3.1-.4.9-.4 1.9-.4 2.9 0 1.2.2 2.5.3 3.7l.2 2.9c0 .2.1.4.2.7.1.3.3.5.3.8 0 1.4.1 2.9-.1 4.3-.1.9 0 1.7.4 2.4.6.9 1.4 1.8 2.1 2.8.7.9.5 2.1.8 3.4-.9-.4-1.4-.6-2.1-.1-.5.4-1.1.6-1.4 1.3-.3.9-.7 1.1-1.5.9-.9-.2-1.7.1-2.5.5-.5.3-1.1.5-1.6.6-1 .1-1.9.4-2.5 1.2l-.7.4h-.1c-.7-.2-1.1.7-1.6.7l-1.7-.4c-.4 0-.8.3-1.2.4-.4.1-.9 0-1.2-.1-.8-.4-.8-.9-.3-1.6 1-1.4 1.6-3 2-4.6.3-1 .1-1.8-.5-2.6 0-.6-.4-.8-.8-1.1zm-16.4-5.6c1.8-1.7 2.7-3.7 2.2-4.9-.6.7-.9 1.7-2.2 1.2.1-.3.2-.6.3-1l-1.7-.2c-.1.7-.3 1.4-.1 1.8.3.5 1 .7 1.4 1 .2.7-.6 1.4.1 2.1zm11.3-15c.8-1.4 1.4-2.5 2-3.6v-.3c.1-.7.2-1.3.3-1.9.1-.5.2-1-.5-1.3-.3.5-.7 1-.9 1.5-.4 1.5-.8 3.1-1.1 4.6 0 .2.1.5.2 1zm-.9-5.4c.4-1.6.8-3 1.1-4.4-1.3.9-1.8 2.4-2.7 3.7.5.2 1 .4 1.6.7zm-9 35.2l.3.3 1.1-.9c1.1-.9 1.6-2.4 3-3 .5-.2.5-.7.1-1.2-2 1.1-2.8 3.3-4.5 4.8zm4.3-8.8c-.9 1.3-1.7 2.4-2.5 3.6 1.5-.7 2.5-1.8 3.3-3.3-.5-.2-.7-.3-.8-.3zm1.2-17.5c-.5.7-1 1.2-1.3 1.7.3.6.6 1.2.8 1.7.7-.7.9-1.7.5-3.4zm9.3 5.3c-.7.9-1.2 1.6-1.8 2.5 1.3-.2 1.7-.7 1.8-2.5zm-11.1-7.3l-1.4 2.4c.9-.6 1.9-1.1 1.4-2.4zm.6-8.5c1.3-.4 1.5-.6 1.3-1.8-.5.7-.9 1.3-1.3 1.8zm15-3.2l.3.3 1.8-2.5c-1.4.2-1.5 1.4-2.1 2.2zm-12.1-.4c2-.7 2-.7 1.9-1.3-.7.2-1.4.4-1.9 1.3zm-3.6.9c1-.5 1.1-.7.9-1.5-.8.6-.8.6-.9 1.5zm17 3.4c-.8 0-1.3.3-1.5 1l.3.8c.5-.7.9-1.2 1.2-1.8zm6.5-7c-.8.8-.8.8-.9 2.2.7-.7.9-1.3.9-2.2zm-24.7 9.6l-.3-.2-.9 1.3c.9 0 1.2-.4 1.2-1.1zm2.3 31.8c-.5.6-1 .8-1 1.4.9-.4.9-.4 1-1.4zm-.4-47.3l-.3-.1c-.3.6-.6 1.2-.8 1.8.1.1.2.1.4.2.5-.5.7-1.2.7-1.9zm23.2 3.7c-.5.1-.8.3-.7.8 0 .1.3.3.4.2.4-.1.6-.4.3-1zm-21.5 1.9l-.6 1.5c.1.1.2.1.4.2.2-.5.9-.8.2-1.7zm9.9 26.7l.3.2c.2-.6.3-1.2.5-1.9-.9.3-.6 1.1-.8 1.7zm-.8-11.5c0-.7 0-.7-1-1 .2.5.3 1.1 1 1zm8.5 23.3h-.4v1.2h.3c.1-.4.1-.8.1-1.2zm-16.2-26.5c.5-.6.3-.9-.2-1.2-.4.6-.3.9.2 1.2zm-2.3 16.5c.2-.3.4-.5.4-.6 0-.2-.2-.4-.4-.5-.1.2-.4.3-.4.5 0 0 .2.2.4.6zm20.3-2.9c-1 .3-1 .3-.8 1 .3-.4.5-.7.8-1zm-27-15.7l-.3-.2-.4.5c-.1.2-.1.5-.1.7h.2c.2-.2.4-.6.6-1zm4.1 23.6l.3.3c.2-.2.4-.5.7-.7l-.2-.2c-.3.1-.5.3-.8.6zm25.1-24.5c-.2-.1-.3-.2-.4-.2l-.3.2c.1.1.2.2.3.2.2.1.3-.1.4-.2zm-2.6-15.2l-.3-.1c-.1.3-.6.5-.2 1.2l.5-1.1zm-23.9 18.3l-.1-.2c-.2 0-.4 0-.5.1-.1.1-.2.3-.2.5l.2.1c.2-.1.4-.3.6-.5zm12.4-.5c-.1-.2-.2-.4-.3-.4-.1 0-.3.1-.4.2l.3.3c.1 0 .2-.1.4-.1zm-18.2 36.1c.7-.1.9-.4.3-.9l-.3.9zm22.5-56.7h-.4v.8h.3c.1-.2.1-.5.1-.8zm2.9 38.4c-.4.6-.4.6-.2 1.2.1-.5.1-.8.2-1.2zm3.8-15.4c-.1 0-.1 0-.2-.1-.1.2-.1.4-.2.5 0 0 .2.1.3.1 0-.1.1-.3.1-.5zm-.7-16.1c-.2-.1-.3-.2-.4-.2-.1 0-.2.2-.2.3.1.1.2.2.3.2.1 0 .2-.1.3-.3zm-24.9 21c.1 0 .2-.1.2-.1l-.2-.6c-.1 0-.1 0-.2.1.1.2.2.4.2.6zm-2.2 22.8l-.1.2.1.2c.1-.1.1-.2.2-.2l-.2-.2zm4.9-6.7l-.3.3c0 .1.1.2.2.3.1-.1.2-.2.2-.3.1-.1 0-.2-.1-.3zm2.6-35.8l.1-.1-.1-.2-.1.1.1.2zM138.1 265.3c-.8 1-2.1.7-3 1.3-.6-.7-1.2-1.1-2-.3.2.2.4.3.5.4-.1.1-.1.2-.2.2-1.7.8-3.3 1.5-5.1 1.9-1.6.3-3.2 1-4.9 1.4l-4.8 1.1c-.2 0-.5.1-.7 0-.8-.3-1.3 0-1.7.6-.9-.2-.8-.8-.6-1.3.4-.9.9-1.8 1.4-2.7 1.1-2.2 1.7-4.5 1.4-6.9-.3-1.7-.1-3.4-.1-5.1l.2-9c0-2.1-.1-4.2 0-6.4.1-4.1.4-8.3.6-12.4 0-1.2.4-2.5-.3-3.7-.1-.2 0-.7.1-1 .6-1.4 0-2.5-1-3.5-.6-.6-1.1-1.3-1.6-2.1-.7-1.2-.4-1.6.9-1.8 1.2-.2 2.4-.4 3.5-.7.5-.1.9-.3 1.3-.6.9-.6 1.8-1.3 2.9-1.4.3 0 .5-.2.8-.4 1.6-1.2 3.5-1.6 5.4-1.9.7-.1.9.4.8.9-.5 2-.2 4-.1 6 0 .4.1.8.3 1.1 2.2 2.7 3.5 5.9 5.4 8.7 1 1.4 2 2.7 3.1 4.1.6-1.2.8-2.2.8-3.4-.2-3.4-.2-6.8-.3-10.2 0-.4 0-.8.1-1.2.5-2.2-.4-3.9-2-5.4l-1.2-1.2c.6-1.3 1.6-1.7 2.8-2.1 3-.9 5.9-1.9 8.8-2.9.7-.2 1.2-.8 1.8-1.1.4-.2 1-.6 1.4-.5 1.2.2 2.4.2 3.6-.1.2-.1.4 0 .7 0-.2.4-.4.8-.6 1-1.5 1.9-2.2 4.1-2.7 6.5-.3 1.4-.1 2.8-.1 4.2-.1 3.2-.2 6.4-.4 9.6-.2 5.7-.5 11.5-.8 17.2-.1 1.6-.1 3.2-.1 4.8 0 1.9.7 3.7 1.5 5.4l3 6.2c.1.2.2.4.2.6-.6.7-1.2.2-1.8-.1-.9 1.2-2.3 1.3-3.6 1.7-.7.2-1.3.5-2 .8-.3.1-.8.4-1.1.3-.9-.4-1.6.1-2.3.6-1.3.9-2.8 1.3-4.3 1.5-.9.1-1.9-.5-2.7-1-.2-.1-.2-.8-.1-1.2l1.4-4.5c.1-.5.1-1.1 0-1.7 0-.4-.4-.8-.3-1.2.1-1.9-.8-3.4-1.9-4.9-1.2-1.7-2.3-3.5-3.5-5.3-.8-1.2-1.7-2.4-2.6-3.6l-.9-1.3c-.6.3-.7.7-.7 1.3.1 1.8.2 3.6.2 5.4l-.2 1.7c0 .9-.7 1.9.6 2.5.1.1.3.3.3.5l.5 5.6c0 .5 0 1-.7.9-.6-1.3 0-2.9-.8-4.4-.2.3-.3.4-.3.5l-.1 6.3c0 1.8 1.1 3.2 2.5 4.2.9.7 1.8 1.3 2.8 1.9 1.2 0 1.9-.2 2.6-.4zm-4.6-34.7c.4-.1 1 .4 1.2-.6-.5.2-.9.4-1.2.6.5-.6.9-1.2 1.4-1.7-1.4 0-1.4 0-1.4 1.3-.1.1-.1.2 0 .4zm16.1 7.9l-.3-.2c-.3.3-.7.6-.7.9 0 1.5-1.1 2.9-.4 4.4.8.2.9-.4 1-.9.2-1.3.3-2.8.4-4.2zm-29.7 21.5l.3.2c.2-.1.4-.3.5-.4l2.9-4.5c.2-.4.4-.8-.1-1.3-1.1 2.1-3.1 3.6-3.6 6zm23.8-24.2c1.3-1.8 1.5-3 .7-4-1.1 2.3-1.1 2.5-.7 4zm4.4 11.8l.4.2 1.6-1.8c.3-.4.3-.8-.2-1.1-.5-.4-.9 0-1 .4-.3.7-.5 1.5-.8 2.3zm-8.7-11.1c-1.6.6-2.1 2-1.3 3.7.5-1.1.9-2.2 1.3-3.3v-.4zm-1.8-2.9c-.4.6-.7 1-1 1.5-.3.5-.3 1.1-.2 1.8.6-.8 1.1-1.4 1.6-2 .3-.5.4-1-.4-1.3zm-10.8-7.8c0-1 .9-1.5 1.3-2.3.1-.2.2-.4.2-.5 0-.5-.3-.7-.8-.4.2.6.2 1.1-.6 1.5-.7.2-.7 1-.1 1.7zm18.6-14.3c-.7.4-1.1.6-1.6.8.8.7 1.2.9 1.5.5.2-.2.1-.6.1-1.3zm-.4 41.2c.7-.1 1-.7 1.3-1.2.1-.1 0-.4 0-.7-1.2.5-1.2.5-1.3 1.9zm-23-23.7c-.2-.6-.5-.9-1.1-.6-.1.1-.2.4-.2.5.3.5.7.4 1.3.1zm29.4-.2c.3-1.5.2-1.6-.7-1.6.3.5.4.9.7 1.6zm-17.6 6.8l.3.1c.2-.5.4-1 .6-1.4-.8.2-.9.8-.9 1.3zm16.8-10.1h-.4c-.3.3-.3.6.3 1.1 0-.4.1-.8.1-1.1zm-25.8 4.8h.3c.1-.4.4-.8-.3-1.3v1.3zm10.8 2.3h-.3l.1.8h.3c-.1-.3-.1-.6-.1-.8zm-7.4 29.5c.7-.2.9-.5.5-1.3-.2.6-.4.9-.5 1.3zm.8-46.4c-.3-.2-.5-.4-.6-.4-.2 0-.3.3-.5.4.1.1.3.3.4.3.1 0 .3-.2.7-.3zm.3 3.8c-.1-.1-.1-.2-.2-.2-.2.2-.4.4-.6.5.1.1.1.2.2.2.2-.2.4-.4.6-.5zm17.6 9c-.1-.2-.3-.4-.3-.3l-.4.3s.1.3.2.3l.5-.3zm-3-12.3l.3.3c.3-.2.7-.2.5-.9l-.8.6zm-12.8 35.5l.3.3c.1-.1.1-.2.1-.2 0-.1-.1-.2-.2-.3l-.2.2zm-10.7-18.2h.3l.1-.8h-.3c0 .3 0 .6-.1.8zm4.8 19.7c.1.1.1.2.2.2.2-.2.4-.4.6-.5l-.2-.2c-.2.2-.4.4-.6.5zm22.1-26.6c-.2-.2-.4-.3-.5-.3 0 0-.2.1-.2.2l.3.3c.1 0 .2-.1.4-.2zm-1.5-5.3c-.1-.1-.2-.2-.3-.2l-.3.5.2.2c.2-.2.3-.3.4-.5zm2.3-6.1c-.1-.1-.2-.3-.3-.3-.1 0-.2.1-.3.2 0 0 .1.3.2.3.1.1.2 0 .4-.2zm1.5-7.6l.1.3.6-.4-.1-.2-.6.3zm-14 30.1l.3.2c0-.1.1-.2.1-.2l-.3-.2s-.1.1-.1.2zm16-18.9h.3l-.1-.6c-.1 0-.2 0-.2.1-.1.2-.1.4 0 .5zm-7.9 27.5l-.2-.1-.4.7.2.1c.1-.3.2-.5.4-.7zm.8 1.2c.1-.1.2-.2.2-.3 0 0-.1-.1-.1-.2-.1.1-.2.2-.2.3-.1 0 0 .1.1.2zm2.8 7.4c-.1-.1-.2-.2-.3-.4l-.5.5.3.3c.1-.1.3-.3.5-.4zm-24-36.9l-.2-.1c-.1 0-.1.1-.1.2l.2.1c0-.1 0-.2.1-.2zm.5 23.9l.2-.2-.2-.1-.1.1c.1.1.1.2.1.2zM71.9 255.8c-1.7.1-1.9.2-2.1 1.8-.1.5 0 1 0 1.4v8.2c0 .3-.1.6-.1.8-.3-.4-.3-1-1-1 .1.7.1.7 1 1 .2 3 .4 6 .5 9 0 .8.3 1.3.7 1.8l2.1 2.6c.3.5.6 1 .8 1.4-.1.2-.1.3-.2.4-1.3.5-2.6 1.2-4 1.5-1.1.3-2 .7-2.2 2.1l-1-.9c-2.9 1.1-6.1 1.7-8.6 4.2-.7-.6-1.6-.6-2.5-.4-.6.1-1.2-.1-1.9-.2.1-.5.2-.8.3-1.1l2.4-6.5c.8-2 .7-4.1.9-6.1.1-.9.1-1.9.1-3 .7.8.7.8.6 2.2v4.4c.1 0 .2 0 .3.1.1-.3.3-.5.3-.8.3-2.6.1-7.3-.5-8.6-.2.6-.3 1-.4 1.4h-.2c-.1-.4-.2-.9-.2-1.3l.3-23.1c0-1.6.1-3.3.2-4.9 0-1.4-.2-2.6-1.4-3.7-.9-.8-1.6-1.9-2.1-3.2.4-.1.8-.2 1.1-.2.6 0 1-.2 1.4-.7.6-.6 1.3-1.1 2.3-1.1.5 0 .9-.2 1.4-.3 2-.5 4-1 6-1.6 1.6-.5 3.2-.3 4.7-.2.2 0 .4.2.6.3-.4.8-.7 1.6-1 2.4-.3.8-.4 1.6.2 2.4 1.2 1.6 2.3 3.2 3.4 4.9.2.2.3.5.4.8.4.7.8 1.3 1.4 2.2-.1 0-.5.2-.8.3.1.1.2.2.2.3.4-.1.8-.2 1.3-.3.1.1.3.2.5.3.8.5 1.3.4 1.7-.3.7-1.2 1.3-2.5 2-3.8l.9-1.5c.6-.9 1.2-1.7 1.4-2.8.1-.4.4-.8.6-1.2l.8-1.7c.2-.5.5-.9.8-1.3.8-1.4.8-2.8-.5-3.5-.1 0-.2-.1-.2-.2-1.1-1-1-1.9.4-2.4 1.2-.4 2.5-.7 3.6-1.5.1-.1.3-.1.4-.1 3 0 5.8-1.2 8.7-2 .8-.2 1.6-.6 2.5-.9 1-.3 2-.4 2.7.3.8.8.3 1.9 0 2.9 0 .2-.2.4-.4.6-.7.6-.9 1.4-1 2.3-.1.6-.2 1.2-.4 1.7-.6 1.7-.5 3.5-.5 5.3 0 2.8.1 5.6-.3 8.4-.3 1.7-.1 3.5-.1 5.2 0 2.8-.1 5.6.1 8.4.1 2.2.1 4.5.8 6.7.4 1.1.7 2.4.3 3.7-.2.6.2 1.5.6 2.1.6.9 1.4 1.7 2.1 2.6.5.6 1.1 1.2 1.7 1.9l-.8.4c-.1.1-.4.1-.4.1.1 1.5-1.1 1-1.8 1.2-1.2.4-2.5.7-3.7 1-.9.3-1.8.6-2.7.8-1.9.3-3.6.9-5.4 1.7-1.3.5-2.5.9-3.9 1-1.2.1-2.1-.8-1.8-2 .1-.6.3-1.1.6-1.6.9-1.6 1.2-3.4 1.2-5.3 0-3.3.1-6.7.2-10 0-.8-.2-1.5-.3-2.3 0-.3-.1-.7 0-1 .7-1.7.4-3.5.2-5.3-1.1 0-2 .7-2.3 1.9-.3 1-.6 2.1-2.1 2.4l-.4-.7c-.7.4-1.3.8-2.1 1.3-.8-.3-1.7-.4-2.4.4-.9-.3-1.6-.6-2.4-.8-.2-.1-.5-.2-.6-.4-.4-1.3-1.8-1.3-2.6-2 0 0-.2 0-.5.1-.1.5 0 .9.1 1.2zm-5.4-20.1l-.9-.2v.4c.3 0 .6-.1.9-.2-.2.4-.4.9-.7 1.6 1.1-.5 1.9-.9 2.7-1.3-.8-.8-.8-.8-2-.3zm-2.2 38.7c.2.2.4.5.7.7.1-.1.2-.2.2-.3-.3-.1-.6-.2-.9-.4.3-.6.6-1.4 1-2 .5-.8 1-1.5 1.6-2.2.6-.7.6-.7-.5-1.4l-1.3 2.3c-.4 1-.8 2-1.1 2.9-.1.2.2.3.3.4zm0-6.2c-.4.4-1 .8-.5 1.6.2-.5.4-1.1.5-1.6.5-1.2 1.1-2.2 2.2-2.9.1-1.3.3-2.5 1.9-2.8.2 0 .4-.4.6-.6-.7-.1-1.3 0-1.7.3-.5.3-1.3.7-1.3 1.2-.2 1-.9 1.6-1.2 2.3l-1 1.9c-.2.5.2.6.5.6zm11.6-17.2l.2.3c.6.6 1.1.6 1.6.2.5-.4.5-.9-.1-1.5-.3-.4-.7-.7-1.1-.9-.4-.2-1.1-.2-1.3 0-.6.6-1.4.9-2.2.9.1.8.2 1.4.3 2.1 1.2 0 1.9 1 2.6 1.9.8-.2 1.4-.4 1.8-1.3-1.8.7-2.4-.7-3.5-1.3.8-.5.8-.5 1.7-.4zm-14.7 9.6c.3.3.7.6 1.1.9-.1.2-.3.6-.5.9.8-.1 1.5-.1 2.1-.2-.3-1.1-.2-1 .4-2.1.6-1.1 1.2-2.2 1.7-3.3.1-.2 0-.6 0-.9l-.3-.1-1.6 2.6-.3-.1c.4-1 .8-2.1 1.1-3 .5-.3 1.1-.4 1.2-.7.1-.3-.3-.8-.4-1.1.2-.5.4-1 .5-1.4-.1-.1-.2-.2-.3-.2-.5.3-1 .5-1.4.9-.3.4-.5 1-.7 1.5l-.3-.9c-.3.1-.5.2-.8.4l-.2-.9c-.7.5-1.2.9-.9 1.8.3 0 .6.1.8.1.2 1.1-.4 1.6-1.5 2 .8.7.9 1.4.4 2.2-.3-.1-.6-.2-.8-.2l-1.2 4.4c.6-.3 1.2-.6 1.3-1.5.1-.6.4-.8.6-1.1zm34.5-23.5c-.2 1.2-.8 1.7-1.4 2.3-.4-.3-.7-.5-1-.8-.4.8-.7 1.5-1 2.2.8.5.7 1.2.3 1.9l-.2.4c-.4.7-.4 1.3.4 1.7.2.1.2.5.3.7 1.2-1 .3-2.7 1.7-3.1-.3-.8-.5-1.4.1-2.1.6-.7 1-1.7 1.4-2.6.3-.6.5-1.3.7-2.1-.7-.3-1.6-.6-2.6-1.1.3 1.3-.9 2.2-.1 3.3l1.4-.7zm-21.3 9.8c-1.4-1 .3-2.2-.3-3.3-.9.4-1.6.9-2.2 1.6l-.6.6c-.9.5-.9.5-.5 1.7h2.3c-.2.4-.3.9-.5 1.5.6-.3 1-.4 1.3-.6.2.3.3.5.5 1 .5-1.3 1.3-2.2 1.2-3.8-.6.6-.9.9-1.2 1.3zm12.5-9.1c-.8 1.2-.5 2.5-1.2 3.4-.7.9-1.5 1.8-2.1 2.7.2.8.4 1.5.7 2.5l.6-1.1c.2-.3.5-.7.8-.8 1.2-.1 1.4-.9 1.4-1.9 0-.4.2-.7.3-1.1.1-.3.2-.6.1-.8-.4-.6-.3-1.2-.3-1.8 0-.2-.2-.5-.3-1.1zm-6.8 16c.4-.1.5-.2.7-.3.6-.2.8-.6.5-1.1-.3-.5-.7-.6-1.2-.2-.2.2-.7 0-1 0h-.5c.1.5.1.9.2 1.2-.4.2-.6.4-1 .5.2.4.4.6.5.9.3-.2.6-.3 1-.5v1.8c1-.7 1.4-1.3.8-2.3zm-16.5 31.5c.7-.3 1.6-.7 1.6-1.3 0-1.2.8-1.9 1.3-2.8l.2-.4c-.3-.2-.6-.4-1-.6-.5.9-1 1.6-1.3 2.5-.3.8-1.3 1.4-.8 2.6zm19.4-38.2c-1.4.4-1.9 1.4-2.2 2.5 1.7.7 1.9.6 3.1-1.5l-.9-1zm-19.6 33.1c-.4.5-1 1-1.3 1.6-.6 1-1.1 2.1-1.7 3.2-.1.2-.2.5-.2.7 0 .2.3.4.4.5.2 0 .6-.1.6-.2.3-.8.5-1.7.8-2.6.2-.5.3-1.1.6-1.3 1.1-.7 1.2-.6.8-1.9zm.8-.5c2.1-1.3 2.5-1.9 2.6-3.1-.5-.3-.8 0-1 .4-.2.3-.4.8-.6.8-.3.1-.7-.3-1.1-.5-.1.2-.2.5-.2.7.2.3.5.5.8.8l-.5.9zm28-43.4c-2.4 2-2.4 2.6-2 4 .8-1.5 1.7-2.6 2-4zm-20.2 3.7c-1.6.1-2.1.8-1.6 2.6h.3c.4-.9.8-1.8 1.3-2.6zm-8.7 36.1l-.3-.2c-.6 1.1-.7 2.3-1.4 3.5 1.4-.6 1.4-.6 1.5-1.7 0-.5.1-1 .2-1.6zm25.6-25.5c-.5 1.3-.6 3-.3 3.6.6-1.2.9-2.6.8-3.1-.1-.2-.3-.3-.5-.5zm-27.7 22.1c.7.2 1.2-.1 1.9-1.3-1.7-.9-1.1 1.1-1.9 1.3zm-.4 2.4c-1.5.6-1.5.6-.9 1.7l.9-1.7zm6.2-18.2c-.3.6-.5 1-.8 1.5.3.2.6.3.8.4 0 0 .1-.1.3-.2 0-.5-.1-1-.3-1.7zm31.9 10.8c.2-.6.2-1.1-.5-1.3-.1 0-.4.3-.4.5-.1.6.3.9.9.8zm-8.8-33.6c.2 0 .4-.1.5-.1l-.3-1.1c-.1 0-.2.1-.4.1.1.3.1.7.2 1.1zm-28 3.4c.3-.6.9-1.1.7-2.1-.8.6-.8 1.4-.7 2.1zm31.2-3.8c-.7.6-.7.6-.4 1.3.5-.3.7-.7.4-1.3zm2.5-4.9c-.5-.4-.8-.7-1.2-1-.2 1.3-.1 1.3 1.2 1zm-1.7-2.9c-.7 0-1.1.3-1.3 1 .6 0 1-.2 1.3-1zm-32.7 19c-.5.1-.9.4-.9 1.1.8 0 .8-.6.9-1.1zm31.3-15.3c0 .1 0 .2.1.3.4 0 .8.2 1.3-.6-.7.2-1.1.2-1.4.3zm2.8 33.4l-.3-.2c-.4.1-.7.4-.3 1.1.2-.4.4-.7.6-.9zm-31.6-12.5c-.5.6-.4 1 .2 1.3-.1-.3-.1-.7-.2-1.3zm.6-10.8l.4.1.5-1.2-.3-.1-.6 1.2zm26.2-12.5l-.3.5.2.3.4-.5-.3-.3zm2.9 5l-.1.2.6.3.1-.3-.6-.2zm-32.5 19.5l.3.3.6-.6-.3-.3-.6.6zm27.7 11.7h-.4v.8h.5c0-.3 0-.6-.1-.8zm-28.1 1.5h-.3l.1.8h.2v-.8zm17.1-9.4h-.3l.1.6c.1 0 .2 0 .2-.1.1-.1 0-.3 0-.5zm21.1 14.5c-.8-.1-.8-.1-.7.6.3-.3.5-.5.7-.6zm-35.1-34.6l.2-.3-.6-.5-.1.2c.1.3.3.5.5.6zm16.2 15.8v-.2c-.2 0-.4-.1-.7-.1v.2c.2.1.5.1.7.1zm-8.5-2.1l.3.1c0-.2.1-.4.1-.7h-.2c-.1.2-.2.4-.2.6zm-4.9 24.5c.2-.2.3-.3.4-.5 0 0-.2-.2-.3-.2-.1 0-.3.1-.3.2s.1.3.2.5zm15.5-19.5c-.1.2-.2.3-.2.4 0 .1.2.3.2.3l.4-.3c-.1-.2-.2-.2-.4-.4zm-21.3 16.8c.1 0 .2-.1.2-.1 0-.1-.1-.2-.1-.2-.1 0-.2.1-.2.1s.1.1.1.2zm7.5.2c.1-.1.2-.3.2-.3-.1-.1-.2-.2-.3-.2-.1 0-.2.2-.2.2 0 .1.1.2.3.3zm.6-10.9c-.1-.1-.2-.2-.3-.2 0 0-.2.1-.2.2.1.1.2.2.2.3l.3-.3zm21.9 16.5l-.3-.3-.2.1.1.3c.1.1.2 0 .4-.1zm-23.9-37.6l-.2-.2c-.1 0-.2.1-.3.2l.2.3.3-.3zm23.6 8.2c-.1 0-.2.1-.2.1 0 .1 0 .2.1.2l.3-.1-.2-.2zm-21.9-5c0-.1-.1-.2-.1-.2-.1 0-.2.1-.2.1 0 .1 0 .1.1.2 0 0 .1-.1.2-.1zm-3 17.2c.1-.1.2-.2.2-.3 0 0-.2-.2-.2-.1-.1.1-.2.2-.2.3.1-.1.2 0 .2.1zm24.7-24.3c-.1 0-.2-.1-.2-.1-.1.1-.1.2-.1.2.1 0 .2.1.2.1.1-.1.1-.2.1-.2zm-16 18.3c-.3.1-.4.1-.4.1v.4c.1-.1.2-.2.4-.5zm-8-13l-.2-.1c-.1 0-.1.1-.2.2.1.1.2.1.2.2l.2-.3zm20.3-12.4c-.2-.2-.3-.3-.4-.3l-.4.3c.1.1.2.3.2.3.2-.1.3-.2.6-.3zm-15.3 25c-.1-.1-.1-.2-.2-.2s-.1.1-.2.2c.1.1.2.1.2.2.2 0 .2-.1.2-.2zm20.9-6.3l.2-.1s0-.1-.1-.1-.2 0-.2.1l.1.1zm-23.4-2.7c-.1-.1-.1-.1-.2-.1 0 .1.1.2.2.1-.1.1 0 .1 0 0zm2.1 38.1l-.4-.3c-.1 0-.2.1-.3.2.1.1.1.2.2.2.2 0 .3 0 .5-.1zm-2.7-9.5c0 .1.1.2.1.2.1 0 .2-.1.2-.1l-.1-.3-.2.2zm27.7-45.6c-.2 0-.4-.1-.4-.1 0 .1-.1.2-.1.4.1-.1.2-.2.5-.3zm-27.5 42l-.1-.2c-.1 0-.2.1-.2.2l.1.2c.1-.1.1-.2.2-.2zm-9.5 17.5v.1h.1c0-.1 0-.1-.1-.2.1 0 0 .1 0 .1zM561.9 130.3c.3.5.4.7.7 1.1-1.6.6-2.3 2-3.2 3.3-1.9-.3-3.5.8-5.2 1.4l-5.1 1.9c-1.6.6-3.3 1.1-4.9 1.6-.7.2-1.2.2-1.8-.3-.7-.6-1.6-1-2.5-1.2-2.6-.8-4.5-2.3-5.8-4.6-.1-.2-.2-.3-.4-.4-1-.6-1.2-1.5-1.2-2.6 0-.4-.3-.8-.5-1.1-.3-.4-.8-.8-1.3-1.3.7-.2 1.1-.3 1.5-.4-.1-1.2-.1-2.3-.2-3.4-.1-.7-.2-1.4-.2-2.2l-.7-6.7c-.1-.7-.2-1.3-.4-2-.4-2.1-.1-4.2-.2-6.3-.1-2.3.4-4.6.1-6.9-.2-1.7-.1-3.3.5-4.9l.8-2.4c.7-1.9 1.4-3.7 2.1-5.5.7-1.9 1.7-3.6 2.8-5.1.2-.3.5-.5.8-.6 1-.2 1.5-.9 2.3-1.5l2.1-1.5c.6-.4 1.2-.7 1.9-1.1-.1 1.2-1.3 1.1-1.7 1.9 1 .5 1.8-.2 2.6-.4l2.5-.6c.9-.2 1.7-.5 2.5-1-1.1.2-2.2.3-3.4.5v-.5c2.1-.8 4.2-1.4 6.5-.8.3.1.6.2.8.3 1.5 1.2 2.9 2.4 4.4 3.5l3 2c.6.4 1.2.8 1.7 1.3.6.7 1 1.6 1.9 2.2.3.2.4.8.4 1.2l.2 2c.6 2.2.7 4.5.7 6.7 0 1.1 0 2.1.1 3.2l1.2 13.8c.1 1.5-.1 3.1-.1 4.6 0 .4-.1.8-.1 1.1.1.6.1 1.1-.5 1.5-.1.1-.3.3-.3.5-.1 1.3-.8 2.5-.8 3.7 0 1.2-.6 1.9-1.1 2.8-.9 1.1-1.8 2.1-2.5 3.2zm-19.3-13.2c1.1-.5 1.1.3 1.3.9l1.1 2.8.3.9c.1.9.5 1.3 1.4 1.3 2.2.1 5.1-2 5.7-4.2.9-3.2 1.4-6.4 1.5-9.7 0-1.4 0-2.9-.1-4.3-.2-1.6-.5-3.2-.8-4.8-.3-2-.6-4.1-1.9-5.8-.1-.2-.3-.4-.3-.6-.1-1.4-1.3-1.8-2.1-2.5-.7-.6-1.7-.5-2 .2-1 2.1-2.3 4.1-2.8 6.3-.7 3.1-.9 6.4-.6 9.6.2 2.2.1 4.4.1 6.6l-.1.5h-.2l-.6-4.2h-.3c0 2.2.2 4.5.4 7zm-1.5-6.1l-.3.8c.1 2.4.1 4.7.3 7.1 0 .5.2.9.8 1.1-.3-3-.5-5.9-.8-9zm-.5 26c-1.5-1.4-2.8-2.6-4.2-3.6-.1-.1-.4 0-.6.1.6 1.9 2.1 3 4.8 3.5zm10.6-4c-1.6.6-4.1 2.4-4.5 3.2 1.7 0 2.7-.7 4.5-3.2zm12.6-13.7c.8-.6.8-.6.8-1.1-.2-1.2-.4-2.4-.7-3.9-.6 1.7-.6 3.8-.1 5zm-16.7 6.2c1.1 1.1 1.8 1.1 2.9.5.6-.3.7-.7.3-1.4-1 .2-2 .5-3.2.9zm7.3-42.8c-.8-.3-1.1-.3-1.6.2-.6.7-1.8 1-1.6 2.3 1.5-.8 2.8-1.8 3.2-2.5zm-19.5 39.7c1.2-.7 2.2-1.5 2.5-2.9-.9 1-2.3 1.4-2.5 2.9zm28.4-27.9c0 .1.1.2.1.2-.5.4-1.1.7-1.6 1.2-.4.3-.2.7.1 1 .4.3.8 0 .9-.4.2-.7.3-1.4.5-2zm-29.6 19.8c1-.9 1.8-1.6 2.1-2.7-.6.9-2.4.8-2.1 2.7zm20 10c-.5.5-1.3.8-1.5 1.7 1.5-.3 1.6-.4 1.5-1.7zm-17.8-15.6c-1.6.4-2.2 1-2.3 2.3.9-.8 1.6-1.6 2.3-2.3zm7.2 27.2c.8-1 1.5-1.7 2.1-2.5-.8.6-2.1.9-2.1 2.5zm-3.5-21.2c.3-1.1.4-1.8-.2-2.8-.6 1-.4 1.8.2 2.8zm-.1-25.7c-.1-.1-.1-.2-.2-.2-.8.4-1.8 1.3-1.9 2.1.7-.7 1.4-1.3 2.1-1.9zm16.1 1.5c-1.9.4-2 .5-1.8 1.5.6-.6 1.2-1.1 1.8-1.5zm-10.2.8c-1.5.9-1.5.9-.8 1.8.3-.6.5-1.1.8-1.8zm9.4-10.8c-.4-.4-.6-1.3-1.6-1.1.2 1 1 .9 1.6 1.1zm-2.4-2.1c-.4.1-.7.2-.6.7 0 .1.2.2.3.2.5-.1.6-.4.3-.9zm-12.5 29.7h.2c.1-.5.2-1 .3-1.6h-.3c-.2.6-.2 1.1-.2 1.6zm14.6-11.4c-.2.3-.4.5-.4.6 0 .1.2.4.3.4.2-.1.4-.2.5-.4 0-.1-.2-.3-.4-.6zm5.1-11.9l-.4-.2-.3.7.5.2c0-.2.1-.4.2-.7zm2 1.8c.4-.5.7-.8.3-1.2-.1-.1-.3-.1-.5-.2.1.5.1.8.2 1.4zm-18 34.4l.3-.1-.4-.6-.2.1.3.6zm-9.5-4.3c.2-.5.4-.7.3-.8 0-.2-.2-.3-.3-.4l-.2.1c.1.2.1.5.2 1.1zm4.1 5.6l-.2-.3-.5.4.1.2c.3 0 .4-.2.6-.3zm8.3 5.2c-.2-.1-.2-.2-.4-.2-.1 0-.2.1-.2.2s.1.2.2.3c.1-.1.2-.1.4-.3zm16.5-35.5l.3-.2c-.1-.2-.2-.4-.4-.6-.1 0-.2.1-.2.1.2.3.3.5.3.7zm-10.9-2.1c.1-.2.3-.2.3-.3l-.1-.3c-.1.1-.2.1-.2.2-.1.1 0 .2 0 .4zm-10.6 3.8l-.3-.1-.1.6c.1 0 .1 0 .2.1l.2-.6zm1.9 25.1l-.3-.2c0 .1-.1.2 0 .2 0 .1.1.1.2.2 0 0 0-.1.1-.2zm14.9 1c0 .1-.1.2-.1.2 0 .1.1.1.2.2 0-.1.1-.2.1-.2 0-.1-.1-.1-.2-.2zm-18.5-3.5c0-.1-.1-.2-.1-.2s-.1.1-.2.1l.2.3c-.1-.1 0-.1.1-.2zm18.5 14.1l-.2-.2-.4.5.2.2c.1-.3.2-.4.4-.5zm-6.3-.5c-.1-.1-.1-.2-.2-.2l-.3.2.1.2c.2-.1.3-.1.4-.2zm-10-39.7c-.1 0-.2 0-.2-.1v.2h.1l.1-.1zm14-1.4v-.1l-.1-.1c0 .1 0 .1-.1.2h.2zm-18.7-2.8l-.2-.1c-.1.1-.2.2-.2.4l.1.1c.1-.2.2-.3.3-.4zM359.5 111.5c-.1.7-.1 1.4-.2 2h-.3c-.1-.6-.2-1.2-.4-1.7-.2-.9 0-2.1-1.2-2.6-.2-.1-.3-.6-.3-.9 0-1.4 0-2.8.1-4.2l.4-5.2.4-3.9 1.2-11.4c.2-1.8.2-3.6.2-5.3 0-.2 0-.5-.1-.7-.6-1-.1-1.7.4-2.5.6-.9 1.3-1.7 1.9-2.5.4-.5.9-1 1-1.6.6-2.3 2.4-3.8 3.7-5.6.9-1.3 2.3-2 3.6-2.7 2-1 4-1 5.9.1.5.3.8.3 1.4.2l2.8-.5c.5-.1.9 0 1.3.5 2.1 2.6 4.2 5.3 6.4 7.9 1 1.2 1.5 2.3 1.4 3.9-.1 1.9.4 3.7.5 5.6.2 2.1.2 4.2.3 6.3l.2 3c0 1.5-.6 3-.1 4.5-1.2 3-1.1 6.1-1.4 9.2 0 .3-.1.8 0 1 .6.8 0 1.4-.3 2.1-1.5 3.2-3.9 5.7-5.5 8.8-.4.7-1 1.2-1.9.9-.3-.1-.7-.1-.9.1-1.6.9-3.4 1.6-4.8 2.9-1.3 1.1-2.9 1.5-4.6 1.3-1-.1-1.9-.1-2.8.4-1 .4-1.7 0-2.1-1-.1-.4-.3-.7-.5-1-1-1.6-2.1-3.1-3.2-4.6-.7-1-1.6-1.9-2.4-2.8.1-.1 0-.1-.1 0zm16.1-32.9c-1.3 1.5-2.3 3.2-2.7 5.2-.2 1.2-.5 2.4-.6 3.6-.2 1.1-.3 2.3-.4 3.4l.1 2.3c-.3 2.8 0 5.6.8 8.3.4 1.5 1.4 2.6 2.4 3.7.6.6 1 .5 1.6-.1.2-.3.5-.6.6-1 .3-.9.5-1.9.6-2.8.3-1.4.5-2.8.7-4.3.2-1 .4-2.1.5-3.1.1-1.9-.2-3.9.1-5.8.3-2.4-.2-4.7-.6-7-.1-.4-.2-.7-.4-1.1-.6-.8-1.6-1.1-2.7-1.3zm-2-15.6c-1.7-.3-3.8.5-4.4 1.6 1.6-.3 3.1-.3 4.4-1.6zm8.6 35.5l-.2-.2c-1.5 1-1.5 1.2-1 2.2l1.2-2zm-14.9-17.6l-.4-.3c-.6.5-.9 1.1-.8 2 .4-.5.8-1.1 1.2-1.7zm16.7 12.5c0-.1-.1-.2-.1-.2l-.2.1c.1.1.1.2.2.2 0 .1.1 0 .1-.1zm-14.7 25.6c-.1-.1-.2-.1-.3-.1 0 0-.1.1-.1.2l.3.2c-.1-.1 0-.2.1-.3zM521.8 143.8c-.4.8-1.2.8-1.9 1-2.4.7-4.6 1.6-6.4 3.4-.2.2-.5.3-.7.4-.5.2-1.1.3-1.6.6-2.1 1-4.3 1.7-6.6 2-1.5.2-2.9.7-4.3 1.1-.2 0-.4 0-.7.1-.1-.9 0-1.8.2-2.6l2.6-6.9c.4-1.3.4-2.7.5-4 .1-2.5.3-4.9.1-7.4-.1-1.9 0-3.8 0-5.7 0-1.7 0-3.3.1-5 .1-3.8 0-7.7-.1-11.6-.1-2.1-.8-2.5-2.8-1.7l-4.9 1.6c-1 .4-2.2.6-2.9 1.5-.1.1-.3.2-.5.2-1.4.3-2.8.6-4.2.8-.5.1-1-.1-1.7-.2 1.2-2 2.3-3.8 3.3-5.5.6-1.2.8-2.5.8-3.8l.2-3.3c0-.3-.1-.7-.2-1-.3-1.2.2-1.9 1.3-2.3 1.8-.8 3.8-.8 5.7-1.4 3.1-1.1 6.3-2 9.5-3 3.5-1.1 7-2.2 10.6-3.3 2.5-.8 5-1.6 7.4-2.5.6-.2 1-.7 1.5-1 .7-.5 1.3-1 2.1-1.6.7 1.6 1.8 1.1 2.9.8l1.1-.3c.7.6.4 1.1 0 1.7-.9 1.4-1.8 2.8-2.7 4.3-.2.3-.4.7-.4 1.1-.1 1.8-.2 3.6-.3 5.5v.9c-.3 1.7-1.7 2.9-3.4 3.1-1.7.3-3.5.8-5.2 1.2l-2.2.7c-1.1.2-1.6.7-1.6 1.8l-.2 9c-.1 2-.2 4 .2 6.1 0 .2.1.4 0 .6-.5 1.8 0 3.5.1 5.3 0 .9-.2 1.9-.1 2.8l.3 5.2v3c0 1.1.2 2.1.3 3.1 0 .1 0 .3.1.4 1.4 1.8 2.5 3.8 4.8 4.7-.2-.1-.2 0-.1.1zm-22.8-38.9c-1.1.2-1.1.2-1.4 1.8.5-.8 1.4-1 1.4-1.8l.6-.5c-.1-.1-.2-.1-.2-.2-.2.3-.3.5-.4.7zm14.5 22.6v-4.9c-.8.3-1.2.7-1.5 1.3-.6 1 .3 1.6.6 2.4l-1.5 2 .2.2c.7-.4 1.4-.7 2.2-1zm.4 5.6c-2.2 1.1-3 2.2-3 3.6.5-.4 1-.8 1.5-1.1 1-.4 1.5-1.2 1.5-2.5zm-5.1.9c-.1-.1-.2-.2-.3-.2-.6.8-1.3 1.5-1.6 2.3-.4.8-1.4 1.4-1.4 2.8 1.5-1.6 2.3-3.4 3.3-4.9zm16.1-43.4c1.4-.4 1.4-.5 1.2-1.8-.6.5-1.1 1-1.2 1.8zm-10.9 29.8c-.1-.6-.1-1-.1-1.4l-.3-.1c-.3.4-.7.8-1.1 1.3.5.1.9.1 1.5.2zm6.7-22.1c-.7.3-1.1.8-1 1.2 0 .1.3.3.4.3.7-.2.7-.7.7-1.3.1-.1 0-.2-.1-.2zm-15.3 29.9v2c1.2-1.1 1.2-1.1 0-2zm7.4 9.7c-1.1.3-1.4.9-1.8 1.8.9-.3 1.6-.6 1.8-1.8zm-6.1-28.3c-1.5.9-1.6 1.1-1.3 2.4.5-.9.8-1.6 1.3-2.4zm10.6-10.5c-.6.3-.8.7-.5 1.2.1.1.5.1.6 0 .6-.4.3-.8-.1-1.2zm1.4-9.3l-.1-.3c-1 .1-1 .1-1.7.9.8-.2 1.3-.4 1.8-.6zm1-.9c.9.7.9.7 1.7-.6-.7.3-1.2.5-1.7.6zm-14.6 31.9c1-1 1-1.1-.1-1.4 0 .4.1.8.1 1.4zm-12.3-13.5l.4.3.8-1.3-.3-.2c-.2.3-.6.8-.9 1.2zm8.9 43.5c.3-.2.6-.3 1.1-.5-.8-.5-1.2-.5-1.1.5zm11.2-38.5l.2.2c.3-.3.9-.4.7-1.4-.4.5-.6.9-.9 1.2zm.4-4.2c.3.2.5.4.7.3.2-.1.4-.3.3-.5 0-.2-.3-.3-.4-.5-.2.2-.4.4-.6.7zm10.3-10c.1.1.3.2.4.2l.5-.7c-.2-.1-.4-.3-.4-.2l-.5.7zm-18.4 24.6v1.3c.6-.5.8-.9 0-1.3zm8.2 13.6c.2.1.3.1.4.1.1 0 .2-.1.2-.2l-.1-.3c-.1.1-.2.2-.5.4zm-17.8-38.6l.3.3.5-.6-.2-.2c-.2.1-.4.3-.6.5zm16.8 19v-.1h-.2v.1c.1.1.2.1.2 0zm-7-2.1l.1-.2-.3-.1c0 .1-.1.2-.1.2.1 0 .2 0 .3.1zm8.7 15.5v-.1h-.1v.1h.1zm-.1-29.3h-.1v.6h.1v-.6zM24.6 244.9c1.5-.5 3.1-1 4.6-1.6l3.5-1.3c.8-.3 1.5-.8 2.4-1.1 1.2-.3 2.4-.5 3.7-.7.7-.1 1.4-.3 2.1-.5.7-.2 1.4-.4 2.1-.4.8-.1 1.2.3 1.1 1.1l-.4 1.8c-.3 1.2-.8 2.4-.9 3.6-.1 1.5-.3 2.9-.5 4.3 0 .3-.1.7.1 1 .6.9.6 1.8.3 2.8-.6 1.7-.1 3.4-.1 5.1l.1 2.3c0 2.3-.3 4.6 0 6.8l.3 7c.2 1.4 0 2.8 0 4.1l-.1 3.2c.2 2 .8 3.9 2.2 5.4.6.7 1.1 1.3 1.3 2.2.1.6.6 1.2.9 1.8-1.3.7-3.5.1-3.2 2.8l-1.8.5c-1.4.5-2.8.9-4.1 1.5-1.6.8-3.3 1.3-5.1 1.7-.4.1-.8.2-1.3.3-1.8.6-3.6.6-5.4-.1-.4-.1-.8-.1-1.3-.1s-.9.1-1.5.2c.3-.8.8-.8 1.3-.9 1.2-.3 1.9-1.1 2.2-2.2.2-.7.5-1.5.8-2.2 1.2-2.2 1.2-4.5 1.2-6.9l-.3-10.8c0-.5-.1-1-.2-1.5 0-.2-.1-.5 0-.7.2-1.8.2-3.6-.2-5.4-.2-1 .1-2.1.1-3.1l-.1-7.5c0-2.1-.2-4.2-.2-6.2 0-1.6-.5-2.8-1.6-3.8-.7-.6-1.3-1.3-2-2-.1-.2 0-.3 0-.5zm11.5 17.8l.4.2 1.4-1.9c.7-1 1.6-2 2.2-3 .3-.5.5-1.1.6-1.7.1-.4.1-.9-.5-.8-.4 0-.5.4-.3.8.4.8.1 1.4-.5 1.8-1.3.8-1.8 2.2-2.6 3.4-.3.3-.5.8-.7 1.2zm-.1 27.4c-.5 1-1.7 1.3-2.1 2.4-.4 1-1.1 1.8-1.7 2.9 1.6-.3 2.9-2.1 3.8-5.3zm-1.5-14.1c.1.1.2.1.2.2l3.4-3.6c.3-.3.5-.8.1-1.3-2 1.1-2.5 3.1-3.7 4.7zm4.6 2.2c-.2 0-.4 0-.5.1-.7.7-1.5 1.3-2.5 1.6-.6.2-.9.8-1.3 1.5 1.2 0 2.2-.3 2.8-1.1.6-.6 1-1.3 1.5-2.1zm-4.5-7.8c-1.1-.8-1.1-.8-1.5-.1-.3.5-.6 1-.9 1.4-.3.4-.5.8-.8 1.3.1.1.2.2.3.2 1.2-.5 1.8-1.8 2.9-2.8zm3.5-4.6c-.7.6-1.4 1.1-2.2 1.7.1.1.3.3.4.5.1.1.3.2.5.2 1.1-1 1.1-1 1.3-2.4zm-1.5-2.1l.1.3c.6-.2 1.3-.3 1.9-.6.2-.1.3-.5.5-.9-1.2 0-1.9.4-2.5 1.2zm1.1 27.4c1.1-.7 1.6-1.5 1.9-2.5-1 .4-1.6 1.2-1.9 2.5zm-6.2 6.6c1.2.3 1.9-.3 2.8-.7-1.2-.5-1.8-.3-2.8.7zm5.7-11.3l.3 2c.9-.3.7-1 .6-1.6-.1-.5-.4-.7-.9-.4zm-7.2 11.8c-1-1-1.4-.9-2.2.3.7-.1 1.3-.2 2.2-.3zm9-12.2h.3l.6-1.4-.3-.3c-.3.2-.9.3-1 .5 0 .3.2.8.4 1.2zm-7-26.2c-.8-.1-.8-.1-1 .7.4-.1.9-.1 1-.7zm6 33.2c-.1-.1-.2-.2-.2-.3-.5.1-1 .2-.9 1.2.5-.4.8-.6 1.1-.9zm2-47.7l-.2-.3-.7.8.2.2.7-.7zm4.5 43l-.3.3c.2.2.5.4.7.7l.2-.2-.6-.8zm-7.2-23.2c-.1 0-.2-.1-.4-.1l-.1.7c.1 0 .2 0 .3.1 0-.3.1-.5.2-.7zm-5.5 23.3c-.1.2-.2.3-.2.4 0 .1.1.1.2.2.1-.1.2-.2.2-.3.1-.1-.1-.2-.2-.3zm3.4-20.8c-.3-.2-.4-.2-.4-.2l-.2.3.2.1c.1-.1.2-.1.4-.2zm.5 1.5l-.2.1.2.1s.1 0 .1-.1l-.1-.1zm-3.9-1.3c-.1 0-.2.1-.2.1l.1.2c.1 0 .2-.1.2-.1s-.1-.1-.1-.2zm3.9 20.8l.1-.2h-.2l-.1.1c.1.1.2.1.2.1zM50.7 231.2c.3.6.7 1.2.9 1.9.8 2.3 1.1 4.6.1 6.9-.2.5-.1 1.2-.2 1.9-.4 0-.8 0-1.2.1-.4 0-.7.3-.7.7-.2 1.2-.2 1.2-1.4 1.2h-1.1c0-.4.1-.7.1-1 .1-.9.1-1.7-.5-2.6-.4-.6-.4-1.5-.6-2.3-.2-.5-.3-1.1-.6-1.6s-.8-.9-.4-1.7c.1-.1-.3-.5-.5-.9.6-.7 1.1-1.4 1.8-2.1.2-.2.6-.3.9-.3 1.1-.2 2.1-.2 3.4-.2zm-1.3 8.7c-.4.4-.8.8-1.3 1.2.4.4.7.9 1.4.5.4-.3.3-1.1-.1-1.7zm.4-5.1c-.1 0-.2-.1-.4-.1l-.2.9c.1 0 .2 0 .3.1.2-.3.2-.6.3-.9zM266.2 120.3c.1 2 .1 2-.3 2.5-.9-.3-1-1-1-1.8.1-.5.3-.6 1.3-.7zM413.8 164.8c.1-1.4.2-2.8.3-4.4.8 1 .7 2.9.1 4.5-.2-.1-.3-.1-.4-.1zM401.5 160.2c-.9-1.2-.6-2.4 0-3.9v3.9zM401.3 151c.6 1.1.5 3.1 0 3.7v-3.7zM376.9 128.9v-1.8c1 1.6 1 1.7 0 1.8zM102.3 229c.1-.7.1-1.4.2-2.2h.2v2.2h-.4zM12.7 304.5l-2.6.9-.1-.4c.9-.3 1.7-.6 2.6-.8 0 .2.1.2.1.3zM342 89.4v-2.2c.3.6.3.6 0 2.2zM547.4 386.5v-3h.2v3h-.2zM16.8 303.2l-2 .7-.1-.2 2-.7c0 .1 0 .2.1.2zM304.8 164.3l.3-1.4c.6.6.1 1 .2 1.5-.2 0-.3 0-.5-.1zM366.2 193.9c-.4.1-.8.3-1.1.4 0-.1-.1-.2-.1-.4.4-.1.8-.3 1.1-.4 0 .2 0 .3.1.4zM251.6 109.1c.6-.6.9-.6 1.3-.1-.2.1-.4.2-.5.2-.2 0-.4 0-.8-.1zM370.3 119.3l-.1 1.5h-.2l.1-1.5c.1-.1.1 0 .2 0zM308.8 296.3l.9-.1v.3l-.9.1c.1-.1 0-.2 0-.3zM254.9 245l.6.6c-.1.1-.1.2-.2.2l-.6-.6.2-.2zM434.6 250.7c.2.4.4.6.4.9 0 .2-.3.3-.4.5-.2-.2-.5-.3-.5-.5 0-.3.2-.5.5-.9zM71.9 255.9c.4.1.8.2 1.2.4-.7.5-.7.5-1.2-.4zM314.7 285.5l-.7.5-.2-.2c.2-.2.4-.4.6-.5.1.1.2.2.3.2zM256 94l-.7.7-.2-.1c.1-.2.2-.4.3-.5.1-.1.3-.2.4-.2.1 0 .2 0 .2.1zM138.1 265.3l1.9-.5c-.5.5-1.2.8-1.9.5zM324.7 291.4c-.2.2-.4.3-.5.4-.1 0-.2-.1-.2-.1.1-.1.1-.3.3-.4-.1-.1.1 0 .4.1zM82.6 257c.2.5.3.6.3.8 0 .1-.1.2-.2.3-.2-.1-.4-.3-.5-.4l.4-.7zM432.9 253.2c-.1 0-.2.1-.4.1l-.1-.2.3-.2c.1.1.2.2.2.3zM321.1 296l-.2-.3c.1 0 .2-.1.2-.1.1 0 .2.1.3.2 0 .1-.1.1-.3.2zM408 190.8c.1.2.3.4.4.7l-.3.2-.4-.7.3-.2zM105.7 255.4l-.5-.2v-.2c.2 0 .4 0 .5.1v.3zM12 302.4l1.1-.7.1.3c-.3.2-.8.3-1.2.4zM421.1 20.4c-.1.1-.2.3-.3.3-.1 0-.2-.2-.2-.3 0-.1.1-.3.2-.3 0 0 .1.2.3.3zM194.7 87.6l.2-.5c.1 0 .1 0 .2.1l-.1.6-.3-.2zM103.5 345.5l-.6.2c0-.1 0-.1-.1-.2l.6-.2c.1 0 .1.1.1.2zM12 302.4c-.4.1-.7.2-1.2.4.4-.7.8-.5 1.2-.4zM22.3 299.1l-.8.2c.4-.3.6-.3.7-.4.1.1.1.2.1.2zM390.2 112.8c-.1-.1-.2-.2-.2-.3l.2-.2.3.4c-.1.1-.2.1-.3.1zM229.9 236.9c.1 0 .2.1.2.1-.1.1-.1.2-.2.2s-.2-.1-.2-.1c.1-.1.2-.1.2-.2zM218 240.7l.5-.1c0 .1 0 .1.1.2l-.5.2c-.1-.2-.1-.3-.1-.3zM222 239.7h-.2c0-.1 0-.1.1-.2h.1c-.1.1-.1.2 0 .2zM321.4 290.8l.2.1-.2.2s-.1 0-.1-.1c0 0 0-.1.1-.2zM402.8 25.7c-.1-.1-.1-.1-.1-.2s.1-.2.1-.2c.1.1.2.2.2.3 0 0-.1.1-.2.1zM213.3 242.3c-.1 0-.2 0-.2.1v-.1c.1 0 .2-.1.2-.1v.1zM420.8 241.1l.1-.2s.1 0 .1.1l-.1.2c0-.1-.1-.1-.1-.1zM315.3 298c-.1.1-.1.1-.2.1l-.2-.1c.1-.1.1-.1.2-.1.1-.1.1 0 .2.1zM384.9 125h-.2l-.1-.1c0-.1.1-.1.2-.2 0 .2 0 .2.1.3zM440.5 181.9l.1-.1.2.1s0 .1-.1.1-.2-.1-.2-.1zM311 197.5l.1-.2c.1 0 .2.1.2.1 0 .1 0 .1-.1.2 0 0-.1 0-.2-.1zM318.9 169.1c.3 0 .5 0 1.1-.1-.3.3-.5.5-.6.5-.1 0-.3-.1-.5-.1v-.3zM253.1 136.6c.3-.6.6-1.2 1-1.7.1-.1.4-.2.5-.1.1.2.3.4.2.6-.2.7-.9 1-1.7 1.2zM257 134c-.3.2-.4.3-.6.4 0-.1 0-.3.1-.4h.5zM262.6 124.7c-.1.2-.1.4-.2.7-.1 0-.2 0-.2-.1l.2-.7s.1.1.2.1zM61.2 260.6l1.4-2.1c.7.5.4 1-.1 1.4l-1.3.7zM63.9 255.4l-.2.2-.2-.2.1-.2c.2.1.2.1.3.2zM85.7 243.8c-.1 0-.2.1-.4.1l-.1-.3c.1 0 .2-.1.4-.1 0 0 0 .2.1.3zM75.9 251l.5-.7c.3.6-.2.6-.5.7zM275.8 301.7l-.2-.2.2-.2c.1.1.1.2.2.2 0 .1-.1.1-.2.2z"/><g fill="#fff"><path d="M439.3 246.6c-.2-1.3-.4-2.6-.7-3.8-.1-.4-.2-.8-.5-1.1-.2-.3-.7-.4-1-.4-.1 0-.3.5-.4.8-.1.4-.1.7-.1 1.2-1.3-.6-1.1-2.6-3-2.8-.1.9-.3 1.7-.3 2.4 0 2.5 0 4.9.1 7.4.1 1.6-.6 2.6-2.1 3-.5.1-.9.6-1.4.8-1.3.5-2.6 1.4-4.4 1.1.2-.7.2-1.3.4-1.8.2-.6.5-1.1.8-1.9-1.3-.1-2.3-.2-3.1.6l-2.4 2.8c-.8.9-1.4 1.9-2.4 2.6-2.1 1.3-4.5 1.8-6.9 1.2-2.1-.5-3.4-2.3-4.6-3.9-1.3-1.8-1.7-4-1.4-6.2.1-1.3.3-1.5 1.5-1.8.5-.1.9-.2 1.4-.2 2.4-.2 4.5-1.1 6.4-2.7 2.6-2.1 4.5-4.5 4.8-8.1.2-3.2-.8-5.7-3.3-7.7-2.3-1.8-5.7-1.7-7.8.7-.4.4-.8.9-1.3 1.2-1.8 1.1-3.2 2.4-4 4.5-.6 1.6-1.5 3-2 4.7-.7 2.5-1.1 5-.2 7.6.3 1.1.7 2.2.9 3.4.3 2 .8 4.1 1.9 5.8 1.8 2.8 1.9 2.8-.6 5-.1.1-.3.2-.3.2-.8-.4-1.4-.9-2.1-.9-1.3 0-2.4.5-3.3 1.7-.7 1-1.6 2.3-2.7 2.7-2.4.8-4.9 1.3-7.3 0-1.1-.6-1.7-1.4-1.8-2.6-.2-2.2-.3-4.4-.6-6.7-.1-.5-.3-1.1-.6-1.6-.4-.5-.6-1-.1-1.4.8-.6.7-1.3.6-2.1-.1-1.4-.5-2.8.2-4.2.2-.4 0-.9 0-1.4.1-.9 0-1.9.4-2.6.9-1.4 2-2.7 3-4.1.1-.2.4-.2.6-.3 1.1-.2 3.4.9 4 1.9.7 1 .3 2-.1 3-.3.8-1 1.6-.9 2.6 2.5-.1 3.7-1.1 4.1-3.3l.8-3.9c.1-.3 0-.7-.1-1-.7-2.3-3.1-4.2-6.1-3.2-1.9.6-3.8 1.3-5.7 1.8-1.1.3-1.9.6-2.1 1.8-.1.3-.5.6-.9 1-.2-.9-.4-1.5-.6-2.2-.7.8-.7 1-.8 1.9-.5 3.6-1 7.2-1.5 10.7-.2 1.5-.4 3-.4 4.6 0 3 .4 6 1.2 9 .6 2.1 1.4 4 2.4 5.9.1.2.4.4.6.6.8.5 1.5.9 2.2 1.3 1.8-.3 3.7-1 5.6-.9 2.1.1 4-.7 6-1.1 1.3-.3 2.5-1.1 3.6-1.8 1-.7 1.9-1.5 2.8-2.4.2-.2.3-.4.5-.7.3-.7.6-1.4 1-2 1.5-2.2 1.6-2.2 3.5-.4.8.8 1.7 1.1 2.8 1.2 2.2.2 4.2-.4 6.2-.9 2.5-.7 4.9-1.4 6.3-3.8.2-.3.6-.4.9-.5l6.5-2.2c.3-.1.7 0 1.5 0-1.8 2-1.7 4.6-3.7 6-.2.1-.3.4-.4.6-.9 2.4-2.5 4.2-4.3 5.9-2.7 2.7-6 4.4-9.6 5.6-.7.2-1.4.2-2 .5-2.6 1.1-5.2 2.3-8.2 2.5-.4 0-.8.3-1.2.4-1.2.4-2.4.7-3.5 1.2-1.1.4-2.2 1-3.3 1.5 0 .1.1.2.1.4.4 0 .8.1 1.1 0 2.4-.4 4.8-.7 7.1-1.3 2.9-.8 5.8-1.8 8.7-2.7.5-.2 1.1-.6 1.6.1-.3.9-1.1 1-1.8 1.2-2.8.8-5.6 1.6-8.5 2.5-1.2.3-2.4.6-3.5 1-3 1.3-6.3 1.5-9.5 2-.6.1-1.3 0-1.6-.4l1.7-1.7c-2.4-.3-4.6.5-6.8 1-1.2.3-2.4.5-3.6.7-1 .2-2.1.3-3.1.6l-7.1 2-6.3 1.7c-3 .9-5.9 1.9-8.8 2.9-2.7.9-5.4 1.9-8.2 2.7-1.9.6-3.8 1.1-5.8 1.5l-3.8.9c-5 1.1-10 2.2-14.9 3.4-3.2.8-6.4 1.8-9.6 2.9-1.5.5-2.9 1.2-4.4 1.9-.1-.5-.2-.8-.2-1.1-.1-1.5-.2-3-.2-4.6-.2-2.6-.4-5.3.6-7.8.2-.4.1-.9.1-1.4l.1-4.1c0-1.6.1-3.2 0-4.7 0-.7-.5-1.3-.6-2-.2-1.9-.2-3.7-.3-5.6-.2-3.6-.3-7.2-.5-10.9 0-.1-.1-.2-.5-.6-1.5 1.7-1.4 3.6-1.2 5.5-1.4-.6-1.3-.5-2.3.4-.8.7-.5 1.5-.4 2.3.3 2.7.6 5.4.8 8.1.2 2.5.3 5 .6 7.5.3 4-.3 7.6-4 10-1 .6-1.9.9-3.1.5l3.1-1.8c-.3-1.2-1.2-1.4-2.1-1.2-.6.1-1.1.4-1.7.6-1.1.3-2.2.6-3.2.8-.9.2-1.7-.1-2.3-.9-1.3-1.7-2.1-3.7-2.5-5.8-.7-3.9-.9-7.9-.7-11.9 0-.4.2-.8.4-1 .7-.7 1-1.6.7-2.4-.4-.9-1.1-1.6-1.8-2.2-.4-.3-1.2-.2-1.4.5-.2.5-.2 1-.3 1.5-.2.5-.4 1-.6 1.4l-1.9 3.1c-.3.5-.3 1.1.4 1.3.8.3.8 1 .6 1.6-.5 2.5-.7 5-.6 7.5 0 1.2-.1 2.5-.1 3.3-.8.8-1.5 1.2-1.8 1.8-1.1 2.5-2.4 4.9-3.9 7.3-2.1 3.4-5 5.6-8.8 6.6-.7.2-1.5.4-2.5-.1 1.3-.9 2.5-1.7 3.7-2.5-.6 0-1.1.2-1.6.4-1.8.8-3.6 1.5-5.6 1.2-.9-.1-2-.3-2.3-1.3-.2-.8-.8-1.2-1.4-1.7-.8-.6-1.5-.2-2.2.1-.2-.4-.3-.6-.4-.9-1-2.1-.9-3.6 2-4.2l.3-.1c2.4-.6 4.8-1.2 7.1-1.9 2.1-.6 4.1-1.6 5.5-3.3 1-1.3 1.9-2.7 2.8-4 .2-.2.3-.5.3-.8.1-1.8.2-3.5-.4-5.2-.3-.7-.7-1.4-1.2-1.9-.9-.9-2-1.6-2.9-2.6-1.1-1.1-2.3-1.5-3.8-1.2-3.3.5-6.5 1.4-9.6 3-.7.3-1.2 1.1-1.8 1.7-.5.5-.8 1.2-1.4 2-1-1.5.1-3.2-1.1-4.5-.2.4-.6.8-.5 1 .3 1.2-.2 2.3-.1 3.4.1 1.6-.3 3.1-.7 4.7-.9 3.4-1.4 6.8 0 10.2l.2.9c.4 3.6.9 7.2.4 10.9-.2 1 .1 1.2 1.5 1.6l.6-2.9c.2-1-.3-2 .3-3.2.9 1.4 1.7 2.5 2.4 3.7.8 1.4 2.1 2 3.4 1.7-.1-.4-.2-.8-.4-1.5.8.1 1.5.2 2.1.3.7.1 1.5.3 2.2.3 1.6-.1 3.3-.3 4.9-.5.9-.1 1.9-.2 2.8-.5 3.6-1.1 6.3-3.4 8.6-6.3.9-1.1 1.7-2.4 3.4-2.5.1 0 .1-.2.2-.3-.3-.2-.5-.4-.7-.5.1-1.2 1.1-.9 1.7-1.3.6-.4 1.2-.9 1.9-1.4.4.4.6.9.9.9 1.2 0 1.5 1 2.1 1.7.7.7 1.4 1.5 2.5 1.5 2.1 0 4.1.6 6.3.1 1.8-.4 3.5-.8 5-1.9.3-.2.7-.4 1.2-.8.4.7.9 1.4 1.1 2.1.5 1.8.2 3.6-.1 5.4-.1.5-.5 1.1-.9 1.5-1.1.9-2.2 1.9-3.4 2.4-1.8.8-3.1 2.1-4.7 3.1l-.2.4c.3.3.6.5 1.1 1-.4.2-.7.3-.9.5-1.1.9-2.5 1.7-3.4 2.8-1.6 2-2.9 4.3-4.2 6.5-.5.9-1 1.7-2 2.1-.9.3-1.5.9-1.6 1.9 0 .3-.3.6-.4.9-1.6.2-2.6.9-2.8 2-.1.3.3.6.5 1.1.5-.6.8-1 1.1-1.5.8.5.7 1.1.6 1.8-.2 2.1-.7 4.3-.5 6.4.3 3.3.6 6.7 1.9 9.8.1.3.2.7.2.9-.4.6-1.7.7-1.3 1.6.6 1.3.9 2.8 2.1 3.8.6.5 1.2 1.1 1.7 1.7 1.2 1.5 2.3 3.3 4.2 3.9 2.7.9 5.5 1.2 8.2-.1.9-.4 1.9-.6 3-.9-.2 2.4-2 3.6-3.2 5.6.6-.2 1-.3 1.2-.5 1.3-.9 2.2-2.2 2.8-3.5.7-1.4 1.2-2.9 2.6-3.9.2-.1.4-.4.5-.7.6-1.6 1.3-3.3 1.8-4.9.3-.8.6-1.8-.4-2.6-.2-.2-.2-.8-.2-1.2.6-3.8.6-7.6 0-11.4-.2-1.1-.5-2.2-.5-3.3-.1-4.8-.1-9.6.3-14.4.1-1.9.2-3.9.2-5.8 0-1.1.4-1.6 1.3-2l3.8-1.9c1.6-.8 3.1-1.6 4.7-2.3.7-.3 1.6-.5 2.4-.7.7-.2 1.5-.2 2.2-.5 4.7-2.1 9.5-4 14.6-5.2 2.7-.6 5.3-1.8 8.2-2 .9-.1 1.8-.6 2.6-.8 2.9-.7 5.8-1.4 8.7-2 1.7-.4 3.3-1 5-1.2 3.4-.5 6.8-1.2 10.1-2.1 2.2-.6 4.5-1 6.7-1.5 2.2-.4 4.4-.7 6.6-1.2 3.2-.7 6.3-1.7 9.6-2.4 1.7-.4 3.4-.3 5.1-.6 2.2-.5 4.5-1 6.6-1.7 3.2-1.2 6.4-2.4 9.4-3.9 2.8-1.4 5.4-3.1 8-4.7 1.3-.8 2.5-1.8 3.5-2.9 1.7-1.9 3.8-3.3 4.7-5.8.1-.4.6-.6.8-.9.3-.3.5-.6.7-1 .7-2.1 1.5-4.2 2.1-6.3.3-1.1.5-2.2 1.3-3 .1-2.3.3-4.4.4-6.6zm-31.8-5.5c.6-2.7 1.5-5.4 3.1-7.8.4-.5.6-1.2.9-1.7.3-.5.7-1.1 1.2-1.5.7-.6 1.7-.7 2.2 0 1 1.4 2.2 2.8 2.2 4.8-.6 1.5-1 3-1.7 4.4-.9 1.6-2.2 2.9-4 3.6-.6.3-1.3.5-2 .5-1.9.1-2.3-.5-1.9-2.3zm-11-3.6l-1.7-2.2c1.3.6 1.3.6 1.7 2.2zm-12.4 12.6c.2-.1.3-.3.5-.3.1 0 .2.2.2.3l-.2.2-.5-.2zm-127 39.6v-.7c.5-3 1-6.1 2.8-8.6 1.7-2.2 4.1-3.3 6.9-3.5h.4c3.3-.1 5.3 2.2 5 5.5-.1.7-.1 1.4-.3 2.1-.3 1.3-.9 2.5-1.9 3.5-1.9 1.8-4.2 2.7-6.6 3.4-.5.1-1 .1-1.9.2-.8-.1-1.9-.1-3-.2s-1.4-.8-1.4-1.7zm42.8 64.7c.7-.8 1.4-.6 2.3 0-.9.7-1.6.3-2.3 0zm6-30.1c0 2.2-.4 4.3-.3 6.6.3 4-.1 8.1-.3 12.1-.1 1.2-.4 2.3-.3 3.6.1 1.2-1 2.5-1 3.8-.9.5-1.7 1-2.6 1.4-.4.2-.9.3-1.2.6-1.9 1.4-3.8 1.3-5.3-.7-.8-1-1.4-2.2-1.9-3.3-2.1-4.5-2.7-9.3-2.5-14.2.1-4 1.4-7.7 3-11.3.8-1.8 2.1-3.3 3.3-4.9.3-.4 1-.9 1.4-.8 1.5.2 2.4-.8 3.4-1.6 1.6-1.3 3.1-2.6 5-4.2.1 1 .3 1.6.2 2.2-.3 3.5-.9 7.1-.9 10.7zm12.1-23.3l-.2-.4c.8-.3 1.6-.6 2.4-.8l.2.4c-.8.2-1.6.5-2.4.8zM374.2 285.2l.2-.2-.1-.1-.2.2c0 .1 0 .1.1.1zM177.7 287.9c-1.3-.5-2-1.4-2.1-2.8-.1-1.7 0-3.3.6-5 .6-1.8.7-3.8.8-5.7.1-1.6.3-3.1 1.1-4.6.2-.4.4-.9.5-1.3.6-2 1.8-3.6 3.3-4.9.4-.3.9-.7 1.1-1.1.5-.7 1.1-1 1.8-1.3 1.8-.7 3.6-1 5.5-1 2.3 0 4.4-1 6.6-1.9l3.6-1.4c.9-.3 2-.2 2.6-1.3.1-.2.8-.3.9-.1.6.6 1.2.3 1.8.1l6.6-1.8c.3-.1.7-.4.9-.7 1.1-1.6 3.2-2.2 5-1.5.3.1.8 0 1.2 0 .8-.1 1.6-.2 2.3.8-1.1.4-2 .7-3.2 1.2 1 .7 1.6-.1 2.3-.1h2.6c-.7.6-1.1.9-1.5 1.2 1.4 1 2.6 2 3.5 3.4.3.4 1 .6 1.5.7 1.1.2 1.8.8 1.9 1.8.2 1.6 1.3 3 .8 4.8-.1.4.3.9.5 1.3 1.7 3.8 1.8 7.6-.5 11.2-.8 1.2-1.9 2.2-2.9 3.3-.3.3-.4.6-.7 1 1.6.9 2.8-.3 4.2-.7-.1 1.3.7 1.5 1.6 1.8 2.3.6 4.5 1.5 6.1 3.3 3 3.2 5.4 6.7 7.1 10.8 1.3 3.4 1.3 7 2.2 10.5.2.7.4 1.3.6 2.1-.1.4-.3 1.1-.4 1.7l-.5 6c-.2 1.5-.1 1.6 1.3 1.9 3.5.7 7 1.3 10.6 2 3.8.7 7.4 0 11-1.2 2.9-1 3.3-1.3 5.1-3.3 0-.2-.1-.4-.2-.6-.3-1.2 0-1.8 1.2-1.8l1.4-.1c.8 0 1.5-.4 1.6-1.1.5-1.7 1.9-2.7 2.9-3.9.9-.9 1.5-1.9 2-3l.4-.7c1.1.4.9 1.2.7 1.9-.4 1.3-.8 2.6-1.2 3.8-.1.3-.1.7-.2 1.1.9.1 1.1-.5 1.4-1 .3-.5.5-1.1.9-1.5.3-.3.8-.5 1.2-.4.2 0 .5.6.6.9.2 1.6-.7 2.9-1.4 4.2-1.4 2.5-3.8 4.1-5.6 6.2-.1.1-.3.3-.4.3-2.4 1-4 3.2-6.4 4.3-.8.4-1.5.6-2.2-.1-.4.5-.7.9-1.2 1.6-.1-.7-.2-1-.3-1.5l-1 .2c-1.1.4-2.2.7-3.4.3-.5-.1-1.1-.1-1.6 0-1.6.5-3.1 0-4.4-.7-1.2-.6-2.4-.9-3.7-1.1-2.8-.3-5.6-.8-8.3-1.3h-.2c-.7-.1-1.7-.4-2.1.4-.5 1 .6 1.2 1.2 1.7l.2.3c-.3.6-.8.5-1.4.4-.9-.2-1.4.3-1.9.9-1.5 2.1-2.9 4.4-4.6 6.4-2.8 3.1-5.5 6.3-9.2 8.4-2.6 1.5-5.5 1.9-8.5 1.2-.8-.2-1.6 0-2.4.1-2.9.5-5.8 1-8.7.5-1.7-.3-3.4-.9-5-1.5-2.4-.9-4.8-1.9-7.1-3-.8-.4-1.4-1-2.1-1.6l-3.5-3.7c-1.4-1.4-2.4-3-3.3-4.7-.2-.3-.4-.7-.3-1l.3-5.4c.1-.6.3-1.3.6-1.8 1.6-2.5 3.1-5.1 4.9-7.5 1.4-1.9 3.3-3.1 5.5-3.7.9-.3 1.4-.7 1.5-1.7.1-2.5.2-5 .3-7.6v-3.3c-1.6-1-2.1-2.2-1.2-3.7 1.2-2 1.4-4.1 1.5-6.3.2-3 .3-6.1.3-9.1.1-5 0-10 0-15 0-.2-.1-.3-.1-.6-1.3-.2-2.3.6-3.5 1-.5.2-1.1.3-1.7.4-3.3.6-6.5 1.1-9.3 3.3-2.2 1.7-3.8 3.8-4.9 6.1-.9 1.8-.9 4.1-1.2 6.2-.3 2.2.4 4.3 1.5 6.2 1 1.8 2.9 2.4 4.7 2.9 1.7.4 3.4.7 5.2 1-1.5 2.6-4.1 1.7-6.4 1.8 0 .9.7.9 1.2 1.2.4.3.8.5 1.3.8-.7.9-1.5.7-2.1.4-1.8-1-3.6-2-5.3-3-.7-.5-1.4-1-2.3-1.2-.6-.4-1.3-1-2-1.4.6.1 1.3.3 2 .5l.3-.3c-.9-2-1.8-3.9-2.8-6.2-.3.7-.4 1-.5 1.3-.4 1.7.4 3.2 1 4.7zm20.7 32.8c-.4 1.2-.7 2.5-1.3 3.6-.9 1.7-1.2 3.4-1.1 5.3 0 .8.2 2 .7 2.4 1.1.7 1.4 2.1 2.4 2.8.9.7 1.9 1.4 2.7 2.3 2.5 2.6 5.8 2.9 9 3.3l2.8.2c2.3.3 4.5.4 6.8-.1 3.4-.7 6.6-2.2 9.7-3.6 2.1-.9 4.1-2.1 5.6-3.9 1.5-1.7 2.9-3.3 4.3-5 .1-.2.2-.4.2-.7.2-.8.4-1.7.7-2.6l-1.3-.7-5.3-2.8c-1.8-.9-3.6-1.6-5.4-2.4l-7.2-2.8c-1.8-.7-3.6-1.5-5.6-1.6-.7 0-1.5-.2-2.2-.3-1-.1-2.2-.8-2.9.5-1.2-.2-1.8-1.7-3.1-1.3-1 .3-2.1.7-3.1 1.1 0 .8-.1 1.4-.1 2-.1 2.5-.3 5-.5 7.5-.1.7.3 1.1.8 1.4 1 .7 1.6 1.6 2.3 2.9-.2.1-.6.2-.8.4-.2.2-.3.6-.5.9-.5.8-1.2.9-1.6.1-.4-.9-.5-2-.7-3 0-.2-.1-.3-.2-.4-.6 0-1.1.1-1.9.1-.3-3.6.5-7.1-.4-10.6-1.7.2-3.3.9-4.4 2.2-.9 1.1-1.7 2.4-2.5 3.6-.7 1.1-.6 2.2-.1 3.4 3.1-4.5 3.1-4.5 4.2-4.2zm38.3-27.2c-.8-.9-1.4-1.7-2.1-2.4-.2-.3-.3-.6-.6-.8-2-1.5-3.9-3-6.2-4-1.2-.5-2.4-1.2-3.7-.6-2.2 1-5 1-6.7 3.2-.3.4-1 .5-1.6.8-.4.2-.9.4-1.3.5l-7.9 3.3c-1.3.5-2.1 1.4-2.2 2.9l-.3 9.3c0 3.1.3 3 3 3.9.3.1.6.1.9.1 1.7.1 3.3 1 5 .4 2.5.7 5.1 1.4 7.6 2.2 2 .6 3.9 1.6 6 1.2 2.9-.6 5.5-.1 8.1 1.5 1.8 1.1 3.7 2.1 5.6 2.9 2.5 1 3.1.6 3.4-2.2.1-1.2.5-2.6-.9-3.5-.3-.2-.2-1.2 0-1.6.5-.7.4-1.4.3-2.2-.3-1.9-1.1-3.5-2-5.2-.1-.3-.3-.6-.5-.7-1.1-.6-1.3-1.7-1.8-2.7-.3-.7-.7-1.5-.9-2.3-.2-.8.2-1.6.7-1.5.8 0 .6.7.8 1.2.2.9.3 1.9 1.1 2.6-.4-2.6-.3-5.4-2.7-7.4l-1.1 1.1zm-25-5.9c1.9-.8 3.3-2.1 4.5-3.7.1-.1.3-.3.4-.3 1.5-.4 2.1-1.7 2.8-2.9.8-1.3 1.7-2.5 2.6-3.7.9-1.2 1-2.9 2.5-3.8.1-.1.2-.3.2-.5 0-1.9 1-3.6.6-5.5-.2-1.1-.3-2.3-.3-3.5 0-1.6-.7-2.6-1.8-3.6-1.5-1.4-3.3-1.9-5.3-1.8-1.4 0-2.8.2-4.2.3-1.8.1-3.6.1-5.3.9-.4.2-.9.2-1.4.3-1.7.3-2.5 1.4-2.1 3.1.2 1 .4 2 .4 3.1 0 1.6-.2 3.2-.2 4.9-.1 4.1-.2 8.2-.2 12.3v4l1.7.6-1.7 2c2.5.1 5.9-.7 7.7-1.9-.3-.2-.6-.3-.9-.3zm-30.5-20.9l8.3-5.2c-4.4-.8-6.4 2.2-8.3 5.2zm38.2 15.4c.9.6.9.6 1.4.2.6-.5 1.3-1 1.7-1.7.7-1 1.1-2.1 1.6-3.3.1-.2-.2-.6-.3-.9l-1 .5c-.1.1-.2.3-.2.5-.3 2.1-2 3.2-3.2 4.7zm17.3 38.6c1 1.4 2.5 1.5 3.8 2 .7.2 1.4.6 2.1-.1-1.2-1.4-4-2.3-5.9-1.9zm-5.7-35c1.2 1.7 3.2 2.6 4.9 3.8.1-1.6-2-3.3-4.9-3.8zm-29.5 25c-1.5.8-3.6.7-4.6 2.7 1.8-.3 3.4-1.2 4.6-2.7zm-18.4-43.4c-2.2.5-2.9 1.1-2.8 2.5 1-.8 1.8-1.5 2.8-2.5zm48.4 47.2l-.1.3 1.1.5.2-.3c-.1-.2-.2-.4-.4-.5h-.8zm-14.6-62c-.9 0-.9 0-1.3.7.6.1 1.1 0 1.3-.7zm3.9 4.7c-1.2-.5-1.2-.5-2.2 0h2.2zm-40.7 15l-.2-.2-.2.3.2.2c0-.1.1-.2.2-.3zM319.3 286.1l-.2-2.2-1.8.6c-.1-.2-.3-.4-.4-.7-.4-1.5-.8-2.9-1.1-4.4-.6-4-.8-8 .3-11.9 1-3.4 1.2-6.8 1.3-10.2 0-.2.1-.4.2-.9.9 1.5-.3 3.2.7 4.5.3-.2.5-.3.5-.4.6-1.7 1.9-2.8 3.3-3.8l1.4-1.3c1.6-1.6 3.2-1.8 5.2-.8.9.5 2 .8 3 1 1.5.3 2.8.9 3.9 1.9 1 .9 1.5.8 2.3-.1 1.5-1.6 2.9-3.2 4.5-4.7 1.2-1.1 2.6-2 3.9-3 .4-.3.9-.3 1.3-.4 1.3-.4 2.7-.6 3.5-2 .1.7.2 1.3.4 2.1.3-.2.5-.3.6-.5 1.3-3.2 3.9-5.2 6.7-7 .6-.4 1.4-.5 2.2-.5 1.3 0 2.7.1 4 .2 1.1.1 2.2.3 3.3.6.5.2 1 .6 1.3 1.1.5.8 1 1.5 1.8 2.1.5.3.9 1.2.8 1.8l-.5 6.3c-.1 2.8.1 5.5.1 8.3l-.3 6.1c0 .9.2 1.8.4 2.7.2.8.9 1.3 1.6 1 .8-.3 1.1.3 1.6.8.5-.9.9-1.6 1.4-2.6.2.7.4 1.1.6 1.7 1.1-.6 2.2-1.2 3.2-1.7.5-.9 0-2 .9-2.7 1.1 2.1.8 3.4-.6 4.9-1.7 1.7-3.7 2.8-5.7 3.7-1.5.6-3.2.8-4.8 1-1 .1-1.8-.3-2.4-1.4-.9-1.6-1.4-3.1-1.6-4.9-.3-3.4-.2-6.7-.1-10.1.2-4-.2-8.1-1.7-11.9-.8-2-3.2-2.8-4.9-1.6-.7.5-1.5 1.2-2 2-1.2 2.1-2.2 4.2-3.3 6.4-.2.4-.3.9-.3 1.4.4 4.2-.3 8.4-.7 12.6-.2 1.8-.1 3.6.6 5.4.6 1.5 1 3.1 1.5 4.7.2.7 0 1.3-.7 1.6-1.3.6-2.7 1.1-4 1.6-2.1-2.8-2.1-6.1-1.7-9.3.1-.7 0-1.5 0-2.3 0-1.7 0-3.4-.1-5.1 0-.9-.1-1.8-.2-2.6-.2-1.5-.1-3 .3-4.5.4-1.6.6-3.2.9-4.8.1-.3.1-.7.1-1.1-.1-1.3-.7-1.6-1.9-.9-2.3 1.4-3.9 3.4-5.2 5.7-.5.8-1.2 1.6-1.9 2.3-1.1 1-1.1 1.2-.5 2.6.6 1.5 1.2 3.1 1.4 4.7.5 3.5 1.2 7-.1 10.4-.2.5-.3 1-.6 1.5-1.2 2.1-2.2 4.3-3.6 6.3-.9 1.4-2.2 2.5-4.1 2.6-1.3.1-2.5.6-3.7.9-1.3.3-2.6.6-4 .8-1.2.3-2.3.1-3.3-.7-.9-.9-2-1.9-3-2.9zm17-18.9c-.5.1-.7.1-.7.2l-1.1.9c-2.2 2.1-4.9 2.9-7.8 3.4-1.5.3-2.8-.6-4.2-1.2-.6-.3-1.2-.5-1.9-.7-.1.5-.2.7-.2.9-.6 5.1 1.3 9.6 3.5 14 .3.6 1 1 1.6 1.3 2.7 1.2 6.1.3 7.8-2.2.7-1.1 1.2-2.4 1.7-3.6.6-1.3 1.1-2.7 1.6-4.1.2-.7.5-1.3.5-2 0-1.5 0-3-.2-4.6-.1-.8-.4-1.5-.6-2.3zm-13.8-3.8c.8 1.2 1.9 1.9 3 2.3 2.7 1 4.9.7 6.5-1 1-1.1 1-2.4-.3-3.1-.8-.5-1.9-1-2.8-.9-2.3.2-4.5 1-6.4 2.7zm10 4.2c-3.2 1.2-6.5 2.1-10.3 1 2.6 2.5 7.1 2 10.3-1zm-11.6 14.8c-1-2.7-1.8-5-2.6-7.4-.4 2.9.4 5.8 2.6 7.4zm13-21.3c-.3-2.1-2.6-3.2-4.9-2.4.9.4 1.7.9 2.6 1.2.8.2 1.2 1.4 2.3 1.2zm-9.2 27.1l.2-.3c-1.2-.6-2.4-1.3-3.7-1.9-.1 0-.2.1-.4.2.9 1.6 2.5 1.5 3.9 2zm-.7-27.1c2.3-.3 3.3-.7 3.9-1.4-1.2-.1-3.1.6-3.9 1.4zm15.9 4.4l.3-.1c-.1-.3-.3-.6-.4-1l-.3.2c.1.2.3.5.4.9zm-17.7.2l-.2.3c.2.1.4.2.5.3l.1-.2c-.1-.1-.2-.3-.4-.4zM413.7 215.8c-1.1 1.3-2 2.4-3 3.4-1.1 1.1-2.3 2-4 2.5v-.1h-.8l.3 1.2c.4.8.9 1 1.7.8 2.7-.7 4.7-2.4 6.1-4.7.7-1 .4-1.9-.3-3.1zM293.5 303.2c.1.4.4.7.3.9-.5 1.6-.7 3.3-2.3 4.4l-2.4 1.9c0-1.5 2.1-5.1 4.4-7.2zM445.8 275c-.1-.1-.3-.3-.3-.4l.3-1.2c.3.2.6.3.8.5.3.5.2.7-.8 1.1zM450.5 310.3l-.2-1.8h.4c.4.6.3 1.2.2 1.8h-.4zM385.8 273.6l-.1-.9c.1 0 .2 0 .3-.1.1.3.2.6.3.8-.2.1-.4.2-.5.2zM350.5 284.3c0 .2 0 .4-.1.5l-.2-.3s.2 0 .3-.2zM366.4 276.6l.5-.1.1.2c-.1.1-.3.1-.4.1-.1.1-.2-.1-.2-.2zM237.9 294.4c-.1.1-.1.2-.1.3l-.4-.2c.1-.1.1-.2.2-.4l.3.3z"/></g><path fill="#fff" d="M479.9 146.4l-.4-3.3c-.1-2.2-.1-4.4-.3-6.6-.1-2.4-.4-4.7-.6-7.1l-.3-3.7c0-.6.1-1.2 0-1.8-.3-1.8-.8-3.6-.7-5.4 0-.7-.3-.9-.9-1.1l-2.4-.9c-1.7-.9-3.2-2.1-4.6-3.4-.6-.5-1.4-.9-1.8-1.6-.4-.7-.9-1.1-1.5-1.5-.3-.2-.6-.5-1-.9-.2.1-.5.3-.8.5-.5-.5-.9-1.4-1.6-.9-.7.4-1.3.6-2 .8-1.8.4-3.5 1.1-5.2 1.6-.3.1-.7.1-1 .1-1-.3-1.9 0-2.8.4-.9.4-1.8 1-2.7 1-1.3 0-2.2.5-3.2 1.1-.3.2-.7.4-1 .5-1.5.5-1.8 1-1.1 2.5.1.3.3.6.6.8 1.4 1.1 1.9 2.6 1.9 4.3l.1 1.2c.1 2.9.2 5.8.2 8.7 0 2.8-.3 5.6-.4 8.3l.3 5.5c0 3.7-.2 7.3-.3 11-.1 1.2-.3 2.5-.3 3.7 0 1.1-.3 2.2-.8 3.2l-2 4c-.2.4-.5.9-.6 1.3.1.4.3.7.8 1 .6.4 1.2.8 1.8 1.3.8 0 1.6.3 2.3-.4.2-.2.7-.3.9-.2.8.4 1.4 0 2.1-.1l5.9-1.6c.8-.2 1.7-.4 2.4-.8 2.1-1.2 4.5-1.7 6.8-2.4.3-.1.8-.1 1.1 0 1.2.4 2.1 0 3-.9 1.1-1.1 1.9-2.4 3.4-3.1.3-.1.5-.5.6-.8 1.1-2.1 2.1-4.2 3.8-5.9 1.2-1.3 1.2-3 2.1-4.3 0-.1.1-.2 0-.3-.6-.7 0-1.2.2-1.9v-1.9zm-4.3-13.3c-.4.4-.9.7-1.4 1.1-.2-.8 0-1.3.5-1.5.5-.3.3-.7.4-1.1.9.2 1.1.8.5 1.5zm-.2 4c0 1.2-.8 1.6-1.5 2.1-.4-.9.1-1.7 1.5-2.1zm-1.1-10.7c.6.1 1 .3.7.7-.5.7-.9 1.5-1.8 2.2 0-1.2.7-1.9 1.1-2.9zm-1.6-4.4c.1 1.4-2 5.5-3.5 6.9-.5-.5-.9-1-.2-1.4 1.4-.9 1.9-2.4 2.7-3.7.2-.6.6-1.2 1-1.8zm-.1 5.6c0 .1-.1.1-.2.1 0-.1-.1-.2-.1-.2 0-.1.1-.1.2-.1 0 0 .1.1.1.2zm-.8 1.1c-.4 1.5-1.2 2.9-2 4.6-.5-.9-.6-1.5-.2-2.1.7-.9 1.4-1.7 2.2-2.5zm-.4-10.2l.1.7h-.3c0-.2 0-.5-.1-.7h.3zm-2.4 4.8c.4-.7.9-1.3 1.4-2 .1 1.2-1.3 4.1-2.4 4.9-.6-1.2.5-2 1-2.9zm-2.9-.6c.3.4.6.7.7 1 0 .1-.3.4-.5.6l-.7-.7c-.1-.1.2-.4.5-.9zm-1.9-10.2c.1 0 .2.1.4.1 0 .4.2.9.1 1.3-1 3.1-2.5 6-5.1 8.3h-.3c.8-3 2.9-5.1 4.5-7.7-.2-.1-.5-.3-.9-.6.4-.5.9-1 1.3-1.4zm-.7 8.3c-.3.5-.6 1-.8 1.5-.6-1 .3-1.2.6-1.8 0 .2.1.3.2.3zm-1.8-8.6c-.4 2.6-1.7 4.4-3.5 5.9 1.3-1.8 1.6-4.1 3.5-5.9zm-4.1 6.8c.1 1.2-.4 1.7-1.4 2.4.3-1 .6-1.8 1.4-2.4zm-.9 6.9c.3.8.1 1.5-.6 2-.5-.2-.8-.5-.4-.9.2-.3.6-.7 1-1.1zm-1-8c-.3.6-.7 1.2-1 1.9-.3-1 .2-1.5 1-1.9zm-1.1 11.6c.1 0 .3 0 .4.1 0 .2 0 .5-.1.7h-.4l.1-.8zm-1.4-11.5l-.5.6-.3-.3c.2-.2.4-.4.6-.5.1 0 .1.1.2.2zm-1-4c.1.1.2.2.4.3l-1.3 1.2-.2-.2c.3-.3.7-.8 1.1-1.3zm0 5.3c-.8 1.6-1.6 3.2-3 4.3.3-1.5 1.9-3.8 3-4.3zm-3.2 6.2c.9.8.9 1.2 0 1.8v-1.8zm-.1 5.1l.4-.1.3 1.1c0 .1-.3.3-.4.2-.6-.3-.4-.8-.3-1.2zm1.2 27.4c.2 1.2-.4 1.9-1.3 2.5-.7-1.4-.2-2.2 1.3-2.5zm-.7 9c0-.2.1-.3.2-.4l.3.3-.5.1zm1.3-4.5c-.9.2-1.6.8-2.3 1.7-.3-1-.5-1.8.2-2.4.4-.3 1.2-.4 1.8-.4.3 0 .6.2.9.4-.2.3-.4.7-.6.7zm2.6-6.6l-.1-.2c.1-.1.3-.2.4-.2l.1.3c-.1 0-.2 0-.4.1zm.4-4.2l-.2-.1.3-.4.2.1-.3.4zm2.5 10.8c-1.2.7-1.1.7-2.2.8.1-1 .5-1.8 1.4-2.2.5-.2 1-.2 1.3.2.3.6 0 .9-.5 1.2zm-1.6-12.8c.1-.3.1-.5.2-.6l.9-.8c.2 1 .2 1-1.1 1.4zm3.5 15.6s-.2 0-.2-.1.1-.2.1-.4l.3.1c0 .2-.1.3-.2.4zm2.3-.7l-.2-.3.6-.5.2.2-.6.6zm1.7-5.9c-.1 0-.3-.2-.3-.2 0-.1.2-.3.3-.4 0 0 .2.1.4.3l-.4.3zm-.5-5.4c-.5.2-1 .5-1.5.5-.9.1-1.3-.3-1.2-1.3 0-.3.1-.7 0-1-.6-1.9.1-3.4 1.2-4.8-.4-.4-1-.7-1.1-1.2-.1-.5-.1-1.1.1-1.6.3-1.2.2-2.5.3-3.8 0-.1-.1-.3-.2-.4-.7-.4-.8-.9-.3-1.5-1.9-.4-2.2-.2-2.6 1.3-.2 1-.4 2.1-.7 3.1-.2.6-.4 1.2-.7 1.7-.8 1.2-1.8 2.4-2.9 3.5.1-.3 0-.6.2-.8.6-.4.7-1 .8-1.6 0-.2 0-.4.1-.6 1.1-1.2.9-2.7 1.1-4.2.1-.9.5-1.8.9-2.5.5-.9.6-1.9 1.3-2.6.3-.3.3-.9.4-1.5.5-.1 1.1-.2 1.8-.3-.1-.7.2-1.4-.5-1.9-1.3-.1-1.6 1.1-2.5 1.8-.1-.6 0-1 .2-1.4.8-1 1.7-2 2.4-3 .3-.5.6-1.1.6-1.7 0-1.3-.1-1.3.2-2.3-.5-.4-1.1-.5-1.6 0l-.9.5c.1-.9.8-1.3 1.6-1.5.4-.1.8-.2 1.2-.4 1.8-.6 4.8.1 5.6 1.8.1.2.3.6.6.6 1.6.4 1.5 1.8 1.9 3 .1.5.1 1 .2 1.4.4 3.1.8 6.2.7 9.3 0 .4-.1.9-.2 1.3 0 .3-.3.7-.1.8.7.9 0 1.9.1 2.9.1.6-.3 1.2-.6 1.7-.7 1.6-1.5 3.2-2.8 4.5-.4.4-.9.7-1.4 1-.4.5-1 .9-1.7 1.2zm3.2 2.3l-.3-.1.4-.8.3.1-.4.8zm2.9 3.6c-.9 1-.9 2.5-2.4 3.2.4-1.1.7-2.1 1.2-2.9.5-.9 1.2-1.6 2-2.6.1 1-.4 1.8-.8 2.3zm2-1.3l-.3-.1c.1-.3.3-.6.4-.8l.3.1c-.2.2-.3.5-.4.8zm-2.3-6.3l-.4-.1c0-.3 0-.5.1-.8l1.8-3.8c.3-.6.4-1.2 1.5-1-.8 2.1-1.9 3.9-3 5.7zm2.7-9.6c.1-1.9.2-2.1 1.2-2.3-.1 1.2-.1 1.2-1.2 2.3zm.4-4.2c-.1 0-.2 0-.3-.1-.1-.6-.3-1.3-.3-1.9 0-.3.3-.6.5-.8.8-.5 1.4-1.1 1.7-2 .4-.9 1-1.8 1.5-2.6.2-.3.5-.5.8-.7l.3.3-4.2 7.8zm2.8 2.2l-.3.3c-.1 0-.2-.1-.3-.2l.3-.3c.1 0 .2.1.3.2zm-.9 3.1l-.2.2c0-.1-.1-.2-.1-.2 0-.1.1-.1.2-.2l.1.2zm.3 12.8c-.2-.2-.4-.5-.7-.8l1.3-1.7c.1-.2.4-.5.3-.6-.4-.9.3-1.4.6-2.1.3-.8.6-1.6.9-2.3.3 1.9-1 5.6-2.4 7.5zm2.2-9.3c-.6.8-1.3 1.4-2.2 2.3-.1-.5-.2-.7-.1-.9l2.4-3.4.9-1c.6 1.5-.4 2.3-1 3zm-1-2.7c-.4-.6-.3-1.2 0-1.5.7-.9 1.5-1.8 2.4-2.9-.1 2.1-1.8 2.8-2.4 4.4zM453.1 121.9s0-.1-.1-.1l-.2.2s0 .1.1.1c.1-.1.1-.2.2-.2zM466.5 109.5c.6-.6.9-.6 1.3-.1-.2.1-.4.2-.5.2-.2.1-.4 0-.8-.1zM243.9 257.1c-.9-1.2-.9-1.6.3-2.2 2.4-1.2 4.9-2.1 7.2-3.4 2.3-1.3 4.9-2 6.9-3.9.1-.1.4-.2.5-.2 1 .3 1.6-.3 2.1-.9.6-.7 1.3-1 2-1.3 3.6-1.8 7.5-3.1 10.9-5.3.2-.1.5-.3.8-.3.9-.3 1.8.1 2.1.8.3.7 0 1.6-.7 2.2-.2.2-.4.3-.8.6.4.2.6.3.8.5 1.1 1.3 2.2.8 3.4.2.3-.2.8-.5 1-.5 1.3.4 2-.4 3-1 1.1-.7 2.4-1.2 3.6-1.6 1-.3 1.6-.8 1.6-2 0-1.1.2-2.2.3-3.3.1-.7.2-1.2 1-1.3h.2c1.4-1.4 3.5-1.1 5.1-2 1.6-.9 3.3-1.6 5-2.3 1.3-.5 2.6-1 4.1-.5.4 1.6-.7 2.6-1.2 3.9-.5 1.3-1.1 2.5-1.6 3.7.9.9 1.7 1.8 2.5 2.6 1.1 1.2.9 2.1-.6 2.7-1.5.6-3 1-4.6 1.5l-4.2 1.6c-1.5.6-1.9 1.9-2.1 3.3-.1.5-.2.9-.3 1.6-2-1.4-3.5 0-5 .4-1.2.3-2.3.8-3.5 1.2-2 .7-4 1.4-5.9 2.2-.8.3-1.6.6-2.4.2-1.1-.5-1.9.2-2.8.5-.2.1-.4.5-.5.8-.1.3-.1.6-.2 1.1-1.3-1.1-1.8-2.4-1.5-3.9.2-.9.3-1.9.4-2.8.1-1-.5-1.4-1.5-1.1l-2.7.6c-.2.1-.5.1-.6.3-.9 1-2.2.8-3.5 1.3l.8-2.2c-1.1.4-1.8 1-1.9 1.9-.1.9-.7 1.3-1.4 1.5-1.6.6-3.2 1.2-4.9 1.6-.8.2-1.6.4-2.3.8-.5.3-1 .4-1.6.5-1.2.2-2.4.3-3.5 1-.9.4-2.4.5-3.8.9zm47-13.5c-.9 1.2-2.1 1.3-3.3 1.6-1.1.2-1.5 1.1-1.7 2.2 1.2-.1 2.3 0 2.9-1 .4-.6.9-1.1 1.6-1.4.4-.2.8-.6.5-1.4zm-36.1 8.3c2.3-.3 4.1-1.4 5.9-2.8.1 0-.1-.3-.1-.4-.1 0-.2-.1-.2-.1-1.7.5-2.9 1.9-4.7 2.3-.4 0-.6.6-.9 1zm16.1-5.8c1-.5 1.8-1 2.1-2.1-1.2-.1-1.3 0-2.1 2.1zm3.9-4.4c-.4-.2-.7-.4-.9-.4-.5 0-.8.4-.7.9 0 .2.5.5.5.4.4-.2.6-.5 1.1-.9zm-5.2 5.5c-.3-.2-.5-.4-.6-.5-.1.2-.4.4-.3.5.1.2.3.4.5.5-.1 0 .1-.3.4-.5zm24-6.4l-.4-.2-.7 1.2c.1.1.3.2.4.2.2-.4.4-.8.7-1.2zm-10.1 4.1c-.1.2-.2.3-.2.5 0 .1.1.3.2.2.1 0 .3-.1.3-.2 0-.2-.1-.3-.3-.5zm-9.3 1.7l-.2-.3-.6.6.2.2c.2-.2.4-.4.6-.5zm25.6-11.5c-.1.1-.3.2-.3.2 0 .1.1.3.2.4.1-.1.2-.1.2-.2s0-.3-.1-.4zm-18.1 12.8c-.1-.1-.2-.2-.3-.2l-.2.2.3.3c.1 0 .1-.1.2-.3zm-29.9 5.6c-.1-.1-.2-.1-.3-.1l-.1.1c0 .1.1.2.1.2l.3-.2zM301.2 239.4c-.9-1.2-.9-1.6.3-2.2 2.4-1.2 4.9-2.1 7.2-3.4 2.3-1.3 4.9-2 6.9-3.9.1-.1.4-.2.5-.2 1 .3 1.6-.3 2.1-.9.6-.7 1.3-1 2-1.3 3.6-1.8 7.5-3.1 10.9-5.3.2-.1.5-.3.8-.3.9-.3 1.8.1 2.1.8.3.7 0 1.6-.7 2.2-.2.2-.4.3-.8.6.4.2.6.3.8.5 1.1 1.3 2.2.8 3.4.2.3-.2.8-.5 1-.5 1.3.4 2-.4 3-1 1.1-.7 2.4-1.2 3.6-1.6 1-.3 1.6-.8 1.6-2 0-1.1.2-2.2.3-3.3.1-.7.2-1.2 1-1.3h.2c1.4-1.4 3.5-1.1 5.1-2 1.6-.9 3.3-1.6 5-2.3 1.3-.5 2.6-1 4.1-.5.4 1.6-.7 2.6-1.2 3.9-.5 1.3-1.1 2.5-1.6 3.7.9.9 1.7 1.8 2.5 2.6 1.1 1.2.9 2.1-.6 2.7-1.5.6-3 1-4.6 1.5l-4.2 1.6c-1.5.6-1.9 1.9-2.1 3.3-.1.5-.2.9-.3 1.6-2-1.4-3.5 0-5 .4-1.2.3-2.3.8-3.5 1.2-2 .7-4 1.4-5.9 2.2-.8.3-1.6.6-2.4.2-1.1-.5-1.9.2-2.8.5-.2.1-.4.5-.5.8-.1.3-.1.6-.2 1.1-1.3-1.1-1.8-2.4-1.5-3.9.2-.9.3-1.9.4-2.8.1-1-.5-1.4-1.5-1.1l-2.7.6c-.2.1-.5.1-.6.3-.9 1-2.2.8-3.5 1.3l.8-2.2c-1.1.4-1.8 1-1.9 1.9-.1.9-.7 1.3-1.4 1.5-1.6.6-3.2 1.2-4.9 1.6-.8.2-1.6.4-2.3.8-.5.3-1 .4-1.6.5-1.2.2-2.4.3-3.5 1-.9.5-2.4.5-3.8.9zm47-13.5c-.9 1.2-2.1 1.3-3.3 1.6-1.1.2-1.5 1.1-1.7 2.2 1.2-.1 2.3 0 2.9-1 .4-.6.9-1.1 1.6-1.4.4-.2.8-.5.5-1.4zm-36.1 8.3c2.3-.3 4.1-1.4 5.9-2.8.1 0-.1-.3-.1-.4-.1 0-.2-.1-.2-.1-1.7.5-2.9 1.9-4.7 2.3-.3.1-.6.6-.9 1zm16.2-5.8c1-.5 1.8-1 2.1-2.1-1.3-.1-1.4 0-2.1 2.1zm3.8-4.4c-.4-.2-.7-.4-.9-.4-.5 0-.8.4-.7.9 0 .2.5.5.5.4.4-.2.6-.5 1.1-.9zm-5.2 5.5c-.3-.2-.5-.4-.6-.5-.1.2-.4.4-.3.5.1.2.3.4.5.5-.1 0 .1-.2.4-.5zm24-6.3l-.4-.2-.7 1.2c.1.1.3.2.4.2.2-.4.4-.8.7-1.2zm-10 4c-.1.2-.2.3-.2.5 0 .1.1.3.2.2.1 0 .3-.1.3-.2l-.3-.5zm-9.4 1.7l-.2-.3-.6.6.2.2c.2-.2.4-.4.6-.5zm25.6-11.5c-.1.1-.3.2-.3.2 0 .1.1.3.2.4.1-.1.2-.1.2-.2s0-.2-.1-.4zm-18.1 12.9c-.1-.1-.2-.2-.3-.2l-.2.2.3.3.2-.3zm-29.9 5.5c-.1-.1-.2-.1-.3-.1l-.1.1c0 .1.1.2.1.2l.3-.2zM354.8 221.9c-.9-1.2-.9-1.6.3-2.2 2.4-1.2 4.9-2.1 7.2-3.4 2.3-1.3 4.9-2 6.9-3.9.1-.1.4-.2.5-.2 1 .3 1.6-.3 2.1-.9.6-.7 1.3-1 2-1.3 3.6-1.8 7.5-3.1 10.9-5.3.2-.1.5-.3.8-.3.9-.3 1.8.1 2.1.8.3.7 0 1.6-.7 2.2-.2.2-.4.3-.8.6.4.2.6.3.8.5 1.1 1.3 2.2.8 3.4.2.3-.2.8-.5 1-.5 1.3.4 2-.4 3-1 1.1-.7 2.4-1.2 3.6-1.6 1-.3 1.6-.8 1.6-2 0-1.1.2-2.2.3-3.3.1-.7.2-1.2 1-1.3h.2c1.4-1.4 3.5-1.1 5.1-2 1.6-.9 3.3-1.6 5-2.3 1.3-.5 2.6-1 4.1-.5.4 1.6-.7 2.6-1.2 3.9-.5 1.3-1.1 2.5-1.6 3.7.9.9 1.7 1.8 2.5 2.6 1.1 1.2.9 2.1-.6 2.7-1.5.6-3 1-4.6 1.5l-4.2 1.6c-1.5.6-1.9 1.9-2.1 3.3-.1.5-.2.9-.3 1.6-2-1.4-3.5 0-5 .4-1.2.3-2.3.8-3.5 1.2-2 .7-4 1.4-5.9 2.2-.8.3-1.6.6-2.4.2-1.1-.5-1.9.2-2.8.5-.2.1-.4.5-.5.8-.1.3-.1.6-.2 1.1-1.3-1.1-1.8-2.4-1.5-3.9.2-.9.3-1.9.4-2.8.1-1-.5-1.4-1.5-1.1l-2.7.6c-.2.1-.5.1-.6.3-.9 1-2.2.8-3.5 1.3l.8-2.2c-1.1.4-1.8 1-1.9 1.9-.1.9-.7 1.3-1.4 1.5-1.6.6-3.2 1.2-4.9 1.6-.8.2-1.6.4-2.3.8-.5.3-1 .4-1.6.5-1.2.2-2.4.3-3.5 1-.9.5-2.4.5-3.8.9zm47-13.5c-.9 1.2-2.1 1.3-3.3 1.6-1.1.2-1.5 1.1-1.7 2.2 1.2-.1 2.3 0 2.9-1 .4-.6.9-1.1 1.6-1.4.4-.2.8-.5.5-1.4zm-36.1 8.3c2.3-.3 4.1-1.4 5.9-2.8.1 0-.1-.3-.1-.4-.1 0-.2-.1-.2-.1-1.7.5-2.9 1.9-4.7 2.3-.3 0-.6.6-.9 1zm16.2-5.8c1-.5 1.8-1 2.1-2.1-1.3-.1-1.4 0-2.1 2.1zm3.8-4.4c-.4-.2-.7-.4-.9-.4-.5 0-.8.4-.7.9 0 .2.5.5.5.4.4-.2.6-.5 1.1-.9zm-5.2 5.5c-.3-.2-.5-.4-.6-.5-.1.2-.4.4-.3.5.1.2.3.4.5.5-.1 0 .1-.2.4-.5zm24-6.3l-.4-.2-.7 1.2c.1.1.3.2.4.2.2-.4.4-.8.7-1.2zm-10 4c-.1.2-.2.3-.2.5 0 .1.1.3.2.2.1 0 .3-.1.3-.2l-.3-.5zm-9.4 1.7l-.2-.3-.6.6.2.2c.2-.2.4-.4.6-.5zm25.6-11.5c-.1.1-.3.2-.3.2 0 .1.1.3.2.4.1-.1.2-.1.2-.2s0-.3-.1-.4zm-18.1 12.9c-.1-.1-.2-.2-.3-.2l-.2.2.3.3.2-.3zm-29.9 5.5c-.1-.1-.2-.1-.3-.1l-.1.1c0 .1.1.2.1.2l.3-.2z"/></svg>