<svg xmlns="http://www.w3.org/2000/svg" viewBox="0 0 576 432" enable-background="new 0 0 576 432"><path d="M249.3 420.3c0-.4 0-.8.1-1.1.1-.3.4-.8.7-.8.5 0 .9.4.9 1 0 .3-.2.6-.3.9h-1.4z"/><path fill="#fff" d="M323.3 192c-.2-.5.1-1 .5-1.2l-.1-.4-3.7-7.8c-1-2.2-2.8-4-3.1-6.4 0-.1-.1-.2-.2-.3-.4-.6-.8-1.2-1.1-1.8l-2.7-5.4-3-6.1-1.7-3.2c-.5-.9-1-1.7-1.3-2.7-.5-1.5-.4-3.1-2.1-4.1.5-.9 1-1.8 1.6-2.7-1.2-.5-1.2-1.3-1-2.3.4-1.6.7-3.1 1-4.7.3-1.3-.1-1.9-1.4-1.5-2 .6-4.1.5-6.1 1.5-2.1 1.1-4.6 1.7-6.9 2.5-2 .7-4.2 1.2-6.1 2.1-2.6 1.3-2.4 2.3-1.2 3.9.9 1.2 1.8 2.5 2.6 3.8.3.5.6 1 .6 1.5-.1.5-.6 1-.9 1.3 1 1.7.6 3.4 0 5-.4.9-.9 1.6-.5 2.6.1.4.1 1-.2 1.3-.8 1-1 2-.8 3.3.1.3-.1.8-.2 1.1l-1.2 5.8c-1.1 5.2-2.1 10.4-3.3 15.6l-2.7 11c-.5 2.2-1.6 4.2-2.6 6.2l-.2 4.4c.9.3 2 .3 2.8-.4 1.3-1.1 2.9-1.3 4.4-1.9.4-.2 1-.3 1.3.4-.5 1.4-2.4 1.2-3.3 2.7.6-.2 1-.2 1.3-.3l2.4-1.5c.7-.4 1.5-.6 2.1-1 .9-.6 1.4-1.7 2.8-1.4.1 0 .3-.1.4-.2 1.4-1.6 3.2-2.3 5.2-2.7.7-.2 1.5-.3 2.1-1.1-.7-.7-1.3-1.5-2-2-1-.8-1.3-1.7-.8-2.9.5-1.5 1.1-3 1.5-4.5.3-1.2.9-1.9 2-2.3 2.8-1.1 5.6-2.2 8.4-3.2.7-.3 1.5-.4 2.3-.5.3 0 .8 0 .9.2.8 1.3 1.6 2.6 2.3 4 .4.7.5 1.5.8 2.4-.5 1.4-1.1 3-1.6 4.5-.4 1.2.1 1.8 1.3 1.5 1.5-.4 3.1-.9 4.6-1.4 1.9-.7 3.5-2.2 5.8-2.3 1.5-.1 2.9-.8 4.7-1.3v-.2c-1.5-2.2-2.6-4.5-3.7-6.9zm-43.3 17c.1.9-.1 1.9-.1 2.9-.3 0-.6.1-1 .1-.1-.2-.2-.4-.2-.5 0-2.9.9-5.6 1.6-8.4.2-1 .3-1 1.4-.8-1.3 2.1-1.9 4.3-1.7 6.7zm3.1-12.4c-.3.6-.8 1-1.3 1.7-.3-1.2.3-1.9.4-2.9 1 .2 1.3.6.9 1.2zm9.1-34.9c.1-.1.2-.1.3-.1 0 0 .1.1.1.3-.1 0-.3 0-.4.1 0-.2-.1-.3 0-.3zm-1.2 16.3l.4.1-.6 1.2-.3-.1c.2-.3.4-.8.5-1.2zm.5-29.7l.2.1c-.1.2-.3.4-.4.5-.1-.1-.2-.1-.2-.2.1 0 .3-.2.4-.4zm-4.6 27.9c.7-4.1 1.4-8.2 2.2-12.3.2-1 .4-2.1 2-2.2-.1.6-.1 1.1-.4 1.5-1.8 2.7-2.2 5.7-2.4 8.8 0 .2-.1.5 0 .7.1.4.4.9.3 1.2-.3 1.1-.8 2.3-1.2 3.4-.1 0-.3 0-.4-.1-.1-.3-.2-.7-.1-1zm-1.3 11.8s.1.1.2.1l-.3.3-.1-.2c.1-.1.1-.2.2-.2zm-2.1 22.3c-.1-.3-.3-.6-.2-.7.6-.7 1-1.5 2.1-1.8.1 1.4-.9 1.9-1.9 2.5zm3.4-24.6l1-1.8c.2.8-.3 1.4-1 1.8zm1.1-1.9c.2-.6.5-1.2.7-1.7.3-.5.6-1.1 1-1.5 0 1.5-.6 2.5-1.7 3.2zm1.6 2.9c-.3.4-.7.8-1.1 1.3 0-.9.2-1.4 1.1-1.3zm-.9 18.9c-.8-1.4.1-2.3.3-3.5 1.4 1.6 1.3 2-.3 3.5zm2.2-4.4l-.2-.2c.1-.2.3-.4.4-.7l.3.3c-.1.3-.3.4-.5.6zm-.8-16.1c.9-2.8 2.5-5.3 4.2-7.6-.9 2.8-1.9 5.5-4.2 7.6zm16.8-22.5l-2.1.7c.5-.8.8-1.4 1.1-2 1 .1 1 .7 1 1.3zm-1.5-3.5l.2.1c-.1.2-.3.4-.4.7l-.2-.1.4-.7zm1.1 9.9c-.4 2.2-1.3 4.2-2.5 6.5-.3-.6-.5-1-.4-1.2.5-2 1.6-3.7 2.9-5.3zm-3.4-14.8c.4.6.7 1 .6 1.2-.5 1.1-1.1 2.2-1.7 3.3-.1.2-.3.2-.5.3-.1-.1-.3-.2-.4-.2.6-1.4 1.2-2.8 2-4.6zm-2.5 11.5l.3.2-.4.8-.3-.2c.1-.2.2-.5.4-.8zm2.9-1.2c-.5 1.9-1 3.8-2.3 5.8l-1.6-1.7c2.3-.7 2.6-2.8 3.9-4.1zm-6.3 28.9c-.1 0-.1 0-.2-.1.1-.3.2-.6.2-.8l.4.1-.4.8zm-.1-6.3c-.1-1.1-.1-1.1.9-.8-.2.2-.4.4-.9.8zm.5-4.3c0-1.2.3-2.4 1-3.4.6-1 1.2-2.1 1.9-3.3-.6-.4-1.1-.7-1.8-1.2.2-.7.5-1.4.8-2.3 2.6 2.5 3.3 5.7 4.9 8.5-1.6 1.2-5 2.2-6.8 1.7zm7.8 2.5l-.1-.3c0-.1.1-.1.2-.2.1.1.1.2.2.4l-.3.1zm-.8-15.9c.4-2 .9-4 2.4-5.7.9.6 1.1 1.2.7 1.7-.9 1.4-1.9 2.7-3.1 4zm4.2 3.8c-.4.6-.7 1.4-1.8 1.7.6-1.5 1.1-2.7 1.6-3.9.3-.7.9-1.5-.2-2.2-.1-.1.1-.6.1-.9l.4-.1c.5 1.1 1.1 2.2 1.6 3.2-.6.9-1.2 1.5-1.7 2.2zm1.4 3l-.3-.1 1.4-3 .4.1c0 1.3-.9 2.1-1.5 3zm3-.2c.8.2.6.9.6 1.4-.6-.3-1.2-.6-.6-1.4zm-.1 4.3c-.4-1.1.2-1.9.6-2.8.2.3.6.7.5.9-.2.6-.6 1.3-1.1 1.9zm1.4 8.5c-.1-2 .6-3.9 1.8-4.6-.2 1.7-.9 3-1.8 4.6zm4.3 4l-.4-.1.3-.8s.3.1.4.1l-.3.8zM380.4 174.1c-.4-.5-.6-1.2-.6-1.8-.1-2-.1-4.1-.1-6.1v-6.6c0-.8.1-1.4.6-1.7v-1.2l-.6.2-.3-1.6c-.4-4-.3-8-.2-11.9v-14.6c0-1.2.4-2.5.7-3.7.2-.7.4-1.3.7-1.9-.3-1.5-.5-3-.7-4.5-1.2.7-2.2.6-3.2-.7-.5 1-1.2 1.6-2.2 1.6-.4 0-.7.3-1.1.4-2 .4-3.9.8-5.9 1.1-.1 0-.3-.1-.5-.3l.1-1.6c-.4.3-.6.6-.7.9-.5 1.5-1.4 2.4-3 2.8-.6.1-1.1.4-1.7.7-1.3.6-1.4 1-.3 2 .8.7 1.2 1.5 1 2.5-.2 1.1-.5 2.3-.9 3.3-1.8 4-3.6 8-5.4 11.9-.1.2-.2.4-.4.6-.5-.4-.8-.7-1-.9-2.1-2.2-3.5-4.8-4.9-7.5-.4-.7-.7-1.4-.6-2.3.2-1.3.2-2.6.2-3.9l-.2-.3c-1-.7-2-1.1-3.3-1.1-1.2 0-2.1.3-3.1.8-1.7.8-3.6 1.2-5.5 1.8-.3.1-.6.2-.7.4-.6.7-1.3 1-1.9.6-.9.4-1.5.8-2.2 1.1-.4.2-.8.4-1.3.4-1.4.1-1.2 1.6-1.9 2.3-.2.2 0 .9.1 1.4.2.9.4 1.7.7 2.5 1.6.4 2.8 1.9 2.9 3.6l.1 2.3v5.9c-.5-.3-.7-.5-1.1-.7.1 1.4 0 2.7.7 3.8.2.3.3.7.3 1.1v11c0 1.4-.3 2.8-.1 4.1.3 2 .5 3.8-.5 5.7-.1.2-.2.6-.1.8.7 1.7.3 3.4.3 5.1v5.8c0 .3 0 .7-.1 1 1.2 2.7 2.6 5.4 4.1 8 .3-.6.4-.9.5-1.2.1-.9.7-1.2 1.4-1 1.3.4 2.4-.2 3.5-.7 1.2-.6 2.4-1.4 3.7-1.5 2.3-.1 4-1.4 6.2-2.2-.4-.6-.7-1.1-1-1.6-.9-1.2-1.7-2.4-.9-4.1.3-.6.1-1.5.1-2.3l-.2-3c-.1-2-.2-4.1-.4-6.1-.1-1.3-.5-2.6-.5-3.9.1-3.3.4-6.5.6-9.8 0-.3.3-.5.5-.9.6.7 1.2 1.2.6 2.1-.4.7.1 1.1.5 1.6.6.6 1.2 1.2 1.6 1.8.4.6 2.2 1.6 2.9 1.4.3-.1.6-.4.7-.6.2-.8.8-1 1.5-1.1.5 0 1-.1 1.5-.3 1.1-.5 2.4-.8 2.8-2.1l1.3-4.6c.5-1.4 1.2-2.8 1.8-4.2l.4.1c0 .9.3 2-.1 2.7-.8 1.6-.8 3.2-.8 4.9.2 5 .3 10 .5 14.9 0 .6 0 1.2-.2 1.8-.3.9-.8 1.8-1 2.8l-1.5 6.1c-.3 1.3.2 1.6 1.5 1.2 1.7-.5 3.4-1.1 5-1.6.4-.1.8-.3 1.1-.2 1.3.2 2.2-.3 3.2-.9.5-.4 1.2-.6 1.8-.9 2.7-1.2 5.6-2.2 8.2-3.5-.1-.8-.2-1.7-.2-2.5-1-1.1-1.9-2.1-2.8-3.2zm-47.9-36c-.5-.6-.9-1.1-1.1-1.6-.1-.2.1-.6.2-.8.3.1.7.1.8.2.5.5.6 1.2.1 2.2zm16.4 50.2l.5.4c-.2.1-.4.3-.5.2-.1-.1-.3-.3-.3-.5l.3-.1zm-4.1-29.8c-.2 1.4-1 2.4-2.7 3.7 0-.9.7-1.9 2.7-3.7zm-1.2-26.6l.4.4-1.5 1.5c-.2-1.1.4-1.5 1.1-1.9zm-3.1 20.8c-.6 1.1-1.2 2.1-2.3 2.8.1-1.5 1.1-2.2 2.3-2.8zm-1.2 29.7c-.5.8-1.1 1.7-1.8 2.7 0-1.4.1-1.5 1.8-2.7zm-1.1-22.9l-.3-.1.1-1.7c.5.2.8.3 1.4.5-.6.5-.9.9-1.2 1.3zm0 33.1l-1.2-.1c.1-.3.1-.6.3-.8.4-.4.9-.3 1.2.2.1.1 0 .3 0 .5 0 .1-.1.2-.3.2zm-.3-2.9c1.1-1.5 2.2-2.8 3.7-4-.6 2.4-1.9 3.8-3.7 4zm3.6-18.3l-.3-.3c1-1.2 2.1-2.4 3.2-3.8.1 1.4-1.1 2.9-2.9 4.1zm2.8 1.9l.3.3-.9 1-.4-.4c.4-.3.7-.6 1-.9zm-.6 7.1c-.1-.1-.2-.2-.3-.4l.8-.8c.1.1.2.2.3.2l-.8 1zm4.9-42.4l-.6-1.2.3-.1c.2.4.4.8.7 1.2-.2 0-.3 0-.4.1zm.1 13.9c-.2-.9.5-1.3.8-1.8.2.8.3 1.5-.8 1.8zm1.1-5c.2-1.6.2-1.7 1.3-2.6.3 1.1.3 1.3-1.3 2.6zm1.1 7.8l-.5-.3 1.1-1.7.3.2-.9 1.8zm1-11.7c2.7 2.3 2.7 2.4 2.2 3.6-.8-1.3-1.5-2.4-2.2-3.6zm1.3 15.7c-.5-.9-.5-.9 1.6-2.9-.5 1.7-.6 2-1.6 2.9zm2.6 3.1c-.3-.2-.6-.4-1.1-.7.9-.6 1.1-.2 1.4.2-.1.2-.2.4-.3.5zm7.1-13.3c-.2-1.3.3-2.3 1.8-3.6-.5 1.2-.9 2.4-1.8 3.6zm3-5.9c-.1-.1-.2-.1-.2-.2s.1-.2.2-.2l.2.2c-.1 0-.1.1-.2.2zm-.5 41.6c-.1-.1-.2-.3-.1-.3.1-.1.2-.2.4-.2l.1.3c-.2 0-.3.1-.4.2zm3.7-54.7c-.1-.1-.2-.2-.4-.3l.6-.8.3.2c-.2.3-.4.6-.5.9zm4.5 31.3c0-.9.3-1.3 1.1-1.5.1.9-.6 1-1.1 1.5zm3.3-27.7v2.5c-1-.9-1-1.1 0-2.5zm-.7 14.6c-.2-.4-.5-.7-.5-1 .1-2.3.2-4.5.4-6.8 0-.4.3-.8.5-1.2.7 2 .4 7.9-.4 9zm-1.9 26.3c.2-.6.3-1 .5-1.4.6.7.3 1-.5 1.4zm1.8-16.7c-.6-.5-.5-1-.3-1.5h.4c0 .6 0 1-.1 1.5zm.2-4c-1.3-.8-1.1-2.7.4-3.7.3 1.4 0 2.5-.4 3.7zm.8 18.6c-.6-.8-.5-1.3-.2-1.8h.4c-.1.6-.1 1-.2 1.8zM432.4 158.6l-.7-.4c.3-2.5.6-4.9.9-7.3.2-1.3-.1-2.5-.8-3.6-.7-.2-1.1.1-1.4.7-.2.3-.5.7-.8.7-.9.2-1.3.7-1.8 1.4-.3.4-.7.8-1.1 1.2-.5.5-1 .6-1.6.1-.2-.2-.4-.3-.6-.4-.7.3-1.2.6-1.8.7l-11.3 2.7-1 .2c-.6.1-1-.2-1.1-.8-.1-2.3-.2-3.5 2.3-4.2 1.1-.3 2.3-.8 3.1-1.6 1-1.1 2.3-1.4 3.6-1.8l1.6-.2c1.1-.2 1.7-1.1 1.4-2.1-.2-.6-.4-1.2-.7-1.7l-3.6-6c-.5-.9-1-1.7-.4-2.8.3-.6.3-1.3.4-1.9-.9 0-1.7 0-2.5.1-.9.1-1.7.3-2.6.6l-2.9.9c-.9.3-1.2.1-1.4-.8 0-.2 0-.4-.1-.7-.1-1.5-.3-2.9 1.5-3.9 1.2-.7 2.4-1.4 3.7-1.6.9-.1 1.6-.3 2.3-.8 1.1-.7 2.3-1.2 3.5-.2.8-.3 1.3-1.2 2.3-.9l1.9.5c.3.1.7.4.8.7.9 1.4.9 1.4 2.3.5l.1-.1c1.3-.8 1.4-.8 1-2.2-.7-2.5-1.4-4.9-2.1-7.3-.7-2.6-1.9-5.1-2.1-7.9 0-.2-.2-.5-.3-.5-1 .1-1.8.4-2.6.3-.9-.1-1.8-.6-2.6-.9-.7-.3-1.1-.2-1.4.6-.1.4-.5.8-.8.9-2.3.9-4.5 2-7.1 2.4-1.8.3-3.6.7-5.4 1.2-2.3.7-4.4 1.7-6.8 2-.2 0-.3.1-.4.2-.9 1.1-2.3 1.2-3.6 1.5l-1.3.3c.1 1.6.3 3.1.6 4.7l.5-.2c.5.6 1 1.1 1.4 1.7.2.4.4.9.4 1.4 0 1.3-.3 2.6-.2 3.9.6 7 .5 13.9 0 20.9-.1 1.2 0 2.3 0 3.5 0 1.4-.6 2-1.9 2.3l-.5.1v1l.4-.1c1.5-.3 2.2-.4 2.1 1.6 0 .8 0 1.5 1 1.8.2.1.4.6.5 1 .2 3.1.4 6.2.6 9.5-.1.6-.3 1.4-.4 2.2l-.6 3.6c-.1.3-.2.7-.3.9-.1.2-.2.3-.3.4 0 .3 0 .6.1.9h.5l3.6-.5c1-.2 2-.6 3.1-.7l4.6-.7c.4-.1.9-.3 1.2-.6 1.3-1.3 3.1-1.7 4.8-2.1 1.5-.4 3-.7 4.5-1.2 3.6-1.4 7.2-2.9 10.9-4 1.3-.4 2.5-1.2 3.7-1.9.7-.4 1-1.1 1-2 0-.6.3-1.3.5-1.9.2-.5.4-.9.7-1.3.4-1 .3-1.6-.5-2zm-15.1-17.4c-.6.2-1 .1-1.3-.6-.7-1.4-.7-1.3-1.8-1.8 1-.8 2-.1 3.1 2.4zm-24.5-22.4l-.8-.4c0-.1.1-.2.1-.4h.9l-.2.8zm9-3.4l-1.2.7c.3-.7.3-.7 1.2-.7zm-4 14.8c-.1-.1-.2-.2-.2-.4 0-.1.1-.1.2-.2l.2.3-.2.3zm.5 21.3c0-.2.3-.4.5-.7l.4.7c-.1.2-.4.3-.6.4 0 0-.3-.3-.3-.4zm.5 6.4c-.4-.8-.4-.8-.1-1.8 1.3.7 1.3.9.1 1.8zm.8-8.8c.3-1.5 1-2.2 1.9-2.8-.3 1-.7 1.9-1.9 2.8zm2.8-16.6c-.1 0-.2-.1-.2-.1 0-.2 0-.4.1-.6l1.2-2.3c.3-.8.8-.9 2-.5-1.2 1.3-2.1 2.4-3.1 3.5zm7.9 24.3c-.1-.2-.2-.4-.2-.6 1.1-1.1 2.7-1 4.1-1.4l.1.3c-1.3.6-2.6 1.1-4 1.7zm4.4 11.2c-.1-.1-.2-.2-.3-.2l2.5-3.5c.1.1.3.2.4.4l-2.6 3.3zm3.4-4.6c-.1-.1-.2-.2-.3-.2l.9-1 .3.3-.9.9zm1.9 2.3l.7-1.1c.3.7.1 1.1-.7 1.1zM264.7 211.7c0-.2.1-.4.3-.5.1-.8.3-1.6.6-2.4.3-1 .3-2-.5-2.9-.4-.4-.5-1.1-.5-1.7.1-3.5.3-7.1.5-10.6.1-1.2.7-2.5-.4-3.6-.1-.1-.1-.3-.1-.5v-4.1c0-.3.1-.6 0-.8-1.1-2.1-.8-4.4-.6-6.5.4-3.7 1.2-7.4 1.1-11.2 0-.5.1-1.1.2-1.6 0-.2 0-.4-.1-.8-1.1 1.2-.8 2.6-1.5 3.7-.1-1.2-.2-2.3-.1-3.5.1-1.8.8-3.3 1.6-4.9.2-.5.5-1.1.4-1.5-.3-1.3.2-2.4.9-3.4.2-.3.4-.7.6-1.1-.4-.5-.8-1-1.2-1.6-.7.3-1.3.5-1.9.8-.6.2-1.2.4-1.7.5-.9.2-1.9.3-2.8.6l-6.6 2.2c-1.4.4-2.8.9-4.2 1-1.1.1-2 .4-2.9 1-.5.3-1.1.6-1.6.8-.3.1-.6.2-.9.4 1.3 1.7 2.4 3 3.5 4.3.5.6.8 1.3.8 2.1 0 1.3-.1 2.6-.2 4-.1 2.6-.3 5.2-.3 7.8l.1 8c0 .8-.1 1.5-.7 2.3-.2-.3-.3-.4-.4-.6-1.6-2.6-3.2-5.3-4.9-7.9-.8-1.2-1.7-2.3-.9-3.9 0-.1 0-.2-.1-.2-.5-.5-.9-1-1.4-1.4-.9-.8-.8-1.6-.3-2.5.2-.4.4-.8.7-1.3-.3-.3-.5-.5-.8-.6-.9-.3-1.3-1-1.3-1.9 0-1.3.1-2.5.2-3.8.1-.9.3-1.9-.4-2.5-1.7.7-3.3 1.3-4.9 1.9l-1.4.6c-3.2 1.5-6.6 2.6-10 3.7-1.1.3-2.2.6-3-.5 0 0-.2 0-.4.1.3.8-.1 1.8 1 2.4.7.4 1.4 1.1 1.9 1.8.7 1.1 1.2 2.3 1.6 3.4.2.5.2 1 .2 1.6-.2 2.6-.5 5.2-.6 7.8l-.5 9.8c-.2 3.3-.5 6.6-.6 10 0 3.9.1 7.8-.3 11.6-.2 1.7-.1 3.4-.9 5-.2.5-.1 1.1-.1 1.6 0 2.2-.2 4.4-1.6 6.2-1.1 1.4-1.7 3.1-2.4 4.7-.2.5-.4 1.1.2 1.3.9.3 1.9.6 2.7.4 1.3-.3 2.6-1 3.9-1.4l4.6-1.3c.6-.2 1.3-.3 1.8-.7.8-.6 1.6-.9 2.6-.6 1 .2 1.9 0 2.5-.9.5-.7 1.2-1 2.1-1.1.6 0 1.3-.3 1.8-.7.9-.7 1.6-1.6 2.1-2.7.3-.9.2-1.3-.5-1.9-.6-.5-1.3-1-1.9-1.6-.4-.4-.7-1-.7-1.4.1-1.3.4-2.5-.1-3.7-.1-.2.1-.5.2-.8.1-.7.3-1.3.3-2-.2-3 .6-5.8.9-9.1 1.2 1.6 2.3 2.9 3.2 4.3.8 1.1 1.1 2.6 2 3.6 1.2 1.3 1.8 2.9 2.8 4.3 1.1 1.6.7 3 0 4.5-.2.4-.5.8-.9 1.5 2.4-.6 4.5-1.2 6.6-1.7.4-.1.7-.4 1-.5 1.3-.6 2.6-1.3 4.1-.5.2.1.6 0 .9-.1.8-.4 1.6-.8 2.4-1.1 1.2-.4 1.4-.3 1.8.9.1.3.2.6.4.8.9-.3.9-1 1.2-1.6.3-1 1-1.5 1.6-1.6l.2-6zm-46 20.2h-.3l.1-1.4h.4c-.1.5-.2 1-.2 1.4zm9.2-65.5c-1 1.9-1.5 2.1-3.4 1 1.1-.3 2.3-.6 3.4-1zm-4.2 26.2c-.7-2.3-.2-4.5 0-7 .6.2 1 .3 1.1.3.3 1.1.5 2 .7 2.9 0 .2.1.3 0 .5-.5 1.2-.9 2.4-1.8 3.3zm.4 4.1c-.1.3-.1.6-.2 1l-.4-.1.3-.9h.3zm-2.5 25.2c2.1-3.9 4.2-7.8 6.4-11.6.2-.3.5-.5.7-.7l.3.2-.5 1.5c-2.2 4.2-4.5 8.4-6.8 12.8-.6-1.1-.4-1.6-.1-2.2zm.5-11c.1-.7.1-1.3.2-1.8.1-.2.4-.3.7-.5.1.2.5.5.4.7-.2.7-.4 1.3-1.3 1.6zm.4-41.5c-.3.1-.7.2-1.1.2-.2 0-.4-.3-.7-.6.3-.2.6-.4.8-.4.3 0 .7.2 1 .3.2 0 .1.5 0 .5zm-1.3 57.8c-.1-1.1-.3-1.8.7-2.3.6 1 .6 1-.7 2.3zm4.2 2.1c-.4.7-1 1-1.9 1.1 1.1-3.6 2.8-6.8 5.1-9.5-.5 3-1.6 5.8-3.2 8.4zm-2.7-22.8c-.7-1-.6-1.5.1-2.1.5-.4.9-.9 1.1-1.4 1.2-2.9 2.9-5.4 4.6-8.1.6-1 1.1-2.2 1.6-3.2.2-.4.6-.8 1.1-1-2.4 5.5-5.2 10.6-8.5 15.8zm9.1-23.9s-.2-.1-.2-.2.1-.3.3-.8l.2.7c0 .1-.2.2-.3.3zm1.1-1.5c-.1-.1-.2-.2-.3-.2.2-1.2.2-1.2 1.5-1.2-.5.6-.9 1-1.2 1.4zm1.3-2.8c0-.2.2-.4.4-.8.2.3.4.5.4.6 0 .2-.2.5-.3.5-.1 0-.5-.2-.5-.3zm-1.9 41c-.2-1.3.6-2.1 1.3-3.3.4 1.8.2 2.3-1.3 3.3zm5.6-30c-.3-1.3-.3-1.3 1.1-2.2.1 1.7 0 1.8-1.1 2.2zm1.6 10.5c-1.1-.4-1.3-1.1-.9-1.9.2-.4.4-.9.6-1.4.1-.2.2-.5.2-.8-.2-2 .2-2.6 2.3-3.1-.3 2.5-1.2 4.8-2.2 7.2zm3.7 3.6c-.1.5-.4 1-1.2 1.1.4-1.6.8-3 1.2-4.5 0-.1.3-.2.5-.3.4 1.4-.3 2.5-.5 3.7zm1.6-10c-.2-.4-.3-.6-.3-.8 0-.1.3-.2.4-.4.1.1.2.3.2.4.1.2-.1.4-.3.8zm14.3-32.9c.1 2.1-1.6 3.4-2.2 5.1-.1-2.1 1-3.6 2.2-5.1zm-5.3 1.9c1.1-1.6 1.4-3.8 3.2-5 .2-.1.5-.1.9-.1-.7 2.7-2.4 4.5-4 6.4l-.4-.2c0-.3.1-.8.3-1.1zm-1.1 3.4c.2.3.4.6.6.8l-.3.2-.5-.9s.1-.1.2-.1zm-6.3 47.9c-.1-.2-.6-.6-.5-.8.2-.4.6-.7 1-1 .2.3.6.5.6.8.1.4-.1 1-1.1 1zm4.1-50.4l.3-.6.2.1-.3.6c0-.1-.1-.1-.2-.1zm1.9 4.9c-.5.6-1 1.1-1.4 1.7-.4-1.3-.4-1.3 1.4-1.7zm-1.9 6.7c0-.2.2-.4.3-.6l4.1-5.2c.2-.3.6-.5 1.2-.9-.1 2.3-3.9 9.8-5.4 11.1-.5-1.4-.2-2.9-.2-4.4zm.3 10.5c1.3-2 2.7-3.9 3.4-6.2.2-.8.7-1.6 1.8-2.3 0 .6.2.9.1 1.1-1.7 3.4-3.4 6.7-5.2 10.2-.9-1.3-.8-1.6-.1-2.8zm-.1 32.5c-.1.4-.5.8-.8.9-.2.1-.8-.3-.9-.6-.1-.4-.1-1 .1-1.2.8-.9 1.7-1.6 2.6-2.4-.2 1.1-.5 2.2-1 3.3zm1.1-3.3c-.1-.8-.4-1.6.5-2.1-.1.6-.3 1.4-.5 2.1zm-.1-19.3c-.5.6-.9.7-1.6 0 1.4-.6 1.9-1.8 2.4-3 .2-.4.7-.7 1.1-1-.4 1.4-1 2.8-1.9 4zm2-4.2c-.1-.7-.2-1.3.9-1.3-.3.5-.6.9-.9 1.3zm2.7 25.6c-.4.9-1.2 1-2.4 1 1-1.7 1-3.6 2.8-4.8.3 1.4.1 2.7-.4 3.8zm3.8-15.1c-.1.8-.4 1.3-1.2 1.5-.1-.1-.2-.2-.2-.3.2-2.1.4-4.3.7-6.4.1-.6.3-1.4 1.3-1.7.1.4.2.8.2 1.1-.3 2-.6 3.9-.8 5.8zm3.2-45.7l-.4-.3.4-.3c.1.1.2.2.2.3 0 .1-.1.2-.2.3zM239.8 217.4c.1.1.1.2.2.2s.2-.1.2-.2-.1-.1-.2-.2l-.2.2zM186.2 178.9c-.6-.4-1.2-.1-1.6.4-1.3 1.7-2.5 3.5-3.7 5.3 0 0-.1.1-.1.2-.3 1.4-.6 2.8-1.7 3.8-.1.1-.1.3-.1.5.2 1-.3 1.6-1 2.3-.5-.3-1.3.3-1.7-.5.4-1.2.4-1.2 1.2-1.8.2-.7.4-1.5.6-2.4 1.3-.3 2.7-2.4 2.8-4.4l-1.3-.1c.4-.5.9-.5 1.3-.8.3-.2.5-.7.6-1.1 0-.2-.5-.6-.8-.6-.7 0-1.4 0-2.1.2l-3.6 1.3c-1 .4-2.1.6-3.2 1-1.4.6-2.8 1.4-4.4 1.5-1.1.1-1.6.9-1.4 2 .3 2.1.6 4.1 1 6.3-1.4 1.5-1.3 1.6-1.9 4.1-.5 2.4-1.2 4.7-2 7-.4 1.3-1.2 2.4-1.8 3.8-.3-.2-.6-.3-.7-.5-.7-1.1-1.3-2.3-1.9-3.5-1.2-2.5-2.2-5.2-3.6-7.7-.7-1.3-1.1-2.6-.6-4.1.3-.9.6-1.8.2-2.9-1.4.5-2.4 0-3.1-1-.4.5-.8 1.1-1.1 1.2-2.5.3-4.7 1.2-6.8 2.4-1.9 1-4 1.9-5.9 3l-.2 3.3c1 .3 1.2.6 1.5 1.6.1.4.3.8.6 1.2l3.8 5c.8 1.1 1.6 2.3 1.9 3.6.4 2.3 1.9 3.8 3.3 5.4.3.3.6.7.8 1 .1.3 0 .6 0 1.2-.4-.3-.6-.4-.7-.6l-.7-.7c-.2 1 .1 1.6.9 1.7 1.1.2 1.8.9 2.3 1.7 1.2 1.9 2.2 3.9 3.6 5.7.2.2.2.6.3.9.4 1-1.2 1.8-.5 2.8.7 1 .2 2 .2 3.1l-.3 3.3c-.4 5.1-1.1 10.1-3.6 14.7-.1.2-.3.5-.3.8 0 .4 0 .8.2 1.1.8 1.2 2.2 1.6 3.6 1.1 3.1-1 6.1-2 9.2-2.9.3-.1.5-.1.8-.1 1.5-.2 3.1-.4 4.6-.7 1-.2 2-.6 3-.9.6-.2 1.3-.4 1.9-.7.8-.4 1.4-1.3 2.5-1.2.2 0 .5-.3.5-.5 0-.3-.2-.6-.4-.8l-2.9-2.7c-1.1-1.1-1.6-2.5-1.7-4.1-.1-2.2-.2-4.4-.1-6.7 0-4.1.7-8.3.6-12.4 0-.3.1-.5.2-.8l4.1-12.5c1.5-4.3 3.5-8.3 4.7-12.8.7-2.9 2.3-5.5 3.5-8.2l1.6-3.5c.1-.2.3-.9-.4-1.3zm-46.8 16.6c-.1-.3 0-.8.2-1 .6-.4 1.3-.6 2.2-1-.1 1.7-.5 2.4-1.5 2.4-.3 0-.7-.2-.9-.4zm1.3 1.5c.3-.1.6-.2.8-.2.8.2 1.3-.2 1.6-.9.4-.8 1.3-1.2 1.1-2.3-.1-.5.3-.9.8-.7.3.1.6.7.5 1-.1.6-.4 1.1-.7 1.7-.4.7-.2 1.1.5 1.6-2.1 1.4-3.3 1.3-4.6-.2zm4.2 4.7c-.1 0-.2-.2-.2-.2.1-.1.2-.3.2-.3l.4.3c-.1.2-.3.2-.4.2zm8.6 48.9c-.1-.1-.2-.3-.2-.3.1-.1.2-.1.4-.2l.1.3c0 .1-.2.1-.3.2zm1-51.3c-.1.1-.2.2-.4.2-.2-.4-.4-.7-.8-1.3 1.1.1 1.1.7 1.2 1.1zm-.6 2.1c.2-.5.7-.9 1.3-.6.5.3.5.8.2 1.3-.8 1.5-1.5 2.9-2.3 4.5-.4-.2-.8-.3-1.1-.5.6-1.6 1.2-3.2 1.9-4.7zm-1.4-2.2l.5 1.2c-1.4.9-1.6.9-2-.3.4-.3.9-.6 1.5-.9zm-1 2.9c-.3.2-.5.3-.7.4-.1 0-.2-.2-.3-.3.2-.2.3-.3.5-.4.1-.1.3.1.5.3zm-1.3-3.9c.7.5.6 1.2.7 1.9l-.9-.6c-.7-.5-.7-.7.2-1.3zm-3.7 5.8s-.2-.1-.2-.2.1-.3.2-.4l.3.2c-.1.2-.2.3-.3.4zm-.5-3.6c.1-1.2.1-2.4.2-3.5.1-.6.5-1.2.7-1.8.5.1.7.3.5.8-.3.7-.2 1.3.2 2 .7 1.4-.2 2.5-1.6 2.5zm.9-5.4c0-1.3.3-2.4 2-3-.5 1.4-1.1 2.3-2 3zm2 10.2c0-.9.3-1.6 1.4-1.7-.1 1-.9 1.2-1.4 1.7zm.8 4.4l-.1-.5c.3-.1.6-.2.8-.2l.1.4c-.2.1-.5.2-.8.3zm6.6-.2c-.6.8-1.2 1.8-.5 3.1.2.3 0 .9-.2 1.1-1 .8-1.5 1.8-1.7 3.1l-.4.3c-.2-.2-.5-.5-.5-.7.2-1.2 0-2.4.7-3.5.4-.6.6-1.2 1-2-1.3-.2-1.4 2-2.7 1.1.2-.5.6-.9.6-1.4 0-.4-.6-.7-.8-1.1-.2-.3-.4-.6-.6-1-.6-1.2-.4-1.6.9-2.2l-.2.7c-.3 1-.1 1.5.9 1.7.7.2 1 0 1.3-1 .3-1.2 1.7-2.6 3-3.1l.2.2c-.3 1.5.1 3.2-1 4.7zm2.2-2c.4.8.6 1.3 1 2-.8.2-1.4.4-2.3.6.5-.9.8-1.6 1.3-2.6zm-2.9 41.8c.5-1 1.4-1.2 2.3-1.6.1-.1.4.1.9.3-1.2.5-2.2.9-3.2 1.3zm18.3-65.6c0-.1.4-.1 1.1-.3-.7 1.4-1.3 2.4-1.8 3.4-.4-1.2.4-2.1.7-3.1zm-.8 3.1c-.5.9-.5 2-1.7 2.5.3-.8.5-1.6.9-2.3.1-.1.5-.1.8-.2zm-.7-2l-2.4 1.2c.2-1.2.6-1.5 2.4-1.2zm-8.7 25.8c-.2-.7-.3-1.5.6-2.5.2.7.3 1.1.4 1.5v1.3c.1 1.3.1 1.3-1.3 1.7-.9-.8.4-1.2.3-2zm.8 8.8l-.1.4c-.6-.2-1.2-.5-1.9-.7 1-.6 1-.6 2 .3zm-3.1 17.1l-.5-1.7c1.2.3 1.2.3.5 1.7zm1-9.1c-1.2-.6-1.2-1.1.3-2.2-.1.9-.2 1.5-.3 2.2zm2.2-3.4c-.8-.4-1.3-.6-1.8-.9-.1-.1-.2-.2-.4-.6l2.5.3c-.1.2-.2.6-.3 1.2zm.5-6.5c.8-.5 1.3.1 1.8.4-.6.3-1.2.2-1.8-.4zm1.5 12.6c-1.1-.7-1.1-1.1-.2-3 1.3 1.1-.2 2 .2 3zm1.8-24.2s.4-.1.6-.2c.1.3.1.6.2 1l-.6.1c-.1-.3-.2-.6-.2-.9zm-1.2 32.6l.2-4.3c.4.4.7.6.7.7.1 1.2-.2 2.3-.9 3.6zm2.5-25.5c-.2-.2-.5-.3-.6-.5-.3-1.4.7-2.3 1.3-3.3l.5.2c-.3 1.2-.7 2.3-1.2 3.6zm2.7-6.5c-.4 1.4-.5 1.4-1.8 1.7-.2-1.1-.3-2.2-.5-3.5l-1.3-.1c-.3-.4-.6-.9-.9-1.2-.8.1-.8.7-.9 1.2-.1.6-.2 1.3-.4 1.8-.3.5-.7 1-1.3 1.2-.6.3-1.2-.2-1.1-.9v-.2c1-3.3 2.1-6.6 3.4-9.8.1 0 .2 0 .4.1 0 .6 0 1.1-.1 1.7-.1 1-.3 2-.4 2.9-.1.7.2 1.1 1 1.1.6-.6.8-1.4.7-2.3-.2-1.4.6-2.1 1.4-2.9l.3.1c-.3.8-.8 1.5-1 2.3-.1.8.2 1.7.3 2.7.6.1 1.1.1 1.6.2-.2 1.2-.4 2.3-.7 3.7.6-.4.9-.6 1.4-.9.1.5 0 .8-.1 1.1zm-.3-11.2c-.1.1-.3.2-.8.5.2-.7.2-1.1.4-1.5 1.4-2.4 2.1-5.1 3.8-7.4.5-.6.5-1.5.8-2.3.2 0 .3 0 .5-.1.1.3.3.7.2.9-1.2 3.6-2.7 6.9-4.9 9.9zm3.4-.7c0-.2.2-.5.5-1 .3.4.5.7.5.9 0 .2-.3.5-.5.7-.2-.2-.5-.4-.5-.6zm.9 6.8c-.6-1.2-.3-1.7.8-2.1l-.8 2.1zm2.2-6.2c-1-.9-1-.9.4-1.7l-.4 1.7zM131.3 253.6c-1.6-2.3-2.7-4.6-2.4-7.6.2-1.7 0-3.4 0-5.1l.2-10.8.6-8.1c.3-5.2.6-10.5.8-15.7.1-2.5.5-4.9 1.6-7.1v-.2l.2-4c-.7.3-1.4.4-2.1.3-1.9-.1-3.6.6-5.3 1.2-2.2.7-4.3 1.7-6.5 2.5-.3.1-.7.1-1.4.3.4-.4.5-.7.6-.7 1.3-.5 2.7-1 4-1.4.7-.2 1.4-.3 1.7-1.4-.5 0-1-.1-1.3 0-4.4 1.7-8.9 3.1-12.9 5.9.8 1.8 2.1 1.7 3.6 1.3 0 .7-.7 1.2-.1 1.8.8.8.5 1.6 0 2.4l-4.7 8.4c-.3.6-.8.8-1.4.4-.4-.2-.8-.5-1.1-.8-.9-1-1.7-2-2.7-2.9-1.4-1.2-1.6-2.7-1.3-4.4.1-.5.1-1.1.3-1.6.3-1.1.1-2.1-.4-2.9l-2.9.8-1.1.3-5.5 1.8c-1.9.6-3.8 1.2-5.7 1.7-1.4.4-2.2 1.1-2 2.7-.7-.2-1.3-.3-1.9-.4-.1.9.6 1.2 1 1.7.9.8 2 1.6 2.1 2.9.2 1.9.2 3.7.3 5.6.1 3.8-.1 7.6-.3 11.5-.3 5.3-.6 10.6-1.1 15.9-.4 4.2-.6 8.4-1.9 12.4-.3 1.1-.5 2.2-.2 3.6l1.5-1.5c-.3 1.3-.5 2.2-.8 3.1-.2.6-.4 1.2-.8 1.8-.9 1.5-1.6 3.1-1.5 4.9-.7.8-2.1.6-2.8 1.7 1.2.4 1.9-.4 2.8-.7l2.7-1c.3.4.4.7.6 1.1 1.1-1.7.7-1.8 2.3-1.1 2.9-1.1 5.7-2.2 8.6-3.4l1.3 1.2c.1-1.6.7-2.6 2.1-2.5 1.4.1 2.2-.4 2.6-1.6l1.4-.2c.1-1.1-.5-1.8-1-2.5-.7-1-1.4-2-2.3-2.9-.9-1-1.2-2.2-1.2-3.5.2-5 .1-10.1 1.4-15 .1-.2.1-.4 0-.7-.3-2.7.7-5.1 1.1-7.7l.4-.5c.3.3.7.6.9.9 1.1 1.9 1.3 2.1 3.1 3.6.6.5 1.1.6 1.8.5 1.1-.2 2.3-.2 3.4-.5 1.3-.4 2.6-.7 3.1-2.3.4-1.2 1-2.3 1.5-3.5.2-.4.3-.9 1-.7v.6c-.2 2.4-.5 4.7-.6 7.1-.3 4.5-.6 9.1-.8 13.6-.1 2.1-.9 4.1-1.5 6.1-.5 1.6-.9 3.2-2.5 4.2-.2.1-.2.5-.4 1 1 0 1.8-.1 2.7-.1.1.7.1 1.2.2 1.7.7.3 1-.1 1.1-.6.3-1.3 1.3-1.7 2.4-1.9 1-.2 1.9-.6 2.8-.9l4.5-1.6 3.5-.8c2.1-.8 4.2-1.8 6.2-2.8.2-.1.4-.4.6-.7-.7-.4-1.3-.9-2.2-2.2zm-35.4-.9c.1.1.2.2.3.4-.2.1-.3.2-.4.2l-.1-.3s.1-.2.2-.3zm-2-26.4c-.2.4-.4.9-.7 1.4-.6-.9-.6-.9.7-1.4zm-5.4 9.3c.1 0 .2.2.3.4l-.4.3c-.1-.2-.2-.3-.2-.5-.1-.1.2-.2.3-.2zm-.4 4.5c.2 0 .3.2.5.4-.2.2-.4.3-.4.3-.2-.1-.3-.2-.4-.4 0-.1.3-.4.3-.3zm-.3 6.6c-.1-.1-.2-.1-.2-.1-.4-.5-.3-1 .2-1.4.1-.1.5.1.5.2.3.7 0 1-.5 1.3zm.8 21.2c-.7-1 .4-1.4.6-2.1.2-.7.3-1.6 1.1-2.1.6 2.7.3 3.3-1.7 4.2zm2.3-14.9l-.3-.2 1.3-2.5.4.2c-.1 1-.8 1.7-1.4 2.5zm.4-14c-.4-.9-.2-1.5 0-2.1l3.6-8.4c.3-.6.8-1.1 1.4-1.8.6 1.1.3 1.7-.1 2.2-.5.9-1.1 1.7-1.5 2.6-.4.8-.6 1.6-.9 2.5-.5 1.7-1 3.4-2.5 5zm4.4 3.3c-.3 2.1-1 4.1-2.3 5.9-.3-2 .6-4.3 2.3-5.9zm-2.9 19.2c.1-.1.3-.2.4-.2.1 0 .2.2.2.2l-.3.4c-.1-.2-.2-.3-.3-.4zm.7 4.1l-.4-.1.2-.8c.1 0 .4.1.4.1-.1.3-.2.5-.2.8zm1.8-5.9c-.4.3-.8.5-1.4.9-.2-1.1.9-1.1 1.1-1.7.2-.7.5-1.3.8-1.9.8 1.5.6 1.9-.5 2.7zm4.2-53.5c-.1-.1-.3-.2-.4-.2l.6-1 .3.2c-.1.3-.3.6-.5 1zm0 10.4l.1-.5.2.2-.3.3zm3 .3c-.3-.9-.2-1.7.6-1.9.8-.2 1.1.7 1.4 1.6-.7.2-1.3.2-2 .3zm5.7 6.1l.2.3-.8.4-.2-.3c.3 0 .6-.2.8-.4zm-1.3 10.9l-.3-.1c.6-1.5 1.3-3.1 2-4.9.4 1.6 0 2.4-1.7 5zm2.7-6.3c-.1-.1-.2-.2-.2-.3l.2-.2c.1.1.1.2.2.2l-.2.3zm.7-2.1c0-1.2.8-3.5 1.7-4.8.2.5.5.8.4 1-.2 1.4-1 2.6-2.1 3.8zm13.6-25.5c-.7.6-1.2.8-1.9.3.5-.8 1-.7 1.9-.3zm-6.7 59.9c-.1 0-.5-.3-.5-.5l.4-.9.5-.2c.1.3.4.6.3.9 0 .3-.4.5-.7.7zm3.2-20.6c-.1.1-.5 0-.7 0 0-.3 0-.7.1-.8.4-.3.9-.5 1.4-.8l.2.3c-.3.5-.6.9-1 1.3zm.9-6.3c-.1 0-.2-.2-.3-.3.1-.1.2-.3.3-.3.1 0 .2.1.4.3-.2.2-.3.3-.4.3zm1.7-11.6l-.2-.1c.1-.2.2-.4.4-.6l.2.1c-.2.2-.3.4-.4.6zm-.6 35.1l-.2-.3c.4-.3.7-.6 1.3-1-.2 1.1-.2 1.1-1.1 1.3zm5.7-55.1c.1 2.3-.6 3.6-2 4.2-.3-1.3-.3-1.3 2-4.2zm-.4 10.3c.3 3.1.1 3.4-1.7 3.3-.7-1.6 1-2.1 1.7-3.3zm-2.7 25.4c-.1 0-.1-.1-.2-.2.1-.1.2-.2.2-.3.1.1.1.2.2.2-.1.2-.2.3-.2.3zm.2 7.7c-.1-.3-.2-.5-.2-.7 0-.1.2-.2.3-.3.1.2.2.3.2.5 0 .1-.1.2-.3.5zm1.5-18.6c.1-.6.2-1 .3-1.4l.4.1c.2.5.4 1.1-.7 1.3zm1.2-5c-.2 1.8-.4 1.9-2.4 1.5.1-.3.1-.5.3-.7.5-.5.6-1.1.5-1.8-.2-1.2.5-2.2 1.1-3.2.1-.1.3-.1.7-.2-.1 1.6-.1 3-.2 4.4zm2.1 33.5c.5.5.8.9 1.2 1.3-1.4.5-1.5.4-1.2-1.3zM179.4 214.6c0 .1-.1.2-.1.2 0 .1.1.1.2.2 0-.1.1-.2.1-.2 0-.1-.1-.1-.2-.2zM183.5 204.1l-.2-.2c0 .1-.1.2-.1.2l.1.1c.1 0 .2 0 .2-.1zM171.5 205.5l.1-.3h-.2s-.1.1 0 .1c-.1.1 0 .1.1.2zM182.6 205.4h-.2l.1.1s0-.1.1-.1zM117.7 257.3l-.1-.2c-.1 0-.2.1-.2.1l.1.2s.1 0 .2-.1zM140.5 229c.1 0 .2-.1.2-.1 0-.1 0-.2-.1-.3-.1 0-.2.1-.2.1l.1.3zM138.1 196.5v-.3h-.1v.3h.1zM182.3 235.3c0 .1 0 .2-.1.2 0 0 .1 0 .1-.1v-.1zM186 236.5l-.1.3h.3l.1-.1c-.1-.1-.2-.2-.3-.2zM137.9 234.6c0-.1.1-.1 0 0 .1-.1 0-.2 0-.2l-.1.1.1.1zM181.7 208.9c0-.1 0-.2-.1-.2h-.3c0 .1 0 .2.1.2h.3zM190.8 186.6c0-.1-.1-.2-.1-.2-.1 0-.2.1-.2.1 0 .1.1.2.1.2s.1-.1.2-.1zM116.4 207c-.1 0-.2 0-.3-.1v.3h.1c.1 0 .1-.1.2-.2zM178.2 210.6l-.1.2c.1 0 .2 0 .3.1l.1-.1c-.2-.1-.3-.2-.3-.2zM190.4 190.9c.1 0 .2 0 .3-.1v-.3c-.1 0-.2 0-.3.1-.1 0 0 .2 0 .3zM177.9 214.9l-.1-.2s-.1 0-.1.1v.3c0-.1.1-.1.2-.2zM141 217.2l.2.2.1-.1-.2-.2c-.1 0-.1.1-.1.1zM191.8 192.2c0-.1-.1-.2-.1-.2-.1 0-.2.1-.2.1 0 .1.1.2.1.2 0 .1.1 0 .2-.1zM523.1 121.8c.2-2.3-.2-4.5-1.5-6.3-1.4-1.9-3.1-3.5-4.6-5.2-.1-.1-.4-.2-.6-.3l-8-2.3c-.2-.1-.3-.2-.4-.3-.3-1.4 1.7-1.8 1.2-3.5l-.7.7c-1.2 1.6-2 1.6-3.3.2-.2-.3-.5-.7-.5-1-.2-1.3-.4-2.6-.3-4 0-.6.4-1.3.9-1.7.7-.6 2-.6 1.9-2 0-.1.2-.2.4-.3.9-.3 1.8-.7 2.9-.4-.6.8-1.8.3-2.4 1.3 1 0 1.8 0 2.6-.1.9-.1 1.6.8 2.7.2-.3-.5-.6-.9-1-1.5.5-.1 1-.3 1.4-.3 1 0 1.5-.4 1.7-1.4.4-1.6.8-3.3 1.4-4.8 1-2.4 2.1-4.6 3.2-6.9.3-.7.6-1.4.8-2.2.2-.8-.1-1.1-1-1-1.8.2-1.8.2-1.9-1.5 0-.1-.1-.2-.2-.4l-1.2.1c-.9.1-1.8.4-2.6.1-1.2-.3-2.2-.4-3.3.3-.2.1-.4.1-.6.1-.8-.1-1.6-.2-2.5-.2-3.9-.1-7.5.6-10.7 2.8-1.9 1.3-3.7 2.6-4.6 4.9-.6 1.5-1.5 2.8-2.2 4.3-1 2.1-2 4.2-2.9 6.3-.3.8-.3 1.8-.7 2.6-1.1 2.1-.1 4.4-.7 6.5 0 .2.1.4.2.6.7 1.3.8 2.7.5 4.2-.1.4-.1.8 0 1.1.5 1.6 1.1 3.3 1.7 4.9.2.4.5.9.9 1.1 1.6.8 3.2 1.5 4.2 3.3.4-.8.4-1.5 1.3-1.5 1 0 2.1-.2 3.1-.1 1.2.1 2.4.2 3.6.5.5.1 1.1.5 1.3 1 .9 1.8 1 3.6-.4 5.1-1.2 1.3-2.6 2.4-4.4 2.9-1.1.3-2.2.5-3.2.8-1.6.3-3.2.6-4-1.4-1 .4-1.4 1.1-1.3 2 .1 1.6.2 3.2.5 4.8.3 2.1.2 4.2-.2 6.3-.1.7-.5 1.4-.9 2.1.1.8.3 1.6.5 2.4.2 0 .5 0 .7-.1.9-.3 1.7-.3 2.6-.1.6.1 1.2.1 1.9.1.3-1.6 1.4-2.1 2.6-2 1.4.1 2.5-.4 3.7-.8 1.1-.4 2.2-.8 3.3-1 1.8-.4 3.6-.7 5.1-1.9.3-.2.7-.3 1.1-.3 1-.1 1.8-.6 2.5-1.3.4-.4.8-.8 1.2-1.1 1.1-.9 2.2-1.8 3.4-2.6.6-.4 1.3-.8 2-1 1.2-.3 1.8-1.2 2.2-2.3.3-.7.5-1.5.7-2.2l1-3.8c-.1-.9-.2-1.7-.1-2.5zM479.8 143.9c-.4-.3-.7-.6-1-1-1.5-1.9-2.9-3.8-2.8-6.4v-4.3l.2-6.5c0-4.9-.1-9.8-.1-14.6 0-.5.3-.9.5-1.6-.7-.4-.6-1.3-.6-2.2-.1-1.4-.3-2.9-.5-4.3 0-.4-.1-.9.1-1.3 1-3.4 2.1-6.8 3.5-10 .4-.9.5-2 .5-3.1 0-.8-.8-1.7-1.5-1.4-1.7.7-3.5.8-5.3 1-.2 0-.4.2-.6.3l-6.1 2.5c-.2.1-.4.1-.7.1-.3-.4-.6-.8-.9-1.3-.2.4-.4.6-.5.8-.4 1.5-.9 2-2.4 2.1-.4 0-.8 0-1.3-.1 0 1.6-1.6 1.6-2.6 2.4.4.5.8.8.9 1.1.4 1.5 1.3 2.5 2.2 3.7 1.2 1.7 1.9 3.5 1.6 5.6-.2 1.3-.1 2.7-.1 4-.1 2.7-.3 5.3-.3 8-.1 2.8 0 5.7 0 8.5l-.3 12.5c0 1.3.1 2.6.4 3.8.2.8.3 1.5 0 2.3l-2.1 6.1c-.3.9-.7 1.9-.2 3.1 1.6-.2 3.3.1 4.7-.6 2.7-1.4 5.4-2.6 8.2-3.7l3.1-1.2c.3-.1.7-.2.8-.5.8-1.4 2.1-1.6 3.4-1.6h.3c-.2-.6-.4-1.4-.5-2.2zm-15.5-16.4h.3v.9c-.1 0-.2 0-.4-.1l.1-.8zm0 3h.3l-.1 1.1-.5-.1c.2-.3.3-.6.3-1zm0 5l.1-1.7c.7.7.4 1.2-.1 1.7zm10-31.8c.1.1.2.1.4.2l-.2.4c-.1-.1-.2-.1-.3-.1 0-.2 0-.3.1-.5zm-2.3 26.8c-.4.1-.8.5-1.3.7l-.1-.2c.6-.6 1.1-1.1 1.8-1.7.6.8.3 1-.4 1.2zm1.6-22.6c0-.1.2-.3.3-.3.2 0 .3.2.6.3-.3.2-.4.3-.6.4-.1-.1-.3-.3-.3-.4zm.8 7.1l.3.2-.5.6s-.2-.1-.2-.2c.1-.2.2-.4.4-.6zm-.4 4.7s-.1-.2-.1-.3l.4-.2.1.3c-.1.1-.2.2-.4.2zm-.9 24c.3-.3.6-.5 1.1-1-.2 1-.2 1-1.1 1zM158.6 112.7c.5-.4.8-.7 1.2-1-.2-.4-.4-.7-.7-1.2.4-.2.8-.3 1.1-.4 1.3-.5 2.6-1.2 4-1.4 2.3-.3 4.3-1.4 6.4-2.1 1-.3 2-.6 3.1 0 .3.2.8.2 1.1.2 1.3-.1 2.6-.3 3.9-.5 1-.1 1.5.3 1.3 1.3-.4 1.5-.8 3-1.3 4.5-1.4 3.8-1.7 7.8-1.5 11.8 0 .8-.2 1.6-.3 2.4-.1.9-.2 1.9-.2 2.8l-.1 2.4c-.5 2.1-.3 4.1-.2 6.2.1.9-.1 1.9-.2 2.8-.1 1.9-.1 3.8-.4 5.7-.4 3.4-.2 6.7-.2 10.1 0 2.3.6 4.4 1.8 6.3l.4.7c.6 1.1.4 1.5-.8 1.7-1 .2-2 .3-2.4 1.4 0 .1-.1.2-.2.2-1.6.5-3.2 1-4.8 1.4-2.1.6-4.2 1-6.2 1.7-.6.2-1 1-1.3 1.3-.9-.2-1.8-.5-2.6-.6-1-.2-1.4-.7-1.2-1.6.4-2.2 1-4.3 1.5-6.5.1-.2.2-.4.2-.6l.2-3.8c0-1.8.1-3.5 0-5.3-.1-.9-.3-1.9-.7-2.7-.3-.6-.9-1-1.8-.8-2.7.6-5.3 1.2-7.6 2.7-1.4.9-2.5 2.3-2.6 4.1-.2 3-.3 6-.3 9 0 1.5.6 2.9 2 3.8l.3.2c.6.6 1.6.8 1.4 2-.2 1.4-.7 2.4-2.2 2.8-2.5.8-5 1.7-7.5 2.6-1.3.5-2.5.7-3.8.7-1.7 0-3.7.2-5 1.9-1.4-.4-2.6-.4-3.9.6-1.1.9-2.1.3-2.1-1.2-.1-2.3 1.1-4 2.5-5.7.9-1 1.3-2.1 1.6-3.4.6-2.7 0-5.3.2-7.9l.6-7.5c0-.4.2-.8.1-1.2-.8-2.8.2-5.6.1-8.4-.1-3.5.1-7.1.2-10.6l.2-4.5c0-1.7-.1-3.1-1.3-4.6-1.4-1.7-3.2-3.3-3.6-5.8 2.1-.8 3.9-2.3 6.3-2.6 1.3-.2 2.6-.8 4-1.2 2.3-.7 4.7-1.3 6.9-2.3 1.8-.8 3.3-.7 5-.2.4.1.8.1 1.2.1 1.4.1 2.1.9 1.9 2.3-.2 1-.5 2.1-.9 3-1.3 2.8-1.9 5.8-2 8.9 0 2.3-.2 4.6-.2 7-.1 1.8 1.1 2.9 2.9 2.5 1.8-.4 3.6-.9 5.3-1.5.7-.2 1.3-.8 1.7-1.4 1.1-1.5 2-3.1 1.9-5 0-.4.2-.7.4-1.1.1-.3.4-.7.3-.9-.7-1.5.1-3.2-.5-4.7-.2-.5.1-1.2.1-1.8l.1-1.6c.3-1.7-.5-2.9-1.6-3.9-.6-.6-.9-1.1-1.2-1.6zm-21 19l3.1-4.4c-1.1 1-2 2.1-2.9 3.3-.2.3-.1.7-.2 1.1-.5.1-1.1.3-1 1.3.4-.6.7-1 1-1.3zm2.2-10.7l-.3-.2c-.9 1.4-1.9 2.7-2.7 4.1-.8 1.4-2.5 2.4-2.4 4.4 1.3-1.1 5.1-7.1 5.4-8.3zm5.5 41.3c-.2-.1-.4-.1-.5-.2-.1 1.6-2.1 2.1-2.2 4 1-.4 1.8-.8 2.6-1.2 0-.9 0-1.7.1-2.6zm-8 .3c-1 1.4-2.4 2.5-3.1 4.5 2-1.1 2.6-2.7 3.1-4.5zm6-8.6c-1.7 0-2.3.7-2.1 2.4.7-.9 1.4-1.6 2.1-2.4zm9.6-11.4c1.4-.5 1.7-1.7 2.1-2.9-1.2.7-1.8 1.7-2.1 2.9zm7.5-.4c-1.1.6-1.2.9-1.1 2.5.5-.8 1.5-1.3 1.1-2.5zm-22.2 19.2c1.1-1.1 1.1-1.1.5-1.9-.1.7-.3 1.3-.5 1.9zm-1.7 12.9c.8-.4 1.2-.8.8-1.8-.7.4-1.2.8-.8 1.8zm37.3-49.9c1.1-.6 1.1-.6.9-1.6-.4.6-.6 1.1-.9 1.6zm-38.5-2.8l.3.2c.4-.5.8-1.1 1.3-1.6l-.4-.3c-.5.5-.8 1.1-1.2 1.7zm34.9 34.3l.3.3c.6-.3 1.2-.5.8-1.8-.4.6-.8 1-1.1 1.5zm-16.9-17.4l-.3-.4c-.4-.1-1-.2-1.1.4 0 .2.2.4.4.6l1-.6zm4 8.7c.8-.1 1.4.1 1.9-.7-.7-.3-1.3-.3-1.9.7zm-21.5-12.7l-.3-.5c-.3.2-.6.4-.9.7 0 0 .2.4.2.3.4-.1.7-.3 1-.5zm4.5 38.6c.8 0 1.1-.3.9-1.1-.7.1-1 .4-.9 1.1zm28.7-60.9l.3.1.5-.8-.3-.2c-.2.3-.4.6-.5.9zm-24.9 21.3l.1.2c.1-.1.3-.1.4-.3.1-.2.1-.4.1-.6-.1 0-.2 0-.2-.1-.1.3-.2.5-.4.8zm4.9 6.2l.4.5.6-.6-.2-.2c-.3.1-.6.2-.8.3zm-10 30.5l-.2-.1c-.1.2-.3.4-.4.5l.2.1c.2-.2.3-.4.4-.5zm8.8 1.2c-.1.2-.2.4-.3.5l.2.1c.2-.1.3-.2.4-.3l-.3-.3zm2.1-56.8c0-.1 0-.2-.1-.3l-.3.2s.1.1.1.2c.1 0 .2 0 .3-.1zm-5.7 57l-.1-.1c-.1 0-.1.1-.2.2 0 0 0 .1.1.1l.2-.2zM375 266.8l-2.2 1.5c-1-.9-2.1-.7-3.1-.3-.7.2-1.2.8-1.8 1.3-.9.8-1.6.7-2.2-.2-.2-.4-.4-.8-.5-1.2-.2-.9-.3-1.8-.5-2.8l-1.4-7.6-1.6-7.8c-.3-1.4-.6-2.7-.8-4.1-.2-.8-.2-1.7-.5-2.4-.5-1.1-.5-1.9.2-2.8 1.5.1 2.9.1 4.3-1.2-1.9.2-3.4.4-4.9.4-1.6 0-3.2-.5-4.4-1.2.7-1.4 1.3-2.6 1.9-3.9.9-2.1 1.9-4.1 3-6.1 1.2-2.1 2.2-4.3 2.6-6.7.4-2.6.8-5.3 1.1-7.9.2-1.4.2-2.9.3-4.3.1-.9.2-1.8.2-2.6-.1-2.2-.3-4.4-.4-6.7-.8-.3-1.7-.6-2.5.3l-.2.2-.1 1c.1.3.2.5.1.6-.1.8-.3 1.6-.4 2.3-.1 1.1-.2 2.2-.4 3.4-.1 1-.3 1.9-.5 2.9-.5 2.3-.9 4.6-1.5 6.8-.9 3.4-2 6.7-3 10.1l-.8 1.6c-.5.9-.9 1.7-1.3 2.6-.6 1.3-1.3 2.5-2.5 3.5-1 .8-1.8 1.7-2.7 2.5l-1.5 1.4c-.4-.8-.6-2.7-.5-4 .1-1 .1-2 0-3-.1-2.9-.2-5.8-.4-8.7-.1-1.5-.4-2.9-.4-4.4-.1-2-.1-4 0-6.1 0-.4.3-.8.7-1 .2-.1.4-.2.7-.3v-1.2l-1.2.5c.1-1.3.1-2.3.2-3.3.1-.7.3-1.3.7-1.8l-.3-3.9c-.4.1-.7.2-1.1.2-.6.1-1.3.3-1.9.5.1.4.1.9 0 1.3h.1c.5.7.1 1.2-.1 1.7-.1.3-.4.5-.4.8-.2 1.7-1.2 2.7-2.4 3.7l-5.3 4.1c-.5.4-1 1.1-1.8.6-.1 0-.3.1-.3.2-.2.7-.8.7-1.3.8l-2.1.7c-2 .6-3.8 1.7-5.8 2.1-1.4.3-2.8 1-4.1 1.6-1.2.6-2.4 1.2-3.5 1.9-.7.4-1.6.9-2 1.6-1.8 3-3 6.2-1.9 9.9.4 1.2 1 1.7 2.5 1.5-.1-.7-.1-1.3-.2-1.9l1.1-.3c-1.5-1.3-1.6-2.1-.8-3.9.7-1.5 1.7-2.8 2.9-3.9.2-.2.5-.5.9-.6 1.6-.6 3.3-1.2 4.9-1.6 3.2-.8 6.5-1.4 9.7-2 2.4-.5 4.6-1.4 6.4-3.1.6-.6 1.4-1.1 2-1.6.8.7.5 1.4.5 2.1-.1.8-.2 1.7-.2 2.5l.1 4.3c-.1 2.5-.4 5-.4 7.6 0 4 .2 8 .4 12 .2 2.5.2 5 1 7.5.3 1.1.5 2.3.4 3.4-.2 1.6-.1 3.1-.2 4.6-.1 3.9-.5 7.7-.8 11.5-.1.7-.2 1.5-.5 2.1l-3.6 6.6c-.2.3-.5.6-.8.8-1.3.8-2.7 1.4-4.3 1.6-.4.1-.9.3-1.3.5.2.5.4 1 .7 1.4.2.3.6.4 1 .7.3.2.5.4.8.7l-1.1 1.1-7.1 4.8-.1.1c-3.5 1.8-7 3.4-10.8 4.5-.5.2-1.1.2-1.6.3l-4.1.6c-1.8.4-3.6.9-5.3 1.3l-4.8 1.1c-1.2.2-2.4.5-3.5.5-2.3-.1-4.4.5-6.6.9-3.2.7-6.4 1.3-9.6 1.9l-9.1 1.4c-2.8.5-5.5 1.2-8.3 1.8-.8.2-1.6.2-2.3.5l-6.9 2.7c-1.2.5-2.4.8-3.7 1.2-1.6.5-3.2.8-4.7 1.3-2.8 1-5.7 2-8.5 3.1s-5.6 2.2-8.3 3.4c-2.1.9-4.2 2.1-6.3 2.9-1.5.6-2.9 1.1-4.3 1.9-.8.5-1.5 1-2.3 1.4-1.9.8-3.5 2.2-5.2 3.4-1.3 1-1.8 2.3-1.6 3.9.1.5-.2 1 .4 1.5-.1-3.1.6-4.2 2.5-4.7 0 .4-.1.7-.1 1 0 1.1-.1 2.3.1 3.4.1.7.4 1.3.8 1.9.2.4.6.4 1 .2.5-.3 1-.6 1.7-1.1-.2-.1-.5-.2-.7-.5-1-1.2-1.3-2.5-.4-3.8 1.7-2.7 3.9-4.9 6.9-6.1 3-1.2 6-2.4 9-3.5 1.7-.6 3.5-1.2 5.2-1.7 2.4-.7 4.8-1.4 7.3-2 2.4-.7 4.8-1.4 7.3-2 2-.5 4.1-.8 6.1-1.2 1.2-.2 2.3-.5 3.5-.8 3.7-1 7.3-2.2 11-3.1 5.1-1.3 10.2-2.3 15.3-3.5l.4-.1c2.9-1.2 6-1.5 9.1-2.1 3-.6 6.1-1.2 9.1-1.9 2.8-.7 5.5-1.7 8.2-2.4 1.5-.4 3.1-.8 4.6-1.1.9-.2 1.8-.2 2.8-.3.5-.1 1-.2 1.6-.3 1.2-.2 2.4-.3 3.5-.4.7-.1 1.1-.3 1-1.1 0-.2.1-.3.3-.7l.9.9c.4.3.9.6 1.3.8 2 .9 4.1.5 6.1.5l.9-.2c.1-.7.2-1.2.2-1.9l-2 1.2c-.9.5-1.8.6-2.7.3-.2 0-.4-.2-.5-.3.4-.5.7-.8.9-1.1-.8 0-1.5.3-2.2.4-.4.1-1.1.1-1.3-.2-.5-.5.2-.8.5-1.2l.6-.5 6.5-4.1c.4-.2.8-.7 1.1-.2.2.3.1.9 0 1.2-.2.4-.6.8-.9 1.2-.2.2-.3.5-.6 1 .4-.2.6-.2.6-.3 1.2-1.4 2.3-2.9 3.7-4.2.2-.2.3-.4.4-.6.4-.5.7-1.2 1.2-1.5 1.3-.8 1.8-2.3 2.2-3.6 1.1-3.3 2.1-6.6 3-9.9.5-2 .9-4.1.8-6.3l-.3-5.3c-.1-2.7.1-5.3.2-8l.1-3.7v-3.2c0-1 .6-1.5 1.4-1.9.9-.4 1.8-.7 2.6-1 .8-.4 1.5-.3 2.3.1 1.2.5 1.2.5 2.1-.5.5-.5 1.1-.9 1.7-1.2.8-.4 1.3-.1 1.7.7.2.4.4.9.5 1.4.2 1.5.4 3 .5 4.6.1 1.2 0 2.4.2 3.6.4 2 .8 4.1.9 6.1.2 2 .5 4 .9 6 .2 1.1.3 2.4 1.2 3.3.9.9 1.7 1.8 2.7 2.6.9.7 1.9 1.5 3.2 1.4.8-.1 1.4.1 2.1.5.9.5 1.8.2 2.3-.7.2-.3.5-.5.8-.6l2.1-.8c.9-1 1.5-2.1 1.5-3.5-1.2-1-1.9-1-2.6-.5zm-50.4-46.3c0-.1 0-.3-.1-.4l1.8-.3c0 .1 0 .2.1.4-.5.1-1.2.2-1.8.3zm19.1 11.2h-.2l.1-2.2h.2l-.1 2.2zm-51.3 71.4l-7.7 1.7-9.4 2.1-9 2.2-16.6 4-4.3 1c-.3.1-.7.1-1.1 0l1.1-.5c.9-.3 1.9-.7 2.8-.8 3.5-.6 6.6-2.3 9.9-3.5 1.4-.5 2.9-.7 4.3-1.1 2.5-.7 5-1.4 7.6-2 1.8-.4 3.7-.6 5.6-.9l1.9-.2c2.8-.4 5.6-.9 8.3-1.4 1.3-.2 2.5-.6 3.7-1 1.5-.4 2.9-.8 4.5-.7l.1.4c-.5.4-1.1.6-1.7.7zm42.8-18.5c-.3 0-.7.1-1.3.1.6-.6.9-.9 1.3-.5v.4zm34.9-15.2l-.1-.3.8-.3.1.3c-.3.1-.6.2-.8.3zM185.4 303.3c-1.1-1.7-3.1-1.3-4.4-2.4.3-.4.5-.7.8-1l-.2-.4c-.4-.3-.8-.6-1.3-.8-2.9-1.4-5.9-2.8-8.9-4.1-.9-.4-1.9-.6-2.8-.9-1.7-.5-3.2-1.3-4.8-2-2.2-.9-3.6-2.4-5.2-4-1.2-1.3-2.1-2.7-2.8-4.3-1.9-.4-3.6 0-5.3.5-2.1.7-4.1 1.5-6.1 2.3-1.8.7-3 2.1-3.4 4-.2 1-.3 2-.3 2.9.1 2.2.3 4.3 1.3 6.4.1.3-.1.8-.1 1.2-.5-.1-.9-.1-1.4-.3-.2-.1-.4-.5-.4-.7-.4-1.2-.7-2.3-1-3.5-.1-.5 0-1-.8-1.2-.7 1.7-.1 3.2.4 4.8.5 1.7 1.5 3 3.3 3.8-1.1.3-1.7-.2-2.3-.6-.5-.4-.9-.8-1.7-.3-.5.3-1.1-.3-.9-.9.1-.3.4-.5.7-.9-.9-1.9-1.1-3.9-.7-6l.1-.9c.6-1.3.5-2.6.4-3.9-.2-2.8.5-5.4 2.3-7.6 1.5-1.8 3.4-3.1 5.7-3.8l7.1-2.1c2.6-.7 2.6-.6 3.1-3.2.2-1 .6-2.1 1.1-3.1.4-1 .9-2 1.5-2.9.5-.8 1.1-1.5 1.7-2.2.4-.5.9-1 1.4-1.5.8-.7 1.4-1.7 2.6-1.9 1.1-.2 2-1 3.1-1.5 1.3-.5 2.6-.9 3.9-1.3 3-1.1 6-.6 9.1-.2 1.6.2 3.2.3 4.9.4 1.5.1 2.8.6 3.9 1.6 1.2 1 2.3 2.2 3.7 2.9.2.1.3.2.4.4 1.7 2.3 3 4.7 2.2 7.7-.2.8-.4 1.6-.7 2.4-1.2 3.9-5.9 6.9-9.8 6.9-.9 0-1.8-.3-2.7-.2-.9 0-1.9.2-2.7.4l-3.2 1.1c-1 .2-2.1.3-3.1.3l-8-.3c-.9 0-1.8-.1-2.7-.2v-.3l1.1-.1 6.8.1 2.4.1c1.5.1 3 .1 4.3-.6l1.1-.3c.2-.1.4-.3.8-.6-1.1-.4-1.9-.8-2.8-.9l-5.1-.6c-1.5-.3-3 0-4.6-.1-2.2-.1-4.3-.1-6.5-.1h-1.8c-.5 1-.1 1.9.4 2.7.7 1 1.7.3 2.6.3v.3c-.6.2-1.1.3-1.9.5.4.6.6 1.1 1 1.5 1.2 1.6 2.9 2.7 4.5 3.8 1.3.9 2.7 1.9 4.1 2.7 1.8 1 3.6 1.8 5.4 2.7 1.3.7 2.8 1.1 4 1.9 2.2 1.4 4.4 2.6 6.8 3.6l2.7 1.2c.5.2.8.7 1.2 1 1.1-.1 2.2-.2 3.4-.3.3 0 .6-.3.9-.4l3.8-2 .9-.5c2.1-1.7 4.2-3.3 6.1-5.1 1-1 1.8-2.2 2.6-3.4.5-.7.4-.7 1.4-1-.1.4-.1.7-.1 1-.6 1.8-1.7 3.3-3.1 4.6l-5 4.6c-1 .8-2.1 1.4-3.2 2.1-.8.5-1.7 1-2.5 1.6-.7.4-1.4.9-2.2 1.3-1 .5-1 .9-.3 1.7.6.6 1.1 1.3 1.6 1.9.2.2.3.4.4.6 2.7 2.2 3.4 5.6 4.6 8.6.8 2.1 1.2 4.3 1.3 6.6.1 2.8.1 5.5-.2 8.3-.1.7 0 1.4.1 2.4.6-.7.9-1 1.3-1.5.6 2.3-.3 4-1.6 5.6-.6.8-1.3 1.6-1.6 2.6-.7 1.8-1.9 3.2-3.6 4-2.1 1-3.7 2.6-5.2 4.3-1.7 1.9-3.8 3.3-6 4.5-1.7.9-3.5 1.7-5.2 2.8-1.6 1-3.4 1.1-5.1 1.2-3.2.1-6.3-.6-9.3-1.7-.6-.2-1.1-.5-1.6-.8-.3-.1-.5-.3-.7-.5-2.3-1.2-4.6-2.3-6.8-3.6-2.7-1.7-5.7-3.1-8-5.5-2.2-2.1-4.1-4.4-5.7-6.9-1.1-1.6-2.2-3.4-2-5.6 0-.6-.2-1.3-.3-1.9-.5-2.6.5-5 .9-7.4.1-.6.5-1.1.9-1.7.5-.9 1.1-1.8 1.7-2.6.8-1.1 1.5-2.4 2.5-3.3 1.9-1.9 3.9-3.6 6-5.3 1.9-1.5 4.3-2.3 6.6-2.9.6-.2 1.3-.2 1.9-.5 2-.8 4-.6 6.1 0 1.2.4 2.5.5 3.8.8.7.2 1.5.2 2.2.5 1.1.5 2.1.4 3.2.1 3-.8 5.8-1.9 8.6-3.2.7-.3 1.4-.6 2.1-.8-.3-.5.2-.7.9-1zm-17.9 47.5l.1-.4c-.6-.3-1.1-.6-1.7-.7l-4.4-1.3c-2.4-.8-4.7-1.7-7.1-2.6-1.4-.5-2.6-1.4-3.6-2.6-1.3-1.6-2.8-3.1-3.9-4.8-.9-1.3-1.7-2.8-2-4.4-.4-2.5-.1-5 .3-7.5.4-2.6 1.3-5 2.3-7.5.3-.6.6-1.2 1-1.8.3-.4.7-.9 1.3-.7 0 .1.1.2.1.2-.1.2-.1.4-.2.5-2.2 4.1-3.1 8.5-3.6 13.1-.2 1.7.1 3.4.7 5.1.7 2.1 1.9 3.9 3.4 5.5 2.2 2.5 4.8 4.5 8.1 5.3 1.3.3 2.6.8 4 1.2 3.2 1.1 6.4 2 9.8 2.4 5.4.6 10.4-.5 15.1-3.3 1.9-1.1 3.6-2.5 4.7-4.4l1.6-2.8c1.4-2.6 2.8-5.3 3.1-8.3.3-2.3.5-4.5.5-6.8 0-1.6-.2-3.3-.6-4.8-.4-1.7-.9-3.3-1.6-4.9-.9-2.2-1.9-4.3-3.7-6-.5-.4-.9-.8-1.6-.3-1.3 1-2.9 1.5-4.3 2.2-1.7.8-3.4 1.6-5.1 2.3-1.4.6-2.8 1-4.2 1.5-.3.1-.6.3-.9.5.1.3.2.5.3.6 1.7 1.8 2.6 3.9 3.4 6.2.8 2.4.4 4.6-.7 6.7-.6 1.2-1.1 2.4-1.5 3.7-1 4-5.2 7.3-9.4 6.1-.9-.2-1.8-.8-2.7-1.2-2.1-1.1-3.9-2.6-5.1-4.6l-.4-.6c-1.5-1.7-1.7-3.6-1.1-5.7.2-.5.2-1.1.3-1.6l.5-4.1c.1-.6 0-1.4.4-1.8.8-.9 1.2-2 1.6-3.1.2-.4.4-.8.7-1.1 1-1.1 2.1-2.2 3.2-3.3l-1.3-1.8c-.3-.5-.7-.6-1.2-.7-1.8-.2-3.7 0-5.4.4-1.4.3-2.8.8-4 1.5-6.2 3.7-8.7 9.6-9.1 16.5-.1 1.8.3 3.7.6 5.6.2 1.1.5 2.1.6 3.2.3 2.3 1.1 4.5 2.5 6.4l2.4 3.4c1.2 1.6 2.6 2.9 4.6 3.6 3.7 1.3 7.4 2.3 11.3 2.3.6-.4 1.2-.4 1.9-.5zm-5.1-84.4c.3.9-.3 1.7-.8 2.6-1 1.8-2 3.6-2.9 5.5-.6 1.3-.3 1.7 1.1 1.9h.3l6.5.6 3.8.4c2.1.3 4.1.7 6.2.3 2.5-.5 5-.9 7.4-1.5 2.2-.6 3.1-2.6 4-4.5.1-.3.1-.7.1-1v-3c0-2.6-1.9-5-4.3-5.7-1.4-.4-2.8-.7-4.1-1.2-2.7-.8-5.4-1.1-8.2-.4-2.4.6-4.7 1.3-6.2 3.5-.3.4-.6.8-1 1.1-.6.5-1.2.9-1.9 1.4zm-.4 58.7c-.1 1.1.4 2.7 1.7 3.7 1.4 1.1 3.1 1.7 4.7 2.5.5.3.9.1 1.3-.3 1.2-1.1 2.4-2.2 3.6-3.2 1.4-1.1 1.7-2.7 1.5-4.3-.4-2.5-1.2-5-2.6-7.2-.3-.5-.7-.8-1.4-.6-.6.1-1.2.4-1.7.3-2.1-.3-3.4.7-4.4 2.4l-.4.5c-1.3 1.6-2.1 3.4-2.3 6.2zm22.3-65c0 .1 0 .2-.1.4l.5.3c2.4 1.7 4.9 3.5 5.1 6.9.1 1.7.2 3.4-.1 5-.5 2.1-1.9 3.6-3.8 4.7-1.1.6-2.2 1.2-2.8 2.5 1.6.7 3.1.4 4.5 0 1.8-.5 3.1-1.9 4.2-3.5 1.2-1.6 1.8-3.4 2.1-5.3.5-2.6 0-4.9-2.6-6.4-.4-.3-.8-.7-1.1-1.2-1.1-1.4-2.7-2.2-4.3-3-.4-.4-1.1-.3-1.6-.4zm-12 52c.7 1.3 1.4 1.6 2.3 1.4 1.5-.4 3-.8 4.4-1.4 2.3-.9 4.5-2 6.8-3 .9-.4 1.9-.8 2.8-1.3.4-.2.8-.6.9-1 .1-.7-1.3-1.6-1.9-1.3-2.2.8-4.4 1.7-6.6 2.6-1.3.5-2.8.9-4 1.8-2-.1-3.1 1.5-4.7 2.2zm-29.5-26.1c1.7-.4 3.2-.8 4.5-1.5 1.5-.8 3.1-1.5 4.9-1.6 1.9 0 2.1-.3 2.7-2.1.5-1.7.1-2.3-1.7-2.2l-3.5.5c-2.5.2-4.2 1.7-5.4 3.7-.6.9-1.3 1.8-1.5 3.2zm40.1 65.5l-.2-.3-1.2.5c-1.8.9-3.7 1.7-5.7 1.9-1.2.1-2.5.1-3.7.3-1.8.4-3.5.2-5.3-.3l-6.9-1.8-1.2-.1c.4.4.5.6.8.8 1.1.6 2.2 1.3 3.4 1.8 1.9.9 4 1.4 6.1 1.8 2.5.4 4.9.3 7.2-.9 1.1-.5 2.1-1 3.2-1.6l3.5-2.1zm-41.2-31.1c-3.7 3.3-4.5 13.4.7 18.9 0-.2.1-.3 0-.4-.7-1.8-1.3-3.7-1.5-5.7-.1-.6-.1-1.2-.3-1.7-1-3-.6-5.9.3-8.8.3-.9.6-1.6.8-2.3zm38.7 30.1c-.3 0-.5-.1-.7-.1-4.1.7-8.2 1-12.3 1.1-.7 0-1.5.3-2.5.4 4.3 2.1 13.6 1.2 15.5-1.4zm-6.3-18.5c-.5.2-1.1.4-1.6.5-1.1.2-1.9.6-2.4 1.7-.6 1-1.4 1.2-2.5.8-.6-.2-1.2-.5-1.8-.8-1.3-.5-2.5-.9-4.1-1.5.6 1.4 1.7 1.8 2.6 2.5 1.7 1.4 3.7 1.6 5.7.9 2-.6 3.4-2 4.1-4.1zm-31.2-49.7c-2.4.8-4 3.9-3.3 6.2 1.1-2 2.2-4 3.3-6.2zm23.1 49.6c-1.7-1.2-3.2-2.3-5-3.6.4 2.1 2.1 2.6 3.2 3.5.5.4 1.1.6 1.8.1zm12-53c2.3 1.2 3.8.9 4.2-.8-1.4-.1-2.7.4-4.2.8zm-12.5 35.8c.9-.3 1.9-.4 2.3-1.7-.6 0-1.1-.1-1.5.1-.4.3-1.1.7-.8 1.6zm-2.7 3.1c.1.1.2.2.3.2.9-.4 1.3-1.1 1.8-2.1-.4 0-.8-.1-.9 0-.5.6-.8 1.3-1.2 1.9zm4.5-7.9c-.9-1-1.2-1.1-2.6-1.3.6 1.2 1.3 1.5 2.6 1.3zm1.3 5.2c.7.5 1.2.3 1.6-.2.1-.1 0-.5-.1-.6-.6-.4-1 .1-1.4.4 0 0 0 .1-.1.4zm-8.7-45.8c-.7.2-.9.5-.8 1.2.6-.2.9-.4.8-1.2zm-18.4 58.9h.4v-1.8h-.2c0 .6-.1 1.2-.2 1.8zM185.9 104.8c.8-.4 1.5-.8 2.2-1l5.1-1.3c2.5-.8 4.9-1.7 7.4-2.4 1.7-.5 3.5-.8 5.3-1.3 1.5-.4 2.7.5 3.8 1 .8.4.5 1.4.2 2.1-.6 1.3-1.2 2.6-1.7 3.9-.6 1.5-1.2 3-1.4 4.6-.3 2.5-.3 5.1-.4 7.6-.2 3-.4 6-.5 9 0 .9.1 1.8.2 2.8 0 .3.2.7.1 1-.6 1.9-.2 3.8.1 5.6.2 1.5.1 2.8-.2 4.2-.8 4.1-.2 8.2 2.1 11.8.2.3.4.6.4.9 0 1.1.4 2 1.5 2.9-1.2.3-2.1.6-3 .9-.5.1-1 .1-1.4.4-1.8 1.2-3.9 1.2-5.8 2.1-.2.1-.4.2-.6.2-3.9 0-7.5 1.6-11.2 2.7-.2.1-.4.2-.6.2-.5 0-1.2 0-1.5-.3-.3-.3-.2-1 0-1.5.8-2.5 1.7-4.9 2.4-7.4.2-.7.2-1.4.2-2.1 0-.8-.1-1.6.1-2.3.7-4.4.5-8.7.5-13.1 0-1.5-.3-3.1-.2-4.6.1-2.1.4-4.2.7-6.3.8-4.4 1.2-8.9 1.2-13.4 0-1.8-1-3.2-2.2-4.5-1.1-.9-1.9-1.5-2.8-2.4zm9.4 8.1l-.3-.4c-.9.8-1.8 1.5-2.6 2.4-.2.2 0 .7 0 1.3 1.1-1.3 2-2.3 2.9-3.3zm-2.4 19.1c1.5-.5 2.9-2.2 3.5-3.9-1.2 1.2-2.3 2.5-3.5 3.9zm6.4 1.5c-.6.8-1.8 1.1-1.8 2.3.8-.6 2.1-.7 1.8-2.3zm-4.2.8c1.5-.4 1.7-1.4 2.4-2.5-1.6.3-1.8 1.4-2.4 2.5zm7-18.6c.9.1 1.2-.2 1-1.1-.8.1-1.1.4-1 1.1zm-7 10.1c1.3-.9 1.3-.9 1.1-2.1-.4.7-.7 1.3-1.1 2.1zm8.6-15.8c-.9.1-1.1.5-1 1.2.7-.1 1.1-.3 1-1.2zm-6.5 33.3l.3.3c.5-.3.9-.7.7-1.5l-1 1.2zm-5.5-13.7l.4.3.8-1.3-.3-.2c-.2.5-.5.9-.9 1.2zm15 26.1c-.3-.2-.4-.4-.6-.4-.2 0-.3.2-.5.3.2.2.3.4.5.5.1-.1.3-.3.6-.4zm-14-38.6h-.5v.9h.4c0-.2.1-.6.1-.9zm.6 19l-.5-.5c-.1.1-.3.2-.3.3 0 .1.1.3.2.4.1.1.3 0 .6-.2zm6.4 12.7l.3.2.4-.7c-.1 0-.3-.1-.3-.1l-.4.6zm-1.3-18.7c-.1 0-.2.1-.2.1 0 .1 0 .2.1.3.1 0 .2-.1.2-.1 0-.1 0-.2-.1-.3zM431.1 238.4c1.2-.4 1.5-1.4 1.8-2.4l.8-2.7c.7-1.8.1-3.6-.1-5.4-.1-1.3-.5-2.6-.7-3.9-.2-1.4-1-2.6-1.8-3.7-.7-1-1.6-2-2.3-3.1-.1-.1-.2-.3-.3-.7.5.1.8.1 1.1.2.4.1.9.2 1.3.1 1.3-.5 2.3.1 3.1.9 1.8 1.8 3.9 2 6.1 1.5.6-.1 1.2-.2 1.7-.4 1-.3 1.2-.7 1.3-1.7.1-3.3.1-6.6.3-9.9.2-3.8.7-7.6 1-11.4v-.3c-.3-3.4.9-6.5 2.3-9.5.1-.2.2-.4.2-.6 0-.1 0-.2-.1-.4-1.5-.1-2.4 1-3.7 1.7-.1-.9.3-1.5 1-1.7 1.2-.5 1.8-1.5 2.4-2.5.2-.4.5-.8.8-1 .5-.4 1.1-.5 1.6.2-.6.8-1.9 1.2-2 2.5.3 0 .6.1.8 0 .8-.4 1.6-.5 2.4 0 .9.6 1.4 1.4 1.6 2.4.2 1 .3 2.1.3 3.1 0 1.7.1 3.3.5 5 .1.5.1 1.1 0 1.6-.6 2.1-.7 4.2-.6 6.3 0 1.1-.5 2.3-.6 3.5-.3 2.6-.9 5.1-2 7.4-.5 1.3-1 2.6-1.9 3.7-1.3 1.5-1.2 3.1-1 4.8.2 1.6.6 3.1 1.1 4.6.4 1.3.9 2.6 1.5 3.9.9 1.9 2 2.2 3.8 1.2.3-.1.5-.3.8-.3.7-.1 1.5-.3 2.3-.4 0 .1 0 .3-.1.4-1.5 1.6-3.2 2.8-5.4 3-2.2.3-4.5-1.3-5.2-3.4-1.1-3.2-1.7-6.5-1.9-9.9 0-.3 0-.6-.1-.9-.1-.6-.5-1-1-.6-1.7 1-3.7.9-5.6 1.3-.5.8-.6 1.7-.3 2.7.3 1 .6 2.1.6 3.2.1 3.2.2 6.3-.2 9.5-.3 2.9-3.4 5.8-6.6 5.9-.4 0-.8-.1-1.1-.3-.5-.2-1-.6-1.7-.9-.7.6-1.3 1.4-2.1 1.9s-1.6 1-2.5 1.2c-1.6.5-3-.3-3.9-1.9-1.7-3.1-2.7-6.4-2.9-9.9 0-.2 0-.4-.1-.6-1.4 1-2.7 2-4 3-.5.4-.8 1-.8 1.8 0 1.9-.2 3.8-.3 5.8l-.1.4c-.6 1.6-1.2 3.3-1.9 4.9-1.2 2.5-3.2 4.3-5.6 5.7-.1.1-.3 0-.5 0 0-.6.3-1.1.7-1.4 2.4-1.9 3.5-4.5 4.2-7.3.4-1.4.6-2.8.8-4.2.1-1 0-2-.3-2.9-.3-1.1-.5-1.2-1.6-.9l-2.3.6c-1.7.4-3.4.4-5-.6-.2-.1-.4-.2-.7-.3-.8-.2-1.3-.1-1.5.7-.4 1.4-.7 2.8-1 4.2-.1.6-.3 1.2-.4 1.9-.3 1.7-.1 3.4.3 5 .4 1.8 1.7 3.1 3.3 4l1.4.7c-.6.4-1 .7-1.3 1-.8-.2-1.5-.4-2.2-.6-1.4-.4-2.5-1.2-2.9-2.7-.2-.8-.5-1.6-.9-2.4-1-1.7-.8-3.5-.6-5.3.3-3.3 1.4-6.2 2.9-9.1 1.4-2.8 3.4-5.1 6.4-6.2 1.1-.4 2-.4 3.1.2 1.8 1 3.3 2.3 4.4 4.1.6 1 1.2 1.1 2.1.3.7-.6 1.3-1.4 2-2.2.2-.3.4-.6.6-.8 1.8-1.8 2.2-4.1 2.6-6.5.1-.5.1-1.1.8-1.2.7-.1.9.4 1.2.9.5.9.5 1.8.7 2.8.2 1.1.4 2.3.3 3.3-.1 1.2-.1 2.4.1 3.7.2 2.2.4 4.4.7 6.6.1.5.3 1 .5 1.6.2.8.7 1.1 1.5 1.1s1.3-.3 1.6-1c.5-1.2.9-2.5.9-3.9-.1-1.9.1-3.8.1-5.8 0-1.2.7-2.1 1.4-2.8.2-.3.9-.4 1.2-.3.3.1.6.6.7 1l.1 2.1.5 2.3c.1.5.2 1.1.2 1.6.1 1.4.3 2.9 1.9 3.8zm17.7-50.6c-.6 1.2-.9 2.2-1 3.3-.1 1.4-.3 2.7-.5 4.1-.1.7-.3 1.4-.4 2l-.4 6.9c-.4 2.5-.3 5.1-.4 7.7 0 .5 0 1 .1 1.7 1.2-.6 1.6-1.5 1.8-2.4.5-1.7 1-3.3 1.1-5.1.2-2.7.6-5.4.7-8.1.1-3.2-.2-6.4-.7-9.6 0 0-.1-.1-.3-.5zm-47.7 44c.4 2.1 1.2 2.8 3.1 2.9l1.8.1c.6 0 1-.4.6-.9-.3-.4-.7-.7-1.1-.8-.8-.2-1.6-.4-2.3-.9-.5-.5-1.2-.7-2.1-.4zm30 9.2c-.3-.2-.4-.3-.6-.3-.1 0-.3.2-.4.3.1.1.2.3.4.3.1.1.3-.1.6-.3zM240.3 279.4c.5-.3.9-.7 1.4-.9.5-.3 1.1-.4 1.7-.6.9-.4 1.6-.8 1.7-2 .1-.8 1.3-1.8 2.2-1.7.3 0 .5.3 1.1.7-1.3.2-2.3.4-2.4 1.8.4-.1.8-.2 1.1-.3 2.1-1 4.2-.5 6.1.5 1.5.8 2 2.4 2 4v2.2l.1 2.1v1.3c-.3 2-.5 3.9-.2 5.9.2 1.4.2 2.9.5 4.3.1.8-.5 1.1-.8 1.7.6.5 1 1.1.9 1.9-.1.6.3 1.1 1 1.1 1.2 0 2.3.1 3.3-.9.8-.8 1.7-1.4 2.7-2.2.4 1 .2 1.7-.3 2.2-1.6 1.7-3.5 2.8-6 2.5-2.2-.3-3.4-1.4-3.9-3.5-.3-1.3-.5-2.7-.5-4.1.1-3.6.4-7.2.6-10.8.1-1.9-.2-3.7-.6-5.6 0-.2-.1-.5-.3-.5-.8-.1-1.5-.8-2.4-.4l-.4.2c-3 1.3-3 1.3-3.6 4.6-.4 1.8-.8 3.6-.7 5.6.1 1.6-.6 3.2-.8 4.8-.2 1.5-.3 3-1 4.4-.4.7.1 1.3.7 1.9-.5.4-.8.7-1.3 1.2.4.7.2 1.3-.3 2-.8 1.1-1.5 2.3-2.4 3.4-.4.6-1 1.2-1.5 1.6-1.1.9-2.3 1.7-3.5 2.4-1.9 1.2-4.2 1-5.9-.6-1-.9-1.2-.9-1.9.2-1.4 2.4-3.5 3.9-6.2 4.5-.5.1-.9.1-1.6.1l.3-1.7-1.2.3c-.4-.7-1.1-.9-1.9-1-1.9-.2-3.1-1.6-3.9-3.1-.8-1.4-1.2-2.9-1.7-4.4-.4-1.3-.5-2.6 0-3.9.3-.9.3-2 .4-2.9.1-1.3.2-2.7.4-4 .1-.6.3-1.1.6-1.7.8-1.6 1.5-3.1 2.4-4.6 1-1.6 2.1-3.1 3.3-4.5.5-.5 1.4-.9 2.1-1 2.4-.3 4.7.1 6.7 1.8 1.4 1.2 1.4 1.2 2.5-.3l.3-.3c.7.1 1.2.5 1.3 1.1.1.6.2 1.3.1 1.9-.1 1.1-.1 2.1.3 3.2.3.9.6 1.8-.1 2.7-.1.1-.1.2-.1.3-.1 2.6-.3 5.2-.2 7.8 0 1.1.5 2.3.9 3.4.4 1 1.3 1.1 2.1.4.3-.2.5-.4.8-.7l.9.8c.2-.1.3-.1.4-.2 2.2-2 3.7-4.5 4.4-7.4.2-.8.6-1.5.8-2.2.2-.7.5-1.4.4-2-.2-2.1.2-4 .6-6-.2-2.4-.2-4.5-1.5-6.8zm-14.3 14.8l.1-3.9c0-.4-.1-1.2-.4-1.3-1.7-.8-3.4-1.3-5.3-.5l-2.5 1.3c-.8.4-1.4 1-1.9 1.8-.9 1.3-1.7 2.6-2.5 4-.2.4-.2.8-.3 1.3-.1 1.3-.2 2.7-.4 4-.2 1.5 0 3 .5 4.5.6 1.6 1.9 2.8 2.8 4.2.4.7.9.7 1.6.4 1.9-.8 3.1-2.4 4.4-3.9.6-.7 1.1-1.7 1.8-2.4.6-.7 1.1-1.4 1.2-2.3.4-2.4.6-4.8.9-7.2zm-6.6-10.5l6.6 1.4c-1.6-2.1-4.6-2.7-6.6-1.4zm14.9 24.3h-4.6c.5.4.8.6 1.1.8 1.4 1.3 2.4 1.1 3.5-.8zm-15.7-19.9c1.4-.1 2.3-.5 3.2-1.3-1.1-.5-1.8-.2-3.2 1.3zm-5.5 19.5c-.1 1.1-.1 1.1.9 1.4-.3-.6-.6-1-.9-1.4zm9.1 1.9c-.3.2-.7.5-1.4 1 1.1-.2 1.4-.7 1.4-1zm10.1-4.3c-.1-.1-.1-.2-.2-.2l-.2.1c.1.1.1.2.2.2 0 .1.1 0 .2-.1zM295.1 262c.6-.8 1.2-1.6 1.7-2.5.4-.8 1.1-1.2 1.9-1.2 1.5-.1 2.9.2 3.7 1.7.2.4.6.6 1 .8.9.5 1.6 1.3 1.7 2.3.1 1.1.2 2.2.2 3.4.1 3.1-.4 6.2.1 9.3.2 1.5 0 3 .6 4.4l.2.7c.6 1.6 1 1.7 2.5.8 1.9-1.1 3.3-2.7 5-4.2.3-.2.6-.4.8-.6.6.5.3 1 .1 1.3-1 1.9-2 3.9-3.5 5.5-.8.9-1.7 1.3-2.9 1-1.3-.2-2.5-.4-3.6-1.3-.8-.7-1.4-1.5-1.6-2.4-.4-2.4-.9-4.7-.7-7.2.2-2.8 0-5.6-.1-8.4 0-.5-.3-1-.6-1.5-.3-.6-.8-.8-1.3-.4-.9.6-2 1.2-2.7 2-1.4 1.7-2.4 3.7-3.3 5.8-.2.4-.2.9-.3 1.3-.7 3.1-.7 6.4-1 9.6-.2 1.8-.4 3.7-.6 5.6-.7 0-1.3.1-1.8 0-.9-.2-1.6.1-2.1.7l-1.7 1.9c-1.8 1.8-3.3 2.6-5.5 1.4-1.4-.7-2.7-1.4-4.3-2.3-.5 0-.4.8-.7 1.3-.8 1.4-1.5 2.8-2.3 4.1-.3.4-.8.7-1.2 1.1-1.2.9-2.5 1.1-3.9.2-.2-.1-.5-.2-.7-.2-2.2-.6-3.4-2-4-4.2l-.9-3.7c-.2-.7-.5-1.3-.8-1.9-.5-.9-.4-2-.2-2.9.8-3.3 1.7-6.6 3.2-9.6.9-1.7 2.2-2.7 4-3.3.7-.2 1.5-.4 2.1-.7 1.2-.7 2.5-.8 3.9-.5l1.2.3c2.3.5 2.9 1.6 3.4 4.1v.7c-.3 2.8-.9 5.6-1 8.4-.1 1.8.4 3.6 1.3 5.2.3.4.7.8 1.1 1.1.6.5 1.2.5 1.8 0l1.6-1.1c.5-.4 1-1 1.8-.8.2 0 .6-.3.8-.5.8-1 1.4-2 1.6-3.3l.3-2.4 1-8.4c.3-3 .4-6 .6-9 0-.6 0-1.3.1-1.9.6-4.9.8-9.7 1-14.6.1-2.3.6-4.6.8-6.9.1-1.3.2-2.6.2-3.8 0-.3 0-.6.1-.9.1-.9.5-1.1 1.3-1 1 .1 1.2.4 1.2 1.3 0 .8-.2 1.6-.3 2.4-.2 3.2-.5 6.3-.6 9.5-.1 2.8 0 5.5 0 8.3l-.1 6.3c.2-.2.3-.2.4-.2zm-19.1 15.1c.2-1.1.3-2.2.4-3.2.1-.6-.1-.9-.7-1.1-.7-.2-1.5-.6-2.2-.9-1.1-.5-1.3-.5-2.1.4-2 2.2-3.6 4.6-4.5 7.5-.9 2.9-1.5 5.8-1.1 8.9.2 1.5.7 2.9 1.7 4 1.5 1.7 2.6 1.6 4.2.1 1.5-1.4 2.2-3.2 2.8-5 .6-1.7 1.3-3.5 1.2-5.4-.1-1.7.2-3.5.3-5.3zm24.7-16c0-.8-.4-1.3-1.1-1.4-.8-.2-1.4.1-1.8.7l-1.1 2.2c.1.1.1.2.2.2l1.8-.9c.6-.2 1.3-.5 2-.8zm-26.1 9.3c.2.6.5.8 1 .2-.3 0-.7-.1-1-.2zM503.3 217.9c-.7.3-1.6.4-2.2.8-1.4 1-2.9 1.6-4.5 1.7-2 .1-3.6 1.2-5.1 2.2-2.9 2-5.6 2.2-8.5.3-.6-.4-.9-.9-.8-1.6.1-.7.1-1.5 0-2.2 0-1.5.3-2.2 1.6-2.6 1.2-.5 2.5-.8 3.8-1 .3-.1.8.2.9.5.3.8.9 1 1.6 1 .5-.7.4-1.4.2-2-.7-3.5-2.1-6.7-4.6-9.3-.2-.2-.3-.4-.6-.5-.5-.3-.9-.2-1.2.4-.2.6-.4 1.2-.5 1.9-.5 1.8-.9 3.6-1.5 5.4-.3 1-.9 1.8-1.3 2.8-.5 1.1-1 2.2-1.4 3.3-.3.8-.9 1.6.4 2.4-1.4-.5-2.1.2-2.7 1l-1.5 2.2c-1 1.5-2.3 2.7-3.7 3.8-2.3 1.8-5.1 2.6-7.9 3.1-1.2.2-2.2-.2-3.3-.6-3.5-1.5-5-4.4-5.8-7.9-.3-1.5-.7-3-.3-4.5l.3-1.4c.1-.3.3-.8.2-1-.5-.9 0-1.5.3-2.2.2-.4.4-.7.5-1.1.7-2.3 2.3-4 4.1-5.5 1.2-1 2.7-.8 4.1-.7.8.1 1.6.2 2.5.3.2 0 .5 0 .7.1 1.5.9 3.1 1.8 4 3.4.3.5.4 1.3.3 1.8-.2 1.3-.6 2.5-1 3.7-.1.5-.4.9-.7 1.3l-1.9 2.1c-.6.7-1.4 1.1-2.4 1.5-1.9.7-3.8 1-5.8 1.1-1.1.1-1.3.3-1.1 1.4l.5 2.6c.2 1.7 2.7 3.4 4.3 3.2.6-.1 1.2-.2 1.7-.4.5-.1.9-.5 1.4-.5 1.2 0 2-.7 2.8-1.4.4-.4.8-.7 1.3-1 1.1-.7 2-1.6 2.5-2.9.2-.6.7-1.1 1.1-1.6 1.5-1.7 2.7-3.5 3.4-5.7.4-1.3 1-2.6 1.6-3.8.9-1.9 1.1-3.9 1.3-5.9.1-.8.2-1.7.5-2.5.1-.4.4-.8.7-1.1 1.3-1.2 2.8-1.3 4.4-1.2.3 0 .8.3 1 .6l2.2 3.5c.7 1 1.4 1.9 2.1 2.8.8 1 1.3 2.1 1.5 3.4.3 2.1 1 4.2.9 6.4 0 .8.7 1.4 1.7 1.4 1.7 0 3.3-.4 4.6-1.7.6-.6 1.3-1.1 2-1.5.3-.2.8-.1 1.1.1.2.2.1.7.1 1l.1.8zm-44.8-4.8l.4-.4-.2-.1c-.1.1-.1.3-.2.5-.1.3-.2.5-.3.7.1 0 .2.1.2.1 0-.3.1-.6.1-.8zm8.7-.2c-.3-.5-.5-1.1-.9-1.5-1.4-1.3-4.6-.3-5 1.3-.2.8-.5 1.5-.8 2.2-.2.6-.6 1.2-.7 1.9-.2 1.1.1 1.5 1.3 1.5.3 0 .7 0 1-.1 1.9-.6 3.3-1.8 4.4-3.3.3-.5.4-1.2.7-2zm18.1 6.9c0 .3.1 1 .2 1.6.1.7.6 1 1.2 1.1 1.3.2 2.5-.4 3.1-1.6.4-.7.4-1.2-.3-1.7s-1.5-.8-2.3-1.1c-1.3-.5-1.8-.1-1.9 1.7zm-20.2-11.2c-1.1-.7-1.1-.7-1.9-.1.6 0 1.1 0 1.9.1zm-.5 10.5l.2.3.8-.5-.1-.3-.9.5zM213 263.2c-.9-1.2-.8-1.7.4-2.1 2.4-1 5-1.9 7.3-3.1 2.4-1.2 5-1.8 7.1-3.6.1-.1.4-.2.5-.2 1 .4 1.7-.2 2.2-.8.6-.7 1.4-.9 2.1-1.2 3.7-1.6 7.7-2.7 11.2-4.7.2-.1.5-.2.8-.3.9-.2 1.8.2 2.1.9.3.7 0 1.6-.8 2.1-.2.1-.4.3-.8.5.4.2.6.3.8.5 1 1.4 2.2.9 3.4.3.3-.2.8-.5 1-.4 1.3.5 2-.3 3-.8 1.1-.6 2.4-1 3.7-1.4 1.1-.3 1.6-.7 1.7-1.9l.5-3.3c.1-.7.3-1.2 1.1-1.3h.2c1.5-1.3 3.5-.9 5.2-1.7 1.6-.8 3.4-1.4 5.1-2 1.3-.5 2.6-.9 4.1-.3.3 1.6-.8 2.6-1.4 3.8-.5 1.3-1.2 2.5-1.7 3.6.8 1 1.6 1.9 2.3 2.8 1 1.3.8 2.2-.7 2.6l-4.6 1.3c-1.4.4-2.8.9-4.3 1.4-1.5.5-2 1.8-2.3 3.2-.1.4-.2.9-.3 1.6-1.9-1.5-3.4-.2-5.1.1l-3.5 1-6 1.8c-.8.3-1.6.5-2.4 0-1-.6-1.9.1-2.9.4-.2.1-.4.5-.5.8-.1.3-.2.6-.3 1-1.3-1.2-1.7-2.5-1.2-4 .2-.9.4-1.8.5-2.8.1-1-.4-1.4-1.4-1.2l-2.7.5c-.2 0-.5.1-.6.2-1 1-2.2.7-3.6 1.1.3-.8.6-1.3 1-2.1-1.2.3-1.8.9-2 1.8-.2.9-.7 1.2-1.4 1.4-1.6.5-3.3 1-5 1.3-.8.1-1.6.3-2.3.7-.5.2-1 .3-1.6.4-1.2.2-2.4.2-3.5.9-1.5.8-3 .8-4.4 1.2zm47.7-11.1c-1 1.1-2.2 1.2-3.4 1.4-1.1.1-1.5 1-1.8 2.2 1.2 0 2.3.1 3-.8.4-.6.9-1 1.6-1.3.4-.3.9-.6.6-1.5zm-36.5 6.4c2.3-.2 4.2-1.2 6-2.5.1 0 0-.3-.1-.4-.1 0-.2-.1-.2-.1-1.7.4-3 1.8-4.8 2-.3.1-.6.6-.9 1zm16.4-4.9c1-.4 1.9-.9 2.2-2-1.2-.2-1.3-.1-2.2 2zm4.1-4.3c-.4-.2-.6-.5-.8-.5-.5 0-.8.3-.8.9 0 .2.4.5.5.5.3-.2.6-.5 1.1-.9zm-5.5 5.3l-.6-.5c-.1.2-.4.3-.4.5.1.2.3.4.5.5 0 0 .2-.3.5-.5zm24.3-5.1c-.1-.1-.3-.2-.4-.2-.3.4-.5.8-.8 1.1l.4.3.8-1.2zm-10.2 3.5c-.1.2-.2.3-.3.4 0 .1.1.3.2.3s.3-.1.3-.2-.1-.3-.2-.5zm-9.4 1.2l-.2-.3-.6.6.2.2c.2-.2.4-.4.6-.5zm26.1-10.2c-.1.1-.3.2-.3.2 0 .1.1.3.2.4.1-.1.2-.1.2-.2s0-.2-.1-.4zm-18.7 12l-.3-.3-.2.2.2.3c.1 0 .2-.1.3-.2zm-30.2 3.9l-.3-.2-.1.1c0 .1.1.2.1.2.1.1.2 0 .3-.1zM373.4 210.2c-.9-1.2-.8-1.7.4-2.1 2.4-1 5-1.9 7.3-3.1 2.4-1.2 5-1.8 7.1-3.6.1-.1.4-.2.5-.2 1 .4 1.7-.2 2.2-.8.6-.7 1.4-.9 2.1-1.2 3.7-1.6 7.7-2.7 11.2-4.7.2-.1.5-.2.8-.3.9-.2 1.8.2 2.1.9.3.7 0 1.6-.8 2.1-.2.1-.4.3-.8.5.4.2.6.3.8.5 1 1.4 2.2.9 3.4.3.3-.2.8-.5 1-.4 1.3.5 2-.3 3-.8 1.1-.6 2.4-1 3.7-1.4 1.1-.3 1.6-.7 1.7-1.9l.5-3.3c.1-.7.3-1.2 1.1-1.3h.2c1.5-1.3 3.5-.9 5.2-1.7 1.6-.8 3.4-1.4 5.1-2 1.3-.5 2.6-.9 4.1-.3.3 1.6-.8 2.6-1.4 3.8-.5 1.3-1.2 2.5-1.7 3.6.8 1 1.6 1.9 2.3 2.8 1 1.3.8 2.2-.7 2.6l-4.6 1.3c-1.4.4-2.8.9-4.3 1.4-1.5.5-2 1.8-2.3 3.2-.1.4-.2.9-.3 1.6-1.9-1.5-3.4-.2-5.1.1l-3.5 1-6 1.8c-.8.3-1.6.5-2.4 0-1-.6-1.9.1-2.9.4-.2.1-.4.5-.5.8-.1.3-.2.6-.3 1-1.3-1.2-1.7-2.5-1.2-4 .2-.9.4-1.8.5-2.8.1-1-.4-1.4-1.4-1.2l-2.7.5c-.2 0-.5.1-.6.2-1 1-2.2.7-3.6 1.1.3-.8.6-1.3 1-2.1-1.2.3-1.8.9-2 1.8-.2.9-.7 1.2-1.4 1.4-1.6.5-3.3 1-5 1.3-.8.1-1.6.3-2.3.7-.5.2-1 .3-1.6.4-1.2.2-2.4.2-3.5.9-1.5.9-3 .9-4.4 1.2zm47.6-11.1c-1 1.1-2.2 1.2-3.4 1.4-1.1.1-1.5 1-1.8 2.2 1.2 0 2.3.1 3-.8.4-.6.9-1 1.6-1.3.5-.3.9-.6.6-1.5zm-36.4 6.4c2.3-.2 4.2-1.2 6-2.5.1 0 0-.3-.1-.4-.1 0-.2-.1-.2-.1-1.7.4-3 1.8-4.8 2-.3.1-.6.7-.9 1zm16.4-4.9c1-.4 1.9-.9 2.2-2-1.3-.1-1.3 0-2.2 2zm4.1-4.2c-.4-.2-.6-.5-.8-.5-.5 0-.8.3-.8.9 0 .2.4.5.5.5.3-.2.6-.5 1.1-.9zm-5.5 5.3l-.6-.5c-.1.2-.4.3-.4.5.1.2.3.4.5.5 0-.1.2-.3.5-.5zm24.3-5.2c-.1-.1-.3-.2-.4-.2-.3.4-.5.8-.8 1.1l.4.3.8-1.2zm-10.2 3.5c-.1.2-.2.3-.3.4 0 .1.1.3.2.3s.3-.1.3-.2l-.2-.5zm-9.4 1.2l-.2-.3-.6.6.2.2c.1-.1.3-.3.6-.5zm26.1-10.1c-.1.1-.3.2-.3.2 0 .1.1.3.2.4.1-.1.2-.1.2-.2s-.1-.2-.1-.4zm-18.7 11.9l-.3-.3-.2.2.2.3c.1.1.2 0 .3-.2zm-30.2 4l-.3-.2-.1.1c0 .1.1.2.1.2.1 0 .2 0 .3-.1zM388.1 258.1c-.6.4-1 .3-1.3-.1-1.3-1.4-2.3-2.9-2.4-4.9-.1-3.4-.4-6.8-.7-10.2-.1-.7-.3-1.4-.4-2-.2-1.2-.3-2.4-.6-3.7-.3-1.3-.8-1.5-1.8-.7-2.4 2-4.2 4.5-4.4 7.7 0 .1 0 .3-.1.4-1.2 3.1-.9 6.3-1 9.5l.1 5.9v.6c-.1 1.6-.5 1.9-2.3 1.5-.2-1.3-.8-2.4-1.8-3.2-.5-.4-.6-1.1-.3-1.6 1-2.2.8-4.4.7-6.7-.1-1.1.1-2.3.3-3.4.4-1.6.3-3.1-.2-4.7-.3-.8-.5-1.6.1-2.4.4-.5.4-1.2-.2-1.6-.6-.4-1.2-.1-1.6.4-.7.9-1.5 1-2.5.5.1-.5.1-1 .1-1.4 0-1.3.1-1.5 1.3-1.9 1.4-.5 2.8-.2 4.1.3.5.2.8.7 1.3 1.1l3.3-4.1c.6-.8 1.4-1.3 2.4-1 1.8.5 3.6.3 5.4 0 1.7-.4 2.8.6 3.1 2.3l.7 3.5c.4 1.5.5 2.8-1 3.8-.3.2-.5.7-.5 1-.3 2-.6 4-.8 6-.2 2.1 0 4.2.4 6.3.4 1.1.5 2 .6 2.8zm-1.7-20.9c.3-1 .2-1.8-.5-2.4-.2-.2-.6-.1-.9-.2-.1.3-.2.6-.1.8.2.7.6 1.3 1.5 1.8zM503.2 217.9c.3.1.5.2.8.4 1.3.7 1.2.7.7 2.1-.6 1.8-2.1 2.4-3.5 3.1-.1-.1-.1-.2-.2-.2l1.2-1.1c.4-.4.7-.9 1.1-1.4 1.1-1.1 1.1-1.2.3-2.4-.2-.2-.2-.4-.4-.5zM474 209.9c-.1-1.9 1.2-2.9 2.7-2.3 1.5.7 1.5.7 2 1.5-.4.4-.8.1-1.2-.1-1.7-1.1-1.7-1.1-3 .4 0 .1-.2.2-.5.5zM317.8 292.1c1.5-1.5 3.4-2.4 5.3-3.2l.2.3c-.2.3-.4.6-.6.8-1.5 1-2.9 2.1-4.9 2.1zM257 291.1c1.2.9 1.5 2.3.7 3.6-.9-.6-1.2-2-.7-3.6zM228.7 240.1c2.2-1 4.6-1.5 6.9-2-2.2 1.2-4.5 1.8-6.9 2zM318.5 292.2c-.5.3-.9.6-1.4 1-1.4-.6-1.5-1.3-.2-2.6.4.6 1.3.7 1.6 1.6zM227.1 374.3c0-1.2 1.4-3.8 3.2-6-.5 2.4-1.7 4.2-3.2 6zM257 290c-.7-2-.6-2.6.4-3.3.7 1.3.6 2.4-.4 3.3zM102 278.7c-.2.2-.3.5-.5.6-2.4.8-4.9 1.6-7.4 2.1 2.5-1.2 5.3-1.8 7.9-2.7zM102 278.7c2-.6 4-1.1 6.2-1.7-1.2 1.2-4.1 2-6.2 1.7zM479.7 173.8c-.9.3-1.8.5-2.8.8-.4-.6-.1-1 .4-1.3.8-.5 1.5-.3 2.4.5zM480.1 226.2c.2-1.1 1.1-1.5 1.9-2-.3 1-1 1.7-1.9 2zM278.9 224.6c-.3.3-.6.8-1 .9-1.2.3-2.5.5-3.8.8.8-.6.8-.6 2.3-1 .9-.3 1.7-.5 2.5-.7zM96.7 375.6c1-1 2.3-.9 3.5-1.4-1.1.7-2.1 1.5-3.5 1.4zM470.5 167.1c-1 .9-1.6 1.1-3 .9 1-.8 1.6-1 3-.9zM466.2 168.1c-.5 1-.5 1-3.1.9l1.6-.5c.5-.1 1-.2 1.5-.4zM406.6 150.9c.9-.8 1.5-.7 2-.4.2.1.3.4.4.6-.2.1-.4.4-.6.4-.4-.2-.9-.4-1.8-.6zM495.7 230.7l.6-1.8c.8.9.5 1.5-.2 2-.1-.1-.3-.2-.4-.2zM206.3 246.7c-.6 1.1-1.5 1-2.4 1.2l-.1-.3c.9-.3 1.7-.6 2.5-.9zM476.9 113c1-.2 1.6-.1 2.1.9-1 .2-1.7.1-2.1-.9zM242.1 142.2c.8-.1 1.6-.2 2.7-.4-1.1.9-2.2.7-3.2.6.1-.1.3-.2.5-.2zM473.1 215.7c-.4-.5-.5-1-.1-1.5.7.5.7.9.1 1.5zM297.1 243.1c-.4.2-.6.4-.8.5-.2-.3-.4-.6-.5-.9 0-.1.4-.4.4-.4.3.2.6.4.9.8zM256.8 231.9c0-1 .7-.9 1.4-1.2-.2.9-.8 1.1-1.4 1.2zM376.7 282.4l-2.6.3c0-.1 0-.3-.1-.4l2.5-.3c.2.2.2.3.2.4zM226.2 241.2c-.6.1-1.2.2-1.8.4.6-.7.6-.7 1.6-.7l.2.3zM476.6 165.3c-.4.8-1 .7-1.8.7.5-.7 1-.8 1.8-.7zM374.1 245.7c-.2-.5-.4-.9-.8-1.7.9.5 1.2.9 1.2 1.6-.2.1-.3.1-.4.1zM324.3 151.6c0-.4 0-.9-.1-1.6.8.6.9 1.1.6 1.6h-.5zM112.3 275.7l1.3-.3.1.3-1.3.3s-.1 0-.1-.1v-.2zM333.1 294.5c-.3.5-.6.8-1.4.7.3-.7.9-.6 1.4-.7zM167 236.9c-.6-.2-1.1-.4-1.9-.7 1.1-.3 1.1-.3 1.9.7zM498.7 223.9c-.5 0-.8.1-1.2.1v-.4c.2-.1.4-.1.7-.1l.5.4zM479.7 164.2l1.3-.3.1.3c-.4.2-.8.3-1.3.5 0-.2 0-.3-.1-.5zM484.3 163l-.9.4-.1-.3.9-.4.1.3zM460.2 156.3l-.9.1v-.3c.3 0 .6 0 .9-.1v.3zM109.6 276.7l.9-.4.2.3c-.3.2-.6.4-.9.5-.1-.2-.2-.3-.2-.4zM325.5 287.4l-.7.9-.3-.3.8-.9c0 .2.1.3.2.3zM306.4 228.9c-.2.2-.4.5-.5.5-.2 0-.4-.2-.6-.4l.4-.4c.2 0 .4.1.7.3zM452.9 96.3l.9-.4.2.2c-.1.2-.3.4-.4.5-.2.1-.4.1-.6.1 0-.2-.1-.3-.1-.4zM341.4 209c.3-.1.7-.2 1-.4 0 .1.1.2.1.2-.3.2-.6.3-1 .5l-.1-.3zM152.3 264.6c-.3.2-.7.3-1.2.6.2-.8.6-.9 1-.9.1 0 .1.2.2.3zM242.1 142.2c-.3-.6-.6-1.2.1-1.9-.1.6-.1 1.2-.1 1.9zM198.2 249.4l1-.2v.2c-.3.1-.7.2-1 .4.1-.2 0-.3 0-.4zM102.9 280.9c-.5.2-1 .4-1.5.5l-.1-.3c.5-.2 1-.3 1.4-.5l.2.3zM208.7 246.2c.2-.1.5-.2.7-.4l.1.3-.7.3s0-.1-.1-.2zM269.6 227.6l-.9.2c0-.1 0-.1-.1-.2.3-.1.6-.2.8-.3.2.1.2.2.2.3zM324.2 144.8c0 .3-.1.6-.1 1h-.3v-1h.4zM388.3 104.1c-.2-.3-.4-.6-.6-1 .9-.2.8.4 1 .7-.2.2-.3.2-.4.3zM272.9 226.8l-.4.3c-.1 0-.2-.2-.2-.3 0 0 .1-.2.2-.2s.2.1.4.2zM375 256.6c.2.2.4.3.4.4 0 .1-.1.3-.3.3l-.4-.1c.2-.2.2-.4.3-.6zM192.3 183l.6.7-.3.2-.3-.9zM98.8 282.1l.6-.2s.1.1.1.2c-.2.1-.4.2-.7.2v-.2zM254 296.5l.2-.3.3.3s-.1.2-.1.3c-.2-.2-.3-.3-.4-.3zM515.1 109.8c-.2.2-.4.4-.4.3-.2-.1-.3-.2-.5-.4.1-.1.2-.3.3-.3.2.1.3.3.6.4zM318.4 292.2l.7.3c-.1.1-.1.2-.2.2-.2-.1-.3-.3-.5-.5zM337 296.7l-.4.1v-.2c0-.1.2-.1.2-.1.1 0 .1.1.2.2zM210.9 245.8l-.2-.2.1-.1c.1 0 .2 0 .3.1-.1 0-.1.1-.2.2zM218 243.6c-.1.1-.2.2-.3.2l-.2-.1c.1-.1.2-.2.3-.2.1-.1.1 0 .2.1zM194.7 250.7c-.1.1-.2.2-.4.3-.1-.1-.2-.2-.1-.2 0-.1.1-.2.2-.2s.1.1.3.1zM255.5 231.6c0 .1 0 .2.1.2l-.3.1-.1-.2c.1 0 .2 0 .3-.1zM395.3 274.6c-.2 0-.4 0-.6.1v-.2h.6v.1zM153.1 263.6c.4-.1.6-.2.8-.3l-.3.4c0 .1-.2 0-.5-.1zM371.8 281.6c.2.1.4.2.7.3l-.1.2c-.2-.1-.4-.2-.7-.3 0-.1 0-.2.1-.2zM329.6 212.8l-.6.3-.1-.2.6-.3c.1.1.1.2.1.2zM85.2 284.2h-.6c.1-.1.3-.2.4-.4.1.1.1.2.2.4zM464.7 154.6c.1.1.2.1.3.1 0 .1-.1.2-.1.2-.1 0-.2-.1-.3-.2 0 0 .1 0 .1-.1zM528.6 212.5c.1.1.2.1.2.2l-.1.2c-.1-.1-.2-.1-.2-.2l.1-.2zM249.5 140.7l-.6.2c0-.1 0-.1-.1-.2l.6-.2c.1.1.1.1.1.2zM479 115.2c-.1-.1-.2-.1-.2-.2s.1-.1.2-.2c.1.1.2.1.2.2-.1.1-.2.1-.2.2zM529.3 215.9c0-.1-.1-.2-.1-.2h.3l.1.1c-.1 0-.2 0-.3.1zM191.9 251.4l.5-.1c-.1.1-.2.2-.3.2 0 0-.1-.1-.2-.1zM201.6 248.6l-.5.1v-.1l.5-.2v.2zM498.2 229.8c-.1 0-.2.1-.2.1l-.1-.3.1-.1c.1.2.1.2.2.3zM287.8 225.3l.3-.1s.1 0 .1.1c-.1 0-.3.1-.4 0zM106 279.8l.5-.2.1.1-.4.3c-.1-.1-.1-.2-.2-.2zM496.7 209.7c0 .1.1.2.1.2 0 .1-.1.1-.2.1 0-.1-.1-.2-.1-.2s.1 0 .2-.1zM383.8 279.2l.6.2-.1.2c-.2-.2-.3-.3-.5-.4zM473.4 166.6l-.2-.1c.1-.1.1-.2.2-.2l.2.1c-.1 0-.1.1-.2.2zM263.3 229.5s0 .1-.1.1l-.2-.1.1-.1c.1 0 .1 0 .2.1zM131.4 329.7c-.1-.2-.2-.4-.2-.5l.3-.3c.1 0 .2.1.3.2-.1.3-.2.4-.4.6zM133.5 327.5l-.2.2c0-.1-.1-.2-.1-.2 0-.1.1-.1.2-.2 0 .1.1.2.1.2zM218.5 293.5c-.6.5-1.1.6-1.8 0 .7-.7 1.2-.6 1.8 0zM302.6 74c.4-.4.8-.7 1.1-1-.2-.3-.4-.7-.7-1.1.4-.2.7-.3 1-.4 1.2-.5 2.4-1.2 3.7-1.3 2.2-.3 4-1.3 6-1.9 1-.3 1.9-.6 2.9 0 .3.2.7.2 1 .1 1.2-.1 2.4-.3 3.7-.5.9-.1 1.4.3 1.2 1.2-.4 1.4-.8 2.8-1.3 4.2-1.3 3.6-1.5 7.3-1.4 11 0 .8-.2 1.5-.3 2.3-.1.9-.2 1.7-.2 2.6l-.1 2.3c-.4 1.9-.3 3.8-.2 5.8.1.9-.1 1.7-.2 2.6-.1 1.8-.1 3.5-.3 5.3-.4 3.1-.2 6.3-.2 9.4 0 2.1.6 4.1 1.7 5.9.1.2.3.4.4.7.5 1 .4 1.4-.7 1.6-.9.2-1.9.3-2.3 1.3 0 .1-.1.2-.2.2-1.5.4-3 .9-4.4 1.3-1.9.5-3.9 1-5.8 1.6-.5.2-.9.9-1.2 1.2-.9-.2-1.6-.4-2.4-.6-.9-.2-1.3-.6-1.1-1.5.4-2 .9-4 1.4-6l.2-.6c.1-1.2.1-2.4.2-3.5 0-1.7.1-3.3 0-5 0-.9-.3-1.7-.6-2.5-.3-.6-.8-.9-1.7-.8-2.5.5-5 1.1-7.1 2.5-1.3.9-2.3 2.2-2.4 3.8-.2 2.8-.3 5.6-.2 8.4 0 1.4.5 2.7 1.9 3.5l.3.2c.5.5 1.5.7 1.3 1.9-.2 1.3-.7 2.2-2 2.6-2.4.8-4.7 1.6-7 2.4-1.2.4-2.3.6-3.6.6-1.6 0-3.4.2-4.6 1.8-1.3-.4-2.5-.4-3.6.6-1.1.8-2 .3-2-1.2-.1-2.1 1-3.8 2.3-5.3.8-.9 1.2-1.9 1.5-3.1.6-2.5 0-4.9.2-7.4.2-2.3.3-4.6.5-7 0-.4.2-.8.1-1.1-.7-2.6.2-5.2.1-7.8-.1-3.3.1-6.6.2-9.9l.2-4.2c0-1.5-.1-2.9-1.2-4.3-1.3-1.6-3-3.1-3.4-5.5 2-.8 3.7-2.1 5.9-2.4 1.3-.2 2.5-.7 3.7-1.1 2.2-.7 4.4-1.2 6.4-2.1 1.6-.8 3.1-.7 4.7-.2.3.1.7.1 1.1.1 1.4.1 2 .8 1.8 2.2-.1 1-.4 1.9-.8 2.8-1.2 2.6-1.8 5.4-1.8 8.3 0 2.2-.1 4.3-.2 6.5-.1 1.7 1 2.7 2.7 2.4 1.7-.4 3.3-.8 4.9-1.4.6-.2 1.2-.8 1.6-1.3 1-1.4 1.8-2.9 1.8-4.7 0-.3.2-.7.3-1 .1-.3.4-.7.3-.9-.7-1.4.1-3-.5-4.4-.2-.5.1-1.1.1-1.7l.1-1.5c.2-1.5-.5-2.7-1.5-3.7-.7-.3-.9-.8-1.3-1.3zm-19.6 17.8l2.9-4.1c-1.1.9-1.9 2-2.7 3.1-.2.2-.1.7-.2 1-.5.1-1 .3-1 1.2.4-.5.7-.9 1-1.2zm2-10l-.3-.2-2.5 3.8c-.8 1.3-2.3 2.2-2.2 4.1 1.3-1 4.8-6.5 5-7.7zm5.2 38.6l-.5-.2c-.1 1.5-2 1.9-2.1 3.7.9-.4 1.7-.8 2.4-1.1l.2-2.4zm-7.5.3c-.9 1.3-2.3 2.4-2.9 4.2 1.9-1 2.5-2.5 2.9-4.2zm5.6-8c-1.6 0-2.2.7-2 2.3.8-.9 1.4-1.6 2-2.3zm9.1-10.7c1.3-.4 1.6-1.6 1.9-2.7-1.1.6-1.7 1.6-1.9 2.7zm6.9-.3c-1 .6-1.1.8-1 2.3.5-.8 1.4-1.2 1-2.3zm-20.7 17.9c1-1 1-1 .5-1.8l-.5 1.8zm-1.6 12.1c.7-.4 1.1-.7.8-1.7-.8.4-1.2.7-.8 1.7zm34.9-46.7c1-.6 1-.6.8-1.5-.3.6-.6 1-.8 1.5zm-36.1-2.7l.3.2 1.2-1.5c-.1-.1-.2-.2-.4-.3-.3.6-.7 1.1-1.1 1.6zm32.7 32.1c.1.1.2.2.3.2.5-.3 1.2-.4.8-1.7-.5.7-.8 1.1-1.1 1.5zm-15.8-16.3c-.1-.1-.2-.3-.2-.4-.4-.1-.9-.2-1.1.4 0 .2.2.4.3.6.4-.2.7-.4 1-.6zm3.8 8.2c.8-.1 1.4.1 1.8-.6-.8-.3-1.3-.3-1.8.6zm-20.2-11.9l-.3-.5c-.3.2-.6.4-.8.6l.2.3c.4 0 .6-.2.9-.4zm4.2 36.2c.7 0 1-.3.9-1.1-.7.1-.9.4-.9 1.1zm26.9-57c.1 0 .2.1.2.1l.5-.7-.3-.2c-.2.3-.3.5-.4.8zm-23.3 19.9l.1.1.4-.2c.1-.2.1-.4.1-.6-.1 0-.1 0-.2-.1-.1.3-.2.5-.4.8zm4.6 5.8l.4.4.5-.5-.2-.2-.7.3zm-9.4 28.5l-.2-.1c-.1.2-.2.3-.4.5l.2.1c.2-.2.3-.4.4-.5zm8.3 1.2c-.1.2-.2.4-.3.5.1 0 .2.1.2.1l.4-.3-.3-.3zm1.9-53.2c0-.1 0-.2-.1-.3l-.3.2s.1.1.1.2c.2 0 .2 0 .3-.1zm-5.3 53.3s0-.1-.1-.1l-.2.1s0 .1.1.1.2-.1.2-.1zM258.1 138.8c-.5.8-1.3.8-1.9.9-2.4.6-4.7 1.3-6.6 3-.2.2-.5.3-.8.4-.5.2-1.1.3-1.7.5-2.1.9-4.3 1.5-6.7 1.7-1.5.1-2.9.6-4.4.9h-.7c0-.9 0-1.8.4-2.5 1-2.3 2.1-4.5 2.9-6.8.5-1.2.6-2.6.7-4 .2-2.4.5-4.9.5-7.4 0-1.9.2-3.8.3-5.7l.3-5c.3-3.8.4-7.7.5-11.5 0-2.1-.7-2.5-2.7-1.9-1.6.5-3.3.8-5 1.4-1 .3-2.2.4-3 1.3-.1.1-.3.2-.5.2-1.4.2-2.8.5-4.2.6-.5.1-1-.1-1.7-.2 1.3-2 2.5-3.6 3.5-5.4.7-1.1.9-2.4 1-3.7l.4-3.3-.1-1c-.2-1.2.3-1.8 1.4-2.3 1.9-.7 3.8-.6 5.7-1.1 3.2-.9 6.4-1.7 9.7-2.5l10.7-2.7c2.5-.7 5-1.3 7.5-2.1.6-.2 1.1-.6 1.6-.9.7-.5 1.4-1 2.2-1.5.6 1.6 1.7 1.2 2.8.9l1.1-.3c.7.6.3 1.1-.1 1.7-1 1.4-2 2.7-2.9 4.1-.2.3-.4.7-.5 1l-.6 5.4v.9c-.4 1.7-1.8 2.8-3.6 3-1.8.2-3.5.6-5.2 1-.8.2-1.5.4-2.2.6-1.1.2-1.6.7-1.7 1.7l-.7 9c-.2 2-.4 4-.1 6.1 0 .2.1.4 0 .6-.6 1.7-.1 3.5-.2 5.3l-.3 2.8c0 1.7.1 3.5 0 5.2 0 1-.1 2-.2 3l.1 3.2c0 .1 0 .3.1.4 1.3 1.8 2.3 3.9 4.5 4.9.3-.1.3-.1.4.1zm-20.8-40.1c-1.1.1-1.1.1-1.4 1.7.5-.7 1.3-.9 1.4-1.7.2-.2.4-.3.6-.4-.1-.1-.2-.1-.2-.2l-.4.6zm13.3 23.3l.3-4.9c-.8.2-1.2.6-1.6 1.2-.6 1 .2 1.6.4 2.4l-1.6 1.9.2.2c.8-.2 1.6-.5 2.3-.8zm.1 5.7c-2.2 1-3.1 2-3.2 3.5.6-.4 1-.8 1.6-1 1.1-.5 1.5-1.3 1.6-2.5zm-5.1.6l-.3-.3c-.6.7-1.3 1.4-1.8 2.2-.4.8-1.4 1.3-1.5 2.7 1.7-1.4 2.5-3.1 3.6-4.6zm18.4-42.5c1.4-.3 1.4-.4 1.3-1.8-.7.5-1.2 1-1.3 1.8zm-12.5 29.1c0-.6 0-1-.1-1.4l-.3-.1c-.4.4-.7.7-1.2 1.3l1.6.2zm7.9-21.7c-.7.3-1.2.7-1 1.2 0 .1.3.3.4.3.7-.1.8-.7.8-1.3-.1 0-.2-.1-.2-.2zm-16.9 29.1c0 .8-.1 1.3-.1 2 1.2-1.1 1.2-1.1.1-2zm6.9 10.1c-1.1.3-1.5.8-1.9 1.7.9-.3 1.6-.5 1.9-1.7zm-4.6-28.6c-1.5.8-1.6 1-1.5 2.3.6-.8 1-1.5 1.5-2.3zm11.1-10c-.6.3-.9.6-.5 1.2.1.1.5.2.6.1.5-.4.3-.8-.1-1.3zm1.9-9.1l-.1-.3c-1 0-1 0-1.7.8.7-.2 1.3-.4 1.8-.5zm1-.8c.8.7.8.7 1.7-.5-.7.2-1.2.3-1.7.5zm-16.2 31c1.1-.9 1.1-1 0-1.5v1.5zm-11.6-14.1l.4.3.9-1.3-.3-.2c-.3.4-.6.8-1 1.2zm6.6 43.9c.3-.1.7-.3 1.2-.5-.8-.5-1.2-.5-1.2.5zm13.2-37.9l.2.2c.3-.3.9-.4.8-1.4-.4.6-.7.9-1 1.2zm.6-4.2c.3.2.5.4.6.4.2-.1.4-.3.4-.5s-.2-.3-.4-.5c-.1.2-.3.4-.6.6zm10.9-9.4l.4.3c.2-.2.3-.4.5-.7-.1-.1-.4-.3-.4-.2-.2.1-.4.4-.5.6zm-19.7 23.6c0 .4 0 .8-.1 1.3.6-.5.9-.8.1-1.3zm7.5 14.1c.2.1.3.2.4.2.1 0 .2-.1.2-.2s0-.2-.1-.3c-.1 0-.2 0-.5.3zm-15.8-39.6c.1.1.2.2.2.3l.5-.5-.2-.2c0 .1-.2.3-.5.4zm15.8 19.9v-.1h-.2v.1c.1.1.2 0 .2 0zm-6.9-2.5l.2-.2-.3-.2c0 .1-.1.2-.1.2 0 .1.1.2.2.2zm7.9 16v-.1h-.1v.1h.1zm1.4-29.3h-.1v.5h.1v-.5zM356.2 111.1c-.3-.2-.4-.5-.4-.9l.3-2.1.8-3.3c.3-1.6.4-3.2.6-4.8l.2-2.2c0-.5-.2-1-.8-1.2-.6-.2-.8-.6-.8-1.1 0-.3-.1-.5-.1-.9-.7.4-.7.8-.6 1.4.1.8-.3 1.2-.8 1.6l-1.3 1c-1.5 1.2-2.9 2.5-5 2.8-2.1.3-4.3.8-6.4 1.2-.4.1-.9 0-1.3-.1.1-2.4.2-4.6.4-6.8 0-.7.4-1 1-1.1 2.2-.4 4.4-.9 6.6-1.2l5.1-.4c1-.1 1.1-.2 1.1-1.2 0-1.5-.6-2.8-1.4-4-.7-1-1.3-2-1.1-3.3.2-1.1.1-2.3.1-3.4-.2 0-.4-.1-.5 0-.7.3-1.4.5-2.1 0-.1-.1-.3-.1-.4-.1-1.8.1-3.7.2-5.5.7-.4.1-.9.1-1.5.1 0-1.9.3-3.6.5-5.4.1-.8.5-1.1 1.2-1.3l2.8-.7c1.8-.5 3.6-1 5.4-1.3 1.1-.2 2.2-.3 3.3.3.3.2.6.2.9.2.8 0 1.2-.5.9-1.3-.3-.8-.6-1.5-.8-2.1.3-.7.6-1.3.8-1.9.8-2.8 1.1-5.6 1.4-8.5 0-.4.3-.8-.2-1.1-.4-.2-.9-.4-1.3-.4-.8.1-1.6.5-2.5.7v.2c.8-.2 1.6-.3 2.6-.5.1.8.3 1.3.2 1.8l-1.3 7c-.1.3-.3.6-.5 1.2-.8-1.6-1.4-3-2-4.3-.6-1.4-1.4-2.9-.6-4.5l-2.9-.8c-.1.4-.2.7-.2 1-1.2.3-2.3.6-3.4.9-.6.1-1.2.1-1.7.4-.8.4-1.6.5-2.4.5-.5 0-1 .1-1.5.2-1.7.2-3.3 1-5 1-.8 0-1.6.4-2.3.8-.8.5-1.5.8-2.4.9-.7.1-1.4.3-2 .3-1 0-.8 1-1.5 1.3-.1 0-.1.2-.1.4.9 1.4 1.8 2.9 2.7 4.4 1.1 1.8 1.5 3.6.7 5.7-.1.3-.2.7-.3 1.1-.1 2-.2 4-.3 6.1-.1 1.6 0 3.4-.5 4.9-.5 1.5-.6 3-.6 4.5 0 1-.1 1.8-.6 2.7l-1.1 1.9c.3.2.6.4.7.6.2.3.6.7.6 1l-.4 5.2c0 .4-.1.8-.2 1.2-.3 2.1-.5 4.1-1 6.2-.4 1.9-1.1 3.7-1.7 5.5l-.2 2.9c1 .2 1.9-.2 2.8-.6.8-.3 1.6-.5 2.4-.7l4.9-1.1 15.4-4.3c1.4-.4 2.8-.8 4.3-.2h.5c.1-.5.4-.9.7-1.2l-.4-1.5zm-7.9-24.4c-.1.8-.4 1.4-1.4 1.5.3-1.3.3-1.3 1.4-1.5zm-3.8-1.8c-.1.8-.6 1.1-1 1.4.2-.9.2-.9 1-1.4zm-1 1.4c-.2.1-.5.2-1 .4.4-.7.7-.5 1-.4zm8.8-18.1c-1 .9-1.8 2.1-3.1 2.7-.2.1-.5 0-1 0 .8-.8 1.4-1.3 1.9-1.9l1.7-1.8c.8.3.9.6.5 1zm-.4-3.6c.1.2.2.3.2.4 0 .1-.1.2-.2.2-.1-.1-.2-.2-.2-.3-.1-.1.1-.2.2-.3zm-.8-1.8c.2 0 .3.2.6.3-.3.2-.5.4-.5.3-.1-.1-.2-.2-.4-.3.1-.1.2-.3.3-.3zm-1.8 1.1c.1-.1.4-.1.8-.1-.4 1.4-1.5 1.9-2.4 2.8.1-.8.7-1.9 1.6-2.7zm1.4 1.3l.3.1c0 .2.1.6 0 .7-.9 1-1.9 2-2.9 3-.1.1-.3.1-.5.2l-.3-.3c1.2-1.2 2.3-2.5 3.4-3.7zm-3.7 1.9l-.3.5-.2-.2.3-.4.2.1zm-.5-2.6l.3.2-1.3 1.6-.3-.3c.4-.5.8-1 1.3-1.5zm-10.1 1.7l.2.2-.6.6-.2-.2.6-.6zm-3.5 6.8l.4-.2.1.2-.5.5-.2-.1c.1-.2.1-.3.2-.4zm-.2 2.4s.3.1.4.2l-.4.8c-.1-.1-.2-.1-.4-.2.2-.3.3-.6.4-.8zm.3 7.4l-.6 1.7c-.7-1.2-.7-1.2.6-1.7zm-.2 6.8c-.5.6-1.3 1.1-1.9 1.6-.4-.6-.4-.6-.1-1.7 1.5-.1 2.2-1.2 3.2-2.1-.4.8-.7 1.6-1.2 2.2zm1.3 1.3l.2-.2.2.2-.3.2c.1 0 0-.1-.1-.2zm.4 5.7l-.3-.1.2-.6c.6.3.2.5.1.7zm1.9-19.9l-.2-.1.5-.8.2.1c-.1.2-.3.5-.5.8zm-.4-5.1l1.4-1.6c-.1.7-.5 1.3-1.4 1.6zm1.8 15.2l.4-.3.1.3-.5.1v-.1zm-.2 12.4c0-.1 0-.1-.1-.2l.6-.2c0 .1 0 .1.1.2l-.6.2zm2.3-17.1c-.4.2-.8.4-1.3.6 0-.2-.1-.5 0-.5.6-.6 1.1-1.1.5-2-.2-.3 0-.4 1-.9l-.2 2.8zm-2.3-12.4c1.1-1.4 1.9-3 3.5-3.9-.8 1.6-1.9 3-3.5 3.9zm3.5 36.7c.1-.9.1-1.7 1.1-1.8.5.7.5.7-1.1 1.8zm9.2 3.9s-.2-.1-.2-.2c.1-.1.2-.2.3-.2 0 0 .1.1.2.1-.2.2-.2.3-.3.3zM433.7 91.6c-.3-.2-.4-.5-.4-.9l.3-2.1.8-3.3c.3-1.6.4-3.2.6-4.8l.2-2.2c0-.5-.2-1-.8-1.2-.6-.2-.8-.6-.8-1.1 0-.3-.1-.5-.1-.9-.7.4-.7.8-.6 1.4.1.8-.3 1.2-.8 1.6l-1.3 1c-1.5 1.2-2.9 2.5-5 2.8-2.1.3-4.3.8-6.4 1.2-.4.1-.9 0-1.3-.1.1-2.4.2-4.6.4-6.8 0-.7.4-1 1-1.1 2.2-.4 4.4-.9 6.6-1.2l5.1-.4c1-.1 1.1-.2 1.1-1.2 0-1.5-.6-2.8-1.4-4-.7-1-1.3-2-1.1-3.3.2-1.1.1-2.3.1-3.4-.2 0-.4-.1-.5 0-.7.3-1.4.5-2.1 0-.1-.1-.3-.1-.4-.1-1.8.1-3.7.2-5.5.7-.4.1-.9.1-1.5.1 0-1.9.3-3.6.5-5.4.1-.8.5-1.1 1.2-1.3l2.8-.7c1.8-.5 3.6-1 5.4-1.3 1.1-.2 2.2-.3 3.3.3.3.2.6.2.9.2.8 0 1.2-.5.9-1.3-.3-.8-.6-1.5-.8-2.1.3-.7.6-1.3.8-1.9.8-2.8 1.1-5.6 1.4-8.5 0-.4.3-.8-.2-1.1-.4-.2-.9-.4-1.3-.4-.8.1-1.6.5-2.5.7v.2c.8-.2 1.6-.3 2.6-.5.1.8.3 1.3.2 1.8l-1.3 7c-.1.3-.3.6-.5 1.2-.8-1.6-1.4-3-2-4.3-.6-1.4-1.4-2.9-.6-4.5l-2.9-.8c-.1.4-.2.7-.2 1-1.2.3-2.3.6-3.4.9-.6.1-1.2.1-1.7.4-.8.4-1.6.5-2.4.5-.5 0-1 .1-1.5.2-1.7.2-3.3 1-5 1-.8 0-1.6.4-2.3.8-.8.5-1.5.8-2.4.9-.7.1-1.4.3-2 .3-1 0-.8 1-1.5 1.3-.1 0-.1.2-.1.4.9 1.4 1.8 2.9 2.7 4.4 1.1 1.8 1.5 3.6.7 5.7-.1.3-.2.7-.3 1.1-.1 2-.2 4-.3 6.1-.1 1.6 0 3.4-.5 4.9-.5 1.5-.6 3-.6 4.5 0 1-.1 1.8-.6 2.7l-1.1 1.9c.3.2.6.4.7.6.2.3.6.7.6 1l-.4 5.2c0 .4-.1.8-.2 1.2-.3 2.1-.5 4.1-1 6.2-.4 1.9-1.1 3.7-1.7 5.5l-.2 2.9c1 .2 1.9-.2 2.8-.6.8-.3 1.6-.5 2.4-.7l4.9-1.1 15.4-4.3c1.4-.4 2.8-.8 4.3-.2h.5c.1-.5.4-.9.7-1.2l-.4-1.5zm-7.9-24.5c-.1.8-.4 1.4-1.4 1.5.2-1.2.2-1.2 1.4-1.5zm-3.8-1.8c-.1.8-.6 1.1-1 1.4.1-.8.1-.8 1-1.4zm-1.1 1.4c-.2.1-.5.2-1 .4.4-.6.7-.5 1-.4zm8.9-18.1c-1 .9-1.8 2.1-3.1 2.7-.2.1-.5 0-1 0 .8-.8 1.4-1.3 1.9-1.9l1.7-1.8c.7.4.8.7.5 1zm-.5-3.6c.1.2.2.3.2.4 0 .1-.1.2-.2.2-.1-.1-.2-.2-.2-.3 0 0 .1-.1.2-.3zm-.7-1.7c.2 0 .3.2.6.3-.3.2-.5.4-.5.3-.1-.1-.2-.2-.4-.3 0-.1.1-.3.3-.3zm-1.8 1c.1-.1.4-.1.8-.1-.4 1.4-1.5 1.9-2.4 2.8 0-.8.6-1.8 1.6-2.7zm1.4 1.4l.3.1c0 .2.1.6 0 .7-.9 1-1.9 2-2.9 3-.1.1-.3.1-.5.2l-.3-.3c1.2-1.3 2.3-2.5 3.4-3.7zm-3.7 1.9l-.3.5-.2-.2.3-.4s.1.1.2.1zm-.6-2.7l.3.2-1.3 1.6-.3-.3c.4-.4.9-.9 1.3-1.5zm-10 1.8l.2.2-.6.6-.2-.2.6-.6zm-3.5 6.7l.4-.2.1.2-.5.5-.2-.1c0-.1.1-.3.2-.4zm-.2 2.4s.3.1.4.2l-.4.8c-.1-.1-.2-.1-.4-.2.1-.2.2-.5.4-.8zm.3 7.4l-.6 1.7c-.7-1.1-.7-1.1.6-1.7zm-.2 6.8c-.5.6-1.3 1.1-1.9 1.6-.4-.6-.4-.6-.1-1.6 1.5-.1 2.2-1.2 3.2-2.1-.4.7-.7 1.5-1.2 2.1zm1.3 1.4l.2-.2.2.2-.3.2s-.1-.1-.1-.2zm.3 5.7l-.3-.1.2-.6c.6.3.3.5.1.7zm2-20l-.2-.1.5-.8.2.1c-.2.3-.4.6-.5.8zm-.4-5.1l1.4-1.6c-.2.8-.6 1.4-1.4 1.6zm1.8 15.2l.4-.3.1.3-.5.1v-.1zm-.2 12.4c0-.1 0-.1-.1-.2l.6-.2c0 .1 0 .1.1.2-.2.1-.4.2-.6.2zm2.3-17c-.4.2-.8.4-1.3.6 0-.2-.1-.5 0-.5.6-.6 1.1-1.1.5-2-.2-.3 0-.4 1-.9l-.2 2.8zm-2.3-12.4c1.1-1.4 1.9-3 3.5-3.9-.8 1.6-2 2.9-3.5 3.9zm3.5 36.7c.1-.9.1-1.7 1.1-1.8.4.7.4.7-1.1 1.8zm9.1 3.9s-.2-.1-.2-.2c.1-.1.2-.2.3-.2 0 0 .1.1.2.1l-.3.3zM399.3 99.6c-1-.7-1.5-1.9-2.4-2.7-.8.6.3 1.8-.9 2.2-1-1.1.8-2.3-.1-3.5-.8.5-1.7.7-2 1.8-.1-.3-.2-.6-.4-1.1.7-.5 1.4-1 2.2-1.5-2.4-3.4-4.7-6.7-7.2-10.2.4-.3.7-.5 1-.8.6-.5 1.1-1 1.6-1.6.2-.2.4-.5.6-.8.8-.9 1.5-1.8 2.4-2.7.8-.8.7-2.3 2.1-2.8.1 0 .1-.4.2-.7.2-.7.4-1.4.7-2 .4-.9 1-1.8 1.2-2.7.2-.9.1-1.9.1-2.9 0-.7-.2-1.5 0-2.1.6-1.8.5-3.5-.1-5.2-.1-.3-.1-.7-.1-1-.2-1.1-.4-2.2-.8-3.2-.2-.6-.7-1.1-1.1-1.6l-1.9-2.3c-.3-.4-1.4-1.1-1.9-1-.8.3-1.4-.1-2-.5-1.4-.9-2.7-1.7-4.5-1.2-.8.2-1.7 0-2.3.7-.2.2-.7.3-1.1.4-.9.3-1.8.7-2.7.9-1 .2-1.8 1-3 .9-.6-.1-1.5 0-1.9.3-1.4 1.2-3.2 1.3-4.8 1.9-1.7.6-3.5.9-5.3 1.3-1.4.4-2.7 1.1-4.1 2.1.6.4 1.2.7 1.5 1.1.8 1 1.5 2.1 2.1 3.2.4.8.7 1.8.8 2.7.1.9-.2 1.9-.3 2.9l-.4 3.6c0 .6.1 1.2.1 1.9 0 1.2-.3 2.3-.1 3.4.2 1-.1 1.9-.5 2.8-.1.4 0 .9 0 1.4 0 .2.3.5.2.7-.6 1.3-.5 2.6-.5 3.9 0 .5-.5 1-.7 1.6-.2.7-.5 1.4.3 1.9.2.2.4.6.3.9-.2 1.4 0 2.9-.6 4.3-.1.3-.3.8-.1 1 .7 1 .4 2.1.2 3.1-.2 1.5-.4 3-1.1 4.3l-2.5 5.5c-.3.7-.3 1.5-1 2-.2.1-.1.7 0 .9.3.7 1 1 1.8.7l4.5-1.5c1.2-.5 2.5-.8 3.7-1.4 2.2-1 4.6-1.5 7-2.2.3-.1.7 0 1 .1l.5.5c.3.1.7.2.9 0 .2-.1.2-.6.1-.9 0-.2-.2-.4-.4-.6l-2.6-3.6c-.4-.5-.6-.9-.5-1.6.1-1 .2-2.1.2-3.1l.2-4 .6-6c.9.1 1.7.4 2.2 1.3.4.6.9 1.2 1.4 1.7.4.4.8 1 1.7.5.6-.3 1 .3.8 1.2-.3-.1-.6-.2-1.1-.4.1 1.6.9 2.3 2.1 2.9.3-.5-.3-1.1.5-1.3 1.1.9 1.4.9 2.2-.4.2-.3.4-.5.6-.7v.1c-.3.6-.6 1.2-.8 1.9-.3.9-.7 1.8-.9 2.8-.1.4.3 1 .6 1.3.5.4.8-.1 1.1-.6 0-.1.2-.1.4-.1-.1.5-.4 1-.3 1.4.3 1.4-.1 2.7-.2 4v.6c.1 1.2.5 1.4 1.6 1 .8-.3 1.6-.7 2.4-.9.7-.2 1.6.4 2-.6 0 0 .3.1.4.1.6 0 1.3.1 1.8-.2.9-.4 1.9-.5 2.7-1.2.3-.3.8-.4 1.4-.1.3.1.6.2 1 .1l.2-2.3zm-6.1-40.6c.4-.7.9-1.3 1.4-2l.2.2-.8 2.2c-.1.2-.5.3-.8.4 0-.3-.2-.6 0-.8zm-28.8 37.6l-.1-.1.3-.4.2.1c-.3.2-.3.3-.4.4zm.8-9.1l-.2-.1.2-.8h.2c0 .2.1.4.1.5 0 .2-.2.3-.3.4zm3.8-10.6c.1 0 .2.1.4.3-.2.1-.4.2-.5.2 0 0-.2-.2-.2-.3.1-.1.2-.2.3-.2zm-.8 4.1c.4-.5.8-.9 1.3-1.5.1.9.6 1.8-.7 2.3-.3.1-.5.7-.8 1.1-.3-.1-.6-.2-1.1-.4.5-.6.9-1 1.3-1.5zm-1 15.8c.1-1.3 1.2-1.8 1.7-2.7.2 1.4-.7 2-1.7 2.7zm1.9-20.6c.4-.3.7-.6 1-.8 0 .6-.1.9-1 .8zm1.1-7.3l-.1-.2c0-.1.1-.2.2-.2 0 0 .1.1.2.1-.1.2-.2.3-.3.3zm0 6.4l.9-.9c-.1.6-.4 1-.9.9zm1 2.1c-.1 0-.2-.1-.2-.1l.3-.8.3.1c-.2.3-.3.5-.4.8zm-.1-3c0-.8.4-1.2 1-1.7-.1 1-.3 1.3-1 1.7zm1.2-8.3c0-.1-.1-.2-.1-.2 0-.1.1-.2.2-.2 0 0 .1.1.2.1l-.3.3zm.8 8.2h1.2c.1.1.1.2.2.4-.7.8-1.3 1.6-2.2 2.7-.2-1.4.6-2.1.8-3.1zm.9-3.5v-.8c.1 0 .2.1.4.1l-.2.8c0-.1-.1-.1-.2-.1zm-.4 10.4c.1 0 .2 0 .3.1.1.4.1.7.2 1.2-.5.1-.7.1-1.3.2.3-.6.5-1 .8-1.5zm-1.1 19.9l.6 1.7c-1.2-.3-.8-1-.6-1.7zm2.5-32.5c-.1 0-.1-.1-.1-.2s.1-.1.2-.2c.1.1.1.2.2.4-.1-.1-.2 0-.3 0zm.2-5.6c-.2 0-.3-.2-.9-.6.4-.1.7-.3.9-.3.2 0 .4.3.4.4 0 .2-.2.5-.4.5zm9-2.4c.2 0 .3.2.7.5-.8 0-1.3.3-1.5-.5h.8zm-2.5-.4c.5.1 1 .2 1.5.4h-1.6l.1-.4zm-4 27.2c1 .2 1.2.7 1.5 1.6-.8-.3-1.2-.7-1.5-1.6zm1.2-2.5c0-.1-.1-.2-.1-.4l.8-.2.1.3c-.3.2-.6.2-.8.3zm-.9-1.4c.4-1.3.5-2.9 2.4-3.1-.5.4-1.1.8-1.5 1.3-.4.6-.6 1.2-.9 1.8zm1.9 6.6l-.3-.3c.1-.1.2-.2.2-.1.1 0 .2.1.3.2l-.2.2zm4.5-8.3s-.1-.1-.2-.1l.3-.5.2.1-.3.5zm-.2-8.7c-.8.5-1.2 1.2-.8 2.4-.5-.3-.9-.5-1.2-.7.2-.4.3-.6.5-.8l-.1-.2c-.6.3-1.1.5-1.9.9.5.4.8.7 1.2 1-1.7.1-3.3.2-5.1.3 0-.8 0-1.3.1-1.8l.9-9.5.4-2.7c.1-.8.6-1.1 1.3-1.1 1.3.1 2.6.2 3.8.9.4.3.9.4 1.2.8.5.7 1.1 1.3 1.4 2.1.4 1 .9 2 .5 3.2-.2.7-.2 1.5-.3 2.2-.4 1.2-.9 2.3-1.9 3zm1.1 12.9c-.2-.2-.3-.3-.3-.4.1-.3.2-.6.3-.8l.3.1c0 .3-.1.6-.3 1.1zm5.6-10.6s-.1-.1-.2-.1l.3-.3.1.2c-.1 0-.2.1-.2.2zm.5-13.8c.3-.4.4-.5.5-.7.1-.3.3-.5.5-1 .2.4.3.7.4 1-.4.3-.8.5-1.4.7zm-1.6-7.1c.4.8 0 1.1-.5 1.2.1-.3.2-.6.5-1.2zm-3.8 37.9c-.1-.5-.1-.9.5-1.2-.2.4-.4.8-.5 1.2zm.4-4.3l.3-1.3.4.1c.2.5-.2.9-.7 1.2zm.3 8.2c0-.1-.1-.2-.1-.2l.2-.2c0 .1.1.1.2.2-.1.1-.2.2-.3.2zm3.8-36.2c.3-.3.5-.8.7-1.2.3-.6.7-1 1.5-.6-.4.9-1.4 1.6-.9 2.7h-.1c-1.3.3-1.3.4-.7 1.7-.7.5-1.4 1.1-2.3 1.8.5-1.6.4-3.2 1.8-4.4zm.3 29.5c-.4.8-.8 1.6-1.3 2.5-.4-1.1.1-2.1.4-3.4-.8.3-1.4.5-2 .7 0-1 .5-1.6 1-2.4 1.1.4 1.4 1.3 1.9 2.1.1.2.1.4 0 .5zm.9 2.6v-.8h.4v.8h-.4z"/></svg>