<?xml version="1.0" encoding="utf-8"?>
<!-- Generator: Adobe Illustrator 18.1.0, SVG Export Plug-In . SVG Version: 6.00 Build 0)  -->
<!DOCTYPE svg PUBLIC "-//W3C//DTD SVG 1.1//EN" "http://www.w3.org/Graphics/SVG/1.1/DTD/svg11.dtd">
<svg version="1.1" id="Layer_1" xmlns="http://www.w3.org/2000/svg" xmlns:xlink="http://www.w3.org/1999/xlink" x="0px" y="0px"
	 viewBox="0 0 431.5 127.2" enable-background="new 0 0 431.5 127.2" xml:space="preserve">
<g>
	<path fill="#FFFFFF" d="M85.3,24.8L84.4,30c-0.1,0.7-0.7,1.2-1.4,1.2c-0.7,0-1.1-0.6-1-1.2l2.3-13c0.1-0.7,0.8-1.2,1.5-1.2
		c0.7,0,1.1,0.6,1,1.2l-0.9,5.3h5.7l0.9-5.3c0.1-0.7,0.8-1.2,1.4-1.2c0.7,0,1.1,0.6,1,1.2l-2.3,13c-0.1,0.7-0.8,1.2-1.4,1.2
		c-0.7,0-1.1-0.6-1-1.2l0.9-5.3H85.3z"/>
	<path fill="#FFFFFF" d="M99.4,31.3c-0.7,0-1.1-0.5-1-1.2l2.3-13c0.1-0.7,0.8-1.2,1.4-1.2c0.7,0,1.1,0.6,1,1.2l-2.3,13
		C100.7,30.7,100.1,31.3,99.4,31.3z"/>
	<path fill="#FFFFFF" d="M107,30.4c0,0.7-0.2,2-1.7,2.3c0,0,0,0-0.1,0c-0.1,0-0.3-0.1-0.3-0.3c0-0.2,0.1-0.3,0.3-0.4
		c0.6-0.1,0.8-0.5,1-0.9c-0.1,0-0.2,0-0.3,0c-0.5,0-1-0.5-1-1.1s0.5-1.1,1-1.1c0.5,0,1,0.4,1.1,0.9c0,0,0,0,0,0
		C107,30,107,30.1,107,30.4z"/>
	<path fill="#FFFFFF" d="M89.9,48.8l5.5-6.1c0.3-0.3,0.7-0.5,1.1-0.5c0,0,0,0,0,0c0.7,0,1.1,0.5,1,1.2l-2.3,13
		c-0.1,0.7-0.7,1.2-1.4,1.2s-1.1-0.6-1-1.2l1.6-9.2l-3.9,4.4c-0.3,0.3-0.7,0.5-1.1,0.5c0,0,0,0,0,0h0c-0.4,0-0.7-0.2-0.9-0.5
		L86,47.2l-1.6,9.2c-0.1,0.7-0.8,1.2-1.4,1.2c-0.7,0-1.1-0.6-1-1.2l2.3-13c0.1-0.7,0.7-1.2,1.4-1.2c0,0,0,0,0,0
		c0.4,0,0.7,0.2,0.9,0.5L89.9,48.8z"/>
	<path fill="#FFFFFF" d="M106.1,50.4l-1.1,6c-0.1,0.7-0.8,1.2-1.4,1.2c-0.7,0-1.1-0.6-1-1.2l1.1-6l-3.5-6.2c-0.3-0.6,0-1.3,0.6-1.7
		c0.6-0.4,1.4-0.3,1.7,0.3l2.9,5.2l4.7-5.2c0.5-0.6,1.3-0.7,1.7-0.3c0.5,0.4,0.5,1.1,0,1.7L106.1,50.4z"/>
	<path fill="#FFFFFF" d="M122.7,43.5c0.1-0.4,0.3-0.8,0.7-1c0.6-0.4,1.3-0.3,1.6,0.3l5.4,9.9l1.6-9.2c0.1-0.7,0.8-1.2,1.4-1.2
		c0.7,0,1.1,0.6,1,1.2l-2.3,12.9c-0.1,0.7-0.7,1.2-1.4,1.2c-0.4,0-0.7-0.2-0.8-0.4c0,0-0.1-0.1-0.1-0.2l-5.4-9.9l-1.6,9.2
		c-0.1,0.7-0.7,1.2-1.4,1.2c-0.7,0-1.1-0.5-1-1.2L122.7,43.5z"/>
	<path fill="#FFFFFF" d="M138.4,56.9c-0.3,0.5-0.8,0.8-1.3,0.8c-0.1,0-0.3,0-0.4-0.1c-0.6-0.2-0.8-0.9-0.4-1.6l7.2-13
		c0.3-0.5,0.8-0.8,1.3-0.8c0.5,0,0.9,0.3,1,0.8l2.6,13c0.1,0.6-0.3,1.3-1,1.6c-0.2,0-0.3,0.1-0.4,0.1c-0.5,0-0.9-0.3-1-0.8l-0.6-2.8
		H140L138.4,56.9z M144.9,51.6l-0.9-4.7l-2.6,4.7H144.9z"/>
	<path fill="#FFFFFF" d="M159.5,48.8l5.5-6.1c0.3-0.3,0.7-0.5,1.1-0.5c0,0,0,0,0,0c0.7,0,1.1,0.5,1,1.2l-2.3,13
		c-0.1,0.7-0.7,1.2-1.4,1.2s-1.1-0.6-1-1.2l1.6-9.2l-3.9,4.4c-0.3,0.3-0.7,0.5-1.1,0.5c0,0,0,0,0,0h0c-0.4,0-0.7-0.2-0.9-0.5
		l-2.4-4.4l-1.6,9.2c-0.1,0.7-0.8,1.2-1.4,1.2c-0.7,0-1.1-0.6-1-1.2l2.3-13c0.1-0.7,0.7-1.2,1.4-1.2c0,0,0,0,0,0
		c0.4,0,0.7,0.2,0.9,0.5L159.5,48.8z"/>
	<path fill="#FFFFFF" d="M170.4,56.5l2.3-13c0.1-0.7,0.7-1.2,1.4-1.2h0h0h7.1c0.7,0,1.1,0.6,1,1.2c-0.1,0.7-0.8,1.2-1.4,1.2h-6
		l-0.7,4h5.1c0.7,0,1.1,0.5,1,1.2c-0.1,0.7-0.7,1.2-1.4,1.2h-5.1l-0.7,4h6c0.7,0,1.1,0.6,1,1.2c-0.1,0.7-0.8,1.2-1.4,1.2h-7.2
		c0,0,0,0,0,0C170.8,57.7,170.3,57.1,170.4,56.5z"/>
	<path fill="#FFFFFF" d="M190.7,57.7c-0.7,0-1.1-0.6-1-1.2l2.3-13c0.1-0.7,0.8-1.2,1.4-1.2c0.7,0,1.1,0.6,1,1.2l-2.3,13
		C192,57.1,191.3,57.7,190.7,57.7z"/>
	<path fill="#FFFFFF" d="M196.4,54c0.5-0.5,1.2-0.5,1.6-0.2c0.8,0.8,2.3,1.7,3.8,1.7c1.1,0,2.1-0.3,2.8-0.8c0.7-0.5,1.1-1,1.2-1.5
		c0-0.3,0-0.5-0.1-0.7c-0.1-0.2-0.3-0.4-0.5-0.6c-0.6-0.4-1.5-0.8-2.8-1h0h0c-1-0.2-1.8-0.5-2.6-0.8c-0.7-0.4-1.4-0.9-1.7-1.7
		c-0.2-0.5-0.3-1.1-0.2-1.7c0.2-1.3,1.2-2.4,2.3-3.1c1.1-0.7,2.5-1.1,3.9-1.1c2.1,0,3.4,1,4.4,1.7c0.5,0.3,0.5,1,0,1.5
		c-0.4,0.5-1.1,0.7-1.6,0.3c-1-0.7-1.9-1.4-3.2-1.3c-1,0-1.9,0.3-2.6,0.7c-0.6,0.4-1,0.9-1.1,1.4c0,0.2,0,0.4,0.1,0.6
		c0.1,0.2,0.2,0.4,0.5,0.6c0.5,0.4,1.4,0.7,2.5,0.9h0c1.1,0.2,2,0.5,2.8,0.9c0.8,0.4,1.5,1,1.8,1.8c0.2,0.5,0.3,1.2,0.2,1.8
		c-0.2,1.4-1.2,2.6-2.4,3.3c-1.2,0.8-2.7,1.2-4.2,1.2c-2.3,0-4.1-1.2-5.1-2.2C195.9,55.1,195.9,54.4,196.4,54z"/>
	<path fill="#FFFFFF" d="M217.1,54c0.5-0.5,1.2-0.5,1.6-0.2c0.8,0.8,2.3,1.7,3.8,1.7c1.1,0,2.1-0.3,2.8-0.8c0.7-0.5,1.1-1,1.2-1.5
		c0-0.3,0-0.5-0.1-0.7c-0.1-0.2-0.3-0.4-0.5-0.6c-0.6-0.4-1.5-0.8-2.8-1h0h0c-1-0.2-1.8-0.5-2.6-0.8c-0.7-0.4-1.4-0.9-1.7-1.7
		c-0.2-0.5-0.3-1.1-0.2-1.7c0.2-1.3,1.2-2.4,2.3-3.1c1.1-0.7,2.5-1.1,3.9-1.1c2.1,0,3.4,1,4.4,1.7c0.5,0.3,0.5,1,0,1.5
		c-0.4,0.5-1.1,0.7-1.6,0.3c-1-0.7-1.9-1.4-3.2-1.3c-1,0-1.9,0.3-2.6,0.7c-0.6,0.4-1,0.9-1.1,1.4c0,0.2,0,0.4,0.1,0.6
		c0.1,0.2,0.2,0.4,0.5,0.6c0.5,0.4,1.4,0.7,2.5,0.9h0c1.1,0.2,2,0.5,2.8,0.9c0.8,0.4,1.5,1,1.8,1.8c0.2,0.5,0.3,1.2,0.2,1.8
		c-0.2,1.4-1.2,2.6-2.4,3.3c-1.2,0.8-2.7,1.2-4.2,1.2c-2.3,0-4.1-1.2-5.1-2.2C216.6,55.1,216.6,54.4,217.1,54z"/>
	<path fill="#FFFFFF" d="M233,56.9c-0.3,0.5-0.8,0.8-1.3,0.8c-0.1,0-0.3,0-0.4-0.1c-0.6-0.2-0.8-0.9-0.4-1.6l7.2-13
		c0.3-0.5,0.8-0.8,1.3-0.8s0.9,0.3,1,0.8l2.6,13c0.1,0.6-0.3,1.3-1,1.6c-0.2,0-0.3,0.1-0.4,0.1c-0.5,0-0.9-0.3-1-0.8L240,54h-5.4
		L233,56.9z M239.5,51.6l-0.9-4.7l-2.6,4.7H239.5z"/>
	<path fill="#FFFFFF" d="M255.6,57.4c-0.1,0-0.3,0.1-0.5,0.1c-0.2,0-0.5-0.1-0.8-0.2c-0.3-0.2-0.5-0.5-0.6-0.8
		c-0.2-0.6-0.2-1.4,0-2.6c0.1-0.4,0-0.7-0.1-0.9c-0.1-0.3-0.3-0.5-0.5-0.7c-0.4-0.3-0.9-0.5-1.1-0.5h-2.6l-0.9,4.8
		c-0.1,0.7-0.7,1.2-1.4,1.2c-0.7,0-1.1-0.6-1-1.2l2.3-13c0.1-0.7,0.7-1.2,1.4-1.2c0,0,0,0,0,0h3.9c2.6,0,4.3,2.1,3.9,4.7
		c-0.2,1.5-1.1,2.8-2.3,3.6c0.2,0.2,0.4,0.5,0.6,0.8c0.3,0.6,0.5,1.5,0.3,2.4c-0.1,0.7-0.1,1.1-0.1,1.3c0.3,0.1,0.6,0.4,0.6,0.7
		C256.7,56.5,256.3,57.2,255.6,57.4z M249.7,49.2h2.7c1.3,0,2.4-1,2.7-2.3c0.2-1.3-0.6-2.3-1.9-2.3h-2.7L249.7,49.2z"/>
	<path fill="#FFFFFF" d="M261.4,56.9c-0.3,0.5-0.8,0.8-1.3,0.8c-0.1,0-0.3,0-0.4-0.1c-0.6-0.2-0.8-0.9-0.4-1.6l7.2-13
		c0.3-0.5,0.8-0.8,1.3-0.8c0.5,0,0.9,0.3,1,0.8l2.6,13c0.1,0.6-0.3,1.3-1,1.6c-0.2,0-0.3,0.1-0.4,0.1c-0.5,0-0.9-0.3-1-0.8l-0.6-2.8
		H263L261.4,56.9z M267.9,51.6l-0.9-4.7l-2.6,4.7H267.9z"/>
	<path fill="#FFFFFF" d="M277.9,51.2l-0.9,5.3c-0.1,0.7-0.7,1.2-1.4,1.2c-0.7,0-1.1-0.6-1-1.2l2.3-13c0.1-0.7,0.8-1.2,1.5-1.2
		c0.7,0,1.1,0.6,1,1.2l-0.9,5.3h5.7l0.9-5.3c0.1-0.7,0.8-1.2,1.4-1.2c0.7,0,1.1,0.6,1,1.2l-2.3,13c-0.1,0.7-0.8,1.2-1.4,1.2
		c-0.7,0-1.1-0.6-1-1.2l0.9-5.3H277.9z"/>
	<path fill="#FFFFFF" d="M302,43.5l-1.1,6.4l8.5-7.2c0.6-0.5,1.3-0.5,1.7,0c0.4,0.5,0.3,1.3-0.3,1.7l-5.8,4.9l4.2,6.4
		c0.3,0.5,0.1,1.3-0.5,1.7c-0.2,0.2-0.5,0.3-0.8,0.3c-0.4,0-0.7-0.2-0.9-0.4l-4-6.3l-2.7,2.3l-0.6,3.2c-0.1,0.7-0.7,1.2-1.4,1.2
		c-0.7,0-1.1-0.6-1-1.2l2.3-13c0.1-0.7,0.7-1.2,1.4-1.2C301.7,42.3,302.2,42.8,302,43.5z"/>
	<path fill="#FFFFFF" d="M315.3,43.5c0.1-0.4,0.3-0.8,0.7-1c0.6-0.4,1.3-0.3,1.6,0.3l5.4,9.9l1.6-9.2c0.1-0.7,0.8-1.2,1.4-1.2
		c0.7,0,1.1,0.6,1,1.2l-2.3,12.9c-0.1,0.7-0.7,1.2-1.4,1.2c-0.4,0-0.7-0.2-0.8-0.4c0,0-0.1-0.1-0.1-0.2l-5.4-9.9l-1.6,9.2
		c-0.1,0.7-0.7,1.2-1.4,1.2c-0.7,0-1.1-0.5-1-1.2L315.3,43.5z"/>
	<path fill="#FFFFFF" d="M331.2,55.4c-1.1-1.4-1.5-3.3-1.2-5.4c0.4-2.1,1.5-4,3.1-5.4c1.6-1.4,3.6-2.3,5.6-2.3c2,0,3.7,0.9,4.8,2.3
		c1.1,1.4,1.5,3.3,1.1,5.4c-0.4,2.1-1.5,4-3.1,5.4c-1.6,1.4-3.6,2.3-5.6,2.3C334,57.7,332.3,56.8,331.2,55.4z M332.5,50
		c-0.3,1.5,0.1,2.8,0.8,3.8c0.7,0.9,1.8,1.5,3.2,1.5c1.3,0,2.6-0.6,3.7-1.5c1.1-1,1.8-2.3,2.1-3.8c0.3-1.5-0.1-2.8-0.8-3.7
		c-0.7-0.9-1.8-1.5-3.2-1.5s-2.6,0.6-3.7,1.5C333.6,47.2,332.8,48.5,332.5,50z"/>
	<path fill="#FFFFFF" d="M369.2,43.9l-7.7,13c0,0.1-0.1,0.1-0.1,0.2l0,0c0,0-0.1,0.1-0.1,0.2c0,0,0,0-0.1,0c0,0-0.1,0.1-0.2,0.1
		c0,0,0,0,0,0c-0.1,0-0.2,0.1-0.2,0.1c0,0,0,0,0,0h0c-0.1,0-0.1,0-0.2,0.1c0,0,0,0-0.1,0c-0.1,0-0.2,0-0.2,0c-0.1,0-0.1,0-0.2,0
		c0,0,0,0-0.1,0c-0.1,0-0.1,0-0.2-0.1c0,0,0,0,0,0c-0.1,0-0.1-0.1-0.2-0.1c0,0,0,0,0,0c0,0-0.1-0.1-0.1-0.1l0,0c0,0-0.1-0.1-0.1-0.2
		l0,0c0-0.1,0-0.1-0.1-0.2l-1.7-6.9l-4.1,6.9c0,0.1-0.1,0.1-0.1,0.2c0,0,0,0,0,0c0,0-0.1,0.1-0.1,0.2c0,0,0,0,0,0
		c0,0-0.1,0.1-0.2,0.1c0,0,0,0,0,0c-0.1,0-0.1,0.1-0.2,0.1c0,0,0,0,0,0c0,0,0,0,0,0c-0.1,0-0.1,0-0.2,0.1c0,0,0,0-0.1,0
		c-0.1,0-0.1,0-0.2,0c0,0,0,0,0,0c-0.1,0-0.1,0-0.2,0c0,0,0,0-0.1,0c0,0-0.1,0-0.2-0.1h0h0c-0.1,0-0.1-0.1-0.2-0.1c0,0,0,0,0,0
		c0,0-0.1-0.1-0.1-0.1c0,0,0,0,0,0c0,0-0.1-0.1-0.1-0.2v0c0-0.1-0.1-0.1-0.1-0.2l-3.2-13c-0.2-0.6,0.3-1.3,0.9-1.6
		c0.7-0.3,1.3,0,1.5,0.6l2.5,10.3l4.1-6.8c0.3-0.5,0.8-0.7,1.3-0.7c0.5,0,0.9,0.3,1,0.7l1.7,6.8l6.2-10.3c0.4-0.6,1.1-0.9,1.7-0.6
		C369.4,42.6,369.5,43.3,369.2,43.9z"/>
	<path fill="#FFFFFF" d="M371.6,56.4l2.3-13c0.1-0.7,0.7-1.2,1.4-1.2c0.7,0,1.1,0.5,1,1.2l-2.1,11.7h6c0.7,0,1.1,0.5,1,1.2
		c-0.1,0.7-0.8,1.2-1.5,1.2h-7.1c0,0,0,0,0,0c0,0,0,0,0,0C371.9,57.6,371.4,57.1,371.6,56.4z"/>
	<path fill="#FFFFFF" d="M384.4,56.5l2.3-13c0.1-0.7,0.7-1.2,1.4-1.2h0h0h7.1c0.7,0,1.1,0.6,1,1.2c-0.1,0.7-0.8,1.2-1.4,1.2h-6
		l-0.7,4h5.1c0.7,0,1.1,0.5,1,1.2c-0.1,0.7-0.7,1.2-1.4,1.2h-5.1l-0.7,4h6c0.7,0,1.1,0.6,1,1.2c-0.1,0.7-0.8,1.2-1.4,1.2h-7.2
		c0,0,0,0,0,0C384.8,57.7,384.3,57.1,384.4,56.5z"/>
	<path fill="#FFFFFF" d="M397.3,54c0.5-0.5,1.2-0.5,1.6-0.2c0.8,0.8,2.3,1.7,3.8,1.7c1.1,0,2.1-0.3,2.8-0.8c0.7-0.5,1.1-1,1.2-1.5
		c0-0.3,0-0.5-0.1-0.7c-0.1-0.2-0.3-0.4-0.6-0.6c-0.5-0.4-1.5-0.8-2.8-1h0h0c-1-0.2-1.8-0.5-2.6-0.8c-0.7-0.4-1.4-0.9-1.7-1.7
		c-0.2-0.5-0.3-1.1-0.2-1.7c0.2-1.3,1.2-2.4,2.3-3.1c1.1-0.7,2.5-1.1,3.9-1.1c2.1,0,3.4,1,4.4,1.7c0.5,0.3,0.5,1,0,1.5
		c-0.4,0.5-1.1,0.7-1.6,0.3c-1-0.7-1.9-1.4-3.2-1.3c-1,0-1.9,0.3-2.6,0.7c-0.6,0.4-1,0.9-1.1,1.4c0,0.2,0,0.4,0.1,0.6
		c0.1,0.2,0.2,0.4,0.5,0.6c0.5,0.4,1.4,0.7,2.5,0.9h0c1.1,0.2,2,0.5,2.8,0.9c0.8,0.4,1.5,1,1.8,1.8c0.2,0.5,0.3,1.2,0.2,1.8
		c-0.2,1.4-1.2,2.6-2.4,3.3c-1.2,0.8-2.7,1.2-4.2,1.2c-2.3,0-4.1-1.2-5.1-2.2C396.8,55.1,396.8,54.4,397.3,54z"/>
	<path fill="#FFFFFF" d="M83.3,83.3c-0.3,0.5-0.8,0.8-1.3,0.8c-0.1,0-0.3,0-0.4-0.1c-0.6-0.2-0.8-0.9-0.4-1.6l7.2-13
		c0.3-0.5,0.8-0.8,1.3-0.8c0.5,0,0.9,0.3,1,0.8l2.6,13c0.1,0.6-0.3,1.3-1,1.6c-0.2,0-0.3,0.1-0.4,0.1c-0.5,0-0.9-0.3-1-0.8l-0.6-2.8
		h-5.4L83.3,83.3z M89.7,78l-0.9-4.7L86.2,78H89.7z"/>
	<path fill="#FFFFFF" d="M98.7,69.9c0.1-0.4,0.3-0.8,0.7-1c0.6-0.4,1.3-0.3,1.6,0.3l5.4,9.9l1.6-9.2c0.1-0.7,0.8-1.2,1.4-1.2
		c0.7,0,1.1,0.5,1,1.2l-2.3,12.9c-0.1,0.7-0.7,1.2-1.4,1.2c-0.4,0-0.7-0.2-0.8-0.4c0,0-0.1-0.1-0.1-0.2l-5.4-9.9l-1.6,9.2
		c-0.1,0.7-0.7,1.2-1.4,1.2c-0.7,0-1.1-0.5-1-1.2L98.7,69.9z"/>
	<path fill="#FFFFFF" d="M113.7,82.8l2.3-13c0.1-0.7,0.8-1.2,1.5-1.2h2.6c4.2,0,7.1,3.4,6.3,7.7c-0.7,4.2-4.8,7.7-9.1,7.7h-2.6
		c0,0,0,0,0,0C114,84.1,113.6,83.5,113.7,82.8z M119.6,71.1h-1.4l-1.8,10.5h1.4c2.9,0,5.7-2.4,6.2-5.3
		C124.4,73.4,122.5,71.1,119.6,71.1z"/>
	<path fill="#FFFFFF" d="M137.8,69.9c0.1-0.4,0.3-0.8,0.7-1c0.6-0.4,1.3-0.3,1.6,0.3l5.4,9.9l1.6-9.2c0.1-0.7,0.8-1.2,1.4-1.2
		c0.7,0,1.1,0.5,1,1.2l-2.3,12.9c-0.1,0.7-0.7,1.2-1.4,1.2c-0.4,0-0.7-0.2-0.8-0.4c0,0-0.1-0.1-0.1-0.2l-5.4-9.9l-1.6,9.2
		c-0.1,0.7-0.7,1.2-1.4,1.2c-0.7,0-1.1-0.5-1-1.2L137.8,69.9z"/>
	<path fill="#FFFFFF" d="M153.7,81.8c-1.1-1.4-1.5-3.3-1.2-5.4c0.4-2.1,1.5-4,3.1-5.4c1.6-1.4,3.6-2.3,5.6-2.3c2,0,3.7,0.9,4.8,2.3
		c1.1,1.4,1.5,3.3,1.1,5.4c-0.4,2.1-1.5,4-3.1,5.4c-1.6,1.4-3.6,2.3-5.6,2.3C156.5,84.1,154.8,83.2,153.7,81.8z M155,76.4
		c-0.3,1.5,0.1,2.8,0.8,3.8c0.7,0.9,1.8,1.5,3.2,1.5c1.3,0,2.6-0.6,3.7-1.5c1.1-1,1.8-2.3,2.1-3.8c0.3-1.5-0.1-2.8-0.8-3.7
		c-0.7-0.9-1.8-1.5-3.2-1.5s-2.6,0.6-3.7,1.5C156.1,73.6,155.3,74.9,155,76.4z"/>
	<path fill="#FFFFFF" d="M171.3,84.1c-0.6,0-1.1-0.5-1.1-1.1c0-0.6,0.5-1.1,1.1-1.1c0.6,0,1.1,0.5,1.1,1.1
		C172.4,83.5,171.9,84.1,171.3,84.1z"/>
	<path fill="#FFFFFF" d="M83.1,110.5c-0.7,0-1.1-0.5-1-1.2l2.3-13c0.1-0.7,0.8-1.2,1.4-1.2c0.7,0,1.1,0.5,1,1.2l-2.3,13
		C84.5,109.9,83.8,110.5,83.1,110.5z"/>
	<path fill="#FFFFFF" d="M89.8,100c1-0.3,1.5-1,1.5-2c-0.6-0.2-1.3-0.7-1.3-1.5v-0.2c0-0.8,0.6-1.5,1.5-1.5c1,0,1.6,0.7,1.6,1.9v0.2
		c0,1.5-0.4,2.5-1.1,3.2c-0.6,0.6-1.5,0.9-2.1,0.9c-0.5,0-0.7-0.3-0.7-0.6C89.3,100.3,89.5,100.1,89.8,100z"/>
	<path fill="#FFFFFF" d="M103.8,101.6l5.5-6.1c0.3-0.3,0.7-0.5,1.1-0.5c0,0,0,0,0,0c0.7,0,1.1,0.5,1,1.2l-2.3,13
		c-0.1,0.7-0.7,1.2-1.4,1.2s-1.1-0.6-1-1.2l1.6-9.2l-3.9,4.4c-0.3,0.3-0.7,0.5-1.1,0.5c0,0,0,0,0,0h0c-0.4,0-0.7-0.2-0.9-0.5
		l-2.4-4.4l-1.6,9.2c-0.1,0.7-0.8,1.2-1.4,1.2c-0.7,0-1.1-0.6-1-1.2l2.3-13c0.1-0.7,0.7-1.2,1.4-1.2c0,0,0,0,0,0
		c0.4,0,0.7,0.2,0.9,0.5L103.8,101.6z"/>
	<path fill="#FFFFFF" d="M123.2,96.3c0.1-0.4,0.3-0.8,0.7-1c0.6-0.4,1.3-0.3,1.6,0.3l5.4,9.9l1.6-9.2c0.1-0.7,0.8-1.2,1.4-1.2
		c0.7,0,1.1,0.5,1,1.2l-2.3,12.9c-0.1,0.7-0.7,1.2-1.4,1.2c-0.4,0-0.7-0.2-0.8-0.4c0,0-0.1-0.1-0.1-0.2L125,100l-1.6,9.2
		c-0.1,0.7-0.7,1.2-1.4,1.2c-0.7,0-1.1-0.5-1-1.2L123.2,96.3z"/>
	<path fill="#FFFFFF" d="M139.2,108.2c-1.1-1.4-1.5-3.3-1.2-5.4c0.4-2.1,1.5-4,3.1-5.4c1.6-1.4,3.6-2.3,5.6-2.3c2,0,3.7,0.9,4.8,2.3
		c1.1,1.4,1.5,3.3,1.1,5.4c-0.4,2.1-1.5,4-3.1,5.4c-1.6,1.4-3.6,2.3-5.6,2.3C141.9,110.5,140.2,109.6,139.2,108.2z M140.4,102.8
		c-0.3,1.5,0.1,2.8,0.8,3.8c0.7,0.9,1.8,1.5,3.2,1.5c1.3,0,2.6-0.6,3.7-1.5c1.1-1,1.8-2.3,2.1-3.8c0.3-1.5-0.1-2.8-0.8-3.7
		c-0.7-0.9-1.8-1.5-3.2-1.5s-2.6,0.6-3.7,1.5C141.5,100,140.7,101.3,140.4,102.8z"/>
	<path fill="#FFFFFF" d="M156.4,95.1h9.4c0.7,0,1.1,0.5,1,1.2c-0.1,0.7-0.8,1.2-1.4,1.2h-3.5l-2.1,11.8c-0.1,0.7-0.7,1.2-1.4,1.2
		c-0.7,0-1.1-0.5-1-1.2l2.1-11.8H156c-0.7,0-1.1-0.5-1-1.2C155.1,95.6,155.8,95.1,156.4,95.1z"/>
	<path fill="#FFFFFF" d="M185.7,110.2c-0.1,0-0.3,0.1-0.5,0.1c-0.2,0-0.6-0.1-0.8-0.2c-0.3-0.2-0.5-0.5-0.6-0.8
		c-0.2-0.6-0.2-1.4,0-2.6c0.1-0.4,0-0.7-0.1-0.9c-0.1-0.3-0.3-0.5-0.6-0.7c-0.4-0.3-0.9-0.5-1.1-0.5h-2.6l-0.9,4.8
		c-0.1,0.7-0.7,1.2-1.4,1.2c-0.7,0-1.1-0.5-1-1.2l2.3-13c0.1-0.7,0.7-1.2,1.4-1.2c0,0,0,0,0,0h3.9c2.6,0,4.3,2.1,3.9,4.7
		c-0.2,1.5-1.1,2.8-2.3,3.6c0.2,0.2,0.4,0.5,0.6,0.8c0.3,0.6,0.5,1.5,0.3,2.4c-0.1,0.7-0.1,1.1-0.1,1.3c0.3,0.1,0.6,0.4,0.6,0.7
		C186.9,109.3,186.4,110,185.7,110.2z M179.9,102h2.7c1.3,0,2.4-1,2.7-2.3c0.2-1.3-0.6-2.3-1.9-2.3h-2.7L179.9,102z"/>
	<path fill="#FFFFFF" d="M190.7,109.3l2.3-13c0.1-0.7,0.7-1.2,1.4-1.2h0h0h7.1c0.7,0,1.1,0.6,1,1.2c-0.1,0.7-0.8,1.2-1.4,1.2h-6
		l-0.7,4h5.1c0.7,0,1.1,0.5,1,1.2c-0.1,0.7-0.7,1.2-1.4,1.2H194l-0.7,4h6c0.7,0,1.1,0.6,1,1.2c-0.1,0.7-0.8,1.2-1.4,1.2h-7.2
		c0,0,0,0,0,0C191,110.5,190.6,109.9,190.7,109.3z"/>
	<path fill="#FFFFFF" d="M204,109.2l2.3-13c0.1-0.7,0.7-1.2,1.4-1.2c0.7,0,1.1,0.5,1,1.2l-2.1,11.7h6c0.7,0,1.1,0.6,1,1.2
		c-0.1,0.7-0.8,1.2-1.5,1.2h-7.1c0,0,0,0,0,0c0,0,0,0,0,0C204.4,110.4,203.9,109.9,204,109.2z"/>
	<path fill="#FFFFFF" d="M218.7,109.7c-0.3,0.5-0.8,0.8-1.3,0.8c-0.1,0-0.3,0-0.4-0.1c-0.6-0.2-0.8-0.9-0.4-1.6l7.2-13
		c0.3-0.5,0.8-0.8,1.3-0.8s0.9,0.3,1,0.8l2.6,13c0.1,0.6-0.3,1.3-1,1.6c-0.2,0-0.3,0.1-0.4,0.1c-0.5,0-0.9-0.3-1-0.8l-0.6-2.8h-5.4
		L218.7,109.7z M225.2,104.4l-0.9-4.7l-2.6,4.7H225.2z"/>
	<path fill="#FFFFFF" d="M231.7,95.1h9.4c0.7,0,1.1,0.5,1,1.2c-0.1,0.7-0.8,1.2-1.4,1.2h-3.5l-2.1,11.8c-0.1,0.7-0.7,1.2-1.4,1.2
		c-0.7,0-1.1-0.5-1-1.2l2.1-11.8h-3.5c-0.7,0-1.1-0.5-1-1.2C230.4,95.6,231,95.1,231.7,95.1z"/>
	<path fill="#FFFFFF" d="M244,109.3l2.3-13c0.1-0.7,0.7-1.2,1.4-1.2h0h0h7.1c0.7,0,1.1,0.6,1,1.2c-0.1,0.7-0.8,1.2-1.4,1.2h-6
		l-0.7,4h5.1c0.7,0,1.1,0.5,1,1.2c-0.1,0.7-0.7,1.2-1.4,1.2h-5.1l-0.7,4h6c0.7,0,1.1,0.6,1,1.2c-0.1,0.7-0.8,1.2-1.4,1.2H245
		c0,0,0,0,0,0C244.3,110.5,243.9,109.9,244,109.3z"/>
	<path fill="#FFFFFF" d="M257.4,109.2l2.3-13c0.1-0.7,0.8-1.2,1.5-1.2h2.6c4.2,0,7.1,3.4,6.3,7.7c-0.7,4.2-4.8,7.7-9.1,7.7h-2.6
		c0,0,0,0,0,0C257.7,110.5,257.2,109.9,257.4,109.2z M263.2,97.5h-1.4L260,108h1.4c2.9,0,5.7-2.4,6.2-5.3
		C268.1,99.8,266.1,97.5,263.2,97.5z"/>
	<path fill="#FFFFFF" d="M279.4,95.1h9.4c0.7,0,1.1,0.5,1,1.2c-0.1,0.7-0.8,1.2-1.4,1.2h-3.5l-2.1,11.8c-0.1,0.7-0.7,1.2-1.4,1.2
		c-0.7,0-1.1-0.5-1-1.2l2.1-11.8H279c-0.7,0-1.1-0.5-1-1.2C278.1,95.6,278.8,95.1,279.4,95.1z"/>
	<path fill="#FFFFFF" d="M292.1,108.2c-1.1-1.4-1.5-3.3-1.2-5.4c0.4-2.1,1.5-4,3.1-5.4c1.6-1.4,3.6-2.3,5.6-2.3c2,0,3.7,0.9,4.8,2.3
		c1.1,1.4,1.5,3.3,1.1,5.4c-0.4,2.1-1.5,4-3.1,5.4c-1.6,1.4-3.6,2.3-5.6,2.3S293.2,109.6,292.1,108.2z M293.4,102.8
		c-0.3,1.5,0.1,2.8,0.8,3.8c0.7,0.9,1.8,1.5,3.2,1.5c1.3,0,2.6-0.6,3.7-1.5c1.1-1,1.8-2.3,2.1-3.8c0.3-1.5-0.1-2.8-0.8-3.7
		c-0.7-0.9-1.8-1.5-3.2-1.5s-2.6,0.6-3.7,1.5C294.5,100,293.7,101.3,293.4,102.8z"/>
	<path fill="#FFFFFF" d="M316.1,109.3l2.3-13c0.1-0.7,0.7-1.2,1.4-1.2c0,0,0,0,0,0h0h3.1c2.3,0,3.9,1.9,3.5,4.2
		c-0.2,0.9-0.6,1.8-1.3,2.5c1.2,0.8,1.8,2.3,1.5,4c-0.5,2.6-2.9,4.7-5.5,4.7h-3.9c0,0,0,0,0,0c0,0,0,0,0,0
		C316.4,110.5,316,109.9,316.1,109.3z M324.2,105.8c0.2-1.3-0.6-2.3-1.9-2.3h-2.8l-0.8,4.6h2.8C322.8,108,324,107,324.2,105.8z
		 M322.5,97.5h-1.9L320,101h1.9c1,0,1.9-0.8,2.1-1.8C324.1,98.3,323.5,97.5,322.5,97.5z"/>
	<path fill="#FFFFFF" d="M329.8,109.3l2.3-13c0.1-0.7,0.7-1.2,1.4-1.2h0h0h7.1c0.7,0,1.1,0.6,1,1.2c-0.1,0.7-0.8,1.2-1.4,1.2h-6
		l-0.7,4h5.1c0.7,0,1.1,0.5,1,1.2c-0.1,0.7-0.7,1.2-1.4,1.2h-5.1l-0.7,4h6c0.7,0,1.1,0.6,1,1.2c-0.1,0.7-0.8,1.2-1.4,1.2h-7.2
		c0,0,0,0,0,0C330.1,110.5,329.6,109.9,329.8,109.3z"/>
	<path fill="#FFFFFF" d="M349,103.2l-1.1,6c-0.1,0.7-0.8,1.2-1.4,1.2c-0.7,0-1.1-0.5-1-1.2l1.1-6l-3.5-6.2c-0.3-0.6,0-1.3,0.5-1.7
		c0.6-0.4,1.4-0.3,1.7,0.3l2.9,5.2l4.7-5.2c0.5-0.5,1.3-0.7,1.7-0.3c0.5,0.4,0.5,1.1,0,1.7L349,103.2z"/>
	<path fill="#FFFFFF" d="M357.1,108.2c-1.1-1.4-1.5-3.3-1.2-5.4c0.4-2.1,1.5-4,3.1-5.4c1.6-1.4,3.6-2.3,5.6-2.3c2,0,3.7,0.9,4.8,2.3
		c1.1,1.4,1.5,3.3,1.1,5.4c-0.4,2.1-1.5,4-3.1,5.4c-1.6,1.4-3.6,2.3-5.6,2.3C359.9,110.5,358.2,109.6,357.1,108.2z M358.4,102.8
		c-0.3,1.5,0.1,2.8,0.8,3.8c0.7,0.9,1.8,1.5,3.2,1.5c1.3,0,2.6-0.6,3.7-1.5c1.1-1,1.8-2.3,2.1-3.8c0.3-1.5-0.1-2.8-0.8-3.7
		c-0.7-0.9-1.8-1.5-3.2-1.5s-2.6,0.6-3.7,1.5C359.4,100,358.7,101.3,358.4,102.8z"/>
	<path fill="#FFFFFF" d="M376.7,96.3c0.1-0.4,0.3-0.8,0.7-1c0.6-0.4,1.3-0.3,1.6,0.3l5.4,9.9l1.6-9.2c0.1-0.7,0.8-1.2,1.4-1.2
		c0.7,0,1.1,0.5,1,1.2l-2.3,12.9c-0.1,0.7-0.7,1.2-1.4,1.2c-0.4,0-0.7-0.2-0.8-0.4c0,0-0.1-0.1-0.1-0.2l-5.4-9.9l-1.6,9.2
		c-0.1,0.7-0.7,1.2-1.4,1.2c-0.7,0-1.1-0.5-1-1.2L376.7,96.3z"/>
	<path fill="#FFFFFF" d="M391.7,102.8c0.8-4.3,4.9-7.7,9.2-7.7c1.8,0,3.5,0.6,4.6,1.7c0.5,0.4,0.4,1.2-0.1,1.7s-1.3,0.6-1.7,0.2
		c-0.8-0.7-1.9-1.1-3.2-1.1c-1.5,0-3,0.6-4.1,1.5c-1.2,1-2,2.3-2.2,3.7c-0.3,1.5,0.1,2.8,0.9,3.7c0.8,0.9,2.1,1.5,3.6,1.5
		c1.3,0,2.6-0.4,3.6-1.1c0.6-0.4,1.3-0.3,1.7,0.2c0.3,0.5,0.1,1.3-0.5,1.7c-1.5,1.1-3.3,1.7-5.2,1.7
		C393.9,110.5,390.9,107,391.7,102.8z"/>
	<path fill="#FFFFFF" d="M407.8,109.3l2.3-13c0.1-0.7,0.7-1.2,1.4-1.2h0h0h7.1c0.7,0,1.1,0.6,1,1.2c-0.1,0.7-0.8,1.2-1.4,1.2h-6
		l-0.7,4h5.1c0.7,0,1.1,0.5,1,1.2c-0.1,0.7-0.7,1.2-1.4,1.2h-5.1l-0.7,4h6c0.7,0,1.1,0.6,1,1.2c-0.1,0.7-0.8,1.2-1.4,1.2h-7.2
		c0,0,0,0,0,0C408.1,110.5,407.7,109.9,407.8,109.3z"/>
</g>
<g>
	<g>
		<polygon fill="none" stroke="#FFFFFF" stroke-width="1.5" stroke-linejoin="bevel" stroke-miterlimit="10" points="53.7,34.3 
			44.3,48.5 34,48.6 24.8,34.3 32.2,24 46.9,24 		"/>
		
			<line fill="none" stroke="#FFFFFF" stroke-width="1.5" stroke-linejoin="bevel" stroke-miterlimit="10" x1="53.7" y1="34.3" x2="24.8" y2="34.3"/>
		<polyline fill="none" stroke="#FFFFFF" stroke-width="1.5" stroke-linejoin="bevel" stroke-miterlimit="10" points="49.1,41.2 
			50.4,34.3 42.9,24 38.3,34.3 36.2,24 28,34.3 29.7,27.6 		"/>
		
			<line fill="none" stroke="#FFFFFF" stroke-width="1.5" stroke-linejoin="bevel" stroke-miterlimit="10" x1="49.2" y1="27.6" x2="50.4" y2="34.3"/>
		<polyline fill="none" stroke="#FFFFFF" stroke-width="1.5" stroke-linejoin="bevel" stroke-miterlimit="10" points="47.7,43.3 
			38.3,34.3 30.3,42.9 		"/>
		
			<line fill="none" stroke="#FFFFFF" stroke-width="1.5" stroke-linejoin="bevel" stroke-miterlimit="10" x1="27.7" y1="38.8" x2="28" y2="34.3"/>
	</g>
	<circle fill="none" stroke="#FFFFFF" stroke-width="1.5" stroke-miterlimit="10" cx="39.4" cy="73.8" r="25.8"/>
	<circle fill="none" stroke="#FFFFFF" stroke-width="1.5" stroke-miterlimit="10" cx="39.4" cy="73.8" r="21"/>
	<line fill="none" stroke="#FFFFFF" stroke-width="1.5" stroke-miterlimit="10" x1="30.6" y1="43.3" x2="30.6" y2="43.3"/>
</g>
</svg>
