<svg xmlns="http://www.w3.org/2000/svg" viewBox="0 0 431.5 127.2" enable-background="new 0 0 431.5 127.2"><g fill="#fff"><path d="M73.4 36.1c-.6 0-1-.5-.9-1l2-11.3c.1-.6.7-1 1.2-1 .6 0 1 .5.9 1l-2 11.3c0 .5-.6 1-1.2 1zM83.5 35l2-11.3c.1-.6.7-1 1.2-1h3.4c2.3 0 3.8 1.8 3.4 4.1-.4 2.3-2.6 4.1-4.8 4.1h-2.4l-.7 4.1c-.1.6-.7 1-1.2 1-.6.1-1-.4-.9-1zm6.3-10.2h-2.4l-.7 3.9h2.3c1.1 0 2.1-.9 2.3-2 .3-1-.5-1.9-1.5-1.9zM95 35l2-11.2c.1-.6.6-1 1.2-1s1 .5.9 1l-1.8 10.2h5.2c.6 0 1 .5.9 1-.1.6-.7 1.1-1.3 1.1h-6.2c-.6 0-1-.5-.9-1.1zM107.7 35.4c-.2.4-.7.7-1.1.7-.1 0-.2 0-.4-.1-.5-.2-.7-.8-.4-1.4l6.2-11.2c.2-.4.7-.7 1.1-.7.4 0 .8.2.9.7l2.2 11.2c.1.6-.3 1.2-.9 1.4-.1 0-.2.1-.4.1-.4 0-.8-.3-.9-.7l-.5-2.5h-4.7l-1.1 2.5zm5.6-4.5l-.8-4.1-2.3 4.1h3.1zM123.4 29.8l-.9 5.2c-.1.6-.7 1-1.2 1-.6 0-1-.5-.9-1l.9-5.2-3-5.4c-.3-.5 0-1.1.5-1.5.5-.3 1.2-.2 1.4.2l2.5 4.5 4.1-4.5c.4-.5 1.1-.6 1.5-.2.4.3.4 1 0 1.5l-4.9 5.4zM135.4 32.9c.4-.4 1-.5 1.4-.1.7.7 2 1.4 3.3 1.4.9 0 1.8-.3 2.4-.7.6-.4 1-.9 1-1.3 0-.2 0-.4-.1-.6-.1-.2-.2-.4-.5-.6-.5-.4-1.3-.7-2.4-.9-.8-.2-1.6-.4-2.3-.7-.6-.3-1.2-.8-1.5-1.4-.2-.4-.2-1-.2-1.5.2-1.1 1-2.1 2-2.7 1-.6 2.2-1 3.4-1 1.8 0 2.9.9 3.8 1.5.4.3.4.9 0 1.3s-1 .6-1.4.3c-.8-.6-1.7-1.2-2.8-1.2-.9 0-1.7.2-2.2.6-.6.4-.8.8-.9 1.2 0 .2 0 .4.1.5.1.2.2.3.4.5.4.3 1.2.6 2.2.8.9.2 1.7.4 2.4.8s1.3.8 1.6 1.5c.2.5.3 1 .2 1.6-.2 1.2-1 2.2-2.1 2.9-1 .7-2.3 1-3.6 1-2 0-3.5-1-4.4-1.9-.2-.3-.2-.9.2-1.3zM148.6 35l2-11.3c.1-.6.7-1 1.2-1h3.4c2.3 0 3.8 1.8 3.4 4.1-.4 2.3-2.6 4.1-4.8 4.1h-2.4l-.7 4.1c-.1.6-.7 1-1.2 1-.6.1-1-.4-.9-1zm6.3-10.2h-2.4l-.7 3.9h2.3c1.1 0 2.1-.9 2.3-2 .3-1-.4-1.9-1.5-1.9zM160.9 34.1c-.9-1.2-1.3-2.9-1-4.7.3-1.8 1.3-3.5 2.7-4.7 1.4-1.2 3.1-2 4.9-2 1.8 0 3.2.8 4.2 2 .9 1.2 1.3 2.9 1 4.7-.3 1.8-1.3 3.5-2.7 4.7-1.4 1.2-3.1 2-4.9 2-1.8 0-3.3-.7-4.2-2zm1.1-4.7c-.2 1.3.1 2.4.7 3.3.6.8 1.6 1.3 2.7 1.3s2.3-.5 3.2-1.3c.9-.8 1.6-2 1.8-3.3.2-1.3-.1-2.4-.7-3.2-.6-.8-1.6-1.3-2.7-1.3s-2.3.5-3.2 1.3c-.9.8-1.5 2-1.8 3.2zM184.1 35.9c-.1 0-.2.1-.4.1s-.5-.1-.7-.2c-.2-.2-.4-.4-.5-.7-.2-.5-.2-1.2 0-2.3.1-.4 0-.6-.1-.8-.1-.2-.3-.4-.5-.6-.4-.3-.8-.4-1-.5h-2.3l-.7 4.1c-.1.6-.6 1-1.2 1s-1-.5-.9-1l2-11.3c.1-.6.6-1 1.2-1h3.4c2.3 0 3.8 1.8 3.4 4.1-.2 1.3-1 2.4-2 3.1.2.2.4.4.5.7.3.6.4 1.3.3 2.1-.1.6-.1.9-.1 1.1.3.1.5.3.5.6.1.7-.3 1.3-.9 1.5zm-5.1-7.1h2.4c1.1 0 2.1-.9 2.3-2 .2-1.1-.6-2-1.6-2h-2.3l-.8 4zM188.7 22.8h8.1c.6 0 1 .5.9 1s-.7 1-1.2 1h-3l-1.9 10.2c-.1.6-.6 1.1-1.2 1.1s-1-.5-.9-1.1l1.8-10.2h-3c-.6 0-1-.5-.9-1 .1-.6.7-1 1.3-1zM198.9 32.9c.4-.4 1-.5 1.4-.1.7.7 2 1.4 3.3 1.4.9 0 1.8-.3 2.4-.7.6-.4 1-.9 1-1.3 0-.2 0-.4-.1-.6-.1-.2-.2-.4-.5-.6-.5-.4-1.3-.7-2.4-.9-.8-.2-1.6-.4-2.3-.7-.6-.3-1.2-.8-1.5-1.4-.2-.4-.2-1-.2-1.5.2-1.1 1-2.1 2-2.7 1-.6 2.2-1 3.4-1 1.8 0 2.9.9 3.8 1.5.4.3.4.9 0 1.3s-1 .6-1.4.3c-.8-.6-1.7-1.2-2.8-1.2-.9 0-1.7.2-2.2.6-.6.4-.8.8-.9 1.2 0 .2 0 .4.1.5.1.2.2.3.4.5.4.3 1.2.6 2.2.8.9.2 1.7.4 2.4.8s1.3.8 1.6 1.5c.2.5.3 1 .2 1.6-.2 1.2-1 2.2-2.1 2.9-1 .7-2.3 1-3.6 1-2 0-3.5-1-4.4-1.9-.2-.3-.2-.9.2-1.3zM216.5 35.5c-.3-1-.2-2.3 0-3.7.2-1 .4-2 .8-2.9.4-.8.9-1.6 1.7-2.1.5-.4 1.2-.6 1.8-.6.5 0 .8.4.7.9-.1.5-.5.9-1 .9-.3 0-.4.1-.6.2-.2.1-.4.3-.6.7-.4.7-.8 1.7-1 2.9-.2.9-.2 1.7-.1 2.4.1.6.2 1.1.5 1.2.1.1.3.2.6.2.5 0 .8.4.7.9-.1.5-.5.9-1 .9-.6 0-1.1-.2-1.5-.5-.6-.4-.9-.8-1-1.4zM228.3 35.9l-.3.1c-.2 0-.3 0-.5-.2-.2-.1-.3-.3-.4-.5-.1-.4-.1-.9 0-1.7 0-.3 0-.4-.1-.6-.1-.2-.2-.3-.3-.4-.3-.2-.6-.3-.7-.3h-1.6l-.5 3c-.1.4-.5.8-.9.8s-.7-.3-.6-.8l1.4-8.2c.1-.4.5-.8.9-.8h2.5c1.6 0 2.7 1.3 2.4 3-.2.9-.7 1.7-1.5 2.3l.4.5c.2.4.3.9.2 1.5-.1.4-.1.7-.1.8.2.1.3.2.4.5 0 .5-.3.9-.7 1zm-3.7-5.1h1.7c.8 0 1.5-.7 1.7-1.4.1-.8-.4-1.4-1.2-1.4h-1.7l-.5 2.8zM240.6 27.2l-.9 4.9c-.4 2.2-2.5 4-4.7 4s-3.7-1.8-3.3-4l.9-4.9c.1-.4.5-.8.9-.8s.7.3.6.8l-.9 4.9c-.2 1.4.7 2.5 2 2.5 1.4 0 2.7-1.1 2.9-2.5l.9-4.9c.1-.4.5-.8.9-.8.5 0 .8.3.7.8zM242.6 31.2c.5-2.7 3.1-4.9 5.8-4.9 1.2 0 2.2.4 2.9 1.1.3.2.3.7-.1 1.1-.3.3-.8.4-1.1.1-.5-.5-1.2-.7-2-.7-1 0-1.9.4-2.6 1-.7.6-1.2 1.4-1.4 2.3-.2.9.1 1.7.6 2.3.5.6 1.3 1 2.3 1 .7 0 1.3-.2 1.9-.5l.3-1.8h-1.9c-.4 0-.7-.3-.6-.8.1-.4.5-.8.9-.8h2.7c.4 0 .7.3.6.8l-.5 3c0 .1 0 .1-.1.2v.1l-.3.3c-1 .7-2.1 1.1-3.3 1.1-2.8 0-4.6-2.2-4.1-4.9zM253.6 35.4l1.4-8.2c.1-.4.5-.8.9-.8h1.9c1.5 0 2.4 1.2 2.2 2.6-.1.6-.4 1.1-.8 1.6.7.5 1.1 1.5 1 2.5-.3 1.6-1.9 3-3.5 3h-2.5c-.4 0-.7-.3-.6-.7zm5.1-2.3c.1-.8-.4-1.4-1.2-1.4h-1.7l-.5 2.9h1.7c.8 0 1.5-.7 1.7-1.5zm-1.1-5.2h-1.2l-.4 2.2h1.2c.6 0 1.2-.5 1.3-1.1.1-.6-.3-1.1-.9-1.1zM265.4 31.6l-.7 3.8c-.1.4-.5.8-.9.8s-.7-.3-.6-.8l.7-3.8-2.2-3.9c-.2-.3 0-.8.3-1.1.4-.2.9-.2 1.1.2l1.8 3.3 3-3.3c.3-.3.8-.4 1.1-.2.3.2.3.7 0 1.1l-3.6 3.9zM274.6 28.2c.3 1 .2 2.3 0 3.7-.2 1-.4 2-.8 2.9-.4.8-.9 1.6-1.7 2.1-.5.4-1.2.6-1.8.6-.5 0-.8-.4-.7-.9.1-.5.5-.9 1-.9.3 0 .4-.1.6-.2.2-.1.4-.3.6-.7.4-.7.8-1.7 1-2.9.2-.9.2-1.7.1-2.4-.1-.6-.2-1.1-.5-1.2-.1-.1-.3-.2-.6-.2-.5 0-.8-.4-.7-.9.1-.5.5-.9 1-.9.6 0 1.1.2 1.5.5.6.4.9.9 1 1.4zM72.5 57.9l2-11.3c.1-.6.6-1 1.2-1h6.2c.6 0 1 .5.9 1-.1.6-.6 1.1-1.2 1.1h-5.1l-.6 3.5h4.4c.6 0 1 .5.9 1-.1.6-.7 1-1.2 1h-4.4l-.8 4.6c-.1.6-.6 1-1.2 1-.9.2-1.3-.3-1.1-.9zM84.5 57c-.9-1.2-1.3-2.9-1-4.7.3-1.8 1.3-3.5 2.7-4.7 1.4-1.2 3.1-2 4.9-2 1.8 0 3.2.8 4.2 2 .9 1.2 1.3 2.9 1 4.7-.3 1.8-1.3 3.5-2.7 4.7-1.4 1.2-3.1 2-4.9 2-1.8 0-3.3-.8-4.2-2zm1.1-4.7c-.2 1.3.1 2.4.7 3.3.6.8 1.6 1.3 2.7 1.3s2.3-.5 3.2-1.3c.9-.8 1.6-2 1.8-3.3.2-1.3-.1-2.4-.7-3.2-.6-.8-1.6-1.3-2.7-1.3s-2.3.5-3.2 1.3c-.8.8-1.5 2-1.8 3.2zM100.4 57c-.9-1.2-1.3-2.9-1-4.7.3-1.8 1.3-3.5 2.7-4.7 1.4-1.2 3.1-2 4.9-2 1.8 0 3.2.8 4.2 2 .9 1.2 1.3 2.9 1 4.7-.3 1.8-1.3 3.5-2.7 4.7-1.4 1.2-3.1 2-4.9 2-1.8 0-3.2-.8-4.2-2zm1.1-4.7c-.2 1.3.1 2.4.7 3.3.6.8 1.6 1.3 2.7 1.3s2.3-.5 3.2-1.3c.9-.8 1.6-2 1.8-3.3.2-1.3-.1-2.4-.7-3.2-.6-.8-1.6-1.3-2.7-1.3s-2.3.5-3.2 1.3c-.8.8-1.5 2-1.8 3.2zM115.5 57.9l2-11.2c.1-.6.7-1 1.3-1h2.3c3.7 0 6.1 3 5.5 6.7-.6 3.7-4.2 6.7-7.9 6.7h-2.2c-.7-.1-1.1-.6-1-1.2zm5.1-10.2h-1.2l-1.6 9.1h1.2c2.5 0 4.9-2 5.4-4.6.4-2.4-1.3-4.4-3.8-4.5zM135.4 59c-.6 0-1-.5-.9-1l2-11.3c.1-.6.7-1 1.2-1 .6 0 1 .5.9 1l-2 11.3c0 .5-.6 1-1.2 1zM140.4 55.8c.4-.4 1-.5 1.4-.1.7.7 2 1.4 3.3 1.4.9 0 1.8-.3 2.4-.7.6-.4 1-.9 1-1.3 0-.2 0-.4-.1-.6-.1-.2-.2-.4-.5-.6-.5-.4-1.3-.7-2.4-.9-.8-.2-1.6-.4-2.3-.7-.6-.3-1.2-.8-1.5-1.4-.2-.4-.2-1-.2-1.5.2-1.1 1-2.1 2-2.7 1-.6 2.2-1 3.4-1 1.8 0 2.9.9 3.8 1.5.4.3.4.9 0 1.3s-1 .6-1.4.3c-.8-.6-1.7-1.2-2.8-1.2-.9 0-1.7.2-2.2.6-.6.4-.8.8-.9 1.2 0 .2 0 .4.1.5.1.2.2.3.4.5.4.3 1.2.6 2.2.8.9.2 1.7.4 2.4.8s1.3.8 1.6 1.5c.2.5.3 1 .2 1.6-.2 1.2-1 2.2-2.1 2.9-1 .7-2.3 1-3.6 1-2 0-3.5-1-4.4-1.9-.2-.3-.2-.9.2-1.3zM165.6 51.3l4.7-5.3c.3-.3.6-.4 1-.4.6 0 1 .5.9 1l-2 11.2c-.1.6-.6 1.1-1.2 1.1s-1-.5-.9-1.1l1.4-8-3.4 3.8c-.3.3-.6.4-.9.4-.3 0-.6-.2-.8-.4l-2.1-3.8-1.4 8c-.1.6-.7 1.1-1.2 1.1-.6 0-1-.5-.9-1.1l2-11.2c.1-.6.6-1 1.2-1 .3 0 .6.1.8.4l2.8 5.3zM179.7 52.7l-.9 5.2c-.1.6-.7 1-1.2 1-.6 0-1-.5-.9-1l.9-5.2-3-5.4c-.3-.5 0-1.1.5-1.5.5-.3 1.2-.2 1.4.2l2.5 4.5 4.1-4.5c.4-.5 1.1-.6 1.5-.2.4.3.4 1 0 1.5l-4.9 5.4zM192.1 57.9l2-11.3c.1-.6.6-1 1.2-1h6.2c.6 0 1 .5.9 1-.1.6-.6 1.1-1.2 1.1h-5.2l-.6 3.5h4.4c.6 0 1 .5.9 1-.1.6-.7 1-1.2 1h-4.5l-.8 4.6c-.1.6-.6 1-1.2 1-.6.2-1-.3-.9-.9zM204 58.3c-.2.4-.7.7-1.1.7-.1 0-.2 0-.4-.1-.5-.2-.7-.8-.4-1.4l6.2-11.2c.2-.4.7-.7 1.1-.7.4 0 .8.2.9.7l2.2 11.2c.1.6-.3 1.2-.9 1.4-.1 0-.2.1-.4.1-.4 0-.8-.3-.9-.7l-.5-2.5h-4.7l-1.1 2.5zm5.6-4.6l-.8-4.1-2.3 4.1h3.1zM226.1 47.1l-6.7 11.2-.1.2-.1.1-.1.1-.2.1h-.8l-.2-.1-.1-.1s0-.1-.1-.1c0 0-.1-.1-.1-.2l-2.8-11.2c-.1-.6.2-1.2.8-1.4.6-.2 1.1 0 1.3.6l2.2 8.9 5.3-8.9c.3-.6 1-.8 1.5-.6.4.2.5.8.2 1.4zM229.1 57c-.9-1.2-1.3-2.9-1-4.7.3-1.8 1.3-3.5 2.7-4.7 1.4-1.2 3.1-2 4.9-2 1.8 0 3.2.8 4.2 2 .9 1.2 1.3 2.9 1 4.7-.3 1.8-1.3 3.5-2.7 4.7-1.4 1.2-3.1 2-4.9 2-1.8 0-3.3-.8-4.2-2zm1.1-4.7c-.2 1.3.1 2.4.7 3.3.6.8 1.6 1.3 2.7 1.3s2.3-.5 3.2-1.3c.9-.8 1.6-2 1.8-3.3.2-1.3-.1-2.4-.7-3.2-.6-.8-1.6-1.3-2.7-1.3s-2.3.5-3.2 1.3c-.9.8-1.6 2-1.8 3.2zM256.8 46.7l-1.2 6.8c-.5 3-3.4 5.5-6.5 5.5s-5.1-2.5-4.5-5.5l1.2-6.8c.1-.6.7-1 1.3-1 .6 0 1 .5.9 1l-1.2 6.8c-.3 1.9.9 3.4 2.8 3.4s3.7-1.5 4-3.4l1.2-6.8c.1-.6.7-1 1.2-1 .5-.1.9.4.8 1zM267.6 58.7c-.1 0-.2.1-.4.1s-.5-.1-.7-.2c-.2-.2-.4-.4-.5-.7-.2-.5-.2-1.2 0-2.3.1-.4 0-.6-.1-.8-.1-.2-.3-.4-.5-.6-.4-.3-.8-.4-1-.5h-2.3l-.7 4.1c-.1.6-.6 1-1.2 1s-1-.5-.9-1l2-11.3c.1-.6.6-1 1.2-1h3.4c2.3 0 3.8 1.8 3.4 4.1-.2 1.3-1 2.4-2 3.1.2.2.4.4.5.7.3.6.4 1.3.3 2.1-.1.6-.1.9-.1 1.1.3.1.5.3.5.6.1.8-.3 1.4-.9 1.5zm-5.1-7h2.4c1.1 0 2.1-.9 2.3-2 .2-1.1-.6-2-1.6-2h-2.3l-.8 4zM272.9 59c-.6 0-1-.5-.9-1l2-11.3c.1-.6.7-1 1.2-1 .6 0 1 .5.9 1l-2 11.3c-.1.5-.6 1-1.2 1zM278.8 45.6h8.1c.6 0 1 .5.9 1-.1.6-.7 1-1.2 1h-3l-1.8 10.2c-.1.6-.6 1.1-1.2 1.1s-1-.5-.9-1.1l1.8-10.2h-3c-.6 0-1-.5-.9-1 0-.5.6-1 1.2-1zM289.5 58l2-11.3c.1-.6.6-1 1.2-1h6.2c.6 0 1 .5.9 1-.1.6-.7 1.1-1.2 1.1h-5.2l-.6 3.5h4.5c.6 0 1 .5.9 1-.1.6-.6 1-1.2 1h-4.4l-.6 3.5h5.2c.6 0 1 .5.9 1.1-.1.6-.7 1-1.2 1h-6.2c-.9.1-1.3-.3-1.2-.9zM73.5 81.2c-.2.4-.7.7-1.1.7-.1 0-.2 0-.4-.1-.5-.2-.7-.8-.4-1.4l6.2-11.2c.2-.4.7-.7 1.1-.7.4 0 .8.2.9.7l2.2 11.2c.1.6-.3 1.2-.9 1.4-.1 0-.2.1-.4.1-.4 0-.8-.3-.9-.7l-.5-2.5h-4.7l-1.1 2.5zm5.6-4.6l-.8-4.1-2.3 4.1h3.1zM86.9 69.6c.1-.3.3-.7.6-.9.5-.3 1.2-.2 1.4.2l4.7 8.6 1.4-8c.1-.6.7-1 1.2-1 .6 0 1 .5.9 1l-2 11.2c-.1.6-.6 1-1.2 1-.3 0-.6-.1-.7-.4l-.1-.1-4.7-8.5-1.4 8c-.1.6-.6 1-1.2 1s-1-.5-.9-1l2-11.1zM100 80.8l2-11.2c.1-.6.7-1 1.3-1h2.3c3.7 0 6.1 3 5.5 6.7-.6 3.7-4.2 6.7-7.9 6.7h-2.2c-.7-.1-1.1-.6-1-1.2zm5.1-10.2h-1.2l-1.6 9.1h1.2c2.5 0 4.9-2 5.4-4.6.4-2.4-1.3-4.5-3.8-4.5zM119.9 81.9c-.6 0-1-.5-.9-1l2-11.3c.1-.6.7-1 1.2-1 .6 0 1 .5.9 1l-2 11.3c0 .5-.6 1-1.2 1zM80.5 104.5c-.1 0-.2.1-.4.1s-.5-.1-.7-.2c-.2-.2-.4-.4-.5-.7-.2-.5-.2-1.2 0-2.3.1-.4 0-.6-.1-.8-.1-.2-.3-.4-.5-.6-.4-.3-.8-.4-1-.5h-2.3l-.7 4.1c-.1.6-.6 1-1.2 1s-1-.5-.9-1l2-11.3c.1-.6.6-1 1.2-1h3.4c2.3 0 3.8 1.8 3.4 4.1-.2 1.3-1 2.4-2 3.1.2.2.4.4.5.7.3.6.4 1.3.3 2.1-.1.6-.1.9-.1 1.1.3.1.5.3.5.6.1.7-.3 1.3-.9 1.5zm-5.1-7h2.4c1.1 0 2.1-.9 2.3-2 .2-1.1-.6-2-1.6-2h-2.3l-.8 4zM84.8 103.8l2-11.3c.1-.6.6-1 1.2-1h6.2c.6 0 1 .5.9 1-.1.6-.7 1.1-1.2 1.1h-5.2l-.6 3.5h4.5c.6 0 1 .5.9 1-.1.6-.6 1-1.2 1h-4.4l-.6 3.5h5.2c.6 0 1 .5.9 1.1-.1.6-.7 1-1.2 1h-6.2c-.9.1-1.3-.4-1.2-.9zM97.3 104.1c-.2.4-.7.7-1.1.7-.1 0-.2 0-.4-.1-.5-.2-.7-.8-.4-1.4l6.2-11.2c.2-.4.7-.7 1.1-.7.4 0 .8.2.9.7l2.2 11.2c.1.6-.3 1.2-.9 1.4-.1 0-.2.1-.4.1-.4 0-.8-.3-.9-.7l-.5-2.5h-4.7l-1.1 2.5zm5.6-4.6l-.8-4.1-2.3 4.1h3.1zM108.7 103.7l2-11.2c.1-.6.6-1 1.2-1s1 .5.9 1l-1.8 10.2h5.2c.6 0 1 .5.9 1-.1.6-.7 1.1-1.3 1.1h-6.2c-.6-.1-1-.5-.9-1.1zM119.9 103.7l2-11.2c.1-.6.6-1 1.2-1s1 .5.9 1l-1.8 10.2h5.2c.6 0 1 .5.9 1-.1.6-.7 1.1-1.3 1.1h-6.2c-.6-.1-1-.5-.9-1.1zM134.8 98.5l-.9 5.2c-.1.6-.7 1-1.2 1-.6 0-1-.5-.9-1l.9-5.2-3-5.4c-.3-.5 0-1.1.5-1.5.5-.3 1.2-.2 1.4.2l2.5 4.5 4.1-4.5c.4-.5 1.1-.6 1.5-.2.4.3.4 1 0 1.5l-4.9 5.4zM141.5 104c0 .6-.2 1.7-1.5 2h-.1c-.1 0-.2-.1-.3-.2 0-.2.1-.3.2-.3.5-.1.7-.4.9-.7h-.3c-.5 0-.9-.4-.9-.9s.4-.9.9-.9.8.3.9.7c.2 0 .2.1.2.3zM158.4 104.5c-.1 0-.2.1-.4.1s-.5-.1-.7-.2c-.2-.2-.4-.4-.5-.7-.2-.5-.2-1.2 0-2.3.1-.4 0-.6-.1-.8-.1-.2-.3-.4-.5-.6-.4-.3-.8-.4-1-.5h-2.3l-.7 4.1c-.1.6-.6 1-1.2 1s-1-.5-.9-1l2-11.3c.1-.6.6-1 1.2-1h3.4c2.3 0 3.8 1.8 3.4 4.1-.2 1.3-1 2.4-2 3.1.2.2.4.4.5.7.3.6.4 1.3.3 2.1-.1.6-.1.9-.1 1.1.3.1.5.3.5.6 0 .7-.4 1.3-.9 1.5zm-5.1-7h2.4c1.1 0 2.1-.9 2.3-2 .2-1.1-.6-2-1.6-2h-2.4l-.7 4zM162.7 103.8l2-11.3c.1-.6.6-1 1.2-1h6.2c.6 0 1 .5.9 1-.1.6-.7 1.1-1.2 1.1h-5.2l-.6 3.5h4.5c.6 0 1 .5.9 1-.1.6-.6 1-1.2 1h-4.4l-.6 3.5h5.2c.6 0 1 .5.9 1.1-.1.6-.7 1-1.2 1h-6.2c-1 .1-1.3-.4-1.2-.9zM175.2 104.1c-.2.4-.7.7-1.1.7-.1 0-.2 0-.4-.1-.5-.2-.7-.8-.4-1.4l6.2-11.2c.2-.4.7-.7 1.1-.7.4 0 .8.2.9.7l2.2 11.2c.1.6-.3 1.2-.9 1.4-.1 0-.2.1-.4.1-.4 0-.8-.3-.9-.7l-.5-2.5h-4.7l-1.1 2.5zm5.6-4.6l-.8-4.1-2.3 4.1h3.1zM186.6 103.7l2-11.2c.1-.6.6-1 1.2-1s1 .5.9 1l-1.8 10.2h5.2c.6 0 1 .5.9 1-.1.6-.7 1.1-1.3 1.1h-6.2c-.6-.1-1-.5-.9-1.1zM197.8 103.7l2-11.2c.1-.6.6-1 1.2-1s1 .5.9 1l-1.8 10.2h5.2c.6 0 1 .5.9 1-.1.6-.7 1.1-1.3 1.1h-6.2c-.6-.1-1-.5-.9-1.1zM212.6 98.5l-.9 5.2c-.1.6-.7 1-1.2 1-.6 0-1-.5-.9-1l.9-5.2-3-5.4c-.3-.5 0-1.1.5-1.5.5-.3 1.2-.2 1.4.2l2.5 4.5 4.1-4.5c.4-.5 1.1-.6 1.5-.2.4.3.4 1 0 1.5l-4.9 5.4zM225.1 103.7l2-11.2c.1-.6.6-1 1.2-1s1 .5.9 1l-1.8 10.2h5.2c.6 0 1 .5.9 1-.1.6-.7 1.1-1.3 1.1h-6.2c-.6-.1-1-.5-.9-1.1zM236.6 102.8c-.9-1.2-1.3-2.9-1-4.7.3-1.8 1.3-3.5 2.7-4.7 1.4-1.2 3.1-2 4.9-2 1.8 0 3.2.8 4.2 2 .9 1.2 1.3 2.9 1 4.7-.3 1.8-1.3 3.5-2.7 4.7-1.4 1.2-3.1 2-4.9 2-1.8 0-3.3-.8-4.2-2zm1.1-4.7c-.2 1.3.1 2.4.7 3.3.6.8 1.6 1.3 2.7 1.3s2.3-.5 3.2-1.3c.9-.8 1.6-2 1.8-3.3.2-1.3-.1-2.4-.7-3.2-.6-.8-1.6-1.3-2.7-1.3s-2.3.5-3.2 1.3c-.9.8-1.6 1.9-1.8 3.2zM262.5 92.9l-6.7 11.2-.1.2-.1.1-.1.1-.2.1h-.8l-.2-.1-.1-.1s0-.1-.1-.1c0 0-.1-.1-.1-.2l-2.8-11.2c-.1-.6.2-1.2.8-1.4.6-.2 1.1 0 1.3.6l2.2 8.9 5.3-8.9c.3-.6 1-.8 1.5-.6.4.2.5.8.2 1.4zM264.7 103.8l2-11.3c.1-.6.6-1 1.2-1h6.2c.6 0 1 .5.9 1-.1.6-.7 1.1-1.2 1.1h-5.2l-.6 3.5h4.5c.6 0 1 .5.9 1-.1.6-.6 1-1.2 1h-4.4l-.6 3.5h5.2c.6 0 1 .5.9 1.1-.1.6-.7 1-1.2 1h-6.2c-.9.1-1.3-.4-1.2-.9zM281.2 98.1c.7-3.7 4.3-6.7 8-6.7 1.6 0 3 .5 4 1.4.4.3.4 1-.1 1.5s-1.1.6-1.5.2c-.7-.6-1.7-1-2.8-1-1.3 0-2.6.5-3.6 1.4-1 .8-1.7 2-1.9 3.2-.2 1.2.1 2.4.8 3.2.7.8 1.8 1.4 3.1 1.4.9 0 1.8-.3 2.7-.7l.5-2.5h-2.7c-.6 0-1-.5-.9-1 .1-.6.6-1 1.2-1h3.7c.6 0 1 .5.9 1l-.7 4.1-.1.3s0 .1-.1.1c-.1.2-.2.3-.4.4-1.3.9-2.9 1.4-4.5 1.4-3.7-.1-6.2-3-5.6-6.7zM297.1 102.8c-.9-1.2-1.3-2.9-1-4.7.3-1.8 1.3-3.5 2.7-4.7 1.4-1.2 3.1-2 4.9-2 1.8 0 3.2.8 4.2 2 .9 1.2 1.3 2.9 1 4.7-.3 1.8-1.3 3.5-2.7 4.7-1.4 1.2-3.1 2-4.9 2-1.8 0-3.3-.8-4.2-2zm1.1-4.7c-.2 1.3.1 2.4.7 3.3.6.8 1.6 1.3 2.7 1.3s2.3-.5 3.2-1.3c.9-.8 1.6-2 1.8-3.3.2-1.3-.1-2.4-.7-3.2-.6-.8-1.6-1.3-2.7-1.3s-2.3.5-3.2 1.3c-.9.8-1.5 1.9-1.8 3.2zM313 102.8c-.9-1.2-1.3-2.9-1-4.7.3-1.8 1.3-3.5 2.7-4.7 1.4-1.2 3.1-2 4.9-2 1.8 0 3.2.8 4.2 2 .9 1.2 1.3 2.9 1 4.7-.3 1.8-1.3 3.5-2.7 4.7-1.4 1.2-3.1 2-4.9 2-1.8 0-3.3-.8-4.2-2zm1.1-4.7c-.2 1.3.1 2.4.7 3.3.6.8 1.6 1.3 2.7 1.3s2.3-.5 3.2-1.3c.9-.8 1.6-2 1.8-3.3.2-1.3-.1-2.4-.7-3.2-.6-.8-1.6-1.3-2.7-1.3s-2.3.5-3.2 1.3c-.8.8-1.5 1.9-1.8 3.2zM328.1 103.7l2-11.2c.1-.6.7-1 1.3-1h2.3c3.7 0 6.1 3 5.5 6.7-.6 3.7-4.2 6.7-7.9 6.7h-2.3c-.6-.1-1-.6-.9-1.2zm5.1-10.2h-1.2l-1.6 9.1h1.2c2.5 0 4.9-2 5.4-4.6.4-2.4-1.3-4.5-3.8-4.5zM347 103.7l2-11.2c.1-.6.7-1 1.3-1h2.3c3.7 0 6.1 3 5.5 6.7-.6 3.7-4.2 6.7-7.9 6.7h-2.2c-.7-.1-1.1-.6-1-1.2zm5.1-10.2h-1.2l-1.6 9.1h1.2c2.5 0 4.9-2 5.4-4.6.4-2.4-1.3-4.5-3.8-4.5zM360.7 103.8l2-11.3c.1-.6.6-1 1.2-1h6.2c.6 0 1 .5.9 1-.1.6-.7 1.1-1.2 1.1h-5.2l-.6 3.5h4.5c.6 0 1 .5.9 1-.1.6-.6 1-1.2 1h-4.4l-.6 3.5h5.2c.6 0 1 .5.9 1.1-.1.6-.7 1-1.2 1h-6.2c-.9.1-1.3-.4-1.2-.9zM371.9 101.6c.4-.4 1-.5 1.4-.1.7.7 2 1.4 3.3 1.4.9 0 1.8-.3 2.4-.7.6-.4 1-.9 1-1.3 0-.2 0-.4-.1-.6-.1-.2-.2-.4-.5-.6-.5-.4-1.3-.7-2.4-.9-.8-.2-1.6-.4-2.2-.7-.6-.3-1.2-.8-1.5-1.5-.2-.4-.2-1-.2-1.5.2-1.1 1-2.1 2-2.7 1-.6 2.2-1 3.4-1 1.8 0 2.9.9 3.8 1.5.4.3.4.9 0 1.3s-1 .6-1.4.3c-.8-.6-1.7-1.2-2.8-1.2-.9 0-1.7.2-2.2.6-.6.4-.8.8-.9 1.2 0 .2 0 .4.1.5.1.2.2.3.4.5.4.3 1.2.6 2.2.8.9.2 1.7.4 2.4.8s1.3.8 1.6 1.5c.2.5.3 1 .2 1.6-.2 1.2-1 2.2-2.1 2.9-1 .7-2.3 1-3.6 1-2 0-3.5-1-4.4-1.9-.4-.2-.3-.8.1-1.2zM386 104.8c-.6 0-1-.5-.9-1l2-11.3c.1-.6.7-1 1.2-1 .6 0 1 .5.9 1l-2 11.3c0 .5-.6 1-1.2 1zM391.4 98.1c.7-3.7 4.3-6.7 8-6.7 1.6 0 3 .5 4 1.4.4.3.4 1-.1 1.5s-1.1.6-1.5.2c-.7-.6-1.7-1-2.8-1-1.3 0-2.6.5-3.6 1.4-1 .8-1.7 2-1.9 3.2-.2 1.2.1 2.4.8 3.2.7.8 1.8 1.4 3.1 1.4.9 0 1.8-.3 2.7-.7l.5-2.5h-2.7c-.6 0-1-.5-.9-1 .1-.6.6-1 1.2-1h3.7c.6 0 1 .5.9 1l-.7 4.1-.1.3s0 .1-.1.1c-.1.2-.2.3-.4.4-1.3.9-2.9 1.4-4.5 1.4-3.7-.1-6.3-3-5.6-6.7zM408.5 92.5c.1-.3.3-.7.6-.9.5-.3 1.2-.2 1.4.2l4.7 8.6 1.4-8c.1-.6.7-1 1.2-1 .6 0 1 .5.9 1l-2 11.2c-.1.6-.6 1-1.2 1-.3 0-.6-.1-.7-.4l-.1-.1-4.7-8.5-1.4 8c-.1.6-.6 1-1.2 1s-1-.5-.9-1l2-11.1z"/></g><g stroke="#fff" stroke-miterlimit="10" fill="none"><ellipse stroke-width="1.961" cx="36.9" cy="60.4" rx="21.8" ry="33.8"/><path stroke-width="2.05" stroke-linecap="round" d="M36.9 48.8v23.2M33.4 53.3h6.5M33.4 58.1h6.5M33.4 62.8h6.5M33.4 67.6h6.5"/></g></svg>