<?xml version="1.0" encoding="utf-8"?>
<!-- Generator: Adobe Illustrator 18.1.0, SVG Export Plug-In . SVG Version: 6.00 Build 0)  -->
<!DOCTYPE svg PUBLIC "-//W3C//DTD SVG 1.1//EN" "http://www.w3.org/Graphics/SVG/1.1/DTD/svg11.dtd">
<svg version="1.1" id="Layer_1" xmlns="http://www.w3.org/2000/svg" xmlns:xlink="http://www.w3.org/1999/xlink" x="0px" y="0px"
	 viewBox="0 0 431.5 127.2" enable-background="new 0 0 431.5 127.2" xml:space="preserve">
<g>
	<path fill="#FFFFFF" d="M73.4,36.1c-0.6,0-1-0.5-0.9-1l2-11.3c0.1-0.6,0.7-1,1.2-1c0.6,0,1,0.5,0.9,1l-2,11.3
		C74.6,35.6,74,36.1,73.4,36.1z"/>
	<path fill="#FFFFFF" d="M83.5,35l2-11.3c0.1-0.6,0.7-1,1.2-1c0,0,0,0,0,0s0,0,0,0h3.4c2.3,0,3.8,1.8,3.4,4.1
		c-0.4,2.3-2.6,4.1-4.8,4.1h-2.4L85.6,35c-0.1,0.6-0.7,1-1.2,1C83.8,36.1,83.4,35.6,83.5,35z M89.8,24.8h-2.4l-0.7,3.9H89
		c1.1,0,2.1-0.9,2.3-2C91.6,25.7,90.8,24.8,89.8,24.8z"/>
	<path fill="#FFFFFF" d="M95,35l2-11.2c0.1-0.6,0.6-1,1.2-1c0.6,0,1,0.5,0.9,1l-1.8,10.2h5.2c0.6,0,1,0.5,0.9,1
		c-0.1,0.6-0.7,1.1-1.3,1.1h-6.2c0,0,0,0,0,0c0,0,0,0,0,0C95.3,36.1,94.9,35.6,95,35z"/>
	<path fill="#FFFFFF" d="M107.7,35.4c-0.2,0.4-0.7,0.7-1.1,0.7c-0.1,0-0.2,0-0.4-0.1c-0.5-0.2-0.7-0.8-0.4-1.4l6.2-11.2
		c0.2-0.4,0.7-0.7,1.1-0.7c0.4,0,0.8,0.2,0.9,0.7l2.2,11.2c0.1,0.6-0.3,1.2-0.9,1.4c-0.1,0-0.2,0.1-0.4,0.1c-0.4,0-0.8-0.3-0.9-0.7
		l-0.5-2.5h-4.7L107.7,35.4z M113.3,30.9l-0.8-4.1l-2.3,4.1H113.3z"/>
	<path fill="#FFFFFF" d="M123.4,29.8l-0.9,5.2c-0.1,0.6-0.7,1-1.2,1c-0.6,0-1-0.5-0.9-1l0.9-5.2l-3-5.4c-0.3-0.5,0-1.1,0.5-1.5
		c0.5-0.3,1.2-0.2,1.4,0.2l2.5,4.5l4.1-4.5c0.4-0.5,1.1-0.6,1.5-0.2c0.4,0.3,0.4,1,0,1.5L123.4,29.8z"/>
	<path fill="#FFFFFF" d="M135.4,32.9c0.4-0.4,1-0.5,1.4-0.1c0.7,0.7,2,1.4,3.3,1.4c0.9,0,1.8-0.3,2.4-0.7c0.6-0.4,1-0.9,1-1.3
		c0-0.2,0-0.4-0.1-0.6c-0.1-0.2-0.2-0.4-0.5-0.6c-0.5-0.4-1.3-0.7-2.4-0.9h0h0c-0.8-0.2-1.6-0.4-2.3-0.7c-0.6-0.3-1.2-0.8-1.5-1.4
		c-0.2-0.4-0.2-1-0.2-1.5c0.2-1.1,1-2.1,2-2.7c1-0.6,2.2-1,3.4-1c1.8,0,2.9,0.9,3.8,1.5c0.4,0.3,0.4,0.9,0,1.3
		c-0.4,0.4-1,0.6-1.4,0.3c-0.8-0.6-1.7-1.2-2.8-1.2c-0.9,0-1.7,0.2-2.2,0.6c-0.6,0.4-0.8,0.8-0.9,1.2c0,0.2,0,0.4,0.1,0.5
		c0.1,0.2,0.2,0.3,0.4,0.5c0.4,0.3,1.2,0.6,2.2,0.8h0c0.9,0.2,1.7,0.4,2.4,0.8c0.7,0.4,1.3,0.8,1.6,1.5c0.2,0.5,0.3,1,0.2,1.6
		c-0.2,1.2-1,2.2-2.1,2.9c-1,0.7-2.3,1-3.6,1c-2,0-3.5-1-4.4-1.9C135,33.9,135,33.3,135.4,32.9z"/>
	<path fill="#FFFFFF" d="M148.6,35l2-11.3c0.1-0.6,0.7-1,1.2-1c0,0,0,0,0,0s0,0,0,0h3.4c2.3,0,3.8,1.8,3.4,4.1
		c-0.4,2.3-2.6,4.1-4.8,4.1h-2.4l-0.7,4.1c-0.1,0.6-0.7,1-1.2,1C148.9,36.1,148.5,35.6,148.6,35z M154.9,24.8h-2.4l-0.7,3.9h2.3
		c1.1,0,2.1-0.9,2.3-2C156.7,25.7,156,24.8,154.9,24.8z"/>
	<path fill="#FFFFFF" d="M160.9,34.1c-0.9-1.2-1.3-2.9-1-4.7c0.3-1.8,1.3-3.5,2.7-4.7c1.4-1.2,3.1-2,4.9-2c1.8,0,3.2,0.8,4.2,2
		c0.9,1.2,1.3,2.9,1,4.7c-0.3,1.8-1.3,3.5-2.7,4.7c-1.4,1.2-3.1,2-4.9,2C163.3,36.1,161.8,35.4,160.9,34.1z M162,29.4
		c-0.2,1.3,0.1,2.4,0.7,3.3c0.6,0.8,1.6,1.3,2.7,1.3c1.1,0,2.3-0.5,3.2-1.3c0.9-0.8,1.6-2,1.8-3.3c0.2-1.3-0.1-2.4-0.7-3.2
		c-0.6-0.8-1.6-1.3-2.7-1.3s-2.3,0.5-3.2,1.3C162.9,27,162.3,28.2,162,29.4z"/>
	<path fill="#FFFFFF" d="M184.1,35.9c-0.1,0-0.2,0.1-0.4,0.1c-0.2,0-0.5-0.1-0.7-0.2c-0.2-0.2-0.4-0.4-0.5-0.7
		c-0.2-0.5-0.2-1.2,0-2.3c0.1-0.4,0-0.6-0.1-0.8c-0.1-0.2-0.3-0.4-0.5-0.6c-0.4-0.3-0.8-0.4-1-0.5h-2.3l-0.7,4.1
		c-0.1,0.6-0.6,1-1.2,1c-0.6,0-1-0.5-0.9-1l2-11.3c0.1-0.6,0.6-1,1.2-1c0,0,0,0,0,0h3.4c2.3,0,3.8,1.8,3.4,4.1c-0.2,1.3-1,2.4-2,3.1
		c0.2,0.2,0.4,0.4,0.5,0.7c0.3,0.6,0.4,1.3,0.3,2.1c-0.1,0.6-0.1,0.9-0.1,1.1c0.3,0.1,0.5,0.3,0.5,0.6
		C185.1,35.1,184.7,35.7,184.1,35.9z M179,28.8h2.4c1.1,0,2.1-0.9,2.3-2c0.2-1.1-0.6-2-1.6-2h-2.3L179,28.8z"/>
	<path fill="#FFFFFF" d="M188.7,22.8h8.1c0.6,0,1,0.5,0.9,1s-0.7,1-1.2,1h-3L191.6,35c-0.1,0.6-0.6,1.1-1.2,1.1
		c-0.6,0-1-0.5-0.9-1.1l1.8-10.2h-3c-0.6,0-1-0.5-0.9-1C187.5,23.2,188.1,22.8,188.7,22.8z"/>
	<path fill="#FFFFFF" d="M198.9,32.9c0.4-0.4,1-0.5,1.4-0.1c0.7,0.7,2,1.4,3.3,1.4c0.9,0,1.8-0.3,2.4-0.7c0.6-0.4,1-0.9,1-1.3
		c0-0.2,0-0.4-0.1-0.6c-0.1-0.2-0.2-0.4-0.5-0.6c-0.5-0.4-1.3-0.7-2.4-0.9h0h0c-0.8-0.2-1.6-0.4-2.3-0.7c-0.6-0.3-1.2-0.8-1.5-1.4
		c-0.2-0.4-0.2-1-0.2-1.5c0.2-1.1,1-2.1,2-2.7c1-0.6,2.2-1,3.4-1c1.8,0,2.9,0.9,3.8,1.5c0.4,0.3,0.4,0.9,0,1.3
		c-0.4,0.4-1,0.6-1.4,0.3c-0.8-0.6-1.7-1.2-2.8-1.2c-0.9,0-1.7,0.2-2.2,0.6c-0.6,0.4-0.8,0.8-0.9,1.2c0,0.2,0,0.4,0.1,0.5
		c0.1,0.2,0.2,0.3,0.4,0.5c0.4,0.3,1.2,0.6,2.2,0.8h0c0.9,0.2,1.7,0.4,2.4,0.8c0.7,0.4,1.3,0.8,1.6,1.5c0.2,0.5,0.3,1,0.2,1.6
		c-0.2,1.2-1,2.2-2.1,2.9c-1,0.7-2.3,1-3.6,1c-2,0-3.5-1-4.4-1.9C198.5,33.9,198.5,33.3,198.9,32.9z"/>
	<path fill="#FFFFFF" d="M216.5,35.5c-0.3-1-0.2-2.3,0-3.7c0.2-1,0.4-2,0.8-2.9c0.4-0.8,0.9-1.6,1.7-2.1c0.5-0.4,1.2-0.6,1.8-0.6
		c0.5,0,0.8,0.4,0.7,0.9c-0.1,0.5-0.5,0.9-1,0.9c-0.3,0-0.4,0.1-0.6,0.2c-0.2,0.1-0.4,0.3-0.6,0.7c-0.4,0.7-0.8,1.7-1,2.9
		c-0.2,0.9-0.2,1.7-0.1,2.4c0.1,0.6,0.2,1.1,0.5,1.2c0.1,0.1,0.3,0.2,0.6,0.2c0.5,0,0.8,0.4,0.7,0.9c-0.1,0.5-0.5,0.9-1,0.9h0
		c-0.6,0-1.1-0.2-1.5-0.5C216.9,36.5,216.6,36.1,216.5,35.5z"/>
	<path fill="#FFFFFF" d="M228.3,35.9c-0.1,0-0.2,0.1-0.3,0.1c-0.2,0-0.3,0-0.5-0.2c-0.2-0.1-0.3-0.3-0.4-0.5c-0.1-0.4-0.1-0.9,0-1.7
		c0-0.3,0-0.4-0.1-0.6c-0.1-0.2-0.2-0.3-0.3-0.4c-0.3-0.2-0.6-0.3-0.7-0.3h-1.6l-0.5,3c-0.1,0.4-0.5,0.8-0.9,0.8
		c-0.4,0-0.7-0.3-0.6-0.8l1.4-8.2c0.1-0.4,0.5-0.8,0.9-0.8c0,0,0,0,0,0h2.5c1.6,0,2.7,1.3,2.4,3c-0.2,0.9-0.7,1.7-1.5,2.3
		c0.1,0.2,0.3,0.3,0.4,0.5c0.2,0.4,0.3,0.9,0.2,1.5c-0.1,0.4-0.1,0.7-0.1,0.8c0.2,0.1,0.3,0.2,0.4,0.5
		C229,35.4,228.7,35.8,228.3,35.9z M224.6,30.8h1.7c0.8,0,1.5-0.7,1.7-1.4c0.1-0.8-0.4-1.4-1.2-1.4h-1.7L224.6,30.8z"/>
	<path fill="#FFFFFF" d="M240.6,27.2l-0.9,4.9c-0.4,2.2-2.5,4-4.7,4c-2.2,0-3.7-1.8-3.3-4l0.9-4.9c0.1-0.4,0.5-0.8,0.9-0.8
		c0.4,0,0.7,0.3,0.6,0.8l-0.9,4.9c-0.2,1.4,0.7,2.5,2,2.5c1.4,0,2.7-1.1,2.9-2.5l0.9-4.9c0.1-0.4,0.5-0.8,0.9-0.8
		C240.4,26.4,240.7,26.7,240.6,27.2z"/>
	<path fill="#FFFFFF" d="M242.6,31.2c0.5-2.7,3.1-4.9,5.8-4.9c1.2,0,2.2,0.4,2.9,1.1c0.3,0.2,0.3,0.7-0.1,1.1
		c-0.3,0.3-0.8,0.4-1.1,0.1c-0.5-0.5-1.2-0.7-2-0.7c-1,0-1.9,0.4-2.6,1c-0.7,0.6-1.2,1.4-1.4,2.3c-0.2,0.9,0.1,1.7,0.6,2.3
		c0.5,0.6,1.3,1,2.3,1c0.7,0,1.3-0.2,1.9-0.5l0.3-1.8h-1.9c-0.4,0-0.7-0.3-0.6-0.8c0.1-0.4,0.5-0.8,0.9-0.8h2.7c0,0,0,0,0,0
		c0.4,0,0.7,0.3,0.6,0.8l-0.5,3c0,0.1,0,0.1-0.1,0.2c0,0,0,0.1,0,0.1c0,0,0,0,0,0c-0.1,0.1-0.2,0.2-0.3,0.3c-1,0.7-2.1,1.1-3.3,1.1
		c0,0,0,0,0,0C243.9,36.1,242.1,33.9,242.6,31.2z"/>
	<path fill="#FFFFFF" d="M253.6,35.4l1.4-8.2c0.1-0.4,0.5-0.8,0.9-0.8c0,0,0,0,0,0h0h1.9c1.5,0,2.4,1.2,2.2,2.6
		c-0.1,0.6-0.4,1.1-0.8,1.6c0.7,0.5,1.1,1.5,1,2.5c-0.3,1.6-1.9,3-3.5,3h-2.5c0,0,0,0,0,0c0,0,0,0,0,0
		C253.8,36.1,253.5,35.8,253.6,35.4z M258.7,33.1c0.1-0.8-0.4-1.4-1.2-1.4h-1.7l-0.5,2.9h1.7C257.8,34.6,258.5,33.9,258.7,33.1z
		 M257.6,27.9h-1.2l-0.4,2.2h1.2c0.6,0,1.2-0.5,1.3-1.1C258.6,28.4,258.2,27.9,257.6,27.9z"/>
	<path fill="#FFFFFF" d="M265.4,31.6l-0.7,3.8c-0.1,0.4-0.5,0.8-0.9,0.8c-0.4,0-0.7-0.3-0.6-0.8l0.7-3.8l-2.2-3.9
		c-0.2-0.3,0-0.8,0.3-1.1c0.4-0.2,0.9-0.2,1.1,0.2l1.8,3.3l3-3.3c0.3-0.3,0.8-0.4,1.1-0.2c0.3,0.2,0.3,0.7,0,1.1L265.4,31.6z"/>
	<path fill="#FFFFFF" d="M274.6,28.2c0.3,1,0.2,2.3,0,3.7c-0.2,1-0.4,2-0.8,2.9c-0.4,0.8-0.9,1.6-1.7,2.1c-0.5,0.4-1.2,0.6-1.8,0.6
		c-0.5,0-0.8-0.4-0.7-0.9c0.1-0.5,0.5-0.9,1-0.9c0.3,0,0.4-0.1,0.6-0.2c0.2-0.1,0.4-0.3,0.6-0.7c0.4-0.7,0.8-1.7,1-2.9
		c0.2-0.9,0.2-1.7,0.1-2.4c-0.1-0.6-0.2-1.1-0.5-1.2c-0.1-0.1-0.3-0.2-0.6-0.2c-0.5,0-0.8-0.4-0.7-0.9c0.1-0.5,0.5-0.9,1-0.9h0
		c0.6,0,1.1,0.2,1.5,0.5C274.2,27.2,274.5,27.7,274.6,28.2z"/>
	<path fill="#FFFFFF" d="M72.5,57.9l2-11.3c0.1-0.6,0.6-1,1.2-1c0,0,0,0,0,0c0,0,0,0,0,0h6.2c0.6,0,1,0.5,0.9,1
		c-0.1,0.6-0.6,1.1-1.2,1.1h-5.1l-0.6,3.5h4.4c0.6,0,1,0.5,0.9,1c-0.1,0.6-0.7,1-1.2,1h-4.4l-0.8,4.6c-0.1,0.6-0.6,1-1.2,1
		C72.7,59,72.3,58.5,72.5,57.9z"/>
	<path fill="#FFFFFF" d="M84.5,57c-0.9-1.2-1.3-2.9-1-4.7c0.3-1.8,1.3-3.5,2.7-4.7c1.4-1.2,3.1-2,4.9-2c1.8,0,3.2,0.8,4.2,2
		c0.9,1.2,1.3,2.9,1,4.7c-0.3,1.8-1.3,3.5-2.7,4.7c-1.4,1.2-3.1,2-4.9,2C86.9,59,85.4,58.2,84.5,57z M85.6,52.3
		c-0.2,1.3,0.1,2.4,0.7,3.3c0.6,0.8,1.6,1.3,2.7,1.3c1.1,0,2.3-0.5,3.2-1.3c0.9-0.8,1.6-2,1.8-3.3c0.2-1.3-0.1-2.4-0.7-3.2
		c-0.6-0.8-1.6-1.3-2.7-1.3s-2.3,0.5-3.2,1.3C86.6,49.9,85.9,51.1,85.6,52.3z"/>
	<path fill="#FFFFFF" d="M100.4,57c-0.9-1.2-1.3-2.9-1-4.7c0.3-1.8,1.3-3.5,2.7-4.7c1.4-1.2,3.1-2,4.9-2c1.8,0,3.2,0.8,4.2,2
		c0.9,1.2,1.3,2.9,1,4.7c-0.3,1.8-1.3,3.5-2.7,4.7c-1.4,1.2-3.1,2-4.9,2C102.8,59,101.4,58.2,100.4,57z M101.5,52.3
		c-0.2,1.3,0.1,2.4,0.7,3.3c0.6,0.8,1.6,1.3,2.7,1.3c1.1,0,2.3-0.5,3.2-1.3c0.9-0.8,1.6-2,1.8-3.3c0.2-1.3-0.1-2.4-0.7-3.2
		c-0.6-0.8-1.6-1.3-2.7-1.3s-2.3,0.5-3.2,1.3C102.5,49.9,101.8,51.1,101.5,52.3z"/>
	<path fill="#FFFFFF" d="M115.5,57.9l2-11.2c0.1-0.6,0.7-1,1.3-1h2.3c3.7,0,6.1,3,5.5,6.7c-0.6,3.7-4.2,6.7-7.9,6.7h-2.2
		c0,0,0,0,0,0C115.8,59,115.4,58.5,115.5,57.9z M120.6,47.7h-1.2l-1.6,9.1h1.2c2.5,0,4.9-2,5.4-4.6
		C124.8,49.8,123.1,47.8,120.6,47.7z"/>
	<path fill="#FFFFFF" d="M135.4,59c-0.6,0-1-0.5-0.9-1l2-11.3c0.1-0.6,0.7-1,1.2-1c0.6,0,1,0.5,0.9,1l-2,11.3
		C136.6,58.5,136,59,135.4,59z"/>
	<path fill="#FFFFFF" d="M140.4,55.8c0.4-0.4,1-0.5,1.4-0.1c0.7,0.7,2,1.4,3.3,1.4c0.9,0,1.8-0.3,2.4-0.7c0.6-0.4,1-0.9,1-1.3
		c0-0.2,0-0.4-0.1-0.6c-0.1-0.2-0.2-0.4-0.5-0.6c-0.5-0.4-1.3-0.7-2.4-0.9h0h0c-0.8-0.2-1.6-0.4-2.3-0.7c-0.6-0.3-1.2-0.8-1.5-1.4
		c-0.2-0.4-0.2-1-0.2-1.5c0.2-1.1,1-2.1,2-2.7c1-0.6,2.2-1,3.4-1c1.8,0,2.9,0.9,3.8,1.5c0.4,0.3,0.4,0.9,0,1.3
		c-0.4,0.4-1,0.6-1.4,0.3c-0.8-0.6-1.7-1.2-2.8-1.2c-0.9,0-1.7,0.2-2.2,0.6c-0.6,0.4-0.8,0.8-0.9,1.2c0,0.2,0,0.4,0.1,0.5
		c0.1,0.2,0.2,0.3,0.4,0.5c0.4,0.3,1.2,0.6,2.2,0.8h0c0.9,0.2,1.7,0.4,2.4,0.8c0.7,0.4,1.3,0.8,1.6,1.5c0.2,0.5,0.3,1,0.2,1.6
		c-0.2,1.2-1,2.2-2.1,2.9c-1,0.7-2.3,1-3.6,1c-2,0-3.5-1-4.4-1.9C140,56.8,140,56.2,140.4,55.8z"/>
	<path fill="#FFFFFF" d="M165.6,51.3l4.7-5.3c0.3-0.3,0.6-0.4,1-0.4c0,0,0,0,0,0c0.6,0,1,0.5,0.9,1l-2,11.2
		c-0.1,0.6-0.6,1.1-1.2,1.1s-1-0.5-0.9-1.1l1.4-8l-3.4,3.8c-0.3,0.3-0.6,0.4-0.9,0.4c0,0,0,0,0,0h0c-0.3,0-0.6-0.2-0.8-0.4l-2.1-3.8
		l-1.4,8c-0.1,0.6-0.7,1.1-1.2,1.1c-0.6,0-1-0.5-0.9-1.1l2-11.2c0.1-0.6,0.6-1,1.2-1c0,0,0,0,0,0c0.3,0,0.6,0.1,0.8,0.4L165.6,51.3z
		"/>
	<path fill="#FFFFFF" d="M179.7,52.7l-0.9,5.2c-0.1,0.6-0.7,1-1.2,1c-0.6,0-1-0.5-0.9-1l0.9-5.2l-3-5.4c-0.3-0.5,0-1.1,0.5-1.5
		c0.5-0.3,1.2-0.2,1.4,0.2l2.5,4.5l4.1-4.5c0.4-0.5,1.1-0.6,1.5-0.2c0.4,0.3,0.4,1,0,1.5L179.7,52.7z"/>
	<path fill="#FFFFFF" d="M192.1,57.9l2-11.3c0.1-0.6,0.6-1,1.2-1c0,0,0,0,0,0c0,0,0,0,0,0h6.2c0.6,0,1,0.5,0.9,1
		c-0.1,0.6-0.6,1.1-1.2,1.1H196l-0.6,3.5h4.4c0.6,0,1,0.5,0.9,1c-0.1,0.6-0.7,1-1.2,1H195l-0.8,4.6c-0.1,0.6-0.6,1-1.2,1
		C192.4,59,192,58.5,192.1,57.9z"/>
	<path fill="#FFFFFF" d="M204,58.3c-0.2,0.4-0.7,0.7-1.1,0.7c-0.1,0-0.2,0-0.4-0.1c-0.5-0.2-0.7-0.8-0.4-1.4l6.2-11.2
		c0.2-0.4,0.7-0.7,1.1-0.7c0.4,0,0.8,0.2,0.9,0.7l2.2,11.2c0.1,0.6-0.3,1.2-0.9,1.4c-0.1,0-0.2,0.1-0.4,0.1c-0.4,0-0.8-0.3-0.9-0.7
		l-0.5-2.5h-4.7L204,58.3z M209.6,53.7l-0.8-4.1l-2.3,4.1H209.6z"/>
	<path fill="#FFFFFF" d="M226.1,47.1l-6.7,11.2c0,0.1-0.1,0.1-0.1,0.2c0,0,0,0,0,0c0,0-0.1,0.1-0.1,0.1c0,0,0,0,0,0
		c0,0-0.1,0.1-0.1,0.1c0,0,0,0,0,0c-0.1,0-0.1,0.1-0.2,0.1c0,0,0,0,0,0c0,0,0,0,0,0c-0.1,0-0.1,0-0.2,0c0,0,0,0,0,0
		c-0.1,0-0.1,0-0.2,0c-0.1,0-0.1,0-0.2,0c0,0,0,0,0,0c-0.1,0-0.1,0-0.2,0l0,0c-0.1,0-0.1-0.1-0.2-0.1c0,0,0,0,0,0
		c0,0-0.1-0.1-0.1-0.1c0,0,0,0,0,0c0,0,0-0.1-0.1-0.1c0,0,0,0,0,0c0,0-0.1-0.1-0.1-0.2l-2.8-11.2c-0.1-0.6,0.2-1.2,0.8-1.4
		c0.6-0.2,1.1,0,1.3,0.6l2.2,8.9l5.3-8.9c0.3-0.6,1-0.8,1.5-0.6C226.3,45.9,226.4,46.5,226.1,47.1z"/>
	<path fill="#FFFFFF" d="M229.1,57c-0.9-1.2-1.3-2.9-1-4.7c0.3-1.8,1.3-3.5,2.7-4.7c1.4-1.2,3.1-2,4.9-2c1.8,0,3.2,0.8,4.2,2
		c0.9,1.2,1.3,2.9,1,4.7c-0.3,1.8-1.3,3.5-2.7,4.7c-1.4,1.2-3.1,2-4.9,2C231.5,59,230,58.2,229.1,57z M230.2,52.3
		c-0.2,1.3,0.1,2.4,0.7,3.3c0.6,0.8,1.6,1.3,2.7,1.3c1.1,0,2.3-0.5,3.2-1.3c0.9-0.8,1.6-2,1.8-3.3c0.2-1.3-0.1-2.4-0.7-3.2
		c-0.6-0.8-1.6-1.3-2.7-1.3s-2.3,0.5-3.2,1.3C231.1,49.9,230.4,51.1,230.2,52.3z"/>
	<path fill="#FFFFFF" d="M256.8,46.7l-1.2,6.8c-0.5,3-3.4,5.5-6.5,5.5s-5.1-2.5-4.5-5.5l1.2-6.8c0.1-0.6,0.7-1,1.3-1
		c0.6,0,1,0.5,0.9,1l-1.2,6.8c-0.3,1.9,0.9,3.4,2.8,3.4c1.9,0,3.7-1.5,4-3.4l1.2-6.8c0.1-0.6,0.7-1,1.2-1
		C256.5,45.6,256.9,46.1,256.8,46.7z"/>
	<path fill="#FFFFFF" d="M267.6,58.7c-0.1,0-0.2,0.1-0.4,0.1c-0.2,0-0.5-0.1-0.7-0.2c-0.2-0.2-0.4-0.4-0.5-0.7
		c-0.2-0.5-0.2-1.2,0-2.3c0.1-0.4,0-0.6-0.1-0.8c-0.1-0.2-0.3-0.4-0.5-0.6c-0.4-0.3-0.8-0.4-1-0.5h-2.3l-0.7,4.1
		c-0.1,0.6-0.6,1-1.2,1c-0.6,0-1-0.5-0.9-1l2-11.3c0.1-0.6,0.6-1,1.2-1c0,0,0,0,0,0h3.4c2.3,0,3.8,1.8,3.4,4.1c-0.2,1.3-1,2.4-2,3.1
		c0.2,0.2,0.4,0.4,0.5,0.7c0.3,0.6,0.4,1.3,0.3,2.1c-0.1,0.6-0.1,0.9-0.1,1.1c0.3,0.1,0.5,0.3,0.5,0.6
		C268.6,58,268.2,58.6,267.6,58.7z M262.5,51.7h2.4c1.1,0,2.1-0.9,2.3-2c0.2-1.1-0.6-2-1.6-2h-2.3L262.5,51.7z"/>
	<path fill="#FFFFFF" d="M272.9,59c-0.6,0-1-0.5-0.9-1l2-11.3c0.1-0.6,0.7-1,1.2-1c0.6,0,1,0.5,0.9,1l-2,11.3
		C274,58.5,273.5,59,272.9,59z"/>
	<path fill="#FFFFFF" d="M278.8,45.6h8.1c0.6,0,1,0.5,0.9,1c-0.1,0.6-0.7,1-1.2,1h-3l-1.8,10.2c-0.1,0.6-0.6,1.1-1.2,1.1
		c-0.6,0-1-0.5-0.9-1.1l1.8-10.2h-3c-0.6,0-1-0.5-0.9-1C277.6,46.1,278.2,45.6,278.8,45.6z"/>
	<path fill="#FFFFFF" d="M289.5,58l2-11.3c0.1-0.6,0.6-1,1.2-1h0h0h6.2c0.6,0,1,0.5,0.9,1c-0.1,0.6-0.7,1.1-1.2,1.1h-5.2l-0.6,3.5
		h4.5c0.6,0,1,0.5,0.9,1c-0.1,0.6-0.6,1-1.2,1h-4.4l-0.6,3.5h5.2c0.6,0,1,0.5,0.9,1.1c-0.1,0.6-0.7,1-1.2,1h-6.2c0,0,0,0,0,0
		C289.8,59,289.4,58.6,289.5,58z"/>
	<path fill="#FFFFFF" d="M73.5,81.2c-0.2,0.4-0.7,0.7-1.1,0.7c-0.1,0-0.2,0-0.4-0.1c-0.5-0.2-0.7-0.8-0.4-1.4l6.2-11.2
		c0.2-0.4,0.7-0.7,1.1-0.7c0.4,0,0.8,0.2,0.9,0.7l2.2,11.2c0.1,0.6-0.3,1.2-0.9,1.4c-0.1,0-0.2,0.1-0.4,0.1c-0.4,0-0.8-0.3-0.9-0.7
		l-0.5-2.5h-4.7L73.5,81.2z M79.1,76.6l-0.8-4.1l-2.3,4.1H79.1z"/>
	<path fill="#FFFFFF" d="M86.9,69.6c0.1-0.3,0.3-0.7,0.6-0.9c0.5-0.3,1.2-0.2,1.4,0.2l4.7,8.6l1.4-8c0.1-0.6,0.7-1,1.2-1
		c0.6,0,1,0.5,0.9,1l-2,11.2c-0.1,0.6-0.6,1-1.2,1c-0.3,0-0.6-0.1-0.7-0.4c0,0-0.1-0.1-0.1-0.1l-4.7-8.5l-1.4,8
		c-0.1,0.6-0.6,1-1.2,1c-0.6,0-1-0.5-0.9-1L86.9,69.6z"/>
	<path fill="#FFFFFF" d="M100,80.8l2-11.2c0.1-0.6,0.7-1,1.3-1h2.3c3.7,0,6.1,3,5.5,6.7c-0.6,3.7-4.2,6.7-7.9,6.7h-2.2c0,0,0,0,0,0
		C100.3,81.9,99.9,81.4,100,80.8z M105.1,70.6h-1.2l-1.6,9.1h1.2c2.5,0,4.9-2,5.4-4.6C109.3,72.7,107.6,70.6,105.1,70.6z"/>
	<path fill="#FFFFFF" d="M119.9,81.9c-0.6,0-1-0.5-0.9-1l2-11.3c0.1-0.6,0.7-1,1.2-1c0.6,0,1,0.5,0.9,1l-2,11.3
		C121.1,81.4,120.5,81.9,119.9,81.9z"/>
	<path fill="#FFFFFF" d="M80.5,104.5c-0.1,0-0.2,0.1-0.4,0.1c-0.2,0-0.5-0.1-0.7-0.2c-0.2-0.2-0.4-0.4-0.5-0.7
		c-0.2-0.5-0.2-1.2,0-2.3c0.1-0.4,0-0.6-0.1-0.8c-0.1-0.2-0.3-0.4-0.5-0.6c-0.4-0.3-0.8-0.4-1-0.5H75l-0.7,4.1c-0.1,0.6-0.6,1-1.2,1
		c-0.6,0-1-0.5-0.9-1l2-11.3c0.1-0.6,0.6-1,1.2-1c0,0,0,0,0,0h3.4c2.3,0,3.8,1.8,3.4,4.1c-0.2,1.3-1,2.4-2,3.1
		c0.2,0.2,0.4,0.4,0.5,0.7c0.3,0.6,0.4,1.3,0.3,2.1c-0.1,0.6-0.1,0.9-0.1,1.1c0.3,0.1,0.5,0.3,0.5,0.6
		C81.5,103.7,81.1,104.3,80.5,104.5z M75.4,97.5h2.4c1.1,0,2.1-0.9,2.3-2c0.2-1.1-0.6-2-1.6-2h-2.3L75.4,97.5z"/>
	<path fill="#FFFFFF" d="M84.8,103.8l2-11.3c0.1-0.6,0.6-1,1.2-1h0h0h6.2c0.6,0,1,0.5,0.9,1c-0.1,0.6-0.7,1.1-1.2,1.1h-5.2l-0.6,3.5
		h4.5c0.6,0,1,0.5,0.9,1c-0.1,0.6-0.6,1-1.2,1h-4.4l-0.6,3.5h5.2c0.6,0,1,0.5,0.9,1.1c-0.1,0.6-0.7,1-1.2,1h-6.2c0,0,0,0,0,0
		C85.1,104.8,84.7,104.3,84.8,103.8z"/>
	<path fill="#FFFFFF" d="M97.3,104.1c-0.2,0.4-0.7,0.7-1.1,0.7c-0.1,0-0.2,0-0.4-0.1c-0.5-0.2-0.7-0.8-0.4-1.4l6.2-11.2
		c0.2-0.4,0.7-0.7,1.1-0.7c0.4,0,0.8,0.2,0.9,0.7l2.2,11.2c0.1,0.6-0.3,1.2-0.9,1.4c-0.1,0-0.2,0.1-0.4,0.1c-0.4,0-0.8-0.3-0.9-0.7
		l-0.5-2.5h-4.7L97.3,104.1z M102.9,99.5l-0.8-4.1l-2.3,4.1H102.9z"/>
	<path fill="#FFFFFF" d="M108.7,103.7l2-11.2c0.1-0.6,0.6-1,1.2-1c0.6,0,1,0.5,0.9,1l-1.8,10.2h5.2c0.6,0,1,0.5,0.9,1
		c-0.1,0.6-0.7,1.1-1.3,1.1h-6.2c0,0,0,0,0,0c0,0,0,0,0,0C109,104.7,108.6,104.3,108.7,103.7z"/>
	<path fill="#FFFFFF" d="M119.9,103.7l2-11.2c0.1-0.6,0.6-1,1.2-1c0.6,0,1,0.5,0.9,1l-1.8,10.2h5.2c0.6,0,1,0.5,0.9,1
		c-0.1,0.6-0.7,1.1-1.3,1.1h-6.2c0,0,0,0,0,0c0,0,0,0,0,0C120.2,104.7,119.8,104.3,119.9,103.7z"/>
	<path fill="#FFFFFF" d="M134.8,98.5l-0.9,5.2c-0.1,0.6-0.7,1-1.2,1c-0.6,0-1-0.5-0.9-1l0.9-5.2l-3-5.4c-0.3-0.5,0-1.1,0.5-1.5
		c0.5-0.3,1.2-0.2,1.4,0.2l2.5,4.5l4.1-4.5c0.4-0.5,1.1-0.6,1.5-0.2c0.4,0.3,0.4,1,0,1.5L134.8,98.5z"/>
	<path fill="#FFFFFF" d="M141.5,104c0,0.6-0.2,1.7-1.5,2c0,0,0,0-0.1,0c-0.1,0-0.2-0.1-0.3-0.2c0-0.2,0.1-0.3,0.2-0.3
		c0.5-0.1,0.7-0.4,0.9-0.7c-0.1,0-0.1,0-0.3,0c-0.5,0-0.9-0.4-0.9-0.9s0.4-0.9,0.9-0.9c0.5,0,0.8,0.3,0.9,0.7c0,0,0,0,0,0
		C141.5,103.7,141.5,103.8,141.5,104z"/>
	<path fill="#FFFFFF" d="M158.4,104.5c-0.1,0-0.2,0.1-0.4,0.1c-0.2,0-0.5-0.1-0.7-0.2c-0.2-0.2-0.4-0.4-0.5-0.7
		c-0.2-0.5-0.2-1.2,0-2.3c0.1-0.4,0-0.6-0.1-0.8c-0.1-0.2-0.3-0.4-0.5-0.6c-0.4-0.3-0.8-0.4-1-0.5h-2.3l-0.7,4.1
		c-0.1,0.6-0.6,1-1.2,1c-0.6,0-1-0.5-0.9-1l2-11.3c0.1-0.6,0.6-1,1.2-1c0,0,0,0,0,0h3.4c2.3,0,3.8,1.8,3.4,4.1c-0.2,1.3-1,2.4-2,3.1
		c0.2,0.2,0.4,0.4,0.5,0.7c0.3,0.6,0.4,1.3,0.3,2.1c-0.1,0.6-0.1,0.9-0.1,1.1c0.3,0.1,0.5,0.3,0.5,0.6
		C159.3,103.7,158.9,104.3,158.4,104.5z M153.3,97.5h2.4c1.1,0,2.1-0.9,2.3-2c0.2-1.1-0.6-2-1.6-2H154L153.3,97.5z"/>
	<path fill="#FFFFFF" d="M162.7,103.8l2-11.3c0.1-0.6,0.6-1,1.2-1h0h0h6.2c0.6,0,1,0.5,0.9,1c-0.1,0.6-0.7,1.1-1.2,1.1h-5.2
		l-0.6,3.5h4.5c0.6,0,1,0.5,0.9,1c-0.1,0.6-0.6,1-1.2,1h-4.4l-0.6,3.5h5.2c0.6,0,1,0.5,0.9,1.1c-0.1,0.6-0.7,1-1.2,1h-6.2
		c0,0,0,0,0,0C162.9,104.8,162.6,104.3,162.7,103.8z"/>
	<path fill="#FFFFFF" d="M175.2,104.1c-0.2,0.4-0.7,0.7-1.1,0.7c-0.1,0-0.2,0-0.4-0.1c-0.5-0.2-0.7-0.8-0.4-1.4l6.2-11.2
		c0.2-0.4,0.7-0.7,1.1-0.7c0.4,0,0.8,0.2,0.9,0.7l2.2,11.2c0.1,0.6-0.3,1.2-0.9,1.4c-0.1,0-0.2,0.1-0.4,0.1c-0.4,0-0.8-0.3-0.9-0.7
		l-0.5-2.5h-4.7L175.2,104.1z M180.8,99.5l-0.8-4.1l-2.3,4.1H180.8z"/>
	<path fill="#FFFFFF" d="M186.6,103.7l2-11.2c0.1-0.6,0.6-1,1.2-1c0.6,0,1,0.5,0.9,1l-1.8,10.2h5.2c0.6,0,1,0.5,0.9,1
		c-0.1,0.6-0.7,1.1-1.3,1.1h-6.2c0,0,0,0,0,0c0,0,0,0,0,0C186.9,104.7,186.5,104.3,186.6,103.7z"/>
	<path fill="#FFFFFF" d="M197.8,103.7l2-11.2c0.1-0.6,0.6-1,1.2-1c0.6,0,1,0.5,0.9,1l-1.8,10.2h5.2c0.6,0,1,0.5,0.9,1
		c-0.1,0.6-0.7,1.1-1.3,1.1h-6.2c0,0,0,0,0,0c0,0,0,0,0,0C198.1,104.7,197.7,104.3,197.8,103.7z"/>
	<path fill="#FFFFFF" d="M212.6,98.5l-0.9,5.2c-0.1,0.6-0.7,1-1.2,1c-0.6,0-1-0.5-0.9-1l0.9-5.2l-3-5.4c-0.3-0.5,0-1.1,0.5-1.5
		c0.5-0.3,1.2-0.2,1.4,0.2l2.5,4.5l4.1-4.5c0.4-0.5,1.1-0.6,1.5-0.2c0.4,0.3,0.4,1,0,1.5L212.6,98.5z"/>
	<path fill="#FFFFFF" d="M225.1,103.7l2-11.2c0.1-0.6,0.6-1,1.2-1c0.6,0,1,0.5,0.9,1l-1.8,10.2h5.2c0.6,0,1,0.5,0.9,1
		c-0.1,0.6-0.7,1.1-1.3,1.1H226c0,0,0,0,0,0c0,0,0,0,0,0C225.4,104.7,225,104.3,225.1,103.7z"/>
	<path fill="#FFFFFF" d="M236.6,102.8c-0.9-1.2-1.3-2.9-1-4.7c0.3-1.8,1.3-3.5,2.7-4.7c1.4-1.2,3.1-2,4.9-2c1.8,0,3.2,0.8,4.2,2
		c0.9,1.2,1.3,2.9,1,4.7c-0.3,1.8-1.3,3.5-2.7,4.7c-1.4,1.2-3.1,2-4.9,2C239,104.8,237.5,104,236.6,102.8z M237.7,98.1
		c-0.2,1.3,0.1,2.4,0.7,3.3c0.6,0.8,1.6,1.3,2.7,1.3c1.1,0,2.3-0.5,3.2-1.3c0.9-0.8,1.6-2,1.8-3.3c0.2-1.3-0.1-2.4-0.7-3.2
		c-0.6-0.8-1.6-1.3-2.7-1.3s-2.3,0.5-3.2,1.3C238.6,95.7,237.9,96.8,237.7,98.1z"/>
	<path fill="#FFFFFF" d="M262.5,92.9l-6.7,11.2c0,0.1-0.1,0.1-0.1,0.2c0,0,0,0,0,0c0,0-0.1,0.1-0.1,0.1c0,0,0,0,0,0
		c0,0-0.1,0.1-0.1,0.1c0,0,0,0,0,0c-0.1,0-0.1,0.1-0.2,0.1c0,0,0,0,0,0c0,0,0,0,0,0c-0.1,0-0.1,0-0.2,0c0,0,0,0,0,0
		c-0.1,0-0.1,0-0.2,0c-0.1,0-0.1,0-0.2,0c0,0,0,0,0,0c-0.1,0-0.1,0-0.2,0l0,0c-0.1,0-0.1-0.1-0.2-0.1c0,0,0,0,0,0
		c0,0-0.1-0.1-0.1-0.1c0,0,0,0,0,0c0,0,0-0.1-0.1-0.1c0,0,0,0,0,0c0,0-0.1-0.1-0.1-0.2l-2.8-11.2c-0.1-0.6,0.2-1.2,0.8-1.4
		c0.6-0.2,1.1,0,1.3,0.6l2.2,8.9l5.3-8.9c0.3-0.6,1-0.8,1.5-0.6C262.7,91.7,262.8,92.3,262.5,92.9z"/>
	<path fill="#FFFFFF" d="M264.7,103.8l2-11.3c0.1-0.6,0.6-1,1.2-1h0h0h6.2c0.6,0,1,0.5,0.9,1c-0.1,0.6-0.7,1.1-1.2,1.1h-5.2
		l-0.6,3.5h4.5c0.6,0,1,0.5,0.9,1c-0.1,0.6-0.6,1-1.2,1h-4.4l-0.6,3.5h5.2c0.6,0,1,0.5,0.9,1.1c-0.1,0.6-0.7,1-1.2,1h-6.2
		c0,0,0,0,0,0C265,104.8,264.6,104.3,264.7,103.8z"/>
	<path fill="#FFFFFF" d="M281.2,98.1c0.7-3.7,4.3-6.7,8-6.7c1.6,0,3,0.5,4,1.4c0.4,0.3,0.4,1-0.1,1.5s-1.1,0.6-1.5,0.2
		c-0.7-0.6-1.7-1-2.8-1c-1.3,0-2.6,0.5-3.6,1.4c-1,0.8-1.7,2-1.9,3.2c-0.2,1.2,0.1,2.4,0.8,3.2c0.7,0.8,1.8,1.4,3.1,1.4
		c0.9,0,1.8-0.3,2.7-0.7l0.5-2.5h-2.7c-0.6,0-1-0.5-0.9-1c0.1-0.6,0.6-1,1.2-1h3.7c0,0,0,0,0,0c0.6,0,1,0.5,0.9,1l-0.7,4.1
		c0,0.1-0.1,0.2-0.1,0.3c0,0,0,0.1-0.1,0.1c0,0,0,0,0,0c-0.1,0.2-0.2,0.3-0.4,0.4c-1.3,0.9-2.9,1.4-4.5,1.4c0,0,0,0,0,0
		C283.1,104.7,280.6,101.8,281.2,98.1z"/>
	<path fill="#FFFFFF" d="M297.1,102.8c-0.9-1.2-1.3-2.9-1-4.7c0.3-1.8,1.3-3.5,2.7-4.7c1.4-1.2,3.1-2,4.9-2c1.8,0,3.2,0.8,4.2,2
		c0.9,1.2,1.3,2.9,1,4.7c-0.3,1.8-1.3,3.5-2.7,4.7c-1.4,1.2-3.1,2-4.9,2C299.5,104.8,298,104,297.1,102.8z M298.2,98.1
		c-0.2,1.3,0.1,2.4,0.7,3.3c0.6,0.8,1.6,1.3,2.7,1.3c1.1,0,2.3-0.5,3.2-1.3c0.9-0.8,1.6-2,1.8-3.3c0.2-1.3-0.1-2.4-0.7-3.2
		c-0.6-0.8-1.6-1.3-2.7-1.3s-2.3,0.5-3.2,1.3C299.1,95.7,298.5,96.8,298.2,98.1z"/>
	<path fill="#FFFFFF" d="M313,102.8c-0.9-1.2-1.3-2.9-1-4.7c0.3-1.8,1.3-3.5,2.7-4.7c1.4-1.2,3.1-2,4.9-2c1.8,0,3.2,0.8,4.2,2
		c0.9,1.2,1.3,2.9,1,4.7c-0.3,1.8-1.3,3.5-2.7,4.7c-1.4,1.2-3.1,2-4.9,2C315.4,104.8,313.9,104,313,102.8z M314.1,98.1
		c-0.2,1.3,0.1,2.4,0.7,3.3c0.6,0.8,1.6,1.3,2.7,1.3c1.1,0,2.3-0.5,3.2-1.3c0.9-0.8,1.6-2,1.8-3.3c0.2-1.3-0.1-2.4-0.7-3.2
		c-0.6-0.8-1.6-1.3-2.7-1.3s-2.3,0.5-3.2,1.3C315.1,95.7,314.4,96.8,314.1,98.1z"/>
	<path fill="#FFFFFF" d="M328.1,103.7l2-11.2c0.1-0.6,0.7-1,1.3-1h2.3c3.7,0,6.1,3,5.5,6.7c-0.6,3.7-4.2,6.7-7.9,6.7H329
		c0,0,0,0,0,0C328.4,104.8,328,104.3,328.1,103.7z M333.2,93.5H332l-1.6,9.1h1.2c2.5,0,4.9-2,5.4-4.6
		C337.4,95.6,335.7,93.5,333.2,93.5z"/>
	<path fill="#FFFFFF" d="M347,103.7l2-11.2c0.1-0.6,0.7-1,1.3-1h2.3c3.7,0,6.1,3,5.5,6.7c-0.6,3.7-4.2,6.7-7.9,6.7h-2.2c0,0,0,0,0,0
		C347.3,104.8,346.9,104.3,347,103.7z M352.1,93.5h-1.2l-1.6,9.1h1.2c2.5,0,4.9-2,5.4-4.6C356.3,95.6,354.6,93.5,352.1,93.5z"/>
	<path fill="#FFFFFF" d="M360.7,103.8l2-11.3c0.1-0.6,0.6-1,1.2-1h0h0h6.2c0.6,0,1,0.5,0.9,1c-0.1,0.6-0.7,1.1-1.2,1.1h-5.2
		l-0.6,3.5h4.5c0.6,0,1,0.5,0.9,1c-0.1,0.6-0.6,1-1.2,1h-4.4l-0.6,3.5h5.2c0.6,0,1,0.5,0.9,1.1c-0.1,0.6-0.7,1-1.2,1h-6.2
		c0,0,0,0,0,0C361,104.8,360.6,104.3,360.7,103.8z"/>
	<path fill="#FFFFFF" d="M371.9,101.6c0.4-0.4,1-0.5,1.4-0.1c0.7,0.7,2,1.4,3.3,1.4c0.9,0,1.8-0.3,2.4-0.7c0.6-0.4,1-0.9,1-1.3
		c0-0.2,0-0.4-0.1-0.6c-0.1-0.2-0.2-0.4-0.5-0.6c-0.5-0.4-1.3-0.7-2.4-0.9h0h0c-0.8-0.2-1.6-0.4-2.2-0.7c-0.6-0.3-1.2-0.8-1.5-1.5
		c-0.2-0.4-0.2-1-0.2-1.5c0.2-1.1,1-2.1,2-2.7c1-0.6,2.2-1,3.4-1c1.8,0,2.9,0.9,3.8,1.5c0.4,0.3,0.4,0.9,0,1.3s-1,0.6-1.4,0.3
		c-0.8-0.6-1.7-1.2-2.8-1.2c-0.9,0-1.7,0.2-2.2,0.6c-0.6,0.4-0.8,0.8-0.9,1.2c0,0.2,0,0.4,0.1,0.5c0.1,0.2,0.2,0.3,0.4,0.5
		c0.4,0.3,1.2,0.6,2.2,0.8h0c0.9,0.2,1.7,0.4,2.4,0.8c0.7,0.4,1.3,0.8,1.6,1.5c0.2,0.5,0.3,1,0.2,1.6c-0.2,1.2-1,2.2-2.1,2.9
		c-1,0.7-2.3,1-3.6,1c-2,0-3.5-1-4.4-1.9C371.4,102.6,371.5,102,371.9,101.6z"/>
	<path fill="#FFFFFF" d="M386,104.8c-0.6,0-1-0.5-0.9-1l2-11.3c0.1-0.6,0.7-1,1.2-1c0.6,0,1,0.5,0.9,1l-2,11.3
		C387.2,104.3,386.6,104.8,386,104.8z"/>
	<path fill="#FFFFFF" d="M391.4,98.1c0.7-3.7,4.3-6.7,8-6.7c1.6,0,3,0.5,4,1.4c0.4,0.3,0.4,1-0.1,1.5s-1.1,0.6-1.5,0.2
		c-0.7-0.6-1.7-1-2.8-1c-1.3,0-2.6,0.5-3.6,1.4c-1,0.8-1.7,2-1.9,3.2c-0.2,1.2,0.1,2.4,0.8,3.2c0.7,0.8,1.8,1.4,3.1,1.4
		c0.9,0,1.8-0.3,2.7-0.7l0.5-2.5h-2.7c-0.6,0-1-0.5-0.9-1c0.1-0.6,0.6-1,1.2-1h3.7c0,0,0,0,0,0c0.6,0,1,0.5,0.9,1l-0.7,4.1
		c0,0.1-0.1,0.2-0.1,0.3c0,0,0,0.1-0.1,0.1c0,0,0,0,0,0c-0.1,0.2-0.2,0.3-0.4,0.4c-1.3,0.9-2.9,1.4-4.5,1.4c0,0,0,0,0,0
		C393.3,104.7,390.7,101.8,391.4,98.1z"/>
	<path fill="#FFFFFF" d="M408.5,92.5c0.1-0.3,0.3-0.7,0.6-0.9c0.5-0.3,1.2-0.2,1.4,0.2l4.7,8.6l1.4-8c0.1-0.6,0.7-1,1.2-1
		c0.6,0,1,0.5,0.9,1l-2,11.2c-0.1,0.6-0.6,1-1.2,1c-0.3,0-0.6-0.1-0.7-0.4c0,0-0.1-0.1-0.1-0.1l-4.7-8.5l-1.4,8
		c-0.1,0.6-0.6,1-1.2,1c-0.6,0-1-0.5-0.9-1L408.5,92.5z"/>
</g>
<g>
	<ellipse fill="none" stroke="#FFFFFF" stroke-width="1.9606" stroke-miterlimit="10" cx="36.9" cy="60.4" rx="21.8" ry="33.8"/>
	
		<line fill="none" stroke="#FFFFFF" stroke-width="2.0496" stroke-linecap="round" stroke-miterlimit="10" x1="36.9" y1="48.8" x2="36.9" y2="72"/>
	
		<line fill="none" stroke="#FFFFFF" stroke-width="2.0496" stroke-linecap="round" stroke-miterlimit="10" x1="33.4" y1="53.3" x2="39.9" y2="53.3"/>
	
		<line fill="none" stroke="#FFFFFF" stroke-width="2.0496" stroke-linecap="round" stroke-miterlimit="10" x1="33.4" y1="58.1" x2="39.9" y2="58.1"/>
	
		<line fill="none" stroke="#FFFFFF" stroke-width="2.0496" stroke-linecap="round" stroke-miterlimit="10" x1="33.4" y1="62.8" x2="39.9" y2="62.8"/>
	
		<line fill="none" stroke="#FFFFFF" stroke-width="2.0496" stroke-linecap="round" stroke-miterlimit="10" x1="33.4" y1="67.6" x2="39.9" y2="67.6"/>
</g>
</svg>
