<?xml version="1.0" encoding="utf-8"?>
<!-- Generator: Adobe Illustrator 18.1.0, SVG Export Plug-In . SVG Version: 6.00 Build 0)  -->
<!DOCTYPE svg PUBLIC "-//W3C//DTD SVG 1.1//EN" "http://www.w3.org/Graphics/SVG/1.1/DTD/svg11.dtd">
<svg version="1.1" id="Layer_1" xmlns="http://www.w3.org/2000/svg" xmlns:xlink="http://www.w3.org/1999/xlink" x="0px" y="0px"
	 viewBox="0 0 576 432" enable-background="new 0 0 576 432" xml:space="preserve">
<g>
	<path fill="#FFFFFF" d="M412.5,373.7c-0.6,0.6-1.1,1.4-1.2,1.9c0.2,0.2,1.2,0.9,4.1,1.4c1.6,0.2,3.4,0.2,5.1-0.1
		c-0.5-3.2-1.3-4.6-1.7-5c-0.1-0.1-0.3-0.3-0.4-0.3l-0.3,0.1h-0.6C417.3,371.8,415.1,371.9,412.5,373.7L412.5,373.7z"/>
	<path fill="#FFFFFF" d="M512,346.6c4.9-14.3,5-20.8,4.6-23.4c-0.5,0.7-1,1.7-1.5,3c-0.4,1.1-1,2.9-1.7,5.1
		c-2.4,6.8-6.3,17.9-9.9,29.7C506.9,358,509.7,353.2,512,346.6z"/>
	<path fill="#FFFFFF" d="M406.8,410.4L406.8,410.4c4.6,0,12.1-7.1,13.5-20.1c0.2-2.2,0.4-4.1,0.4-5.9c-2.2,0.2-4.4,0.3-6.6-0.1
		c-3.8-0.6-6.6-1.8-8.3-3.6c-1.9,3.6-3.5,8.7-4.2,15.7c-0.5,5.8,0.3,10.4,2.2,12.6C404.8,409.9,405.6,410.4,406.8,410.4z"/>
	<path fill="#FFFFFF" d="M529.9,379.8c3.1-3.2,4.1-8.8,3-12c-0.2-0.7-0.6-1.2-0.8-1.2c0,0-3.1-0.4-9.5,8.1c-1.9,2.6-3.5,5.4-4.6,8.4
		C522.5,383.4,527,382.8,529.9,379.8z"/>
	<path fill="#FFFFFF" d="M219.6,410.5c2.8,0.7,7-3.6,9.7-14.4l0.1,0.1c0.4-6,1.6-12.2,2.7-17.2c-2-1.7-6.7-4.7-10.4-3.5
		c-4,1.2-6.2,7.2-7.3,12C211.2,401.2,216,409.7,219.6,410.5z"/>
	<path fill="#FFFFFF" d="M562.1,401.3c-1.1-0.1-3.9,0.9-4.7,2.2c-0.1,0.2-0.4,0.7,0.5,2c2.7,3.2,7.2,2.6,10.4,0.3
		c-0.5-0.9-1-1.8-1.2-2.1C565.4,401.9,564.5,401.4,562.1,401.3z"/>
	<path fill="#FFFFFF" d="M120.7,341c3-2.4,4.1-6.2,3-9.8c-1.6-4.9-10.8-10.4-20.2-10.2c-5.7,0.1-13.2,2.4-16.2,12.8
		c-0.1,0.2-0.1,0.4-0.1,0.5c2.4,1.2,4.9,2.7,7.4,4.3C102.8,343.3,114,346.5,120.7,341z"/>
	<path fill="#FFFFFF" d="M139.7,406.7c1.4,4.2,3.6,6.2,5.2,6.6c2.8,0.7,7-3.5,9.6-14.2h0.1c0.2-3.1,0.7-6.4,1.3-10.2
		c0.4-2.6,0.9-5.1,1.5-7.4c-1.8-1.6-6.8-5-10.7-3.8c-4,1.2-6.2,7.2-7.3,12C138,395.9,138.1,401.9,139.7,406.7z"/>
	<path fill="#FFFFFF" d="M100,391.3c-1.5,1.8-4.1,2.2-6.1,1c-5.9-3.7-11.4-5.6-16.1-5.6c-2.6,0-5.1,0.6-7.2,1.7
		c-5.3,2.9-8.7,9.2-8.9,16.6c-0.2,7.7,3.2,14.4,9.1,18c11.1,6.7,24.9,5.9,35.2-1.9c9.3-7.1,13-17.9,9.9-29c-0.7-2.6-1.8-5.1-3.1-7.4
		C105.2,386.9,101,390.1,100,391.3z"/>
	<path fill="#FFFFFF" d="M55,335.3c4.1-1.9,11.4-2.6,23.9,3.2c-0.3,12.4,9,20.9,18.1,29c3.8,3.4,7.7,6.9,11.1,10.8
		c-5.7,2-9.7,4.4-12.1,6.4c-13.6-7.9-23.2-6-29-2.9c-7.7,4.1-12.7,12.9-12.9,23c-0.2,10.4,4.5,19.7,12.7,24.6
		c6.2,3.7,13.1,5.6,20.1,5.6c8.3,0,16.6-2.7,23.6-8c11.8-9,16.6-22.8,12.6-37c-0.7-2.5-1.6-4.7-2.7-6.9c3.9-0.6,8.3-0.7,13.3-0.5
		c-0.6,1.6-1.1,3.4-1.6,5.2c-4.1,17.6,2.6,30.6,11.1,32.7c0.6,0.1,1.4,0.2,2.4,0.2c2.8,0,7-1.1,10.7-6.5c0.3,0.6,0.6,1.4,1.1,1.9
		c1.7,2.2,4.1,3.6,6.9,3.6l0,0c12.6,0,16.1-21.8,18.4-36.7c2.1,2.1,5.2,4.2,9.6,5.3c-2.8,12.6-4.6,22.6-0.4,27.7
		c1.2,1.5,3.6,3.2,7.6,3c4.4-0.2,8.1-2.7,10.6-7.1c2.1,3.1,4.7,5.2,7.8,5.9c0.6,0.1,1.4,0.2,2.3,0.2c2.8,0,7-1.1,10.7-6.6
		c0.3,0.7,0.7,1.4,1.1,2c1.7,2.3,4.1,3.6,6.9,3.7c0.1,0,0.2,0,0.4,0c9.9,0,15.6-14.4,19.3-34.6c0.9-3.2,3.6-9.6,11.3-9.9
		c2.4-0.1,3.2,0.7,3.7,1.3c1.1,1.4,2.6,5.6,0.3,16.9c-1.6,7.7-4.3,15.7-5.8,20.1c-0.9,2.7-1.2,3.6-1.3,4.2l7.4,1
		c0,0.1,0,0.1-0.1,0.2c0.1-0.4,0.6-1.7,1-3c5.7-16.9,10.8-35.4,4.4-43.9c-1.6-2.1-4.6-4.6-10.1-4.3c-3.4,0.2-6.2,1.1-8.6,2.4
		c1.2-9.7,2.2-20.1,3.2-30.5c0.5-5.4,0.9-9.6,1.1-11.2l-7.4-1.4c-0.4,1.9-0.7,5.9-1.2,11.9c-1.1,11.9-2.6,29.6-5.5,45
		c-0.1,0.6-0.2,1.2-0.3,1.7c-0.1,0.2-0.1,0.4-0.1,0.6c-5,24.8-10.4,25.9-11.4,25.9c-0.4,0-0.7-0.1-1.1-0.6c-3.6-4.9-0.1-24.6,3.4-37
		l-7.2-2.1c-0.1,0.2-0.2,0.6-0.3,1c-3.4-2.2-8.9-4.6-14.5-2.9c-5.9,1.8-10.1,7.7-12.4,17.5c-1.1,4.8-1.5,9.6-1.1,14h-0.2
		c0,0.1-0.9,11.6-6.7,11.9c-1.2,0.1-1.4-0.2-1.5-0.3c-2.2-2.7,0.6-15.1,2.6-24.1c0.3-1.2,0-2.6-0.7-3.6c-0.7-1.1-1.9-1.7-3.1-1.9
		c-6.5-0.9-9.2-4.6-11.1-7c-0.2-0.3-0.4-0.6-0.6-0.9c-1.2-1.5-3.1-2.1-4.9-1.7c-1.8,0.4-3.2,1.9-3.6,3.7c-0.2,1.4-0.6,3.2-0.9,5.2
		c-0.9,6.1-2.2,14.5-4.4,21.2c-2.1,6.3-4.5,10.1-6.7,10.1l0,0c-0.4,0-0.6-0.2-0.8-0.6c-3.2-4.3-0.4-23.7,4.1-39.1l-7.2-2.1
		c-0.1,0.1-0.4,1.2-0.8,3.1c-3.4-2.2-9.1-4.9-14.8-3.1c-2.7,0.8-5,2.5-7,4.9c-8.4-0.7-15.6-0.3-21.6,0.9c-4.1-5.4-9.2-10.1-14-14.3
		c-8-7.2-13.7-12.7-15.2-19.3c1.2,0.7,2.5,1.4,3.8,2.2l0.1,0.1c20,11.6,31.6,4.3,34.7,1.8c5.5-4.4,7.6-11.4,5.4-18
		c-2.8-8.6-15.4-15.7-27.6-15.4c-11.2,0.2-19.6,6.6-23,17.5c-11.6-5-21.2-5.8-28.4-2.4c-10.1,4.8-11.7,15.8-11.7,16.2l7.4,1
		C47.6,345.7,48.7,338.3,55,335.3z M214.5,387.3c1.1-4.8,3.3-10.7,7.3-12c3.7-1.1,8.3,1.9,10.4,3.5c-1.1,5-2.3,11.2-2.7,17.2
		l-0.1-0.1c-2.6,10.9-6.9,15.1-9.7,14.4C216,409.7,211.2,401.2,214.5,387.3z M146.8,377.6c3.9-1.2,8.9,2.2,10.7,3.8
		c-0.5,2.3-1,4.8-1.5,7.4c-0.7,3.7-1.1,7.2-1.3,10.2h-0.1c-2.6,10.7-6.8,14.9-9.6,14.2c-1.6-0.4-3.7-2.3-5.2-6.6
		c-1.6-4.7-1.7-10.8-0.2-17.1C140.6,384.9,142.8,378.9,146.8,377.6z M112.7,384.8c1.3,2.3,2.4,4.7,3.1,7.4c3.1,11.1-0.6,21.9-9.9,29
		c-10.4,7.9-24.2,8.6-35.2,1.9c-5.9-3.6-9.3-10.3-9.1-18c0.2-7.4,3.6-13.7,8.9-16.6c2.2-1.2,4.6-1.7,7.2-1.7
		c4.7,0,10.2,1.9,16.1,5.6c2,1.2,4.6,0.8,6.1-1C101,390.1,105.2,386.9,112.7,384.8z M87.3,333.7c3-10.4,10.4-12.7,16.2-12.8
		c9.4-0.2,18.6,5.4,20.2,10.2c1.2,3.6,0.1,7.4-3,9.8c-6.7,5.4-17.9,2.3-26.1-2.4c-2.6-1.6-5.1-3-7.4-4.3
		C87.2,334.1,87.2,333.9,87.3,333.7z"/>
	<path fill="#FFFFFF" d="M406.8,417.9C406.8,417.9,406.8,417.9,406.8,417.9c8.9,0,19.2-10.1,21-26.8c0.3-3.2,0.5-6.1,0.5-8.6
		c2.6-1,5.1-2.2,7.1-3.4c0.2-0.1,0.4-0.2,0.6-0.4c-0.4,1.4-0.8,3-1.2,4.6c-3.1,12.6-3.7,21.1-1.9,25.7c1.3,3.4,3.9,5.3,7.3,5.2
		c4.2-0.2,8.1-2.7,11.5-7.6c0.4,1.4,1.1,2.6,1.9,3.7c1.4,1.8,3.9,3.9,8.2,3.9c0.2,0,0.3,0,0.5,0c7.6-0.2,13.2-8.1,17.3-23.7
		c1.9-7.4,3.1-15.1,3.7-20.1c2.5,1,5.6,1.9,9.1,2.1c-5.7,21.6-6,33.3-1.4,38c1.3,1.4,4.2,3.4,9.1,1.9l-2.2-7.2
		c-0.6,0.2-1.3,0.3-1.5,0.1c-0.4-0.4-3.7-4.8,3.5-31.8c0.2-0.7,0.4-1.4,0.6-2.1c8.2-2.7,14.5-10.2,18.7-22.3
		c7.2-21,5.5-29.2,2.7-32.3c-1.5-1.7-3.6-2.4-5.8-2c-3.4,0.7-6.4,4.1-8.1,9.1c-0.4,1.1-0.9,2.8-1.7,5c-4.9,14.1-8.9,26-11.8,36.1
		c-5.5,0.4-10.3-2.3-11.5-3.2c-1.2-0.9-2.7-1.1-4.1-0.5c-1.4,0.6-2.2,1.9-2.4,3.4c-1.9,20.6-7.8,41.9-14.4,42.1
		c-1.5,0.1-2-0.4-2.4-0.9c-0.6-0.7-2.2-3.9-0.6-13.7c0.2-1,0.4-2.1,0.6-3c1.4-4.6,2.1-8,2.2-8.2l-7.2-1.9c-0.4,1.4-1.6,4.8-2.4,9.1
		c-2.9,9.1-7.5,18.2-12,18.7c-0.4-0.8-1.7-4.8,1.4-19c1.9-8.6,4.5-16.4,5.1-18.2c0.1-0.2,0.2-0.5,0.3-0.7c0.6-2.1-0.5-3.6-1.6-4.2
		l-2.3-1.5l-2.1,1.7c-0.5,0.4-0.7,0.6-1.2,1.6c-1.2,1.5-6.2,5.5-12.1,8.2c-0.6-3.4-1.7-5.9-3.4-7.7c-1.6-1.8-3.8-2.8-6.1-2.8
		c-0.6,0-1.2,0.1-1.6,0.2c-3.2,0.3-19.9,3.2-22.4,31.7c-0.9,10.3,1.7,15.6,4.2,18.3C400.6,416.6,403.5,417.9,406.8,417.9z
		 M513.3,331.3c0.8-2.2,1.4-4,1.7-5.1c0.4-1.3,1-2.3,1.5-3c0.4,2.6,0.3,9.1-4.6,23.4c-2.2,6.6-5.1,11.4-8.6,14.4
		C507,349.3,510.9,338.2,513.3,331.3z M417.4,371.7h0.6l0.3-0.1c0.2,0,0.4,0.2,0.4,0.3c0.4,0.4,1.2,1.7,1.7,5
		c-1.7,0.3-3.4,0.4-5.1,0.1c-2.8-0.4-3.8-1.1-4.1-1.4c0.1-0.4,0.6-1.4,1.2-1.9l-0.2-0.2C415,371.9,417.2,371.7,417.4,371.7z
		 M401.7,396.6c0.6-7.1,2.2-12.1,4.2-15.7c1.7,1.7,4.5,2.9,8.3,3.6c2.2,0.4,4.4,0.3,6.6,0.1c-0.1,1.7-0.2,3.7-0.4,5.9
		c-1.4,12.9-8.9,20.1-13.5,20.1l0,0c-1.1,0-2.1-0.4-2.8-1.2C402,406.9,401.2,402.4,401.7,396.6z"/>
	<path fill="#FFFFFF" d="M516.6,370.1c-2.9,3.8-4.9,7.7-6.1,11.6c-1.7-0.5-3.2-1.1-4.2-1.5l-3.1,6.9c0.2,0.1,2.5,1.1,5.8,2
		c-0.6,8.2,2.4,15.4,7.2,19.7c7.2,6.4,17,5.6,24.9-2.1c9.2-8.9,14.8-18.4,18.2-31.2c2.5,4.7,6.2,10.4,10.9,17.4
		c1.3,1.9,1.9,3.8,2,5.4c-2.8-3-5.5-4.2-9.6-4.6c-3.4-0.2-9.3,1.7-11.7,6.1c-1,1.8-2.2,5.6,1,10.1l0.1,0.2
		c4.7,5.9,13.3,6.7,20.1,2.2c3.5,5.2,8.6,10.6,15.7,10.6c0.5,0,1.1,0,1.6-0.1l-0.8-7.5c-4.6,0.5-8.4-4.2-11.1-8.6
		c0.9-1.5,1.6-3.1,1.9-4.8c0.9-4.4-0.1-9-2.9-13.3c-3.4-5-13.6-20.2-13.5-24.2c0.1-2.3-1.8-4.3-4.2-4.6c-2.3-0.2-4.2,1.3-4.6,3.6
		c-2.3,14.2-6.3,26.1-18.4,37.7c-5,4.9-10.5,5.6-14.7,1.9c-3.6-3.2-5-7.8-4.7-12.7c6.4,0.7,13.7-0.1,18.9-5.5
		c4.7-5,6.7-13.4,4.7-19.6c-1.2-3.5-3.6-5.8-6.7-6.3C528.3,358.3,522.7,362,516.6,370.1z M557.9,405.6c-0.9-1.3-0.6-1.8-0.5-2
		c0.7-1.4,3.6-2.4,4.7-2.2c2.4,0.2,3.2,0.6,4.9,2.5c0.2,0.2,0.7,1.2,1.2,2.1C565.1,408.1,560.6,408.7,557.9,405.6z M532,366.5
		c0.2,0.1,0.6,0.6,0.8,1.2c1.1,3.1,0.1,8.7-3,12c-2.9,3-7.4,3.6-11.9,3.3c1.1-3,2.6-5.9,4.6-8.4C529,366.1,532,366.5,532,366.5z"/>
	<line fill="#FFFFFF" x1="305.5" y1="412.4" x2="305.5" y2="412.4"/>
	<path fill="#FFFFFF" d="M492.5,418.8c-30.2,1.8-64.4,7.4-101.9,16.6c-26.9,6.6-50.2,4.7-67.2-5.5c-0.9-0.6-1.7-1.1-2.6-1.6
		c3.7-17.7,7.2-34.7,10.9-53.4c0.2-0.1,0.5-0.1,0.7-0.1c0.5-0.1,1.6-0.4,8.1-1.1c0.9-0.1,1.9-0.3,2.7-0.6c1.5-0.2,3.2-0.2,4,0.5
		c0.7,0.6,1.1,2.3,0.7,4.6c-0.5,3.7-1.3,7.7-2.1,11.7c-2.3,11.4-4.3,21.2,0.2,26.4c1.2,1.4,3.4,3,7.2,3c0.3,0,0.6,0,0.9,0
		c6.3-0.4,10.7-9,14.7-28.7c0.7-3.8,1.4-7.6,2-11l0.7,0.4c0.4-0.8,4.3-8.1,12.9-6.5c0.7,0.1,0.8,0.4,0.9,0.5
		c1.6,2.5-0.6,11.2-2.2,17.7c-0.4,1.5-0.7,3.1-1.1,4.6c-2.1,8.7-2.8,15.4,0.5,19.3c1.6,1.9,4,2.9,7.1,2.9c0.4,0,0.7,0,1.1-0.1
		l-0.6-7.5c-1.2,0.1-1.8-0.1-1.9-0.2c-0.4-0.4-1.4-2.6,1.1-12.7c0.4-1.5,0.7-3,1.1-4.5c2.5-9.8,4.6-18.3,1.3-23.6
		c-1.3-2.1-3.3-3.4-5.9-3.8c-5.4-1-9.9,0.2-13.4,2.4c0.2-2,0.4-3.2,0.4-3.4l-7.5-0.8c0,0.1-1.3,11.6-3.6,23.4
		c-4.1,20.9-7.8,23.9-8.3,24.2c-0.9,0.1-1.6-0.1-1.8-0.4c-2.1-2.4,0-12.6,1.5-19.9c0.8-4.1,1.7-8.3,2.2-12.2c0.7-5.2-0.5-9-3.4-11.4
		c-0.1-0.1-0.2-0.2-0.4-0.3c5.4-5.6,10.2-14.9,14.7-28.1c5.2-15.2,7.8-29.9,7.9-30.5l-7.4-1.3c0,0.1-2.6,14.7-7.6,29.4
		c-5.6,16.4-11.8,26.4-17.8,28.7c-0.9,0.2-1.7,0.4-2.1,0.5c-2.9,0.4-4.7,0.6-5.9,0.8c3-15.1,6.4-31.9,10.4-51.5
		c0.4-2.1-0.7-4.2-2.7-5c-2-0.7-4.3,0.1-5.4,1.9l-0.7,1.2c-3.6,6.4-5.8,10.2-8.7,11.4c-2.9,1.2-8.1,0.2-17.7-3.2
		c-11.1-4.1-19.7-3.9-25.7,0.4c-7.4,5.4-7.6,15.1-7.5,17.9l7.5-0.3c-0.1-1.3-0.1-8.2,4.4-11.5c3.7-2.7,10.2-2.6,18.7,0.6
		c10.3,3.7,17.4,5.5,23.1,3.2c1.6-0.6,2.9-1.5,4.2-2.7c-3.2,15.6-5.9,29.2-8.4,41.7c-3.6,18.3-6.9,34.9-10.6,52
		c-6-5.6-8.6-10.5-8.7-10.7l0,0l-3.4,1.7l-3.4,1.6c0.2,0.4,4.1,8.1,13.6,15.8c-0.9,3.9-1.7,7.9-2.6,12c-20.7-13.5-53-18.7-96.1-15.7
		c-27.7,2-60,7.5-95.9,16.3c-26.9,6.6-50.2,4.7-67.2-5.5c-12.8-7.7-17.8-17.5-17.8-17.6l-6.9,3.3c0.2,0.5,5.7,11.6,20.2,20.5
		c13.1,8,27.8,10.7,41.8,10.7c11.4,0,22.4-1.8,31.6-4.1c90.8-22.4,155.7-22.6,187.4-0.7c1.7,1.2,3.9,1.4,5.8,0.7
		c1.9-0.7,3.4-2.4,3.8-4.4c0.8-3.7,1.6-7.2,2.4-10.8c13.1,8,27.7,10.7,41.7,10.7c11.4,0,22.4-1.8,31.6-4.1
		c37-9.1,70.8-14.6,100.6-16.4c47.3-2.9,82.5,3.8,104.6,19.9l4.4-6.1C578.4,423,541.6,415.9,492.5,418.8z"/>
</g>
</svg>
