<?xml version="1.0" encoding="utf-8"?>
<!-- Generator: Adobe Illustrator 18.1.1, SVG Export Plug-In . SVG Version: 6.00 Build 0)  -->
<!DOCTYPE svg PUBLIC "-//W3C//DTD SVG 1.1//EN" "http://www.w3.org/Graphics/SVG/1.1/DTD/svg11.dtd">
<svg version="1.1" id="sarahknowles_xA0_Image_1_" xmlns="http://www.w3.org/2000/svg" xmlns:xlink="http://www.w3.org/1999/xlink"
	 x="0px" y="0px" width="1182.7px" height="783.4px" viewBox="0 0 1182.7 783.4" enable-background="new 0 0 1182.7 783.4"
	 xml:space="preserve">
<path fill="#FFFFFF" d="M285,327.7c-0.9-1.2-1.3-2-2-2.7c-2.3-2.4-4-5.3-5.7-8.2c-1.8-2.9-3.1-6.1-4-9.4c-1.8-7.3-2.1-14.6,0.4-21.9
	c0.6-1.6,0.7-3.4,1.1-5.1c1-3.7,2.9-6.9,4.8-10.1c3-5.1,6.9-9.5,10.3-14.3c1.3-1.9,2.6-3.9,4.7-5.2c0.8-0.5,1.9-1.2,1.8-2.6
	c0-0.3,0.6-0.7,0.9-1c0.6-0.5,1.2-1,1.7-1.6c0.6-0.7,1.2-1,2.2-1.3c1.7-0.4,3.3-1.6,4.6-2.8c2.7-2.4,4.9-5.4,8.2-7
	c0.5-0.2,1-0.6,1.4-1c2.3-2.4,5.3-4,8.1-5.7c0.7-0.4,1.2-1,1.9-1.4c2.2-1.4,4.5-2.3,7.3-1.8c0.8-1.6,1.9-2.6,3.7-2.2
	c0.3,0.1,0.8-0.1,1.1-0.2c2.3-1,4.7-2,6.9-3.2c3-1.6,6.3-1.7,9.5-2.1c2.9-0.4,5.9-0.5,8.8-0.8c0.2,0,0.3,0,0.5,0
	c4.9,1.2,9.9,2.2,12.5,7.3c0.5,1,1.1,1.9,1.4,3c1.8,6,2.5,12,1,18.2c-0.4,1.7-1.4,3.4-1.6,5.1c-0.3,2.4-2,4-3,6c-1,2-2.1,4-3.3,5.8
	c-3.2,4.5-6.6,9-9.8,13.5c-0.9,1.3-2.3,1.7-3.2,2.8c-1.4,1.5-3.3,2.7-4.9,4c-3.1,2.5-6.8,2.9-10.5,3.3c-2.6,0.2-5.2,0.7-7.8-0.2
	c-3-1.1-5.7-2.4-7.3-5.6c-1.2-2.3-2.3-4.5-2.5-7.1c-0.2-3,0.8-5.7,2.3-8.2c1.5-2.5,3.1-4.8,4.7-7.2c0.7-1,1.7-2,2.6-2.8
	c0.6-0.6,1.3-1.3,2.3-0.8c1,0.5,1.4,1.5,1.5,2.5c0.1,0.6-0.1,1.3-0.1,1.9c0,0.4,0.3,0.9,0.5,1.2c0.3,0.5,0.8,0.9,1.1,1.4
	c0.7,1.3,1.9,2.1,3.3,1.7c1.1-0.3,2.3-0.5,3.1-1.2c3.4-2.9,7.3-5.5,8.7-10.2c0.5-1.5,1.4-2.8,2-4.3c0.5-1.2,0.7-2.6,1-3.8
	c0.1-0.5,0.3-1.1,0.6-1.5c1.2-1.5,1-3.2,0.3-4.8c-0.7-1.6-1.1-3.4-3-4.2c-0.9-0.4-1.8-0.8-2.7-0.7c-1.5,0.2-3,0.5-4.3,1.2
	c-5.7,3-11.1,6.6-16,10.8c-2.3,2-4.7,4-7,6.1c-0.9,0.9-1.7,1.9-2.5,2.9c-1,1.1-2,2.3-3,3.4c-2.3,2.7-4.4,5.6-5.7,9
	c-0.5,1.5-1.1,3.1-2.1,4.2c-1.1,1.2-0.3,2.8-1.3,3.9c-1.1,1.2-0.6,2.6-0.6,3.9c0,0.2,0,0.5-0.1,0.7c-1.3,2.5-0.4,5,0,7.4
	c0.5,2.8,1.1,5.7,2.2,8.3c1.6,3.7,3.3,7.4,6,10.5c1.9,2.2,3.8,4.3,5.7,6.5c1.5,1.8,3.3,2.2,5.6,1.6c2.8-0.8,5.7-1.5,8.6-2
	c4-0.7,8-1.1,12-1.6c2.3-0.3,4.7-0.2,6.9-0.9c5-1.7,10.2-1.6,15.4-1.8c2.4-0.1,4.8,0,7.2,0.1c1.4,0.1,2.4-0.4,3.1-1.7
	c1.7-3.3,3.4-6.7,5.4-9.9c1.9-3.1,4-6.2,6.4-8.9c2.8-3.1,5.4-6.4,9-8.7c0.6-0.4,1-1.1,1.5-1.8c0.4-0.6,0.6-1.4,1.6-0.8
	c0.2,0.1,0.7-0.2,1-0.4c2.8-1.7,5.6-3.4,8.3-5.1c1.6-1.1,3.5-1,5.3-1.4c0.5-0.1,1,0,1.4-0.2c2-1,3.9-1,6-0.4
	c1.7,0.5,3.6,0.3,5.4,0.5c1.5,0.2,3.1,0.3,4.4,0.9c1.6,0.7,3.2,1.9,4.6,3c1.8,1.4,3.5,3,5.2,4.5c0.4,0.3,0.8,0.6,1.2,0.8
	c1.9-0.6,2.4-2.6,3.8-3.8c3.5,1,6.5-1,9.7-1.7c1-0.2,2-0.6,3-0.8c2.1-0.3,2.7,0.4,2,2.3c-0.7,1.9-1.7,3.6-2.3,5.5
	c-1.3,4.2-3.8,8.1-4.3,12.6c-0.1,1-0.7,2-0.9,3c-0.8,3.1-1.3,6.3-2.4,9.4c-1.5,4.3-1.6,8.9-2.5,13.3c-0.7,3.4-1.1,6.9-1.2,10.4
	c-0.1,2.1,0.5,4.2,0.7,6.3c0.1,1,0,2.1-0.1,3.1c-0.4,2.2-0.1,4.2,1,6.2c1.5,2.7,5.7,3.2,8.6,1.2c3.4-2.3,5.8-5.4,8.1-8.7
	c3-4.2,6-8.5,8.6-12.9c1.3-2.3,2.6-4.6,4-6.8c0.8-1.2,1.1-2.6,1.8-3.9c1.1-2.3,2.3-4.5,3.4-6.8c0.7-1.6,1.2-3.4,1.9-5.1
	c1.3-3.5,2.8-6.9,4-10.5c1.6-5,3-10,4.4-15c0.2-0.7,0.1-1.4,0.2-2.3c-1.7-0.5-3.2-1.2-4.8-1.5c-2.9-0.6-5.2-2.4-7.5-4
	c-1.5-1-2.7-2.2-4.1-3.3c-0.2-0.1-0.4-0.3-0.5-0.5c-0.8-2.6-3.3-3.8-4.7-5.8c-1.3-1.9-2.5-3.8-1.5-6.2c-2.3-1.5-1.6-3.8-1.7-5.8
	c0-0.9,0.2-1.9,0.3-2.8c0.1-3.4,1.2-6.3,3.4-8.9c2.4-2.8,5.4-4,9-4.4c7.3-0.8,6.1-0.9,11.9,3.2c4.3,3.1,7,7.3,8.5,12.3
	c0.9,2.9,1.7,5.8,2.4,8.7c0.2,1.1,0.2,2.2,0.1,3.3c-0.3,3.6,1,4.6,4.1,2.9c4.6-2.6,9.7-4.2,13.8-7.8c3-2.6,6.5-4.5,9.8-6.7
	c0.5-0.4,1.2-0.7,1.5-1.2c1-1.9,2.8-2.3,4.5-2.7c4-0.9,8.1-1.7,12.2-2.4c1.8-0.3,3.7-0.5,5.5-0.2c1.3,0.2,2.6,1.2,3.5,2.2
	c0.4,0.5,0.1,2-0.2,2.9c-2.2,5.6-4.4,11.1-6.6,16.7c-1.6,4.1-3.2,8.3-4.8,12.5c-0.5,1.4-1.1,2.8-1.8,4.2c-1.1,2.4-1.7,4.9-2.5,7.5
	c-0.9,3.1-1.9,6.2-2.5,9.3c-0.6,2.9-1.1,5.8-1.6,8.7c-0.5,3.4-1,6.8-1.3,10.2c-0.3,3.4-0.3,6.8-0.6,10.2c-0.2,3,1.1,5.6,1.8,8.3
	c0.2,0.7,0.4,1.6,0.7,2.1c0.9,1.6,2.1,3.2,3.5,4.4c1.1,1,3.1,0.5,4-0.9c1.3-2,2.8-4,3.3-6.6c0.4-2.3,1.1-4.6,1.6-7
	c0.1-0.4,0.2-0.8,0.1-1.2c-1-3.4,0.4-6.8-0.5-10.2c-0.1-0.3,0-0.6,0-1c0.3-2.9,0.6-5.9,0.9-8.8c0.1-0.9,0.4-1.7,0.7-2.5
	c1-3.2,2.1-6.5,2.7-9.8c0.5-2.5,1.5-4.9,2.5-7.2c1-2.2,2.4-4.3,3.4-6.5c1.7-3.8,4.3-6.8,7.2-9.7c3.4-3.4,7.3-6.1,11.1-9.1
	c1.3-1.1,3-1.7,4.6-2.4c1.5-0.6,3-1.4,4.5-1.5c2.4-0.2,4.8,0,7.2,0.3c2.2,0.3,4.4,0.8,6.5,1.4c0.8,0.2,1.5,0.6,2.2,1
	c3.1,1.7,6.2,3.3,8.4,5.8c2.6-1.5,5-2.9,7.4-4.3c2.1-1.2,4.2-1.8,6.6-1.5c1.7,0.2,3.5,0,5.3,0.1c2,0.1,2.5,0.9,2.1,2.8
	c-0.1,0.4-0.2,0.8-0.4,1.1c-1.1,2.6-2.3,5.2-3.3,7.9c-2.2,5.9-4.4,11.8-6.6,17.7c-1.1,2.9-2.1,5.8-3,8.8c-1.8,6.3-3.2,12.6-3.6,19.2
	c-0.1,2.2-0.5,4.5-0.5,6.7c0,2.8,0.3,5.6,0.6,8.3c0.3,2,1.9,3.3,3.2,4.6c1,1,2.6,0.8,3.9,0.2c1-0.4,2-0.9,3-1.5
	c0.6-0.4,1.3-0.7,1.7-1.3c1.5-2,2.8-4,4.3-6c1.7-2.4,2.7-5.2,4.4-7.5c1.7-2.5,1.7-4.9,2.1-7.5c0.3-2.1,1-4.2,1.4-6.3
	c1.2-6,2.4-12,3.6-18c0.6-2.7,1.4-5.4,1.8-8.1c0.8-5.1,2.8-9.9,4.1-14.9c0.9-3.7,1.9-7.4,2.8-11.1c0.3-1.2,0.7-2.5,1-3.7
	c1.8-6,3.5-12.1,5.3-18.1c1.5-5.1,3-10.2,4.5-15.3c0.3-1,0.4-2,0.7-3c1.5-5.5,2.9-11,4.6-16.4c1.8-5.5,3.8-11,5.9-16.4
	c1.5-4,3.2-8,4.8-12c0.8-1.9,2-3.5,4-4.2c0.2-0.1,0.3-0.1,0.4-0.2c3.9-3.4,9-4.7,13.2-7.6c1-0.7,2-1.3,3.1-1.9
	c3.2-2,6.7-2.9,10.5-2.6c1.8,0.1,2.1,0.6,1.6,2.3c-0.5,1.6-0.9,3.2-0.4,4.9c0.2,0.6-0.1,1.5-0.5,2c-2.8,4.1-3.9,8.9-5.6,13.4
	c-1.8,4.9-4,9.7-5.8,14.6c-0.1,0.3-0.3,0.6-0.4,0.9c-1.5,4.9-3,9.7-4.5,14.6c-0.4,1.1-1,2.2-1.5,3.3c-1.1,3.1-2.2,6.3-3.3,9.5
	c-0.8,2.1-1.4,4.2-2.5,6.2c-0.8,1.5-1.4,3-1.7,4.7c-0.2,1.2-1,2.3-1.4,3.5c-0.6,2-1.1,4-1.7,6c-0.3,0.9-0.5,1.9-1,2.7
	c-1.6,2.6-1.6,5.6-2.5,8.3c0.1,0.1,0.3,0.2,0.4,0.3c1.4-1.1,3-2,4.3-3.2c3.9-3.4,8.4-5.4,13.4-6.4c6.7-1.3,12.8,0.7,18.6,3.8
	c4.6,2.4,7.1,6.5,7.5,11.8c0.4,5.9,0.1,11.8-1,17.6c-0.5,2.9-1.6,5.8-2.4,8.7c-0.5,1.9-0.8,3.8-1.3,5.8c-0.2,0.7-0.5,1.5-0.8,2.2
	c-0.2,0.5-0.7,3-0.5,3.6c0.3,0.9,0.2,1.6-0.4,2.2c-1.6,1.7-2,4-2.4,6.1c-0.8,3.4-1.3,6.9-1.7,10.4c-0.2,2.2,0.1,4.4,0.2,6.6
	c0,0.2,0.3,0.5,0.8,1.1c0.3-1,0.5-1.6,0.7-2.4c0.4,0.6,0.8,1.1,1.2,1.7c-1.2,1.5-1.2,3.1-0.1,4.6c1.1,1.5,2.5,1.9,4.4,1.8
	c2.9-0.3,5-1.8,6.9-3.9c3.3-3.7,5.6-7.9,8.1-12.1c1.1-1.9,1.7-4.1,2.4-6.2c1.6-4.1,2.9-8.3,4.8-12.2c0.8-1.7,2.6-3,4.1-4.3
	c0.7-0.6,3.4,0.6,4.1,1.7c0.6,0.9,1.1,1.8,1.5,2.7c1.3,3.8,4,6.7,6.9,9.2c1.5,1.2,3,2.4,4.7,3.3c2.8,1.6,5.9,2.9,9.2,2.5
	c2.4-0.3,4.7-0.7,7.1-1c4.3-0.5,8.3-2.1,12.1-4c4.4-2.2,8.9-4.3,13.3-6.5c2.6-1.3,5.1-2.7,7.6-4.1c6.8-3.6,13.6-7.4,20.5-10.9
	c5.8-2.8,11.6-5.5,17.2-8.8c3.6-2.1,7.2-4,11.2-5.2c0.7-0.2,1.3-0.6,1.8-1.1c3.4-2.7,7.3-4.2,11.3-5.6c1.7-0.6,3.4-1.5,5.1-2
	c6.3-2.2,12.8-4,19.4-5.1c5.6-1,11.2-1.1,16.9-0.2c2.2,0.4,4.5,0.2,6.6,0.6c4.2,0.8,8.6,1.4,12.6,2.9c5.9,2.2,11.4,5.3,15.8,10
	c0.7,0.7,1.2,1.5,1.8,2.2c1.7,2.4,3.4,4.9,4.1,7.8c0.1,0.6,0.4,1.2,0.7,1.7c2.7,4,3.2,8.4,2.4,13c-0.3,1.6-0.5,3.3-0.8,5
	c-0.4,2.3-1.5,4.2-2.9,6.3c-0.8-1.7-2.2-2.3-3.8-2.4c-0.4,0-0.8,0.8-1.4,1.4c1.7,0.8,3.1,1.5,4.5,2.1c-0.7,1.9-1.8,3.2-3.3,4.2
	c-1.6,1.1-3.2,2.4-4.9,3.3c-5.2,3-10.8,4.9-16.9,3.5c-3.8-0.9-6.9-3.2-9.2-6.4c-0.7-0.9-0.4-2.8,0.6-3.7c0.9-0.9,1.9-1,3.1-0.5
	c3,1.3,5.4,0.7,7.4-1.8c0.7-0.9,1.4-2,2-3c0.7-1.2,1-2.4,0.5-3.9c-0.7-2.2-1.3-4.6-1.6-6.9c-0.1-0.9-0.5-1.1-1-1.5
	c-1.3-1-3-1.4-3.8-3.2c-0.1-0.3-0.8-0.5-1.2-0.7c-1.1-0.4-2.5-0.5-3.3-1.2c-2-1.7-4.7-1.5-6.8-2.8c-0.4-0.2-0.9-0.2-1.4-0.2
	c-2.5-0.1-4.9-0.2-7.4-0.3c-0.2,0-0.5-0.1-0.7,0c-2.9,1.7-6,0.9-9.1,1.2c-0.2,0-0.3,0-0.5,0c-4.1,1.3-8.3,2.7-12.4,4
	c-1.7,0.5-3.4,0.7-5,1.4c-3.3,1.3-6.6,2.7-9.9,4.1c-1.3,0.6-2.6,1.1-3.9,1.7c-5.2,2.2-10.1,4.8-15,7.6c-1.5,0.9-3.2,1.5-4.7,2.3
	c-5,2.5-10,4.9-15,7.4c-2.1,1-4.2,1.9-6.2,3c-5.9,2.9-11.8,5.9-17.7,8.8c-6,3-12.4,4.8-19,6c-1.5,0.3-2.9,0.8-4.4,1
	c-4,0.4-7.9,1.3-11.9,0.4c-3.4-0.8-6.8-1.8-10.2-2.7c-1.5-0.4-3.1-0.7-4.6-1.4c-1.4-0.6-2.8-1.5-4-2.5c-2.2-1.9-4.2-3.9-6.3-6
	c-0.7,1.3-1.7,2.4-2,3.7c-1.1,4.7-4.5,8-6.8,12c-1.2,2-2.7,3.8-4.4,5.3c-2.5,2.2-5.1,4.6-8.7,5c-3.7,0.4-7.4,1.2-11.1,1.4
	c-5.3,0.3-10-1.2-14.1-4.7c-0.4-0.3-0.7-0.7-1.1-1c-3.7-2.4-5.8-6.1-7.7-9.9c-1.2-2.3-1.6-5-2.5-7.5c-1.6-4.6-1.5-9.4-1.9-14.1
	c-0.2-2.9-0.5-5.7,0.1-8.6c0.7-3.3,1.2-6.6,1.9-9.8c1.4-6.4,3-12.7,4.4-19.1c0.3-1.5,0.3-3,0.5-4.7c-1.3-0.9-2.5-1.7-3.9-2.8
	c-0.8,0.6-1.7,1.3-2.6,2c-0.4,0.3-0.8,0.9-1.2,1.1c-5.3,2.5-9.2,6.5-12.4,11.3c-1,1.4-1.7,3-2.5,4.6c-1.2,2.4-2.6,4.8-3.2,7.5
	c-0.6,2.7-1.7,5.3-2.4,8c-1,3.6-2,7.2-2.7,10.9c-1,4.9-1.5,9.9-2.6,14.8c-0.9,3.7-1.3,7.5-1.9,11.3c-0.2,1.5-0.3,3-0.3,4.5
	c0,0.8-0.1,1.4,0.9,1.9c0.7,0.4,0.9,1.6,0.1,2.2c-0.8,0.7-0.8,1.4-0.8,2.3c0.1,1.3-0.8,2.2-2.3,2.2c-1.7,0-3.1,0.5-4.4,1.4
	c-0.8,0.5-1.9,0.7-2.9,0.8c-2,0.3-3.9,0.3-5.9,0.6c-2.5,0.3-5.4-1.8-5.8-4.5c-0.2-1.7-0.2-1.7-2.1-2.5c-1.9,3.3-5,5-8.6,6.3
	c-4.2,1.5-8.3,1.3-12.5,1.1c-3.6-0.2-6.2-2.3-8.6-4.7c-1.7-1.7-3-3.8-4.7-6c-0.3,0.3-0.8,0.6-1.1,1.1c-1.2,1.5-2.3,3-3.5,4.5
	c-0.6,0.8-1.2,1.6-1.9,2.4c-0.5,0.5-1.1,1.2-1.6,1.2c-1.5,0-2.3,1-3.2,1.8c-0.8,0.8-1.6,1.2-2.7,1.2c-0.8,0-1.6,0.1-2.4,0.3
	c-5.8,1.7-11.4,0.9-17-0.8c-2.7-0.8-5.3-2.1-7.3-4.4c-0.8-0.9-1.8-1.6-2.6-2.4c-0.7-0.8-1.3-1.7-1.9-2.6c-0.4-0.6-0.8-1.3-1.4-2.3
	c-0.4,0.8-0.7,1.3-0.9,1.7c-1.2,3.2-3.1,5.9-5.2,8.6c-2.1,2.7-5,3.2-8.1,3.3c-0.8,0-1.6-0.2-2.4-0.3c-2.1-0.1-4.3-0.1-6.4-0.3
	c-0.9-0.1-1.8-0.3-2.7-0.5c-0.7-0.2-1.3-0.6-2-0.8c-4-1.2-6.8-3.7-9.6-6.7c-2.4-2.6-3.7-5.6-4.9-8.9c-0.9-2.6-0.9-5.1-1.2-7.7
	c-0.7-6.8,0-13.5,0.8-20.2c1-8.4,3.4-16.6,5.4-24.7c0.5-2,1.3-3.9,1.9-5.9c0.3-1,0.3-2.1,0.4-3.5c-0.7,0.2-1.3,0.2-1.9,0.4
	c-2.8,0.9-5.6,2-8.4,2.7c-1.7,0.5-3.6,0.5-5.4,0.7c-1.1,0.1-2.2,0.3-3.2,0.5c-1.3,1.8-0.9,3.8-1.3,5.6c-0.8,3.4-0.7,7-2.1,10.2
	c-1.7,3.9-2.8,7.9-3.9,12c-0.6,2.4-1.2,5-2.2,7.3c-0.7,1.6-0.9,3.3-1.5,4.8c-0.7,1.8-1.3,3.6-2,5.4c-0.7,1.7-1.4,3.4-2.2,5.1
	c-1.2,2.4-2.4,4.8-3.7,7.3c-0.7-0.1-1.2-0.2-2.3-0.4c0.7,1,1.2,1.6,1.7,2.2c0,0.2,0,0.5-0.2,0.8c-1.9,2.8-3.9,5.6-5.9,8.4
	c-1.1,1.5-2.1,3.2-3.4,4.5c-2.5,2.6-5,5.1-7.8,7.4c-1.8,1.4-4,2.3-6,3.4c-0.5,0.3-1.1,0.4-1.5,0.8c-2.1,1.8-4.5,2.3-7.1,2.4
	c-3.3,0.1-6.5,0.4-9.8-0.6c-3.9-1.2-7.2-3.2-9.4-6.8c-0.6-1-1.5-1.9-2.1-2.9c-0.5-1-0.7-2.1-1.1-3.3c-0.5,0.3-1,0.5-1.3,0.8
	c-2.3,2-4.5,4-6.8,6c-1.5,1.2-2.9,2.5-4.6,3.3c-1.9,1-3.6,2.2-5.2,3.6c-0.8,0.7-2.1,0.9-3.3,1.1c-1.1,0.2-2.2,0.1-3.3,0.2
	c-3.4,0.6-6.8,0.6-10.2,0.8c-4.3,0.2-7.7-2.2-11.7-3c-2.2-2-5.3-2.9-6.9-5.7c-0.6-1.1-1.7-1.9-2.5-2.9c-0.3-0.3-0.5-0.6-0.7-0.9
	c-0.7-1.7-1.5-3.3-2.2-5c-0.3-0.7-0.6-1.3-0.6-2c-0.3-4.5-0.7-9.1-0.7-13.6c0-2.4,0.7-4.9,1.1-7.3c0.2-1.1,0.4-2.3,0.7-3.6
	c-12.9,0.7-24.6,4.6-36.3,9.2c0.5,0.8,0.7,1.5,1.2,1.9c2.3,2.2,4.2,4.7,6.9,6.4c1.2,0.7,2.5,1.7,2.7,3.4c0.1,0.5,0.5,1,0.9,1.4
	c4.1,4.7,7.2,10.1,10.4,15.4c0.4,0.6,1,1,1.5,1.5c1.1,0.9,1.9,2,2.4,3.5c2.3,7,3.8,14.2,4.3,21.5c0.2,2.8,0.9,5.5,0.9,8.3
	c0,4.6-0.4,9.2-2.6,13.5c-1.4,2.6-2.5,5.3-4.1,7.7c-2,3-4,6.1-5.9,9.2c-1.6,2.6-3.6,4.9-5.7,7c-1.1,1-1.8,2.4-2.8,3.5
	c-2.1,2.2-4.2,4.3-6.5,6.3c-2.7,2.3-5.5,4.5-8.4,6.7c-0.7,0.5-1.5,0.8-2.3,1.3c-1.7,1-3.2,2.1-4.6,3.6c-1,1.2-3,1.6-4.6,2.3
	c-0.4,0.2-1.1,0.2-1.3,0.5c-2.3,2.8-5.8,2-8.8,2.9c-0.5,0.2-1.1,0-1.6,0.2c-2.1,0.5-4.1,1.1-6.1,1.7c-4.4,1.2-8.9,1.2-13.3,1.1
	c-5.2-0.1-10.5-0.7-15.7-1.1c-0.5,0-0.9-0.2-1.4-0.3c-7.4-1.7-14-5.2-20.7-8.6c-7.3-3.7-12.9-9.4-18.7-14.8c-0.9-0.8-1.4-2.1-2-3.2
	c-0.8-1.4-1.5-2.8-2.3-4.2c-0.9-1.7-1.8-3.4-1.9-5.3c0-0.5-0.2-1.1-0.4-1.6c-3-6.7-4.9-13.6-3.8-21c0.9-6.3,2.5-12.4,5-18.3
	c1.2-2.8,2.3-5.6,3.9-8.1c1.5-2.4,3.2-4.7,5.4-6.6c1.1-1,2-2.3,2.8-3.5c1.2-2,3.2-3,4.9-4.3c0.7-0.5,1.5-1.1,1.8-1.8
	c0.4-1.2,1.3-1.8,2.2-2.4c2.3-1.3,4.1-3.2,5.9-5.1c0.9-0.9,2-1.5,2.9-2.4c4.6-4.1,10-7,15.3-10C279.6,331.5,282.1,329.6,285,327.7z
	 M578.7,307.8c0.4-0.6,0.9-1.1,0.2-2c-0.4,0.3-0.9,0.6-1.5,1C578,307.3,578.4,307.5,578.7,307.8c-0.1,0.6-0.5,1.3,0.4,1.5
	c0.4,0.1,1-0.2,1.4-0.5c0.4-0.3,0.7-0.7,1.2-1.2c0.5,2.2,0.2,3.4-1,5.1c0.2,1.3,0.4,2.5,0.5,3.6c0.1,1.9,0.2,3.8,0.2,5.7
	c0,2.8,1.2,5.2,2.3,7.7c0.9,2.1,2.4,3.9,4.9,4c2,0.1,4,0.1,6-0.1c1.5-0.2,2.6-1.1,3.3-2.7c0.5-1.1,0.5-3,2.6-2.7
	c0.2,0,0.6-0.5,0.8-0.8c0.8-1.2,1.4-2.5,2.4-3.6c1.3-1.5,1.5-3.1,1.4-4.9c-0.1-2.9-0.2-5.7-0.3-8.6c0-0.3-0.1-0.6-0.2-1
	c-0.8-0.1-1.4-0.2-2.1-0.4c-2.2-0.3-4.1-1.2-5.7-2.8c-1.5-1.6-3.3-3-4.6-4.7c-2.1-2.7-3.3-5.8-3.2-9.3c0-1.1,0.6-1.8,1.6-2.1
	c1.3-0.3,2.5-0.4,3.7,0.7c3.8,3.3,7.1,2.9,10.7-0.2c3.4-2.9,5.4-6.6,5.6-11.3c0.2-3.7-1.2-6.7-3.3-9.5c-0.8-1.1-1.9-1.6-3.3-1.5
	c-2.1,0.1-4,0.4-5.9,1.6c-1.9,1.3-3.9,2.5-5.2,4.5c-1,1.5-1.9,2.9-2.8,4.4c-0.4,0.7-0.8,1.4-1.1,2.1c-0.8,1.8-1.5,3.7-2.2,5.6
	c-1.4,3.9-2.9,7.8-4.1,11.7c-0.7,2.3-1.2,4.8-1.7,7.2C580.7,306.9,580,307.7,578.7,307.8z M339.4,394.3c-0.7-4-1.3-8.4-2.1-12.7
	c-0.4-2-0.8-4.1-1.5-6c-0.9-2.5-1.9-4.9-3-7.3c-0.4-1-0.8-1.9-1.4-2.8c-3.3-5-7.4-9.2-12.2-12.8c-4.1-3.1-8.4-6-12.6-9.1
	c-1.7-1.2-1.7-1.3-3.3-0.2c-3.1,2.2-6.1,4.6-9.1,6.9c-2.9,2.3-5.9,4.5-8.7,7.1c-3.5,3.2-6.8,6.6-10.2,10c-3.2,3.2-6.6,6.3-8.7,10.4
	c-0.2,0.3-0.5,0.6-0.7,0.9c-1.1,1.3-2.2,2.5-3.1,3.9c-1,1.4-1.5,3.2-2.6,4.5c-1.7,2.3-3.3,4.5-3.7,7.4c-0.1,0.6-0.5,1.1-0.8,1.6
	c-0.1,0.3-0.4,0.6-0.3,0.8c0.3,2.4-1.1,4.5-1.3,6.8c-0.1,1.9-1.2,3.8-0.7,5.8c0.3,1.3,0.5,2.6,0.9,4c0.5,2.2,0.9,4.5,1.7,6.7
	c1.3,3.2,2.5,6.6,5.5,8.8c1.3,1,2.6,1.8,3.7,3c1.6,1.9,3.6,3.1,5.5,4.5c1.3,1,2.7,1.7,4.3,1.9c2.4,0.4,4.9,0.7,7.3,1.3
	c3.9,1.1,7.9,0.5,11.8,0.3c2.8-0.1,5.6-1.2,8.4-1.8c5.1-1.1,9.5-4,14.3-6c0.9-0.4,1.6-1.3,2.3-1.9c0.6-0.5,1.1-1.1,1.8-1.6
	c1.5-1.1,3.1-2,4.4-3.2c1.3-1.2,2.2-2.8,3.4-4.1c1.8-2,3.2-4.3,4.5-6.7c2.5-4.5,4.6-9.2,5.2-14.4C338.6,398.6,339,396.6,339.4,394.3
	z M425.1,310.9c-1.2-0.4-2.4-0.4-2.9-1c-2-2.4-2.8-5.3-2.3-8.4c0.2-1.3,2.5-2.1,3.2-1.1c1.7,2.4,4.3,1.8,6.3,1.7
	c4.1-0.3,6.1-3.8,8.1-6.9c0.5-0.8,0.8-1.9,1.2-2.8c0.3-0.8,0.6-1.6,0.7-2.5c0.5-2.6-0.7-5-2-7c-1-1.5-2.6-3.2-4.8-2.9
	c-1.6,0.2-3.3,0.4-4.6,1.2c-2.8,1.8-5.5,3.7-7.8,6.1c-3.6,3.6-6.6,7.8-8.8,12.4c-1.9,3.8-3.4,7.8-4.8,11.8c-0.8,2.2-1.9,4.4-2.5,6.7
	c-0.8,3.2-1.2,6.5-1.9,9.8c-0.4,1.9-0.5,3.8-0.2,5.7c0.3,1.9,0.8,3.7,1,5.6c0.5,3.9,2.8,6.3,6.1,8c1.1,0.6,2.5,0.8,3.7,0.6
	c1.9-0.3,3.7-1,5.4-1.7c4.7-2,8.6-5.2,11.8-9.2c1.7-2.1,3-4.7,2.8-7.7c-0.3-3.5,0.4-7,1.7-10.3c0.4-1.1,0.9-2.2,0.5-3.4
	c-2.7,0.1-5.3,0-7.6-1.1C425.6,313.9,424.3,313,425.1,310.9z M482,243.8c0.2,0.9,0.1,2.3,0.7,3.5c2.1,4.3,4.5,8.3,9.1,10.3
	c1.2,0.5,2.4,1.4,3.7,1.6c1.8,0.3,3.6,0.2,5.4,0.3c1.7,0.1,2.3-0.7,2-2.4c-0.1-0.9-0.4-1.9-0.4-2.8c-0.1-3.5-0.4-6.9-1.9-10.2
	c-1.9-4.1-4-7.8-8.3-10c-1.9-1-3.6-1.1-5.4-0.1C483.4,236.1,481.9,239.3,482,243.8z M522.3,297c0.7,0.6,1.4,1.3,2,1.9
	c0.7-1.5,0.6-1.8-0.7-3.1C523.2,296.2,522.8,296.5,522.3,297z M623.6,337.2c0,1.8,1.5,2,2.5,2.7
	C626.5,338.3,626.5,338.3,623.6,337.2z M762.9,300c-1.7-2-1.7-2-2.5-0.7C761.2,299.6,761.9,299.8,762.9,300z M541.6,269.7
	c0.8-1.3,0.8-1.3,0.8-2.7C541.8,267.9,540.7,268.2,541.6,269.7z M287.7,299.4c0.2,0,0.5,0.1,0.7,0.1c0.6-0.7,0.7-1.3-0.5-2.4
	C287.8,298.2,287.7,298.8,287.7,299.4z M489.1,324.3c-0.3,0-0.6,0-0.9,0c0.1,0.5,0.1,1,0.2,1.5c0,0,0.6,0,0.6,0
	C489.1,325.3,489.1,324.8,489.1,324.3z M918.2,264.8c0.6,1.6,0.6,1.6,2.4,1.9C919.7,266,919.2,265.5,918.2,264.8z M265.4,362.4
	c-0.6,0.3-1.3,0.6-2.4,1.2C264.6,363.9,265,363.3,265.4,362.4z M390.6,345.1c-1.3-0.3-1.3-0.3-1.4,0.9
	C389.7,345.7,390.1,345.4,390.6,345.1z M282,274c-0.2,0.1-0.3,0.3-0.5,0.4c0.4,0.5,0.8,0.9,1.2,1.4c0.1-0.1,0.2-0.2,0.4-0.3
	C282.7,275,282.4,274.5,282,274z M338.4,262.5c-0.2,0-0.4-0.1-0.6-0.1c-0.1,0.6-0.2,1.2-0.4,1.8c0.2,0,0.4,0.1,0.6,0.1
	C338.1,263.7,338.2,263.1,338.4,262.5z M799.7,317c-0.2-0.2-0.4-0.5-0.6-0.4c-0.2,0-0.4,0.3-0.4,0.4c0,0.2,0.3,0.4,0.4,0.4
	C799.2,317.4,799.4,317.2,799.7,317z M668,306.1c-0.1,0.2-0.2,0.3-0.3,0.5c0.3,0.2,0.5,0.3,0.8,0.5c0,0,0.2-0.3,0.2-0.3
	C668.5,306.5,668.3,306.3,668,306.1z M277,289.3c-0.4-0.2-0.6-0.4-0.7-0.4c-0.2,0-0.4,0.3-0.4,0.5c0,0.1,0.3,0.5,0.3,0.4
	C276.5,289.7,276.7,289.5,277,289.3z M509.1,255.7c0,0.2-0.1,0.4-0.1,0.6c0,0.1,0.2,0.1,0.4,0.2c0.1-0.2,0.1-0.4,0.2-0.6
	C509.6,255.8,509.4,255.7,509.1,255.7z M835.8,303.1c-0.2,0-0.3,0.1-0.5,0.1c0.1,0.2,0.2,0.4,0.3,0.5c0.1,0.1,0.3-0.1,0.4-0.1
	C836,303.4,835.9,303.3,835.8,303.1z M295.7,316.7c0.1-0.1,0.3-0.2,0.4-0.3c-0.2-0.3-0.4-0.6-0.6-0.9c0,0-0.2,0.1-0.4,0.2
	C295.3,316.1,295.5,316.4,295.7,316.7z M241.4,410.5c-0.2,0.2-0.4,0.4-0.6,0.5c0.2,0.1,0.3,0.4,0.5,0.4c0.2,0,0.4-0.2,0.5-0.4
	C241.8,410.9,241.5,410.7,241.4,410.5z"/>
<path fill="#FFFFFF" d="M717,496.1c-1,1.3-1.9,2.3-2.7,3.4c-2.5,3.3-5.9,5.3-9.7,6.6c-1.4,0.5-2.9,0.9-4.2,1.5
	c-1.7,0.8-3.3,0.9-5.1,0.3c-3.4-1.2-6.9-2-10-3.8c-2.4-1.4-3.5-3.6-4.8-5.8c-0.3-0.5-0.1-1.4,0.2-2c0.6-1.2,1.4-2.3,2.1-3.6
	c-2.2,0.4-2.2,2.7-3.4,4c-1-1-1.6-2-1.9-3.3c-1.2-4.7-1.7-9.5-1.5-14.4c0.3-8.1,1.2-16,2.3-24c0.5-3.8,1.3-7.7,2-11.9
	c-2.6,1.7-4.9,3-7.1,4.5c-1.7,1.1-3.7,2-4.8,3.5c-1,1.4-1.1,3.6-1.6,5.5c-0.3,1-0.4,2-0.7,3c-0.4,1.6-0.9,3.2-1.4,4.8
	c-0.5,1.7-1.1,3.3-1.7,5c-0.5,1.3-1,2.5-1.5,3.7c-1.4,3.4-2.8,6.7-4.3,10.1c-0.5,1.1-1.1,2.1-1.8,3c-3.8,5.1-7.7,10.2-11.5,15.2
	c-0.5,0.6-1.1,1.2-1.7,1.6c-0.4,0.3-1.1,0.2-1.5,0.3c0.3-3.2,0.4-6,0.8-8.9c0.3-1.9,0.9-3.8,1-5.9c-0.2,0.3-0.7,0.6-0.7,0.9
	c-0.1,2.4-1.4,4.5-1.9,6.8c-0.5,2.4-1.2,4.8-1.5,7.2c-0.1,0.9-0.4,1.5-1.1,1.9c-1.8,1-3.6,2.1-5.4,3c-1.8,1-3.7,0.9-5.6,0.9
	c-5.3,0-10.2-1.1-14.7-4c-2.8-1.8-5.3-3.8-7.5-6.3c-0.7-0.8-1.1-1.8-1.6-2.6c-0.2-0.4-0.6-0.7-1.1-1.4c-0.5,0.9-0.9,1.5-1.2,2.2
	c-1.9,5.2-4,10.2-6.7,15c-0.8,1.4-2,2.7-3.3,3.7c-2.2,1.6-4.6,2.9-7.2,3.7c-2.2,0.7-4.4,1.5-6.8,1.2c-1.9-0.3-3.7-0.7-5.6-0.9
	c-2.6-0.3-4.9-1.3-7.1-2.5c-2.3-1.3-3.7-3.5-4.7-5.8c-0.9-2-1.3-4.2-1.8-6.4c-0.4-1.4-0.6-2.8-1-4.2c-0.2-0.7-0.5-1.4-0.5-2.1
	c0-1.5,0.2-3,0.2-4.4c0-1.4,0-2.8,0-4.2c0.1-1.9,0.1-3.8,0.4-5.7c1.2-7.5,2.8-14.9,5.1-22.1c2-6.4,3.9-12.8,5.1-19.4
	c0.2-1.3,0.8-2.6,1.1-3.9c0.3-1.9,0.6-3.8,0.6-5.7c0-2-1-2.5-3-2.3c-2.6,0.3-4.6,1.9-6.7,3.1c-2.4,1.4-4.7,3.1-6.7,4.9
	c-2.9,2.6-5.7,5.4-8.3,8.2c-0.8,0.8-1.2,2.1-1.5,3.2c-0.8,3-1.4,6.1-2,9.1c-0.7,2.9-1.3,5.9-2.1,8.8c-0.1,0.6-0.8,1-1,1.6
	c-0.2,1.1-1,0.2-1.6,0.7c1.7,0.8,1.5,2.3,1.1,3.7c-0.7,3.1-1.6,6.2-2.1,9.3c-0.6,3.6-0.8,7.2-1.2,10.8c-0.1,0.9-0.3,1.9-0.4,2.8
	c-0.6,5.9-1.3,11.7-1.9,17.6c-0.2,1.7-0.1,3.4-0.1,5c0.1,1.9-1,3.3-2.5,4.1c-1.4,0.7-3,0.8-4.6,1.1c-0.4,0.1-1-0.3-1.2-0.7
	c-0.6-1-1.5-1.4-2.5-1.7c-2-0.6-3.5-2.2-5.7-2.3c-1.5-1.8-3.7-3-4-5.7c-0.1-1.2-0.6-2.4-0.9-3.7c-0.1-0.4-0.4-0.9-0.3-1.3
	c0.1-3.1,0.3-6.3,0.5-9.4c0.1-1.8,0.1-3.5,0.2-5.3c0.1-1.1,0.4-2.2,0.6-3.3c0.1-0.5,0.4-0.9,0.4-1.4c0.3-4.5,0.5-9.1,0.8-13.6
	c0.1-1.9,0.5-3.8,0.6-5.7c0.1-1.3-0.1-2.7,0-4c0-1,0.1-2,0.4-3c0.9-3.8,1.8-7.6,2.8-11.4c0.2-0.8,0.7-1.4,1.2-2.4
	c-1-1.1,0.1-2.4,0.7-3.5c0.5-1,0.9-2.1,0.6-2.8c-0.5-1.6,0.1-2.9,0.5-4.1c1.1-3.2,2.2-6.3,3.6-9.3c1.1-2.4,3.4-3.8,5.7-4.8
	c1.4-0.6,2.5-1.2,3.5-2.3c0.8-0.9,1.9-1.4,2.9-2.1c0.6-0.4,1.2-0.8,1.8-1.2c0.3-0.2,0.5-0.6,0.7-0.6c4.2-0.3,7.4-3.4,11.5-4.3
	c1.8-0.4,2.9,0,3,1.9c0.1,2,0.6,4-0.3,5.9c-0.2,0.3-0.1,0.7-0.1,1.6c1-0.7,1.6-1,2.2-1.5c3.4-2.7,6.7-5.6,10.3-8.1
	c2.7-1.9,5.8-3.2,8.7-4.8c2.5-1.3,5.1-2.1,8-2.3c2.7-0.1,5.2-0.2,6.9,2.5c0.3,0.5,0.8,0.8,1.2,1.1c2.3,1.4,3.1,3.7,3.5,6.2
	c0.5,3,0.1,6,0.2,9c0.2,4.3-0.9,8.3-1.9,12.4c-0.5,2.3-0.7,4.7-1.2,7.1c-1,4.6-2.1,9.1-3.2,13.7c-0.1,0.4-0.3,0.8-0.3,1.2
	c-0.4,5.2-2,10.2-3.3,15.2c-0.7,2.5-1.5,4.9-2.1,7.3c-1.7,7.2-2.1,14.6-2.6,21.9c0,0.8,0.1,1.6,0.2,2.3c0.6-0.1,1.2-0.2,1.8-0.3
	c4.2-0.5,7.5-2.4,9.8-5.9c2.3-3.6,4.6-7.3,6.7-11c0.9-1.6,1.7-3.4,2.2-5.3c0.3-1.1,0-2.5-0.3-3.7c-0.8-3.9-0.8-7.8-0.5-11.7
	c0.3-3.5,0.4-7,1-10.4c0.9-5.1,2-10.2,3.8-15c0.7-1.8,1.1-3.7,1.6-5.5c0.8-3,2.4-5.5,3.9-8.1c4.2-7.2,9.6-13.3,15.8-18.7
	c2.6-2.3,6-3.6,9.4-4.6c1.4-0.4,2.8-0.8,4-1.4c1.7-0.8,3.4-0.9,5.1-0.6c2,0.4,4,1,6,1.5c1.7,0.4,3.3,1.2,4.9,1.9
	c2.4,1.1,4.3,2.7,6.2,4.4c2.3,2.1,4,4.5,5.1,7.4c0.6,1.6,1.6,3.1,2.4,4.7c1.7,3.4,2.1,7.2,2.4,10.9c0,0.4,0,0.8,0.1,1.2
	c0,0.1,0.2,0.3,0.4,0.5c0.4-0.1,1-0.2,1.4-0.4c2.8-1.3,5.2-3.1,7.4-5.2c1.6-1.5,3.4-2.8,4.5-4.8c0.9-1.6,1.5-3.1,1-4.9
	c-0.1-0.4-0.2-0.8-0.1-1.2c1.9-4.6,3-9.5,6.3-13.3c0.6-0.7,1.3-1.4,2.1-1.9c2.9-1.8,5.7-3.8,9-4.6c0.4-0.1,0.7-0.3,1.1-0.4
	c3.4-0.6,6.8-1.1,10.1-1.7c2.8-0.5,5.4,1.2,4.3,4.9c-1,3.3-2.1,6.6-3.6,9.6c-1.7,3.5-2.8,7.1-3.9,10.8c-1.6,5.1-3.2,10.2-4.7,15.3
	c-0.6,2.1-0.9,4.2-1.4,6.3c-1.3,6.1-2.3,12.2-3.1,18.4c-0.4,2.9-0.4,5.8-1.1,8.7c-0.3,1.6-0.2,3.5,0.2,5.2c0.6,2.7,0.7,5.5,2.1,8
	c0.8,1.5,2,2.5,3.5,3.1c0.5,0.2,1.3-0.2,2-0.4c1-0.3,1.9-0.6,3.3-1c0-0.1,0.3-0.6,0.6-1.2c0.5,0.1,1,0.2,1.7,0.3
	c0.2-1.2,0.8-2.4,0.5-3.4c-0.7-2.4-0.6-4.7-0.4-7.1c0.3-3.9,0.1-7.8,0.3-11.7c0.1-2.4,0.4-4.8,1-7.1c0.8-3.5,2-6.9,2.9-10.3
	c0.5-1.8,0.8-3.6,1.3-5.3c1-3.2,2.3-6.3,3.4-9.4c0.9-2.6,2.7-4.5,4.6-6.3c0.4-0.4,1-0.5,1.5-0.7c3.9-1.3,7.9-2.5,11.8-3.9
	c2.6-1,5.2-0.6,7.8,0c2,0.5,2,1.3,2.1,3.4c0.1,4.1-2.2,7.2-4.2,10.4c-1.9,3-2.7,6.4-3.6,9.8c-0.4,1.8-0.9,3.5-2,5
	c-0.3,0.4-0.4,1.2-0.2,1.7c0.7,1.9,0.8,3.4-1.1,4.8c-0.7,0.5-0.5,2.1-1,3.1c-0.5,1.1-0.3,2,0.9,2.8c-2.5,0.8-2,2.9-2.1,4.5
	c-0.3,4.1-0.3,8.2-0.4,12.4c2.2,0.5,2.3,2.4,3,3.8c0.1,0.2,0.1,0.8-0.1,0.9c-0.5,0.4-0.9,0.7-0.5,1.3c0.5,0.7,1,1.5,1.6,2
	c0.2,0.2,0.9,0.1,1.3-0.1c4.4-2.5,7-6.4,8.7-11c0.1-0.2,0-0.5,0-0.8c-0.6-0.5-1.8,1.5-2-0.6c1.7-0.4,2.2-1.5,1.9-3.1
	c-0.2-1.1,0.1-1.8,1.3-2.1c0.8-0.2,1.4-1.1,0.7-1.6c-1.8-1.7-0.2-3,0.5-4.2c0.4-0.7,1.1-1,0.5-2c-0.2-0.3,0.3-1.1,0.5-1.6
	c0.3-0.5,0.9-0.8,1-1.3c0.5-2.4,0.9-4.8,1.3-7.1c0.1-0.5,0.2-0.9,0.2-1.4c0.4-2.3,1.1-4.6,1.3-7c0.2-2.2,0.6-4.2,1.3-6.3
	c0.8-2.6,1.2-5.4,1.9-8.1c0.9-3.5,1.9-6.9,2.7-10.4c0.8-3.6,1.7-7.1,2.2-10.8c0.4-3,2.3-5,4.5-6.5c2.4-1.6,4.8-3.3,7.8-4
	c2.7-0.6,5.3-0.8,7.9,0.6c0.3,0.2,0.8,0.3,1,0.6c0.7,1.1,1.7,1.7,2.9,2.2c1.3,0.5,1.5,1.9,1.4,3.1c-0.1,1.4,0.5,2.1,1.7,2.8
	c2.5,1.6,5.3,2.2,8.1,2.7c1.3,0.2,2.6,0.4,4.1,0.6c0.3-0.9,0.5-1.5,0.7-2.2c1.2-4,2.3-8,3.2-12c0.8-3.2,2.2-6.3,3.3-9.5
	c0.5-1.4,0.8-2.8,1.3-4.1c0.8-2.1,1.7-4.1,2.6-6.1c0.3-0.6,0.7-1.1,0.8-1.7c1.2-4.9,3.8-9.2,5.7-13.9c1.3-3.2,2.8-6.4,4.3-9.6
	c0.5-1.1,1.1-2.1,1.6-3.2c1.6-3,3.3-6,4.9-9c0.8-1.4,1.5-2.8,2.4-4.1c1.5-2.2,2.5-4.8,4.4-6.7c2.3-2.3,4.5-4.9,6.6-7.4
	c0.6-0.7,1.2-1.5,1.7-2.3c1.2-2.3,3.4-3.6,5.2-5.2c0.4-0.3,1-0.6,1.5-0.6c1.4-0.1,2.9,0,4.3,0.1c0.3,0,0.7,0.1,0.9,0.3
	c1.2,1.3,2.8,1.3,4.4,1.6c0.7,0.1,1.4,0.4,1.9,0.8c2,1.6,3.7,3.5,3.7,6.3c0,0.1,0,0.2,0,0.2c1.4,3.8,0.7,7.9,1.4,11.8
	c0.5,2.8,0,5.5,0,8.3c0,6.2-2.1,11.9-3.8,17.7c-1.1,4-2.4,8.1-4.1,11.9c-1.6,3.7-3.2,7.5-5.9,10.6c-1.8,2.1-3.1,4.6-4.7,6.9
	c-2.5,3.8-5.7,7.1-9,10.2c-3.5,3.3-7.1,6.7-10.7,10c-1.1,1-2.4,1.9-3.7,2.7c-1,0.6-1.7,1.5-1.8,2.7c-0.2,1.5-0.4,3-0.6,4.5
	c0,0.4,0,0.8-0.2,1.1c-0.6,1.1-1.3,2.2-0.4,3.5c-1.2,1.4-0.6,3.2-1.1,4.8c-0.4,1.1-0.6,2.3-0.6,3.5c0,3.7-0.3,7.3-1,10.9
	c-0.5,2.6-0.8,5.2-1,7.8c-0.3,3.9-0.6,7.8-0.7,11.7c-0.1,3.1-0.3,6.1,0.2,9.3c0.5,3.1,0.3,6.3,0.4,9.5c0.1,3.2,2.4,5,4.4,6.8
	c0.5,0.5,1.8,0.4,2.7,0.2c1.7-0.3,3.1-0.2,4.4,1.2c0.2,0.3,1.2,0.2,1.6-0.1c1.7-1,2.7-2.6,3.7-4.2c1.4-2,2.5-4.2,3.7-6.4
	c0.4-0.8,1.4-1.4,0.7-2.6c-0.1-0.1,0.1-0.5,0.2-0.6c1.9-2.2,0.9-4.5,0.2-6.7c-0.8-2.3-1.7-4.6-2.5-6.9c-0.1-0.1-0.1-0.3-0.1-0.5
	c-0.1-4-1.4-7.8-1.1-11.8c0.3-2.9-0.2-5.9-0.2-8.8c0-0.9,0-1.8,0.2-2.6c1-4.5,1.9-9,3.2-13.4c0.9-3,2.4-5.7,3.7-8.6
	c1.6-3.6,3.4-7,6.2-9.9c0.1-0.1,0.2-0.2,0.3-0.4c2.8-5.2,7.3-8.9,11.6-12.8c0.8-0.7,1.8-1.3,2.8-1.8c3.4-2,6.4-4.8,10.2-6
	c2.8-0.9,5.6-1.8,8.5-2.5c0.7-0.2,1.6-0.2,2.4,0c1.5,0.3,3,0.2,4.5,0.1c2.9-0.2,5.8,0.1,8.3,2.1c2,1.6,4.2,2.9,5.6,5.1
	c0.8,1.3,1.6,2.7,2.3,4.1c0.3,0.6,0.4,1.3,0.8,1.7c1.5,1.4,1.6,3.2,1.9,5c0.7,5.8,0.4,11.6-1,17.3c-0.3,1.1-1,2.2-1.4,3.3
	c-2,5-4.9,9.5-8.1,13.8c-3.8,5.1-8.5,9.3-14.3,12.2c-3.6,1.8-7.2,3.8-10.9,5.5c-3.2,1.5-6.6,2.7-10.2,4.1c0.3,1.6,0.3,3.3,0.8,4.8
	c1,3,2.3,6,3.2,9c1.1,3.4,3.1,6.2,5.8,8.3c3,2.3,6.6,3.5,10.5,1.9c0.2-0.1,0.4-0.2,0.7-0.3c0.2-0.1,0.5-0.1,0.8-0.2
	c0.5,0.8,1,1.6,1.5,2.4c0.1,0,0.2-0.1,0.3-0.1c0-0.3,0-0.6-0.1-0.9c-1.4-2.2-0.6-2.8,1.1-4.2c3.9-3.2,7.4-6.9,10.8-10.7
	c1.1-1.2,2.5-2.2,2.8-4c3.8-3.6,5.6-8.6,8.7-12.7c2.1-2.7,4.1-5.4,6.1-8.2c3.6-5.1,6.9-10.3,9.7-15.9c1.6-3.3,3.7-6.3,5.5-9.5
	c1-1.9,1.9-3.8,2.8-5.8c0.1-0.3,0.1-0.8,0-1.1c-0.2-0.6-0.5-1.2-1-1.6c-3.2-2.4-4.7-5.8-6-9.3c-0.6-1.4-0.6-3.1-0.8-4.6
	c-0.2-1.5-0.2-3-0.3-4.5c-0.1-2.3,0.3-4.4,1.3-6.5c2.2-4.4,5.7-7.7,9.7-10.3c1.5-1,3.1-1.7,4.9-1.5c0.7,0.1,1.4-0.1,2.1-0.3
	c5.2-0.9,9.2,1.1,12.5,5c2,2.3,3.6,4.9,4.3,7.9c0.4,1.8,0.6,3.7,0.8,5.5c0.1,1.3,0.2,2.7,0.3,4c0.2,5.4-0.6,10.6-1.6,15.9
	c-0.6,3.1-0.4,3.2,2,4.9c1.1,0.8,2,2,2.8,3.2c1.2,1.5,2.3,3.1,3.4,4.6c1,1.4,1.9,2.8,2.8,4.1c1.2,1.8,2.5,3.5,3.7,5.3
	c0.9,1.4,1.7,2.9,2.5,4.3c0.5,0.9,1.1,1.7,1.6,2.6c1.7,3,3.5,5.9,4.9,9c1,2.4,1.5,5,1.9,7.6c0.5,3.6,0.9,7.2,0.8,10.9
	c-0.1,1.8-0.2,3.5-0.9,5.1c-0.4,0.8-0.4,1.7-0.7,2.5c-0.2,0.8-0.4,1.6-0.8,2.2c-1.9,3.2-3.9,6.2-6.6,8.8c-0.7,0.7-1.6,1.3-2.4,1.9
	c-1.1,0.8-2.3,1.5-3.4,2.3c-2.6,1.9-5.7,3.3-8.7,3.6c-5.2,0.5-10.4,0.7-15.5-1.2c-2-0.7-4.1-1.1-6.1-1.8c-1.7-0.6-3.2-1.4-5-2.2
	c1.2-1,1.6,0.2,2.3,0.3c1,0.1,1.9,1.5,2.8,0.4c0.8-1-0.2-2.1-0.4-3.1c-0.1-0.4-0.5-0.9-0.9-1.1c-1.3-0.6-2.6-1.2-4-1.6
	c-0.5-0.1-1.2,0.2-1.7,0.5c-0.5,0.3-0.9,0.9-1.4,1.4c-3.2-3.1-5.5-6.5-6.4-10.8c-0.1-0.5,0-1.1,0-1.7c0.3-2.6,1.4-3,3.7-1.9
	c2.2,1,4.7,1.5,6.8,2.6c4.2,2.2,8.6,1.8,13.1,1.7c1.9,0,3.5-0.8,4.9-2.2c1.9-2,3.8-4,4.6-6.8c0.7-2.5,2.3-4.7,2.9-7.3
	c0.8-3.7,1.3-7.6,0.4-11.2c-1.1-4.3-1.9-8.9-4.3-12.9c-0.2-0.4-0.4-0.9-0.5-1.3c-0.9-3.1-3-5.4-4.4-8.3c-0.4,0.2-0.7,0.2-0.8,0.4
	c-2.4,3.8-4.8,7.7-7.2,11.5c-3.3,5.4-6.9,10.5-10.9,15.4c-2.5,3-5.4,5.7-7.7,8.8c-3.3,4.4-7.6,7.8-11.5,11.4
	c-3.1,2.9-6.5,5.6-9.7,8.4c-1.4,1.3-2.7,2.7-4.1,4c-1.7,1.6-3.4,3.1-5.9,3.4c-0.9,0.1-1.7,1-2.6,1.2c-5.1,1.7-10.1,3.4-15.4,4.4
	c-3.8,0.7-7.4,0-11-0.9c-1.3-0.3-2.7-0.4-4-0.8c-2-0.6-4-1.2-5.8-2.1c-2.3-1.2-4.5-2.6-6.8-4c-0.4-0.2-0.8-0.5-1.3-0.7
	c-1.8-0.7-2.3-0.5-3.2,1.3c-0.9,1.8-1.7,3.6-2.7,5.3c-0.7,1.1-1.7,2-2.8,2.8c-3.2,2.6-6.7,4.5-11,4.6c-1.8,0-3.5,0.3-5.3,0.4
	c-1.1,0-2.3,0.2-3.3-0.1c-1.5-0.4-2.8-1.5-4.3-1.8c-1.6-0.3-3-0.8-4.2-1.9c-0.8-0.7-2.1-0.8-2.9-1.5c-3.1-2.7-6-5.4-7.1-9.7
	c-0.3-1.3-1.3-2.4-1.8-3.6c-1.2-3.3-2.4-6.5-3.5-9.8c-0.5-1.4-0.8-2.8-1.2-4.1c-0.9-3-0.6-6.2-0.5-9.3c0.2-6.6,0.1-13.2,0.6-19.8
	c0.4-5.9,1.4-11.9,2.3-17.8c0.2-1.3-0.2-1.8-1.2-2.2c-0.6-0.2-1.2-0.3-1.9-0.5c-1.4-0.4-2.7-0.8-4-1.3c-1.7-0.7-3.4-1.5-5.3-2.3
	c-0.1,0.4-0.2,0.8-0.1,1c0.9,2.8,0.1,5.5-0.2,8.2c0,0.2-0.1,0.5-0.1,0.7c-0.5,2.1-1.1,4.1-1.6,6.2c-0.4,1.6-0.8,3.2-1.1,4.9
	c-1,5.5-2.4,10.9-4.4,16.1c-1.1,2.9-2,5.9-3.1,8.8c-0.5,1.4-1.3,2.7-1.9,4.1c-0.7,1.7-1.4,3.4-2,5.1c-0.5,1.5-1.3,2.6-3.2,2.4
	c0.2,0.1,0.4,0.2,0.6,0.3c0.3,0.1,0.6,0.2,1.1,0.3c-2.2,4.2-4.3,8.3-6.4,12.3c-0.6,1.1-1.3,2-1.8,3.1c-1.5,3.1-3.9,5.4-6.2,7.8
	c-1.2,1.2-2.5,2.2-3.7,3.4c-3.3,3.3-7.3,5.3-11.8,6.5c-0.5,0.1-1,0.1-1.4,0.3c-3.5,1.7-7,0.8-10.6,0.1c-1.4-0.3-2.8-0.6-4.2-0.8
	c-1.5-0.2-2.5-0.9-3-2.3c-0.2-0.6-0.7-1.3-1.3-1.6C720.6,500,718.8,498.5,717,496.1z M519.8,483c-0.2-1-0.4-2.1-0.6-3.1
	c1.9-0.5,1.6-2.6,2.8-3.6c-1.4,0.8-2.5,1.9-2.7,3.6C518.3,481.1,518.9,482.1,519.8,483c-0.4,1.1,0.5,1.3,1.3,2.1
	C521,483.8,520.5,483.4,519.8,483z M650.8,456.8c-1.3-0.5-2.6,0-3.8,0c-2.5,0-5.1,0.3-7.3-0.6c-3.7-1.4-7.7-2.2-11-4.6
	c-1.4-1-2.9-2-3.9-3.4c-0.5-0.7-1-1.4-1.6-2.3c-2.1,5.1-3.2,10.3-4.1,15.5c-0.8,4.9-1.1,9.8-1.5,14.8c-0.4,6-1,11.9,0.7,17.8
	c0.6,2.2,1.9,3.9,3.7,5.1c0.6,0.4,1.7,0.6,2.5,0.4c1.7-0.5,3.4-1,4.9-1.9c3.4-2,6.3-4.7,8.4-8.1c3.2-5.2,6.3-10.5,8.4-16.3
	c1.1-2.8,2-5.7,3.1-8.5C650.3,462.1,650.8,459.6,650.8,456.8z M893,425.9c1.3,0.7,1.8-0.5,2-1.1c1.1-3.3,3.2-6.2,4-9.6
	c0.9-4,1.6-9.3,0.5-15c-0.5-2.4-2.4-3.9-4.8-4.1c-4.8-0.4-7.4,2.9-10,5.9c-1.5,1.7-2.6,3.8-3.8,5.8c-2.2,3.7-4.5,7.3-6.3,11.2
	c-1.4,3.1-2.2,6.5-3.3,9.7c-0.5,1.5-1.1,3-1.5,4.5c-0.7,2.9-1,5.8-1.8,8.6c-0.4,1.3-0.4,2.4,0.2,3.6c1.5,0.1,2.8-0.4,3.9-1.3
	c0.4-0.3,0.8-0.6,1.2-0.7c2.2-0.8,4.5-1.3,6.4-2.9c1.5-1.2,3.7-1.9,4.5-3.4c1-1.9,3.5-2.3,4-4.4C890.7,431.3,892,428.9,893,425.9z
	 M859.7,327.5c-0.5,0.5-0.9,0.7-1.1,1c-2.3,4.3-5.2,8.3-7,13c-1.2,3.2-2.9,6.2-4.3,9.2c-0.2,0.4-0.3,0.9-0.5,1.4
	c-0.5,1.6-1,3.2-1.5,4.7c-0.6,1.9-1.2,3.8-1.8,5.7c-0.5,1.4-0.8,2.9-1.4,4.3c-1.4,3.4-2.8,6.7-4.2,10.1c-0.3,0.8-0.4,1.7-0.7,2.5
	c-0.6,2.1-1,4.4-2,6.4c-1.3,2.5-1.6,4.9-0.7,7.5c0.4,1,0.8,1.3,1.7,0.7c0.5-0.3,0.8-0.7,1.2-1.2c2.4-3.1,4.2-6.7,6.6-9.9
	c2.5-3.4,4.1-7.3,6.1-11.1c3-5.9,5.3-12.1,7-18.5c0.9-3.4,1.3-6.9,1.7-10.4c0.4-3.5,1-7,1.1-10.5
	C859.9,330.9,859.8,329.4,859.7,327.5z M648.8,443.4c1.1,0,2.1,0.1,3.1,0c1.1-0.1,1.7-0.7,1.6-1.9c-0.1-0.9-0.2-1.9,0.2-2.5
	c0.6-1-0.4-1.4-0.5-2.2c-0.3-3.5-0.8-7-1.5-10.4c-0.7-3.1-2-6-4.3-8.4c-0.9-0.9-1.7-1.2-3-1c-1.4,0.3-2.5,1.1-3.8,1.7
	c-3.6,1.9-4.4,5-4.6,8.5c-0.1,4.1,1.3,7.9,3.6,11.2c1.4,2,3,4,5.5,4.6C646.4,443.3,647.7,443.3,648.8,443.4z M940.2,404.5
	c0.8-1.4,1.5-2.3,2-3.3c2.7-5.4,3.8-11.1,3.6-17c0-1-0.2-2.1-0.6-3c-0.7-2.1-1.4-2.3-3.1-1.1c-1.5,1.1-3.1,2.3-4.4,3.6
	c-0.7,0.7-1.3,1.9-1.4,2.9c-0.3,2.6-0.2,5.2-0.3,7.8c-0.1,3,0.9,5.6,2.4,8.1C938.9,403.2,939.5,403.7,940.2,404.5z M739.7,445.3
	c0.3-1.1-0.7-1.4-1.6-1.7c-1-0.3-1.7,0-2.2,0.9c-0.2,0.4-0.2,0.8-0.3,1.3c0.4,0.1,0.9,0.3,1.3,0.3
	C737.7,445.9,738.6,445.6,739.7,445.3z M971.2,483.3c0,1.1-0.6,2.1,0.9,2.5c0.8,0.2,1.9-0.8,1.7-1.6
	C973.5,483,972.5,483.2,971.2,483.3z M770.4,415c-1.2-0.5-2.1-0.9-3-1.3c-0.4,0.7-0.8,1.2-1.1,1.8
	C767.5,414.9,768.9,415.9,770.4,415z M610.4,488.3c0.8,1.1,1.6,1.7,2.8,1.4C612.8,487.5,612.4,487.3,610.4,488.3z M851,379.4
	c0.5,1.2,0.4,2.7,1.7,3.4C852.4,381.6,852.4,380.2,851,379.4z M720.5,496.6c1.3,1.2,1.3,1.2,2.6,0.5
	C722.1,496.9,721.3,496.8,720.5,496.6z M532.6,434.9c-0.6,0.1-1,0.1-1.4,0.2c0.1,0.5,0.3,1,0.4,1.5c0.2,0,0.3,0,0.5,0
	C532.2,436.1,532.3,435.6,532.6,434.9z M965.3,482.6c0.2-0.1,0.4-0.2,0.6-0.3c0.2-0.8,0-1.4-1.5-1.6
	C964.8,481.5,965.1,482.1,965.3,482.6z M695.7,487.1c0,0.2-0.1,0.3-0.1,0.5c0.6,0.2,1.2,0.3,1.8,0.5c0-0.2,0.1-0.4,0.1-0.5
	C696.9,487.4,696.3,487.2,695.7,487.1z M784.6,410.2c0.5,0,1.1,0.1,1.7,0.1C785.8,409.1,785.8,409.1,784.6,410.2z M841,350
	c-0.4,0.7-0.5,1.2,0.4,1.2c0.3,0,0.6-0.3,1.1-0.6C841.8,350.4,841.4,350.2,841,350z M520.7,467.4c-0.1-0.2-0.1-0.4-0.2-0.6
	c-0.4,0.1-0.8,0.2-1.1,0.4c0,0,0.1,0.4,0.2,0.6C519.9,467.7,520.3,467.5,520.7,467.4z M755.8,468.2c-1.1,1-1.1,1-0.6,2.4
	C755.3,469.7,755.5,469.1,755.8,468.2z M693.3,451.7c-0.4-0.2-0.7-0.4-0.9-0.4c-0.2,0-0.4,0.4-0.6,0.6c0.3,0.2,0.5,0.5,0.8,0.6
	C692.8,452.4,693,452,693.3,451.7z M645.5,482.3c-0.2,0-0.4-0.1-0.6-0.1c-0.1,0.6-0.2,1.3-0.3,1.9c0.1,0,0.2,0,0.3,0.1
	C645.1,483.5,645.3,482.9,645.5,482.3z M571.7,488c-0.2-0.1-0.3-0.2-0.5-0.3c-0.2,0.4-0.5,0.8-0.7,1.2c0.2,0.1,0.3,0.2,0.5,0.3
	C571.2,488.8,571.5,488.4,571.7,488z M911.5,461.6c-0.1,0.1-0.1,0.2-0.2,0.4c0.3,0.2,0.7,0.4,1,0.6c0.1-0.1,0.1-0.2,0.2-0.4
	C912.1,462,911.8,461.8,911.5,461.6z M849.6,438.9c0.1-0.1,0.1-0.3,0.2-0.4c-0.3-0.2-0.6-0.3-0.9-0.5c-0.1,0.1-0.1,0.2-0.2,0.4
	C849,438.6,849.3,438.7,849.6,438.9z M815.8,409.4c0.5-0.2,0.9-0.3,1.4-0.5C816.5,408.1,815.9,407.9,815.8,409.4z M649.8,476.3
	c0,0.2,0,0.4,0,0.6c0.3,0,0.6,0.1,1,0.1c0-0.2,0-0.4,0-0.7C650.4,476.3,650.1,476.3,649.8,476.3z M871.2,413.8
	c0.1-0.1,0.2-0.2,0.3-0.3c-0.3-0.3-0.6-0.7-0.9-1c-0.1,0.1-0.2,0.2-0.3,0.2C870.6,413.1,870.9,413.5,871.2,413.8z M694.1,495.4
	c-0.2-0.2-0.4-0.4-0.6-0.4c-0.2,0-0.4,0.3-0.4,0.4c0,0.1,0.3,0.4,0.4,0.4C693.7,495.9,693.9,495.6,694.1,495.4z M692.8,498.1
	c0.5-0.2,0.7-0.2,0.8-0.3c0.1-0.2,0-0.5,0-0.7C693.4,497.4,693.2,497.6,692.8,498.1z M573.3,514.1c-0.1,0.1-0.2,0.1-0.3,0.2
	c0.1,0.3,0.3,0.6,0.4,0.9c0.2-0.1,0.4-0.2,0.5-0.3C573.8,514.6,573.6,514.3,573.3,514.1z M565.9,460.9c-0.1-0.1-0.2-0.2-0.3-0.3
	c0,0-0.1,0-0.2,0c0.1,0.1,0.2,0.2,0.3,0.3C565.7,461,565.8,460.9,565.9,460.9z M523.3,457.8c0,0.1,0,0.3,0,0.4c0.3,0,0.7,0,1-0.1
	c0-0.1,0-0.2,0-0.3C524,457.8,523.7,457.8,523.3,457.8z M853.2,455c-0.1-0.1-0.2-0.2-0.2-0.3c-0.4,0.2-0.7,0.4-1.1,0.6
	c0.1,0.1,0.1,0.2,0.2,0.3C852.4,455.4,852.8,455.2,853.2,455z M682.6,430c-0.2,0.5-0.3,0.7-0.3,0.9c0,0.1,0.1,0.4,0.2,0.4
	c0.2,0,0.4-0.1,0.5-0.2C683.1,431,682.9,430.8,682.6,430z M840.6,352.8c0,0.2,0.1,0.3,0.1,0.5c0.3-0.1,0.7-0.2,1-0.2
	c0-0.1-0.1-0.4-0.1-0.4C841.3,352.7,841,352.7,840.6,352.8z M697.4,416c0,0,0-0.1,0-0.1c-0.3,0-0.6,0-0.9,0c0,0,0,0.1,0,0.1
	C696.7,416,697,416,697.4,416z M825.9,356.3c-0.2,0.2-0.5,0.3-0.5,0.4c0,0.1,0.2,0.4,0.3,0.4c0.2,0,0.4-0.1,0.5-0.3
	C826.2,356.7,826,356.5,825.9,356.3z M884.2,390.7c0-0.2,0-0.4-0.1-0.6c-0.3,0.1-0.7,0.1-1,0.2c0,0.1,0,0.2,0,0.3
	C883.5,390.7,883.9,390.7,884.2,390.7z"/>
<path fill="#FFFFFF" d="M321.5,506.4c-0.7-1.6,0.5-2.3,1.1-3.4c-0.5-0.9-1-1.9-1.4-2.6c0.5-3.3,1-6.4,1.5-9.4
	c0.8-3.9,2-7.5,4.9-10.4c3.6-3.6,7.2-7.2,11.5-10c4.4-2.9,9-5.4,13.7-7.7c5.5-2.7,11.5-3.7,17.5-4.8c5.2-0.9,10.4-1.7,15.6-2.5
	c0.7-0.1,1.4,0.2,2.1,0.2c1.2,0,2.5-0.1,3.4-0.1c1-3.6,2-6.7,2.9-9.9c0.5-1.8,0.9-3.7,1.4-5.6c0.9-3.3,2-6.5,2.9-9.8
	c0.7-2.5,1.3-5.1,1.8-7.7c0.9-4.9,1.6-9.9,2.7-14.8c1.1-5,2.7-9.8,4-14.7c0.7-2.7,1.1-5.5,1.6-8.2c0.2-1,0.2-2.1,0.5-3
	c0.3-0.8,0.8-1.5,1.5-2.1c1.1-1,2.4-1.8,3.6-2.7c2.9-2.2,5.8-4.5,8.9-6.5c3-2,6-4,9.1-5.6c2.1-1.1,4.5-1.7,6.8-2.1
	c2.2-0.4,3.9,1.4,3.5,3.7c-0.6,3.4-1.3,6.7-2,10.1c-0.6,3.2-1.2,6.4-2,9.6c-1.3,5.1-2.4,10.2-4,15.3c-2,6.6-4,13.1-5.3,19.8
	c-0.3,1.6-0.9,3.2-1.3,4.8c-1,4.1-1.9,8.2-2.8,12.4c-0.7,3.2-1.5,6.4-2.3,9.6c-0.7,2.7-1.3,5.4-2.1,8.1c-0.3,1.1,0.1,1.9,1.1,2.3
	c4,1.7,7.6,4.4,12,5.1c0.2,0,0.3,0.1,0.4,0.2c1.9,1.8,3.5,0.8,5.1-0.4c2.4-1.9,5.1-3.5,7-5.8c2-2.4,4.4-4.3,6.9-6.3
	c1.6-1.3,3-2.9,4.5-4.3c1.6-1.4,3.3-2.8,4.8-4.3c3-3.1,5.9-6.2,8.8-9.4c0.2-0.2,0.5-0.3,0.5-0.5c0.1-2.2,1.5-3.1,3.3-3.9
	c0.6-0.3,1.1-0.9,1.6-1.5c2.6-3.2,5.7-6,7.9-9.6c2.2-3.7,5-7,7.5-10.5c1.7-2.4,2.8-5,3.4-7.8c0.3-1.5,0.8-3,0.8-4.4
	c0.1-2.4,0-4.8-0.2-7.1c-0.3-2.6-1.8-4.6-3.7-6.2c-0.9-0.7-2.1-1.3-3.2-1.4c-3.6-0.4-7.1-0.3-9.4,3.2c-0.2,0.3-0.6,0.5-0.9,0.8
	c-1.4,1.5-2.8,3.1-3.1,5.2c-0.4,2.4-1.1,4.7-1.5,7c-0.2,1.2-0.3,2.7,0.2,3.7c0.8,1.6,0.6,3.3,0.8,4.9c0.2,2.3-1.4,3.6-3.5,2.4
	c-2.3-1.3-4.6-2.9-6.6-4.6c-1.7-1.5-3.2-3.2-4.3-5.1c-1.8-3.1-3.7-6.2-3.8-9.9c0-0.9,0-1.8-0.2-2.6c-0.6-2.7,0.4-5,1.4-7.4
	c1.4-3.2,3.1-6.3,5.8-8.7c1-0.9,2.2-1.6,3.2-2.4c2.4-1.8,5-3,7.7-4.3c0.7-0.4,1.5-0.7,2.2-0.8c5.7-0.8,11.3-0.9,16.8,1
	c4.1,1.4,7.8,3.6,10.7,6.9c0.3,0.3,0.5,0.7,0.8,0.8c1.6,0.4,2.4,1.8,3.4,2.8c0.8,0.8,1.8,1.6,2.4,2.6c0.6,1,0.9,2.1,1.3,3.2
	c0.4,1,0.5,2,1,2.9c1.3,2.7,1.6,5.7,1.8,8.6c0.5,7.3-1,14.3-3,21.2c-0.8,2.6-2.3,5-3.6,7.5c-1.6,3.1-3.3,6.1-5.1,9.2
	c-1.3,2.3-2.9,4.4-4.1,6.7c-2.1,4.2-5.6,7.1-8.5,10.6c-3.1,3.9-6.8,7.3-10.3,10.9c-0.4,0.5-1,0.8-1.5,1.1c-0.4,0.3-1,0.4-1.2,0.7
	c-1.6,2.2-4,3.6-6.1,5.3c-2.4,2.1-4.7,4.2-7.5,5.9c-3.3,1.9-6.3,4.3-9.5,6.4c-0.6,0.4-1.2,0.7-1.8,1.1c-0.9,0.6-1.8,1.2-2.6,1.8
	c0.5,2.5,2.3,3.9,3.6,5.5c1,1.3,2,2.6,3.1,3.9c1.4,1.8,3,3.5,4.3,5.4c2,2.8,3.9,5.6,5.9,8.4c0.3,0.4,0.6,1,1,1.3
	c2.2,1.7,3.3,4.3,4.9,6.5c3.4,4.6,5.9,9.9,9.8,14.1c0.6,0.7,1.2,1.5,1.7,2.3c2.1,4.1,5.1,7.5,7.7,11.2c0.7,1,1.4,2,2,3
	c2.4,3.6,5.4,6.7,8.7,9.5c2.4,2,4.7,4,7.1,6c0.8,0.6,1.7,1.2,2.6,1.7c5.2,2.3,10.7,3.6,16.3,3.5c2.5,0,5.1-0.5,7.5-1.1
	c2.4-0.6,4.4-2.1,6.1-4c1.4-1.6,2.6-3.3,3.7-5c0.7-1.1,1.6-2.3,1.1-3.8c0-0.1,0-0.2,0-0.2c1.6-2.6,1.2-5.5,1.4-8.4
	c0-0.7,0.5-1.6,1.1-2c0.9-0.6,2-0.3,2.6,0.5c0.7,0.8,1.5,1.8,1.6,2.8c0.9,4.9,2.2,9.9,2.1,14.9c-0.1,6.5-1.6,13-5.9,18.3
	c-0.4,0.6-0.7,1.2-1.2,1.8c-0.7,0.9-1.4,1.8-2.2,2.5c-1.6,1.4-3.4,2.6-5.1,3.9c-3.6,2.9-7.5,5.4-11.9,6.9c-1.8,0.6-3.7,1-5.5,1.5
	c-0.5,0.1-1,0.2-1.4,0.1c-2.6-0.7-5.3,0.2-7.9-0.1c-3.3-0.4-6.7-0.9-9.8-2c-3.3-1.1-6.5-2.7-9.5-4.6c-2.7-1.7-5.2-4-7.5-6.3
	c-2.9-2.8-5.6-5.9-8.3-9c-1-1.1-1.5-2.6-2.4-3.9c-2.2-3.2-4.6-6.3-6.8-9.5c-2.7-3.9-5.3-8-7.9-11.9c-0.7-1-1.5-1.9-2.1-2.9
	c-3.3-5.9-6.6-11.8-10-17.7c-1.6-2.8-3.3-5.6-5.1-8.4c-2.4-3.7-4.2-7.7-6-11.7c-1.3-3-3.1-5.7-4.7-8.6c-0.8-1.4-1.6-2.8-2.4-4.1
	c-0.5-0.8-1.2-1-2-0.4c-4,2.8-8.7,4.2-13.1,6.3c-2.4,1.1-4.7,2.3-7.1,3.4c-1.4,0.6-1.7,1.8-2,3c-1.8,6.9-3.5,13.7-5.2,20.6
	c-1.2,4.9-2.6,9.7-3.9,14.6c-1,3.8-1.9,7.5-3.1,11.3c-1.9,6.3-4,12.5-6,18.8c-0.2,0.7-0.2,1.4-0.4,2.1c-0.4,1.5-0.9,3-1.4,4.5
	c-0.6,2-1,4-1.8,5.9c-1.1,2.7-2.4,5.3-3.7,8c-1,2.1-1.9,4.2-3.1,6.2c-1.1,1.9-2.3,3.6-3.6,5.3c-3.1,4.2-6.5,8.1-10.3,11.6
	c-3.6,3.3-7.2,6.8-11.2,9.7c-3.3,2.4-7,4.4-11,5.6c-4,1.2-7.8,2.6-12,3.3c-2.3,0.4-4.3-0.4-6.4-0.8c-2.1-0.4-4.2-0.9-6.3-1.3
	c-0.6-0.1-1.3-0.2-1.9-0.5c-3.2-1.4-6.5-2.6-9.6-4.3c-5.2-2.8-9.7-6.5-12.9-11.5c-2.7-4.2-4.7-8.6-5.6-13.6c-0.4-2-1.2-3.9-0.9-6.1
	c0.3-2,0.1-4.1,0.1-6.2c0.7,0,1.2,0.1,1.5,0c0.2-0.1,0.3-0.9,0.2-1c-1.5-1.7-0.9-3.5-0.3-5.2c1.8-4.7,3-9.6,6.1-13.7
	c2.5-3.3,5.2-6.5,7.9-9.6c1-1.2,2.3-2.2,3.4-3.4c3.4-3.5,7.1-6.4,11.9-7.6c0.3-0.1,0.6-0.2,0.9-0.4c2.1-2,5-2.4,7.5-3.5
	c0.6-0.3,1.5-0.3,2,0c0.8,0.4,0.4,1.2,0.1,1.9c-0.2,0.6-0.3,1.2-0.4,1.8c-0.4,1.9-1.2,3.4-3.2,4.1c-1,0.3-2.1,0.8-3,1.4
	c-0.9,0.6-1.7,1.4-2.6,2.1c-0.5,0.4-1.1,1.1-1.7,1.1c-1.6,0.1-1.9,0.9-2,2.2c-0.1,0.6-0.4,1.1-0.8,1.6c-0.6,0.9-1.4,1.7-2.2,2.8
	c-0.4-0.1-1-0.2-1.6-0.3c-0.1,0.2-0.2,0.5-0.2,0.5c1.3,1.2,0.9,2.4,0.2,3.7c-0.9,1.5-1.7,3.1-2.6,4.6c-2.6,4.6-2.1,9.3-0.4,14.1
	c0.1,0.4,0.6,0.7,0.9,1.1c0.3,0.4,0.8,0.7,0.9,1.1c0.5,3.7,3.5,5.4,5.7,7.8c3.4,3.6,7.8,3.1,11.9,4.1c7.3-0.6,13.7-2.7,17.8-9.4
	c1.1-1.9,2.6-3.6,3.8-5.4c0.5-0.8,1.1-1.6,1.4-2.5c1.3-3.1,2.6-6.2,4-9.2c1.3-2.8,2.8-5.5,3.9-8.4c1.6-4,3.3-7.9,4.3-12.1
	c0.7-3,2.1-5.8,3.1-8.8c0.6-1.8,1.1-3.6,1.7-5.4c0.6-1.9,1.1-3.8,1.8-5.7c0.7-2,1.5-4,2.2-6c0.1-0.4,0.2-1,0.1-1.3
	c-0.5-1.2,0.1-2.2,0.8-3c1.8-2,2.4-4.2,2.1-6.8c-0.1-0.7,0-1.3,0-2.1c-0.4,0-0.6-0.1-0.8-0.1c-4.5,1.4-9.3,1.5-13.9,2.2
	c-0.9,0.1-1.8,0.2-2.6,0.1c-1.5-0.1-2.8,0-3.3,1.4c-1.7-0.1-3.2-0.1-4.6-0.2c-0.7,0-1.6,0-2.1-0.4c-1.5-1.2-3.1-0.7-4.7-0.7
	c-2.3,0-4.4,0.4-6.7-0.8c-1.2-0.6-3.1-0.2-4.5-1c-0.5-0.3-1-0.6-1.5-0.9c-0.3-0.2-0.5-0.5-0.8-0.5c-1.7-0.1-2.9-1.3-4.2-2.2
	c-0.6-0.4-1.5-0.5-2.2-0.7C323.3,506.6,322.4,506.5,321.5,506.4z M387.8,470.2c-1.4,0.4-2.4,0.7-3.4,1c-1.5,0.5-3,1.2-4.6,1.3
	c-3.4,0.3-6.1,2.5-9.5,2.8c-0.8,0.1-1.5,1.1-2.3,1.1c-2,0.1-3.3,1.3-4.3,2.2c-1.5,0.2-2.6,0-3.5,0.5c-4.1,2.1-8.1,4.3-12.3,6.6
	c0.8,1,0.6,1.7-0.3,2.3c-2,1.4-4.4,2.3-5.8,4.5c-0.1,0.1-0.3,0.3-0.4,0.3c-1.5-0.3-2,1-2.7,1.8c-1-0.5-2-1-2.9-1.5
	c-0.5,1,0.1,1.4,0.6,1.8c1.2,1,3.1,1.1,3.9,2.7c4.1,1.7,8.2,3,12.6,1.1c0.3-0.1,0.8-0.3,1.1-0.1c1.3,0.9,2.6,0.4,3.9-0.1
	c0.6-0.2,1.3-0.4,1.9-0.3c4.6,0.4,8.8-1.8,13.1-2.7c0.8-0.2,1.4-0.9,2.1-1.4c0.4,0.2,0.8,0.3,1.2,0.5c0.5-2.2,0.5-2.2,3-3.2
	c0.8-0.3,1.5-0.8,1.3-1.8c-0.3-1.7,0.5-3,2.1-3.4c1-0.2,1.6-0.8,1.4-1.5c-0.3-1,0.2-1.4,0.5-2.2c0.6-1.5,1.1-3.1,1.5-4.7
	C386.6,475.5,387.1,473.1,387.8,470.2z M416.8,473.6c-0.3,1.7-0.5,2.8-0.8,4.2c0.7-0.3,1.2-0.4,1.6-0.7c0.7-0.5,1.3-1,1.9-1.5
	C418.8,475.1,418.1,474.6,416.8,473.6z M430.3,381.9c0,0.2,0.1,0.4,0.1,0.6c1.2,0.3,2.4,0.5,3.7,0.8c0.4-1.2,0.4-2.1-0.8-3
	C432.2,380.8,431.2,381.4,430.3,381.9z M369.6,563.4c-0.4-0.8-0.7-1.5-1.1-2.3C368.1,562.2,368.2,563.1,369.6,563.4z M469.1,528.3
	c0,0.2-0.1,0.3-0.1,0.5c0.8,0.3,1.6,0.5,2.3,0.8c0.1-0.2,0.1-0.4,0.2-0.7C470.7,528.7,469.9,528.5,469.1,528.3z M475.8,381.3
	c0.1,0,0.3-0.1,0.4-0.1c-0.1-0.4-0.2-0.7-0.3-1.1c0,0-0.4,0.1-0.6,0.1C475.5,380.6,475.7,380.9,475.8,381.3z M409.5,472.4
	c0.1,0.1,0.2,0.3,0.4,0.4c0.3-0.1,0.6-0.2,0.7-0.4c0.2-0.2,0.1-0.6,0.2-0.9c-0.1,0-0.2-0.1-0.3-0.1
	C410.1,471.7,409.8,472,409.5,472.4z M476.1,458c0.2,0,0.4-0.1,0.7-0.1c-0.1-0.4-0.2-0.9-0.3-1.3c-0.2,0-0.3,0-0.5,0.1
	C476,457.1,476,457.6,476.1,458z M383.4,500.8c-0.1,0-0.2,0.1-0.2,0.1c0.2,0.4,0.4,0.8,0.6,1.3c0.1-0.1,0.2-0.1,0.4-0.2
	C383.9,501.6,383.6,501.2,383.4,500.8z M439.9,490.4c0,0.2,0,0.4,0,0.5c0.4-0.1,0.9-0.2,1.3-0.3c0-0.1,0-0.3-0.1-0.4
	C440.7,490.4,440.3,490.4,439.9,490.4z M490.7,428.9c-0.3-0.2-0.4-0.4-0.6-0.4c-0.2,0-0.3,0.2-0.5,0.4c0.1,0.1,0.3,0.4,0.4,0.4
	C490.3,429.3,490.5,429.1,490.7,428.9z"/>
<path fill="#FFFFFF" d="M626.8,388.2c-0.4-0.3-0.9-0.7-1.5-1.1c-0.1,1.6-0.1,1.6-1.3,2.2c-8.9,4.3-18,8-27.4,11.1
	c-3.6,1.2-7.5,1.3-11.3,1.9c-4.6,0.7-9,0-13.6-0.6c-1.7-0.2-3.5-0.3-5.2-0.5c-2.2-0.2-4.1-0.9-6-2.1c-2.1-1.3-4.3-2.5-6.7-3.1
	c-2.8-0.8-4.6-2.8-6.5-4.6c-3.7-3.6-5.7-8-6.4-13c-0.6-4.2-0.1-8.4,1.9-12.1c1.1-2.1,3.1-3.9,5-5.4c2.8-2.2,6-3.9,9.5-4.9
	c0.2,0,0.3-0.2,0.4-0.2c3.8,0.1,7.6,0.1,11.4,0.3c0.8,0,1.5,0.4,2.2,0.8c1.1,0.6,1.8,2,1.3,2.8c-0.6,1-1.5,1.4-2.7,1.2
	c-0.5-0.1-0.9-0.3-1.4-0.3c-3-0.4-5.7,0.5-8,2.4c-1,0.8-1.5,1.8-1.2,2.9c0.3,1.1,0.1,1.8-0.7,2.5c-0.3,0.2-0.5,0.8-0.4,1.2
	c0.5,3.4,2.1,6.1,4.8,8.1c1,0.7,2,1.3,3,1.9c0.5,0.3,1.2,0.3,1.8,0.4c0.5,0.1,1.2-0.1,1.4,0.1c1,1.2,2.1,1.5,3.8,1.1
	c1.2-0.3,2.7,0.4,4,0.4c0.6,0,1.1-0.5,2-0.9c0.9,0.6,2,1,3.4-0.3c0.5-0.5,1.7-0.2,2.5-0.2c1.2-0.1,2.4,0,3.5-0.2
	c2.7-0.5,5.4-1.2,8.2-1.8c1.4-0.3,2.8-0.6,4.1-0.9c0.2,0.7,0.2,1.4,0.6,2.1c0.2,0.4,0.8,0.5,1.3,0.8c0.2-0.1,0.3-0.2,0.5-0.3
	c-0.2-0.9-0.5-1.8-0.7-2.9c2.5-0.8,4.9-1.7,7.4-2.4c4.7-1.3,9.4-2.5,14.1-3.7c7.4-1.8,14.4-4.6,21.6-6.8c2.9-0.9,5.6-2.2,8.5-3.2
	c2.2-0.8,4.6-1.3,6.9-1.9c2.5-0.7,4.9-1.4,7.4-2c4.4-1.1,8.8-2.3,13.2-3.4c8.8-2.2,17.6-4.4,26.4-6.7c4.7-1.2,9.4-2.5,14.1-3.8
	c2.7-0.7,5.4-1.5,8.1-2.2c4.7-1.2,9.4-2.4,14.1-3.4c1.7-0.4,3.5-0.7,5.2-0.7c3.4,0,6.5-1.2,9.7-1.9c1-0.2,2-0.5,3-0.6
	c5.7,0,11.5-0.2,17.2,0.9c2.7,0.5,5.5,0.6,8.3,0.9c0.6,0.1,1.1,0.1,1.7,0.3c2,0.5,4.1,0.9,6,1.7c2.2,1,4.4,2.3,6.4,3.6
	c1.4,0.9,2.6,2.3,4.4,2.8c0.6,0.2,1,1,1.3,1.6c1.8,3.2,2.5,6.8,3.4,10.3c0.5,2,0.7,4.2-0.9,6.1c-0.8,1-1.4,2.1-2,3.3
	c-0.9,2-2.8,3.2-4.2,4.8c-1.4,1.6-3.7,1.8-5.7,2.2c-1.8,0.4-3.8,0.5-5.6,1c-2.6,0.7-5,0.5-7.4-0.6c-0.3-2.4,0-2.9,2.1-3
	c1-0.1,2.1,0,3.1,0c1.7-0.1,3.1-0.9,3.6-2.7c0.4-1.3,1.6-2.3,0.9-3.8c-1-2.2-1.4-4.7-3.6-6.3c-2.4-1.7-4.9-2.8-7.7-3.5
	c-4.2-0.9-8.3-1.1-12.5-1.2c-2.4-0.1-4.8-0.4-7.2-0.3c-2.8,0.1-5.7,0.2-8.3,0.9c-3,0.9-6.1,1.2-9.2,1.6c-1.3,0.1-2.6,0.4-3.9,0.8
	c-5.9,1.7-11.9,1.9-17.9,2.9c-3.8,0.6-7.5,1.2-11.3,1.9c-1.3,0.2-2.6,0.8-3.9,1.2c-8,2.2-16,4.2-24,6.5c-5.7,1.6-11.3,3.3-16.9,5
	c-4.2,1.3-8.2,3.1-12.5,4c-1.2,0.3-2.4,1-3.5,1.4c-5.1,1.9-10.3,3.9-15.4,5.8C633.5,385.8,630.2,387,626.8,388.2z"/>
<path fill="#FFFFFF" d="M788.2,495.7c-0.9,0.4-2.2-0.1-2.6,1.2c0,0-0.2,0.1-0.2,0c-1.7-0.7-3.2,0.2-4.8,0.2c-2.7,0.1-5.3,0-8.2,0
	c0.1-0.2,0.2-0.5,0.3-0.8c0.1-0.1,0.3-0.1,0.5-0.1c2.7,0.2,5.2-0.6,7.7-1.3c0.6-0.2,1.2-0.5,1.9,0.3c0.4,0.4,1.6,0.2,2.4,0.2
	c1,0,2-0.2,3-0.4C788.1,495.3,788.2,495.5,788.2,495.7z"/>
<path fill="#FFFFFF" d="M198.2,313.9c-0.5,0-1,0-1.6,0c0,0,0-0.6,0-0.6c0.5-0.1,1-0.1,1.5-0.2C198.2,313.4,198.2,313.7,198.2,313.9z
	"/>
<path fill="#FFFFFF" d="M534.8,553.6c-0.5,0-0.9,0-1.3,0c0,0,0-0.5,0-0.8c0.5,0,1,0.1,1.4,0.1C534.8,553.1,534.8,553.4,534.8,553.6z
	"/>
<path fill="#FFFFFF" d="M362.2,303.4c-0.4-0.5-0.7-0.8-1.1-1.3C362.3,302,362.6,302.3,362.2,303.4z"/>
<path fill="#FFFFFF" d="M369.6,494.6c-0.4,0.1-0.8,0.2-1.2,0.3c0-0.1-0.1-0.2-0.1-0.3c0.4-0.1,0.8-0.3,1.1-0.4
	C369.5,494.3,369.5,494.4,369.6,494.6z"/>
<g>
	<path fill="#FFFFFF" d="M435.2,653.9v-18.1h6.6c5.9,0,8.9,4,8.9,9c0,5.5-3.5,9.1-8.9,9.1H435.2z M441.8,638.9h-3.1v11.9h3.1
		c3.5,0,5.4-2.6,5.4-6C447.2,641.3,445.2,638.9,441.8,638.9z"/>
	<path fill="#FFFFFF" d="M457.2,653.9l7.1-18.1h2.9l7.1,18.1h-3.7l-1.7-4.5h-6.3l-1.7,4.5H457.2z M465.8,639.6l-2.6,7.3h5.1
		L465.8,639.6z"/>
	<path fill="#FFFFFF" d="M482.4,653.9v-18.1h8c3.3,0,5.8,3.1,5.8,6c0,2.3-1.3,4.4-3.3,5.3l4.3,6.8h-4l-3.8-6.1h-3.5v6.1H482.4z
		 M485.9,644.8h4.4c1.3,0,2.3-1.3,2.3-2.9c0-1.7-1.2-2.9-2.4-2.9h-4.3V644.8z"/>
	<path fill="#FFFFFF" d="M518.2,650.8v3.1h-12.6v-18.1H518v3.1h-8.8v4.4h7.6v2.9h-7.6v4.7H518.2z"/>
	<path fill="#FFFFFF" d="M552.2,638.9h-5.8v15H543v-15h-5.8v-3.1h15.1V638.9z"/>
	<path fill="#FFFFFF" d="M559,644.9c0-4.8,3.7-9.2,8.6-9.2c5.1,0,8.5,4.7,8.5,9.2c0,4.8-3.6,9.1-8.6,9.1
		C562.4,654,559,649.5,559,644.9z M567.6,650.9c3.2,0,5-3.1,5-6.1c0-3.1-1.9-6-5-6c-3.2,0-5,3.1-5,6
		C562.5,648,564.4,650.9,567.6,650.9z"/>
	<path fill="#FFFFFF" d="M606,653.9h-8.7v-18.1h9.7c2.5,0,4.1,2.3,4.1,4.6c0,1.8-0.9,3.5-2.6,4.2c2.1,0.6,3.4,2.2,3.4,4.6
		C611.8,652.3,609.2,653.9,606,653.9z M600.8,638.8v4.6h4.7c1.2,0,2.1-0.9,2.1-2.3c0-1.4-0.9-2.3-2-2.3H600.8z M606.2,646.2h-5.4
		v4.8h5.2c1.3,0,2.3-1,2.3-2.3C608.3,647.3,607.4,646.2,606.2,646.2z"/>
	<path fill="#FFFFFF" d="M633.3,650.8v3.1h-12.6v-18.1H633v3.1h-8.8v4.4h7.6v2.9h-7.6v4.7H633.3z"/>
	<path fill="#FFFFFF" d="M654.4,653.9v-18.1h8c3.3,0,5.8,3.1,5.8,6c0,2.3-1.3,4.4-3.3,5.3l4.3,6.8h-4l-3.8-6.1H658v6.1H654.4z
		 M658,644.8h4.4c1.3,0,2.3-1.3,2.3-2.9c0-1.7-1.2-2.9-2.4-2.9H658V644.8z"/>
	<path fill="#FFFFFF" d="M690.3,650.8v3.1h-12.6v-18.1h12.3v3.1h-8.8v4.4h7.6v2.9h-7.6v4.7H690.3z"/>
	<path fill="#FFFFFF" d="M714,653.9v-12l-4.7,8.9h-1.9l-4.7-8.9v12h-3.5v-18.1h3.8l5.4,10.3l5.4-10.3h3.7v18.1H714z"/>
	<path fill="#FFFFFF" d="M725.6,653.9l7.1-18.1h2.9l7.1,18.1H739l-1.7-4.5H731l-1.7,4.5H725.6z M734.2,639.6l-2.6,7.3h5.1
		L734.2,639.6z"/>
	<path fill="#FFFFFF" d="M750.8,653.9v-18.1h8c3.3,0,5.8,3.1,5.8,6c0,2.3-1.3,4.4-3.3,5.3l4.3,6.8h-4l-3.8-6.1h-3.5v6.1H750.8z
		 M754.3,644.8h4.4c1.3,0,2.3-1.3,2.3-2.9c0-1.7-1.2-2.9-2.4-2.9h-4.3V644.8z"/>
	<path fill="#FFFFFF" d="M774.1,653.9v-18.1h3.5v8.8l7.8-8.8h3.6l-6.9,8l7.4,10.1h-3.7l-5.8-8.1l-2.4,2.6v5.5H774.1z"/>
	<path fill="#FFFFFF" d="M795.4,653.9l7.1-18.1h2.9l7.1,18.1h-3.7l-1.7-4.5h-6.3l-1.7,4.5H795.4z M803.9,639.6l-2.6,7.3h5.1
		L803.9,639.6z"/>
	<path fill="#FFFFFF" d="M829.3,653.9h-8.7v-18.1h9.7c2.5,0,4.1,2.3,4.1,4.6c0,1.8-0.9,3.5-2.6,4.2c2.1,0.6,3.4,2.2,3.4,4.6
		C835.1,652.3,832.5,653.9,829.3,653.9z M824.1,638.8v4.6h4.7c1.2,0,2.1-0.9,2.1-2.3c0-1.4-0.9-2.3-2-2.3H824.1z M829.5,646.2h-5.4
		v4.8h5.2c1.3,0,2.3-1,2.3-2.3C831.6,647.3,830.7,646.2,829.5,646.2z"/>
	<path fill="#FFFFFF" d="M844,653.9v-18.1h3.5v15h9.2v3.1H844z"/>
	<path fill="#FFFFFF" d="M877.7,650.8v3.1h-12.6v-18.1h12.3v3.1h-8.8v4.4h7.6v2.9h-7.6v4.7H877.7z"/>
</g>
</svg>
