<svg xmlns="http://www.w3.org/2000/svg" viewBox="0 0 611.3 165.5" enable-background="new 0 0 611.3 165.5"><path d="M19.7 136.5"/><g fill="#fff"><path d="M69.3 137c-7.1 0-14.3-1.9-20.7-5.8-8.5-5.2-13.4-14.7-13.2-25.5.3-10.4 5.4-19.5 13.4-23.8 5.9-3.2 15.9-5.1 30 3 2.4-2 6.6-4.6 12.5-6.6-3.4-4-7.5-7.6-11.4-11.2-9.5-8.5-19.2-17.2-18.8-30.1-13-6-20.5-5.3-24.8-3.3-6.6 3.1-7.8 10.7-7.8 10.8l-7.7-1c.1-.5 1.7-11.9 12.2-16.8 7.6-3.6 17.4-2.7 29.5 2.5 3.5-11.4 12.1-18 23.8-18.2 12.5-.2 25.6 7.1 28.5 16 2.3 6.9.1 14-5.6 18.6-3.2 2.6-15.2 10.1-35.9-1.8l-.1-.1c-1.3-.8-2.7-1.6-3.9-2.4 1.6 6.9 7.5 12.5 15.8 20 4.9 4.4 10.2 9.1 14.5 14.8 6.7-1.3 14.9-1.8 24.6-.7l-.9 7.7c-7.5-.9-13.9-.7-19.2.1 1.1 2.3 2.1 4.6 2.8 7.2 4.1 14.7-.8 29-13.1 38.3-7.3 5.5-15.9 8.3-24.5 8.3zm-9.4-50.1c-2.7 0-5.2.6-7.5 1.8-5.5 3-9.1 9.5-9.3 17.1-.2 8 3.3 15 9.4 18.6 11.4 6.9 25.7 6.1 36.4-2 9.6-7.3 13.5-18.5 10.3-30-.8-2.7-1.9-5.2-3.3-7.6-7.7 2.2-12.1 5.5-13.1 6.8-1.5 1.9-4.2 2.3-6.3 1.1-6-3.8-11.7-5.8-16.6-5.8zm17.4-49.9c8.5 4.9 20.1 8.2 27.1 2.5 3.1-2.5 4.3-6.4 3.1-10.1-1.7-5.1-11.2-10.8-21-10.6-5.9.1-13.6 2.5-16.7 13.2-.1.2-.1.4-.1.5 2.4 1.4 4.9 2.9 7.6 4.5zm72.1 83.9c-2.9 0-5.3-1.2-7.1-3.5-7.4-9.9 1.2-41.1 3-47.2l7.5 2.2c-4.6 15.9-7.6 35.9-4.2 40.4.3.3.4.4.9.4 2.3 0 4.9-3.7 7-10.3 2.3-7 3.6-15.6 4.5-21.8.3-2.1.6-4 .9-5.4.4-1.9 1.8-3.4 3.7-3.9 1.9-.5 3.9.2 5.1 1.8.2.3.4.6.7.9 1.9 2.5 4.7 6.4 11.4 7.2 1.3.2 2.5.9 3.3 2 .8 1.1 1 2.5.7 3.8-2.1 9.4-5 22.2-2.7 25 .1.1.3.4 1.6.4 6.1-.3 6.9-12.2 7-12.3l7.8.4c-.4 7.1-3.8 19.2-14.4 19.7-4.2.2-6.6-1.6-7.9-3.1-4.5-5.3-2.6-15.6.4-28.7-4.5-1.2-7.7-3.4-9.9-5.6-2.6 15.1-6.3 37.6-19.3 37.6zm-19.3 1.4c-1 0-1.8-.1-2.4-.3-8.8-2.1-15.7-15.6-11.4-33.8 2.4-10.1 6.7-16.2 12.9-18.1 9.3-2.8 18.4 5.4 18.8 5.8l-5.3 5.7c-1.7-1.6-7.1-5.4-11.2-4.1-4.1 1.3-6.4 7.5-7.5 12.4-3.1 13.4 1.3 23.4 5.7 24.5 2.9.7 7.3-3.6 10-14.7l7.6 1.8c-4.7 18-12.7 20.8-17.2 20.8zm95.7-51.6M227.2 118.5h-.4c-2.9-.1-5.4-1.4-7.2-3.9-7.2-10 .7-39.3 2.4-45l7.5 2.2c-3.7 12.8-7.3 33.2-3.6 38.3.4.5.7.6 1.1.6h.1c1.2 0 6.7-1.4 11.8-26.8 3.3-16.5 5-36.1 6.2-49 .5-6.2.9-10.4 1.3-12.4l7.7 1.4c-.3 1.7-.7 6.1-1.2 11.6-3.7 42.1-8.7 83-25.7 83zm-19.9.9c-1 0-1.8-.1-2.4-.3-11-2.6-14.3-19.3-11.1-33.3 2.4-10.1 6.7-16.2 12.9-18.1 9.3-2.8 18.4 5.4 18.8 5.8l-5.3 5.7c-1.7-1.6-7.1-5.4-11.2-4.1-4.1 1.3-6.4 7.5-7.5 12.4-3.3 14.3 1.6 23.1 5.3 24 2.9.7 7.3-3.7 10-15l7.6 1.8c-4.5 18.3-12.6 21.1-17.1 21.1zm56.2-1.7v-.2l-7.7-1.1c.1-.7.4-1.6 1.3-4.4 7.1-20.9 9-33.8 5.7-38.2-.5-.7-1.5-1.5-3.9-1.4-4.3.2-7.5 2.1-9.8 5.9-1.9 3.1-2.3 6.2-2.3 6.2l-7.7-1.1c.9-6.2 6-18.1 19.4-18.8 5.7-.3 8.8 2.3 10.5 4.5 6.7 8.9 1.5 27.9-4.5 45.4-.5 1.4-1 2.9-1 3.2zm17.4 14.9M317.9 75.1l-.5-7.8c4.1-.3 4.2-.3 4.5-.3.8-.2 2-.5 9.1-1.3 6.8-.8 14-11.5 20.3-30.2 5.2-15.2 7.9-30.3 7.9-30.5l7.7 1.4c-1.2 6.6-12 64.2-34.9 67-6.7.8-7.8 1.1-8.3 1.2-1.1.2-1.1.2-5.8.5zm27.2 45.6c-3.9 0-6.2-1.7-7.5-3.1-4.7-5.4-2.6-15.5-.2-27.3.8-4.1 1.7-8.3 2.2-12.1.3-2.4 0-4.2-.8-4.8-1.3-1.1-4.8-.6-6.2-.1l-2.5-7.4c.9-.3 8.6-2.7 13.6 1.4 3 2.5 4.2 6.5 3.5 11.8-.5 4.1-1.4 8.5-2.3 12.7-1.6 7.7-3.7 18.2-1.5 20.6.3.3.9.5 1.9.5.6-.4 4.3-3.5 8.6-25.1 2.4-12.3 3.8-24.2 3.8-24.3l7.7.9c-.1.5-1.5 13.4-4.2 26.5-4.2 20.4-8.8 29.4-15.3 29.8h-.8zm37.8-1.1c-3.2 0-5.6-1-7.3-3-3.4-4.1-2.7-10.9-.5-20l1.2-4.8c1.7-6.6 4-15.7 2.3-18.3-.1-.2-.2-.4-1-.5-8.9-1.7-13 5.9-13.4 6.8l-7-3.4c2.3-4.8 9.8-13.3 21.8-11 2.6.5 4.7 1.9 6.1 4 3.5 5.4 1.2 14.2-1.3 24.4l-1.2 4.7c-2.5 10.4-1.5 12.7-1.1 13.1.1.1.7.3 2 .3l.6 7.8c-.5-.1-.9-.1-1.2-.1zm17.7-.4c-3.4 0-6.4-1.3-8.7-3.9-2.5-2.7-5.3-8.3-4.3-18.9 2.7-29.4 19.9-32.5 23.2-32.8.4-.1 1-.2 1.6-.2 2.4 0 4.6 1 6.3 2.9 3.8 4.2 4.9 12.4 3.6 25.1-1.8 17.4-12.5 27.8-21.7 27.8zm11.8-48l-.3.1h-.6c-.5 0-14 1.1-16.2 25.8-.5 6 .3 10.8 2.3 13 .8.9 1.8 1.3 2.9 1.3 4.8 0 12.6-7.4 14-20.8 1.5-14.4-.9-18.3-1.6-19.1-.1-.1-.3-.3-.5-.3zm45.1 44.3c-4.5 0-7.1-2.2-8.5-4.1-.8-1.1-1.5-2.4-1.9-3.8-3.2 4.4-7.1 7.7-11.9 7.9-3.5.2-6.3-1.8-7.6-5.4-1.8-4.9-1.2-13.6 2-26.7.4-1.7.8-3.3 1.2-4.8-6.6 3.9-15.1 7.1-22.6 5.9-5.8-.9-9.3-3.2-10.4-6.7-1.6-4.9 2.6-9.4 3.1-9.9l5.5 5.5-2.8-2.7 2.8 2.7c-.6.6-1.1 1.5-1.2 2 .3.2 1.3.9 4.2 1.4 10.1 1.6 23.2-8.4 25.3-11 .4-1.1.7-1.3 1.2-1.7l2.2-1.8 2.4 1.6c1.1.7 2.2 2.3 1.6 4.4-.1.2-.1.4-.3.6-.6 1.6-3.3 9.9-5.3 19-3.3 14.7-1.9 18.8-1.5 19.6 4.7-.5 9.4-10 12.5-19.4.9-4.4 2-7.9 2.5-9.3l7.5 2c-.4 1.7-1.2 5.4-2.6 9.9-1.6 8.4-1 14.1.4 15.9.4.5 1 1 2.5.9 6.1-.2 12.6-19.4 14.9-43.6.1-1.5 1.1-2.9 2.5-3.5 1.4-.6 3-.4 4.2.5 1.2.9 6.3 3.7 11.9 3.3 3-10.5 7.1-22.9 12.2-37.4.8-2.3 1.4-4 1.8-5.1 1.7-5.2 4.8-8.7 8.3-9.4 2.3-.5 4.5.3 6 2.1 2.8 3.2 4.6 11.7-2.8 33.4-4.3 12.6-10.8 20.4-19.3 23.2l-.6 2.2c-7.4 27.9-4 32.5-3.6 32.9.2.2.9.1 1.5-.1l2.3 7.4c-5.1 1.6-8.1-.5-9.5-1.9-4.7-4.9-4.5-17 1.4-39.4-3.5-.2-6.8-1.1-9.3-2.1-2 16.7-7.5 44.9-21.8 45.4-.1.1-.2.1-.4.1zm56.7-94.3c-.5.7-1.1 1.7-1.5 3.1-.4 1.1-1 2.9-1.8 5.3-2.5 7-6.5 18.6-10.3 30.8 3.6-3.2 6.5-8.2 8.9-15 5-14.8 5.1-21.5 4.7-24.2zm73.9 103.2c-7.4 0-12.7-5.6-16.3-11-7.1 4.7-15.9 3.8-20.9-2.2l-.2-.2c-3.3-4.8-2.1-8.6-1-10.5 2.5-4.5 8.7-6.5 12.2-6.3 4.3.3 7 1.6 10 4.7-.1-1.7-.7-3.6-2.1-5.6-4.8-7.2-8.7-13.2-11.3-18-3.6 13.2-9.4 23.1-18.9 32.3-8.2 7.9-18.3 8.8-25.8 2.2-5-4.5-8.1-11.9-7.5-20.5-3.4-.9-5.7-2-6-2.1l3.1-7.1c1.1.5 2.6 1 4.4 1.6 1.3-3.9 3.3-8 6.4-12 6.4-8.4 12.2-12.2 17.3-11.3 3.2.5 5.8 2.9 7 6.5 2.1 6.4.1 15.1-4.8 20.2-5.3 5.6-12.9 6.4-19.5 5.7-.3 5.1 1.2 9.8 4.9 13.1 4.3 3.8 10 3.1 15.2-1.9 12.5-12.1 16.6-24.4 19-39.1.4-2.3 2.4-3.9 4.8-3.7 2.5.2 4.4 2.3 4.3 4.7-.1 4.1 10.5 19.9 14 25 3.5 5.3 4.8 12.6 1 18.8 2.8 4.5 6.8 9.4 11.5 8.8l.9 7.7c-.6.2-1.2.2-1.7.2zm-31.1-18c2.8 3.3 7.4 2.7 10.7.3-.5-.9-1-1.9-1.3-2.2-1.7-1.9-2.7-2.4-5.1-2.6-1.1-.1-4.1 1-4.8 2.4-.1.2-.4.7.5 2.1zm-41.3-23.3c4.6.4 9.3-.3 12.3-3.4 3.2-3.4 4.2-9.2 3.1-12.4-.2-.7-.6-1.3-.9-1.3 0 0-3.1-.4-9.8 8.4-2 2.6-3.6 5.6-4.7 8.7zm-445.2 75c-14.5 0-29.7-2.8-43.3-11.1-15-9.2-20.7-20.7-21-21.2l7-3.4-3.5 1.7 3.5-1.7c.1.1 5.2 10.3 18.5 18.2 17.6 10.6 41.7 12.6 69.6 5.7 66.3-16.3 154.3-29.6 198.7-.6 5.7-25.9 10.3-48.7 15.5-75 2.6-12.9 5.4-27.2 8.7-43.3-5.6 5.2-12.7 5.3-28.3-.4-8.8-3.2-15.5-3.4-19.3-.6-4.7 3.4-4.6 10.5-4.6 11.9l-7.8.3c-.1-2.9.1-12.9 7.8-18.5 6.2-4.5 15.1-4.7 26.6-.5 10 3.6 15.3 4.6 18.3 3.4 3-1.2 5.3-5.2 9.1-11.8l.7-1.2c1.1-1.9 3.4-2.8 5.5-2 2.1.8 3.3 3 2.8 5.2-4.7 22.8-8.5 42-11.9 59-5.4 27-10 50.3-16 77.1-.5 2.1-1.9 3.8-3.9 4.6-2 .8-4.3.5-6-.7-32.9-22.7-100-22.5-194.1.7-9.4 2.3-20.7 4.2-32.6 4.2zm282.4-8.9c-14.5 0-29.7-2.8-43.3-11.1-15-9.2-20.7-20.7-21-21.2l7-3.4c.1.1 5.2 10.3 18.5 18.2 17.6 10.6 41.7 12.6 69.6 5.7 38.8-9.6 74.3-15.3 105.5-17.2 50.8-3.1 89 4.3 113.3 22l-4.6 6.3c-22.8-16.6-59.3-23.5-108.3-20.6-30.8 1.9-65.8 7.6-104.1 17-9.4 2.4-20.7 4.3-32.6 4.3zm-63.6-46.8 0 9.2"/></g></svg>