<?xml version="1.0" encoding="utf-8"?>
<!-- Generator: Adobe Illustrator 18.1.0, SVG Export Plug-In . SVG Version: 6.00 Build 0)  -->
<!DOCTYPE svg PUBLIC "-//W3C//DTD SVG 1.1//EN" "http://www.w3.org/Graphics/SVG/1.1/DTD/svg11.dtd">
<svg version="1.1" id="Layer_1" xmlns="http://www.w3.org/2000/svg" xmlns:xlink="http://www.w3.org/1999/xlink" x="0px" y="0px"
	 viewBox="26 165.6 922 236.7" enable-background="new 26 165.6 922 236.7" xml:space="preserve">
<g>
	<path fill="none" d="M644.6,271.3c-0.9,0.9-1.7,2.3-1.9,3.1c0.4,0.4,2,1.4,6.5,2.2c2.6,0.4,5.4,0.3,8.2-0.1c-0.8-5.2-2.1-7.3-2.7-8
		c-0.2-0.2-0.5-0.5-0.7-0.5l-0.5,0.2h-0.9c-0.3,0-3.8,0.3-8.1,3L644.6,271.3z"/>
	<path fill="none" d="M803.9,228c7.8-22.9,8-33.3,7.3-37.5c-0.8,1.1-1.6,2.7-2.4,4.8c-0.6,1.8-1.6,4.6-2.8,8.1
		c-3.8,10.9-10.1,28.7-15.9,47.6C795.7,246.2,800.3,238.5,803.9,228z"/>
	<path fill="none" d="M635.6,330L635.6,330c7.4,0,19.4-11.4,21.6-32.1c0.4-3.5,0.6-6.6,0.7-9.4c-3.5,0.4-7,0.5-10.5-0.1
		c-6.1-1-10.5-2.9-13.3-5.7c-3.1,5.8-5.6,13.9-6.7,25.2c-0.8,9.3,0.5,16.6,3.6,20.1C632.3,329.3,633.7,330,635.6,330z"/>
	<path fill="none" d="M832.6,281c5-5.2,6.5-14.1,4.8-19.2c-0.4-1.1-0.9-2-1.3-2c0,0-4.9-0.6-15.2,12.9c-3.1,4.1-5.6,8.7-7.3,13.5
		C820.7,286.8,828,285.8,832.6,281z"/>
	<path fill="none" d="M335.9,330.2c4.5,1.1,11.2-5.7,15.5-23.1l0.2,0.1c0.7-9.6,2.6-19.6,4.4-27.6c-3.2-2.7-10.7-7.5-16.6-5.6
		c-6.4,2-9.9,11.5-11.7,19.2C322.5,315.3,330.2,328.9,335.9,330.2z"/>
	<path fill="none" d="M884.1,315.5c-1.7-0.1-6.3,1.5-7.5,3.6c-0.2,0.3-0.6,1.1,0.8,3.2c4.3,5.1,11.5,4.1,16.6,0.5
		c-0.8-1.4-1.6-2.9-2-3.3C889.4,316.4,888,315.7,884.1,315.5z"/>
	<path fill="none" d="M177.6,219c4.8-3.9,6.6-9.9,4.8-15.7c-2.6-7.8-17.3-16.7-32.4-16.4c-9.2,0.2-21.1,3.9-25.9,20.5
		c-0.1,0.3-0.2,0.6-0.2,0.8c3.8,2,7.8,4.3,11.9,6.9C148.9,222.7,166.8,227.7,177.6,219z"/>
	<path fill="none" d="M208,324.2c2.3,6.8,5.8,9.9,8.3,10.5c4.5,1.1,11.2-5.6,15.4-22.7h0.1c0.4-4.9,1.1-10.3,2.1-16.4
		c0.7-4.2,1.5-8.2,2.4-11.9c-2.9-2.5-10.9-8-17.1-6.1c-6.4,2-9.9,11.5-11.7,19.2C205.3,306.8,205.4,316.5,208,324.2z"/>
	<path fill="none" d="M144.5,299.5c-2.4,2.9-6.6,3.6-9.7,1.6c-9.5-5.9-18.2-8.9-25.8-8.9c-4.2,0-8.1,0.9-11.6,2.8
		c-8.5,4.6-14,14.7-14.3,26.5c-0.3,12.4,5.1,23.1,14.6,28.8c17.7,10.7,39.8,9.4,56.3-3.1c14.9-11.3,20.8-28.6,15.9-46.4
		c-1.2-4.2-2.9-8.1-5-11.8C152.8,292.5,146.1,297.5,144.5,299.5z"/>
	<path fill="#231F20" d="M72.5,209.9c6.6-3.1,18.2-4.1,38.3,5.1c-0.5,19.9,14.4,33.4,29,46.5c6.1,5.5,12.4,11.1,17.7,17.3
		c-9.2,3.2-15.6,7.1-19.4,10.3c-21.8-12.6-37.2-9.6-46.4-4.7C79.3,291,71.4,305.1,71,321.2c-0.4,16.7,7.2,31.5,20.4,39.4
		c9.9,6,21,9,32.1,9c13.3,0,26.6-4.3,37.8-12.8c18.9-14.4,26.5-36.5,20.2-59.2c-1.1-4-2.6-7.6-4.3-11.1c6.2-0.9,13.3-1.2,21.3-0.8
		c-0.9,2.6-1.8,5.4-2.5,8.4c-6.6,28.1,4.1,49,17.7,52.3c0.9,0.2,2.2,0.4,3.8,0.4c4.5,0,11.2-1.8,17.2-10.4c0.5,1,1,2.2,1.7,3
		c2.7,3.6,6.5,5.7,11,5.7l0,0c20.1,0,25.8-34.9,29.5-58.7c3.4,3.3,8.3,6.7,15.3,8.5c-4.5,20.2-7.4,36.1-0.6,44.3
		c2,2.4,5.7,5.1,12.2,4.8c7.1-0.3,13-4.4,17-11.4c3.3,5,7.6,8.3,12.5,9.4c0.9,0.2,2.2,0.4,3.7,0.4c4.5,0,11.2-1.8,17.2-10.5
		c0.5,1.2,1.1,2.2,1.8,3.2c2.7,3.7,6.5,5.8,11.1,6c0.2,0,0.4,0,0.6,0c15.8,0,24.9-23,30.9-55.4c1.4-5.1,5.8-15.3,18.1-15.9
		c3.8-0.2,5.2,1.1,6,2.1c1.8,2.3,4.1,8.9,0.5,27c-2.5,12.4-6.9,25.2-9.3,32.1c-1.5,4.3-1.9,5.7-2.1,6.8l11.9,1.6
		c0,0.1,0,0.2-0.1,0.3c0.1-0.6,0.9-2.8,1.6-4.8c9.2-27.1,17.3-56.6,7-70.3c-2.6-3.4-7.4-7.4-16.2-6.9c-5.4,0.3-10,1.7-13.8,3.9
		c2-15.5,3.6-32.1,5.1-48.8c0.8-8.6,1.4-15.4,1.8-18l-11.8-2.2c-0.6,3.1-1.1,9.5-2,19.1c-1.7,19.1-4.2,47.4-8.8,72
		c-0.2,1-0.4,1.9-0.5,2.7c-0.1,0.3-0.1,0.7-0.2,1c-8,39.7-16.7,41.4-18.3,41.4c-0.7,0-1.2-0.2-1.8-1c-5.7-7.9-0.2-39.4,5.5-59.2
		l-11.6-3.3c-0.1,0.4-0.3,1-0.5,1.6c-5.5-3.5-14.3-7.4-23.2-4.6c-9.5,2.9-16.2,12.3-19.9,28c-1.8,7.7-2.4,15.4-1.7,22.4h-0.4
		c0,0.2-1.4,18.6-10.8,19.1c-1.9,0.1-2.3-0.4-2.4-0.5c-3.6-4.3,0.9-24.1,4.1-38.6c0.5-2,0-4.1-1.1-5.8c-1.2-1.7-3-2.8-5-3.1
		c-10.4-1.4-14.8-7.3-17.7-11.2c-0.4-0.5-0.7-1-1-1.4c-1.9-2.4-5-3.4-7.9-2.7c-2.9,0.7-5.1,3.1-5.7,6c-0.4,2.3-0.9,5.1-1.4,8.4
		c-1.5,9.7-3.5,23.2-7,34c-3.3,10.1-7.2,16.1-10.8,16.1l0,0c-0.7,0-0.9-0.4-1.3-0.9c-5.2-6.9-0.7-37.9,6.5-62.6l-11.6-3.4
		c-0.1,0.2-0.6,2-1.3,4.9c-5.5-3.6-14.5-7.8-23.7-5c-4.3,1.3-8,4-11.2,7.9c-13.4-1.2-24.9-0.5-34.5,1.4
		c-6.6-8.7-14.8-16.1-22.4-22.9c-12.8-11.5-22-20.3-24.4-30.9c2,1.1,4,2.3,6.1,3.6l0.2,0.1c32,18.5,50.6,6.9,55.5,2.9
		c8.8-7.1,12.1-18.2,8.6-28.8c-4.5-13.8-24.7-25.1-44.1-24.7c-18,0.3-31.4,10.5-36.8,28c-18.6-8-33.9-9.3-45.5-3.8
		c-16.2,7.7-18.7,25.3-18.8,26l11.9,1.6C60.5,226.5,62.3,214.7,72.5,209.9z M327.7,293.1c1.8-7.7,5.3-17.2,11.7-19.2
		c5.9-1.8,13.3,3,16.6,5.6c-1.8,8-3.7,18-4.4,27.6l-0.2-0.1c-4.2,17.4-11,24.2-15.5,23.1C330.2,328.9,322.5,315.3,327.7,293.1z
		 M219.3,277.6c6.2-1.9,14.3,3.6,17.1,6.1c-0.8,3.7-1.6,7.7-2.4,11.9c-1.1,6-1.8,11.5-2.1,16.4h-0.1c-4.1,17.1-10.9,23.8-15.4,22.7
		c-2.5-0.6-6-3.7-8.3-10.5c-2.6-7.6-2.7-17.3-0.4-27.3C209.4,289.2,212.9,279.6,219.3,277.6z M164.8,289c2.1,3.7,3.9,7.6,5,11.8
		c4.9,17.8-1,35.1-15.9,46.4c-16.6,12.6-38.7,13.8-56.3,3.1c-9.4-5.7-14.9-16.5-14.6-28.8c0.3-11.8,5.8-21.9,14.3-26.5
		c3.5-1.9,7.4-2.8,11.6-2.8c7.6,0,16.3,3,25.8,8.9c3.2,2,7.4,1.3,9.7-1.6C146.1,297.5,152.8,292.5,164.8,289z M124.1,207.3
		c4.8-16.6,16.7-20.3,25.9-20.5c15.1-0.3,29.8,8.6,32.4,16.4c1.9,5.8,0.1,11.8-4.8,15.7c-10.7,8.7-28.6,3.7-41.8-3.9
		c-4.1-2.5-8.1-4.8-11.9-6.9C123.9,207.9,124,207.6,124.1,207.3z"/>
	<path fill="#231F20" d="M635.5,342.1C635.6,342.1,635.6,342.1,635.5,342.1c14.3,0,30.7-16.1,33.6-42.9c0.5-5.1,0.8-9.7,0.8-13.8
		c4.2-1.6,8.1-3.6,11.3-5.5c0.3-0.2,0.6-0.4,1-0.6c-0.6,2.3-1.3,4.8-1.9,7.4c-4.9,20.2-5.9,33.7-3,41.2c2.1,5.5,6.3,8.5,11.7,8.3
		c6.7-0.3,12.9-4.4,18.4-12.2c0.7,2.2,1.7,4.2,3,6c2.2,2.9,6.2,6.3,13.1,6.3c0.3,0,0.5,0,0.8,0c12.1-0.4,21.2-12.9,27.7-38
		c3.1-11.9,5-24.1,6-32.2c4,1.6,9,3,14.5,3.3c-9.1,34.6-9.6,53.3-2.2,60.9c2.1,2.2,6.7,5.4,14.6,3l-3.6-11.5c-1,0.3-2.1,0.5-2.4,0.2
		c-0.6-0.7-5.9-7.7,5.6-50.9c0.3-1.1,0.6-2.3,0.9-3.4c13.2-4.4,23.2-16.4,29.9-35.7c11.6-33.6,8.8-46.7,4.4-51.7
		c-2.4-2.7-5.8-3.9-9.3-3.2c-5.4,1.1-10.2,6.5-12.9,14.5c-0.6,1.7-1.5,4.5-2.8,8c-7.9,22.5-14.2,41.6-18.9,57.8
		c-8.8,0.6-16.5-3.7-18.4-5.1c-1.9-1.4-4.4-1.7-6.6-0.8c-2.2,1-3.6,3-3.9,5.4c-3.1,32.9-12.5,67.1-23,67.4c-2.4,0.1-3.2-0.7-3.8-1.5
		c-0.9-1.2-3.6-6.3-1-21.9c0.3-1.6,0.6-3.3,0.9-4.8c2.3-7.3,3.4-12.8,3.5-13.2l-11.6-3.1c-0.7,2.2-2.5,7.7-3.9,14.5
		c-4.7,14.5-12,29.2-19.2,29.9c-0.7-1.3-2.8-7.7,2.3-30.4c3.1-13.8,7.2-26.3,8.2-29.2c0.2-0.4,0.4-0.8,0.5-1.2
		c0.9-3.3-0.8-5.7-2.5-6.8l-3.7-2.4l-3.4,2.7c-0.8,0.6-1.2,1-1.9,2.6c-1.9,2.4-9.9,8.8-19.3,13.1c-1-5.4-2.8-9.5-5.4-12.4
		c-2.6-2.9-6.1-4.5-9.7-4.5c-1,0-1.9,0.1-2.5,0.3c-5.1,0.5-31.8,5.2-35.9,50.8c-1.5,16.5,2.8,25,6.7,29.3
		C625.7,340,630.3,342.1,635.5,342.1z M806,203.5c1.3-3.6,2.2-6.4,2.8-8.1c0.7-2.1,1.6-3.7,2.4-4.8c0.6,4.2,0.5,14.6-7.3,37.5
		c-3.6,10.5-8.2,18.2-13.7,23.1C795.9,232.2,802.2,214.4,806,203.5z M652.5,268.1h0.9l0.5-0.2c0.3,0,0.6,0.3,0.7,0.5
		c0.6,0.7,2,2.8,2.7,8c-2.8,0.5-5.5,0.6-8.2,0.1c-4.5-0.7-6.1-1.8-6.5-2.2c0.1-0.7,1-2.2,1.9-3.1l-0.3-0.3
		C648.7,268.4,652.2,268.1,652.5,268.1z M627.4,307.9c1-11.3,3.6-19.4,6.7-25.2c2.8,2.8,7.2,4.7,13.3,5.7c3.5,0.6,7,0.5,10.5,0.1
		c-0.1,2.8-0.3,5.9-0.7,9.4C655,318.6,643,330,635.6,330l0,0c-1.8,0-3.3-0.7-4.5-2C627.9,324.5,626.6,317.2,627.4,307.9z"/>
	<path fill="#231F20" d="M811.3,265.5c-4.7,6.1-7.9,12.4-9.8,18.5c-2.8-0.8-5.1-1.7-6.8-2.4l-4.9,11c0.4,0.2,4,1.8,9.3,3.2
		c-0.9,13.2,3.8,24.7,11.6,31.6c11.6,10.2,27.2,8.9,39.8-3.3c14.7-14.3,23.7-29.5,29.2-49.9c4,7.5,10,16.7,17.4,27.8
		c2.1,3.1,3.1,6.1,3.2,8.7c-4.5-4.8-8.8-6.8-15.4-7.3c-5.4-0.4-14.9,2.8-18.8,9.7c-1.6,2.9-3.6,8.9,1.6,16.2l0.2,0.3
		c7.6,9.4,21.3,10.8,32.2,3.5c5.6,8.3,13.8,17,25.2,17c0.8,0,1.7,0,2.5-0.1l-1.3-12c-7.3,0.8-13.5-6.7-17.8-13.7
		c1.5-2.4,2.5-5,3.1-7.7c1.5-7.1-0.1-14.4-4.7-21.3c-5.4-8-21.7-32.3-21.6-38.7c0.1-3.7-2.9-6.9-6.7-7.3c-3.7-0.3-6.8,2.1-7.4,5.7
		c-3.7,22.7-10.1,41.7-29.4,60.4c-8,7.8-16.8,8.9-23.5,3c-5.8-5.1-8-12.5-7.6-20.3c10.2,1.1,22-0.2,30.2-8.8
		c7.6-8,10.8-21.4,7.5-31.3c-1.9-5.6-5.8-9.3-10.8-10.1C830.1,246.6,821.1,252.5,811.3,265.5z M877.4,322.3c-1.4-2.1-1-2.9-0.8-3.2
		c1.2-2.2,5.7-3.8,7.5-3.6c3.8,0.3,5.2,1,7.9,4c0.4,0.4,1.2,1.9,2,3.3C889,326.4,881.7,327.4,877.4,322.3z M836,259.8
		c0.4,0.1,1,0.9,1.3,2c1.7,5,0.2,13.9-4.8,19.2c-4.6,4.8-11.8,5.8-19,5.3c1.7-4.8,4.2-9.5,7.3-13.5C831.2,259.2,836,259.8,836,259.8
		z"/>
	<line fill="none" x1="473.4" y1="333.2" x2="473.4" y2="333.2"/>
	<path fill="#231F20" d="M772.7,343.5c-48.3,2.9-103.1,11.9-163.1,26.6c-43.1,10.6-80.3,7.6-107.6-8.8c-1.4-0.9-2.8-1.7-4.1-2.6
		c6-28.4,11.5-55.5,17.4-85.4c0.4-0.1,0.8-0.1,1.2-0.2c0.8-0.2,2.5-0.6,12.9-1.8c1.5-0.2,3-0.5,4.4-1c2.4-0.3,5.1-0.3,6.4,0.8
		c1.2,1,1.7,3.7,1.2,7.4c-0.8,5.9-2.1,12.4-3.4,18.8c-3.7,18.2-6.9,33.9,0.4,42.2c2,2.3,5.5,4.8,11.6,4.8c0.5,0,1,0,1.5,0
		c10.1-0.7,17.1-14.4,23.6-46c1.2-6.1,2.3-12.1,3.2-17.6l1.1,0.6c0.7-1.3,6.9-13,20.7-10.4c1.1,0.2,1.3,0.6,1.5,0.8
		c2.6,4-1,18-3.6,28.3c-0.6,2.4-1.2,4.9-1.8,7.4c-3.4,14-4.5,24.6,0.8,30.9c2.6,3.1,6.4,4.7,11.3,4.7c0.6,0,1.2,0,1.8-0.1l-0.9-12
		c-2,0.1-2.9-0.2-3.1-0.4c-0.6-0.7-2.2-4.2,1.7-20.3c0.6-2.4,1.2-4.8,1.8-7.2c4-15.7,7.4-29.3,2.1-37.7c-2.1-3.3-5.3-5.4-9.4-6.1
		c-8.7-1.6-15.9,0.4-21.5,3.8c0.4-3.2,0.6-5.2,0.7-5.5l-12-1.3c0,0.2-2.1,18.6-5.8,37.5c-6.6,33.5-12.5,38.3-13.3,38.8
		c-1.5,0.1-2.5-0.2-2.9-0.7c-3.3-3.8,0-20.1,2.4-31.9c1.3-6.5,2.7-13.3,3.5-19.6c1.1-8.3-0.8-14.4-5.5-18.3
		c-0.2-0.2-0.4-0.3-0.6-0.5c8.6-8.9,16.3-23.8,23.5-45c8.3-24.3,12.5-47.8,12.6-48.8l-11.9-2.1c0,0.2-4.2,23.6-12.2,47.1
		c-8.9,26.2-18.9,42.2-28.5,45.9c-1.5,0.3-2.7,0.6-3.4,0.8c-4.6,0.6-7.6,1-9.5,1.3c4.8-24.1,10.2-51.1,16.7-82.4
		c0.7-3.4-1.1-6.8-4.4-8c-3.2-1.2-6.9,0.1-8.6,3.1l-1.1,1.9c-5.8,10.2-9.3,16.4-14,18.2c-4.7,1.9-12.9,0.4-28.3-5.2
		c-17.8-6.5-31.6-6.2-41.1,0.7c-11.9,8.7-12.2,24.1-12,28.6l12-0.5c-0.1-2.1-0.1-13.1,7.1-18.4c6-4.4,16.3-4.1,29.9,0.9
		c16.5,6,27.8,8.8,37,5.1c2.5-1,4.7-2.4,6.7-4.3c-5.1,24.9-9.4,46.8-13.4,66.8c-5.8,29.3-11.1,55.8-16.9,83.2
		c-9.6-8.9-13.7-16.8-13.9-17.2l0,0l-5.4,2.7l-5.4,2.6c0.3,0.6,6.5,13,21.8,25.3c-1.4,6.3-2.7,12.7-4.2,19.2
		c-33.2-21.6-84.9-30-153.8-25.1c-44.4,3.2-96,12-153.5,26.1c-43.1,10.6-80.3,7.6-107.6-8.8C45,362.9,37,347.2,37,347l-11,5.3
		c0.4,0.8,9.2,18.6,32.4,32.8c20.9,12.8,44.5,17.2,66.9,17.2c18.3,0,35.9-2.9,50.6-6.5c145.4-35.8,249.2-36.2,300-1.1
		c2.7,1.9,6.2,2.3,9.3,1.1c3.1-1.2,5.4-3.9,6.1-7.1c1.3-5.9,2.6-11.6,3.8-17.3c20.9,12.8,44.4,17.1,66.8,17.1
		c18.3,0,35.9-2.9,50.6-6.5c59.3-14.6,113.4-23.4,161-26.3c75.7-4.6,132.1,6.1,167.4,31.8l7.1-9.7
		C910.2,350.2,851.3,338.8,772.7,343.5z"/>
</g>
</svg>
