<?xml version="1.0" encoding="utf-8"?>
<!-- Generator: Adobe Illustrator 18.1.0, SVG Export Plug-In . SVG Version: 6.00 Build 0)  -->
<!DOCTYPE svg PUBLIC "-//W3C//DTD SVG 1.1//EN" "http://www.w3.org/Graphics/SVG/1.1/DTD/svg11.dtd">
<svg version="1.1" id="Layer_1" xmlns="http://www.w3.org/2000/svg" xmlns:xlink="http://www.w3.org/1999/xlink" x="0px" y="0px"
	 viewBox="0 0 611.3 165.5" enable-background="new 0 0 611.3 165.5" xml:space="preserve">
<path d="M19.7,136.5"/>
<g>
	<path fill="#FFFFFF" d="M69.3,137c-7.1,0-14.3-1.9-20.7-5.8c-8.5-5.2-13.4-14.7-13.2-25.5c0.3-10.4,5.4-19.5,13.4-23.8
		c5.9-3.2,15.9-5.1,30,3c2.4-2,6.6-4.6,12.5-6.6c-3.4-4-7.5-7.6-11.4-11.2C70.4,58.6,60.7,49.9,61.1,37c-13-6-20.5-5.3-24.8-3.3
		c-6.6,3.1-7.8,10.7-7.8,10.8l-7.7-1C20.9,43,22.5,31.6,33,26.7c7.6-3.6,17.4-2.7,29.5,2.5C66,17.8,74.6,11.2,86.3,11
		c12.5-0.2,25.6,7.1,28.5,16c2.3,6.9,0.1,14-5.6,18.6C106,48.2,94,55.7,73.3,43.8l-0.1-0.1c-1.3-0.8-2.7-1.6-3.9-2.4
		c1.6,6.9,7.5,12.5,15.8,20c4.9,4.4,10.2,9.1,14.5,14.8c6.7-1.3,14.9-1.8,24.6-0.7l-0.9,7.7c-7.5-0.9-13.9-0.7-19.2,0.1
		c1.1,2.3,2.1,4.6,2.8,7.2c4.1,14.7-0.8,29-13.1,38.3C86.5,134.2,77.9,137,69.3,137z M59.9,86.9c-2.7,0-5.2,0.6-7.5,1.8
		c-5.5,3-9.1,9.5-9.3,17.1c-0.2,8,3.3,15,9.4,18.6c11.4,6.9,25.7,6.1,36.4-2c9.6-7.3,13.5-18.5,10.3-30c-0.8-2.7-1.9-5.2-3.3-7.6
		c-7.7,2.2-12.1,5.5-13.1,6.8c-1.5,1.9-4.2,2.3-6.3,1.1C70.5,88.9,64.8,86.9,59.9,86.9z M77.3,37c8.5,4.9,20.1,8.2,27.1,2.5
		c3.1-2.5,4.3-6.4,3.1-10.1c-1.7-5.1-11.2-10.8-21-10.6c-5.9,0.1-13.6,2.5-16.7,13.2c-0.1,0.2-0.1,0.4-0.1,0.5
		C72.1,33.9,74.6,35.4,77.3,37z"/>
	<path fill="#FFFFFF" d="M149.4,120.9c-2.9,0-5.3-1.2-7.1-3.5c-7.4-9.9,1.2-41.1,3-47.2l7.5,2.2c-4.6,15.9-7.6,35.9-4.2,40.4
		c0.3,0.3,0.4,0.4,0.9,0.4c0,0,0,0,0,0c2.3,0,4.9-3.7,7-10.3c2.3-7,3.6-15.6,4.5-21.8c0.3-2.1,0.6-4,0.9-5.4
		c0.4-1.9,1.8-3.4,3.7-3.9c1.9-0.5,3.9,0.2,5.1,1.8c0.2,0.3,0.4,0.6,0.7,0.9c1.9,2.5,4.7,6.4,11.4,7.2c1.3,0.2,2.5,0.9,3.3,2
		c0.8,1.1,1,2.5,0.7,3.8c-2.1,9.4-5,22.2-2.7,25c0.1,0.1,0.3,0.4,1.6,0.4c6.1-0.3,6.9-12.2,7-12.3l7.8,0.4
		c-0.4,7.1-3.8,19.2-14.4,19.7c-4.2,0.2-6.6-1.6-7.9-3.1c-4.5-5.3-2.6-15.6,0.4-28.7c-4.5-1.2-7.7-3.4-9.9-5.6
		C166.1,98.4,162.4,120.9,149.4,120.9C149.4,120.9,149.4,120.9,149.4,120.9z"/>
	<path fill="#FFFFFF" d="M130.1,122.3c-1,0-1.8-0.1-2.4-0.3c-8.8-2.1-15.7-15.6-11.4-33.8c2.4-10.1,6.7-16.2,12.9-18.1
		c9.3-2.8,18.4,5.4,18.8,5.8l-5.3,5.7c-1.7-1.6-7.1-5.4-11.2-4.1c-4.1,1.3-6.4,7.5-7.5,12.4c-3.1,13.4,1.3,23.4,5.7,24.5
		c2.9,0.7,7.3-3.6,10-14.7l7.6,1.8C142.6,119.5,134.6,122.3,130.1,122.3z"/>
	<path fill="#FFFFFF" d="M225.8,70.7"/>
	<path fill="#FFFFFF" d="M227.2,118.5c-0.1,0-0.3,0-0.4,0c-2.9-0.1-5.4-1.4-7.2-3.9c-7.2-10,0.7-39.3,2.4-45l7.5,2.2
		c-3.7,12.8-7.3,33.2-3.6,38.3c0.4,0.5,0.7,0.6,1.1,0.6c0,0,0,0,0.1,0c1.2,0,6.7-1.4,11.8-26.8c3.3-16.5,5-36.1,6.2-49
		c0.5-6.2,0.9-10.4,1.3-12.4l7.7,1.4c-0.3,1.7-0.7,6.1-1.2,11.6C249.2,77.6,244.2,118.5,227.2,118.5z"/>
	<path fill="#FFFFFF" d="M207.3,119.4c-1,0-1.8-0.1-2.4-0.3c-11-2.6-14.3-19.3-11.1-33.3c2.4-10.1,6.7-16.2,12.9-18.1
		c9.3-2.8,18.4,5.4,18.8,5.8l-5.3,5.7c-1.7-1.6-7.1-5.4-11.2-4.1c-4.1,1.3-6.4,7.5-7.5,12.4c-3.3,14.3,1.6,23.1,5.3,24
		c2.9,0.7,7.3-3.7,10-15l7.6,1.8C219.9,116.6,211.8,119.4,207.3,119.4z"/>
	<path fill="#FFFFFF" d="M263.5,117.7c0-0.1,0-0.1,0-0.2l-7.7-1.1c0.1-0.7,0.4-1.6,1.3-4.4c7.1-20.9,9-33.8,5.7-38.2
		c-0.5-0.7-1.5-1.5-3.9-1.4c-4.3,0.2-7.5,2.1-9.8,5.9c-1.9,3.1-2.3,6.2-2.3,6.2l-7.7-1.1c0.9-6.2,6-18.1,19.4-18.8
		c5.7-0.3,8.8,2.3,10.5,4.5c6.7,8.9,1.5,27.9-4.5,45.4C264,115.9,263.5,117.4,263.5,117.7z"/>
	<path fill="#FFFFFF" d="M280.9,132.6"/>
	<path fill="#FFFFFF" d="M317.9,75.1l-0.5-7.8c4.1-0.3,4.2-0.3,4.5-0.3c0.8-0.2,2-0.5,9.1-1.3c6.8-0.8,14-11.5,20.3-30.2
		c5.2-15.2,7.9-30.3,7.9-30.5l7.7,1.4c-1.2,6.6-12,64.2-34.9,67c-6.7,0.8-7.8,1.1-8.3,1.2C322.6,74.8,322.6,74.8,317.9,75.1z"/>
	<path fill="#FFFFFF" d="M345.1,120.7c-3.9,0-6.2-1.7-7.5-3.1c-4.7-5.4-2.6-15.5-0.2-27.3c0.8-4.1,1.7-8.3,2.2-12.1
		c0.3-2.4,0-4.2-0.8-4.8c-1.3-1.1-4.8-0.6-6.2-0.1l-2.5-7.4c0.9-0.3,8.6-2.7,13.6,1.4c3,2.5,4.2,6.5,3.5,11.8
		c-0.5,4.1-1.4,8.5-2.3,12.7c-1.6,7.7-3.7,18.2-1.5,20.6c0.3,0.3,0.9,0.5,1.9,0.5c0.6-0.4,4.3-3.5,8.6-25.1
		c2.4-12.3,3.8-24.2,3.8-24.3l7.7,0.9c-0.1,0.5-1.5,13.4-4.2,26.5c-4.2,20.4-8.8,29.4-15.3,29.8
		C345.7,120.7,345.4,120.7,345.1,120.7z"/>
	<path fill="#FFFFFF" d="M382.9,119.6c-3.2,0-5.6-1-7.3-3c-3.4-4.1-2.7-10.9-0.5-20c0.4-1.6,0.8-3.2,1.2-4.8
		c1.7-6.6,4-15.7,2.3-18.3c-0.1-0.2-0.2-0.4-1-0.5c-8.9-1.7-13,5.9-13.4,6.8l-7-3.4c2.3-4.8,9.8-13.3,21.8-11c2.6,0.5,4.7,1.9,6.1,4
		c3.5,5.4,1.2,14.2-1.3,24.4c-0.4,1.6-0.8,3.1-1.2,4.7c-2.5,10.4-1.5,12.7-1.1,13.1c0.1,0.1,0.7,0.3,2,0.3l0.6,7.8
		C383.6,119.6,383.2,119.6,382.9,119.6z"/>
	<path fill="#FFFFFF" d="M400.6,119.2C400.6,119.2,400.6,119.2,400.6,119.2c-3.4,0-6.4-1.3-8.7-3.9c-2.5-2.7-5.3-8.3-4.3-18.9
		c2.7-29.4,19.9-32.5,23.2-32.8c0.4-0.1,1-0.2,1.6-0.2c2.4,0,4.6,1,6.3,2.9c3.8,4.2,4.9,12.4,3.6,25.1
		C420.5,108.8,409.8,119.2,400.6,119.2z M412.4,71.2l-0.3,0.1l-0.6,0c-0.5,0-14,1.1-16.2,25.8c-0.5,6,0.3,10.8,2.3,13
		c0.8,0.9,1.8,1.3,2.9,1.3c0,0,0,0,0,0c4.8,0,12.6-7.4,14-20.8c1.5-14.4-0.9-18.3-1.6-19.1C412.8,71.4,412.6,71.2,412.4,71.2z"/>
	<path fill="#FFFFFF" d="M457.5,115.5c-4.5,0-7.1-2.2-8.5-4.1c-0.8-1.1-1.5-2.4-1.9-3.8c-3.2,4.4-7.1,7.7-11.9,7.9
		c-3.5,0.2-6.3-1.8-7.6-5.4c-1.8-4.9-1.2-13.6,2-26.7c0.4-1.7,0.8-3.3,1.2-4.8c-6.6,3.9-15.1,7.1-22.6,5.9
		c-5.8-0.9-9.3-3.2-10.4-6.7c-1.6-4.9,2.6-9.4,3.1-9.9l5.5,5.5l-2.8-2.7l2.8,2.7c-0.6,0.6-1.1,1.5-1.2,2c0.3,0.2,1.3,0.9,4.2,1.4
		c10.1,1.6,23.2-8.4,25.3-11c0.4-1.1,0.7-1.3,1.2-1.7l2.2-1.8l2.4,1.6c1.1,0.7,2.2,2.3,1.6,4.4c-0.1,0.2-0.1,0.4-0.3,0.6
		c-0.6,1.6-3.3,9.9-5.3,19c-3.3,14.7-1.9,18.8-1.5,19.6c4.7-0.5,9.4-10,12.5-19.4c0.9-4.4,2-7.9,2.5-9.3l7.5,2
		c-0.4,1.7-1.2,5.4-2.6,9.9c-1.6,8.4-1,14.1,0.4,15.9c0.4,0.5,1,1,2.5,0.9c6.1-0.2,12.6-19.4,14.9-43.6c0.1-1.5,1.1-2.9,2.5-3.5
		c1.4-0.6,3-0.4,4.2,0.5c1.2,0.9,6.3,3.7,11.9,3.3c3-10.5,7.1-22.9,12.2-37.4c0.8-2.3,1.4-4,1.8-5.1c1.7-5.2,4.8-8.7,8.3-9.4
		c2.3-0.5,4.5,0.3,6,2.1c2.8,3.2,4.6,11.7-2.8,33.4C512.5,60.4,506,68.2,497.5,71c-0.2,0.7-0.4,1.5-0.6,2.2
		c-7.4,27.9-4,32.5-3.6,32.9c0.2,0.2,0.9,0.1,1.5-0.1l2.3,7.4c-5.1,1.6-8.1-0.5-9.5-1.9c-4.7-4.9-4.5-17,1.4-39.4
		c-3.5-0.2-6.8-1.1-9.3-2.1c-2,16.7-7.5,44.9-21.8,45.4C457.8,115.5,457.7,115.5,457.5,115.5z M514.2,21.2c-0.5,0.7-1.1,1.7-1.5,3.1
		c-0.4,1.1-1,2.9-1.8,5.3c-2.5,7-6.5,18.6-10.3,30.8c3.6-3.2,6.5-8.2,8.9-15C514.5,30.6,514.6,23.9,514.2,21.2z"/>
	<path fill="#FFFFFF" d="M588.1,124.4c-7.4,0-12.7-5.6-16.3-11c-7.1,4.7-15.9,3.8-20.9-2.2l-0.2-0.2c-3.3-4.8-2.1-8.6-1-10.5
		c2.5-4.5,8.7-6.5,12.2-6.3c4.3,0.3,7,1.6,10,4.7c-0.1-1.7-0.7-3.6-2.1-5.6c-4.8-7.2-8.7-13.2-11.3-18c-3.6,13.2-9.4,23.1-18.9,32.3
		c-8.2,7.9-18.3,8.8-25.8,2.2c-5-4.5-8.1-11.9-7.5-20.5c-3.4-0.9-5.7-2-6-2.1l3.1-7.1c1.1,0.5,2.6,1,4.4,1.6c1.3-3.9,3.3-8,6.4-12
		c6.4-8.4,12.2-12.2,17.3-11.3c3.2,0.5,5.8,2.9,7,6.5c2.1,6.4,0.1,15.1-4.8,20.2c-5.3,5.6-12.9,6.4-19.5,5.7
		c-0.3,5.1,1.2,9.8,4.9,13.1c4.3,3.8,10,3.1,15.2-1.9c12.5-12.1,16.6-24.4,19-39.1c0.4-2.3,2.4-3.9,4.8-3.7c2.5,0.2,4.4,2.3,4.3,4.7
		c-0.1,4.1,10.5,19.9,14,25c3.5,5.3,4.8,12.6,1,18.8c2.8,4.5,6.8,9.4,11.5,8.8l0.9,7.7C589.2,124.4,588.6,124.4,588.1,124.4z
		 M557,106.4c2.8,3.3,7.4,2.7,10.7,0.3c-0.5-0.9-1-1.9-1.3-2.2c-1.7-1.9-2.7-2.4-5.1-2.6c-1.1-0.1-4.1,1-4.8,2.4
		C556.4,104.5,556.1,105,557,106.4z M515.7,83.1c4.6,0.4,9.3-0.3,12.3-3.4c3.2-3.4,4.2-9.2,3.1-12.4c-0.2-0.7-0.6-1.3-0.9-1.3
		c0,0-3.1-0.4-9.8,8.4C518.4,77,516.8,80,515.7,83.1z"/>
	<path fill="#FFFFFF" d="M70.5,158.1c-14.5,0-29.7-2.8-43.3-11.1c-15-9.2-20.7-20.7-21-21.2l7-3.4l-3.5,1.7l3.5-1.7
		c0.1,0.1,5.2,10.3,18.5,18.2c17.6,10.6,41.7,12.6,69.6,5.7c66.3-16.3,154.3-29.6,198.7-0.6c5.7-25.9,10.3-48.7,15.5-75
		c2.6-12.9,5.4-27.2,8.7-43.3c-5.6,5.2-12.7,5.3-28.3-0.4c-8.8-3.2-15.5-3.4-19.3-0.6c-4.7,3.4-4.6,10.5-4.6,11.9l-7.8,0.3
		c-0.1-2.9,0.1-12.9,7.8-18.5c6.2-4.5,15.1-4.7,26.6-0.5c10,3.6,15.3,4.6,18.3,3.4c3-1.2,5.3-5.2,9.1-11.8l0.7-1.2
		c1.1-1.9,3.4-2.8,5.5-2c2.1,0.8,3.3,3,2.8,5.2c-4.7,22.8-8.5,42-11.9,59c-5.4,27-10,50.3-16,77.1c-0.5,2.1-1.9,3.8-3.9,4.6
		c-2,0.8-4.3,0.5-6-0.7c-32.9-22.7-100-22.5-194.1,0.7C93.7,156.2,82.4,158.1,70.5,158.1z"/>
	<path fill="#FFFFFF" d="M352.9,149.2c-14.5,0-29.7-2.8-43.3-11.1c-15-9.2-20.7-20.7-21-21.2l7-3.4c0.1,0.1,5.2,10.3,18.5,18.2
		c17.6,10.6,41.7,12.6,69.6,5.7c38.8-9.6,74.3-15.3,105.5-17.2c50.8-3.1,89,4.3,113.3,22l-4.6,6.3c-22.8-16.6-59.3-23.5-108.3-20.6
		c-30.8,1.9-65.8,7.6-104.1,17C376.1,147.3,364.8,149.2,352.9,149.2z"/>
	<path fill="#FFFFFF" d="M289.3,102.4"/>
	<path fill="#FFFFFF" d="M289.3,111.6"/>
</g>
</svg>
