<svg xmlns="http://www.w3.org/2000/svg" viewBox="0 0 576 432" enable-background="new 0 0 576 432"><path d="M105.3 241.7c-1.4 1.8-2.9 3.4-4 5.3-3.1 5.3-7.1 9.8-11.3 14.2-1.5 1.6-2.6 3.5-4.2 4.9-2.9 2.6-5.9 5.2-9.2 7.2-4.3 2.6-9.2 3.7-14.2 2.1-1.6-.5-2.9-1.7-4.4-2.7-.6-.4-1-1.1-1.6-1.4-2.4-1.4-3.6-3.6-4.3-6.1-1.6-5.6-2-11.3-1.7-17 .2-3 .4-6 .2-8.9-.3-4.4.7-8.6 1.7-12.8 0-.2.1-.4.2-.6.9-4.3.2-4.9-4.1-4.2-2.6.5-5.3.7-8 1l-3.4.1c-7.8 1.3-15.1-1.2-22.3-3.6-4.2-1.4-7.6-4.3-10.5-7.4-1.4-1.5-1.8-3.9-2.4-5.9-.5-1.7-.6-3.4-1-5.2-.8-4.6-.9-9.2-.4-13.8.2-1.8 1.3-3.4 1.9-5.2 1.4-4.3 3.4-8.4 5.8-12.2.6-1 1.2-1.9 2-2.7 1.6-1.7 3.2-3.5 5-5 1.3-1.1 3.1-1.6 4.6-2.5 3.6-2.3 7.8-3.3 11.8-4.4 1.8-.5 2.5-.1 3 1.7.5 1.7.6 3.4-1 4.8-1.3 1.2-2.2 2.7-3.4 4-1.2 1.3-2.5 2.3-3.8 3.5-1 1-2.3 2-2.8 3.2-1.1 2.6-2.9 4.6-4.9 6.3-2.4 2.1-4.2 4.7-5.5 7.4-3.7 7.4-4.4 15 0 22.4 2.1 3.7 5.3 6.2 9.3 7 4.3.9 8.8 1.1 13.1 1.5 1.8.2 3.7.1 5.6.1 4.4-.2 8.9-.5 12.6-3.3.8-.6 1.7-1.6 2-2.5 1.6-4.4 3-8.8 4.4-13.2.2-.7.3-1.4.6-2.1 1.7-3.6 3.1-7.4 5.2-10.8 3.8-6 6.2-12.8 10.6-18.4 3.2-4 5.8-8.5 9.7-12 4.5-4.1 9-8.3 15-10 2.6-.7 5.4-.9 8.2-1.2.6-.1 1.3.1 1.8.4 4.2 2 6.5 7.6 5 12.1l-4.2 12.2c-.2.5-.3 1-.5 1.4-2.5 4.1-5.1 8.2-7.4 12.4-1.7 3-3.6 5.7-6.3 7.9-.6.5-.9 1.3-1.4 2-.4.6-.7 1.3-1.2 1.8-3.7 3.4-7.3 6.9-11.1 10.2-3.2 2.7-6.5 5.3-9.9 7.7-2.4 1.8-4.9 3.4-7.4 5-2.7 1.8-3.8 4.3-4.1 7.5-.5 5.3-1.4 10.6-2.2 15.9-1 6-1.1 12 1 17.7.9 2.4 2.4 4.6 4.1 6.5 2.6 3 8.8 3.1 12.2.1 4.4-3.7 8.6-7.7 11.9-12.4 3.2-4.6 6.2-9.5 8.9-14.4 3.5-6.3 6.7-12.7 9.9-19.1.8-1.6 1.5-3.4 1.8-5.2.7-3.7 3.6-5.6 6.3-7.2 1.5-.9 4-.3 6 .2 1.4.3 1.3 1.8 1 3.1-.6 2.5-1.2 5-1.6 7.5-.7 4.5-1.3 9-2 13.4-.1.4-.2.8-.1 1.2.8 4.9 1.6 9.7 2.6 14.6.4 1.9 1.9 3.1 3.6 4.1 1 .6 2 .6 3.2.2 3.3-1.1 5.5-3.6 7.8-5.9 5.6-5.7 10.9-11.8 15-18.7 1.8-3 2.9-6.3 4.4-9.5 1-2 2.2-3.9 3.1-5.9 1.6-4 3.4-8 4.3-12.2 1.3-5.8 2.1-11.7 3-17.6 1.2-7.9.7-15.8.3-23.7-.3-4.8-1.4-9.8-3.5-14.3-.3-.6-.5-1.4-.6-2-.2-1.5-.8-2.6-2.2-3.4-1.9-1.1-3.6-6-2.9-8 .4-1.2 1.3-2 2.5-1.9 3 .2 5.5.8 7.7 3.6 3.4 4.4 4.3 9.8 6.9 14.4.1.2.2.4.2.6.1 6.8 2.7 13.3 2.2 20.2-.3 4.1.2 8.2-1.4 12.1-.2.5-.1 1.2-.1 1.8-.1 3.8-.5 7.6-2 11.2-.1.2-.2.4-.2.6-.8 6.5-3.4 12.5-5.7 18.5-2.7 6.8-5 13.7-9 19.9-2.1 3.3-3.7 6.9-5.5 10.3-.2.5-.5.9-.8 1.3-3.9 4.5-7.4 9.4-12.4 12.9-1 .7-1.9 1.6-2.7 2.5-1.7 2-3.7 3.2-6.2 3.8-2.1.4-4.1 1.3-6.2 1.6-2.1.3-4.5.5-6.4-.2-3.4-1.3-6.9-2.9-8.2-6.8-1.2-3.5-2-7.1-3-10.7-.3-.9-.8-1.8-1.2-2.7-.6 0-.9-.1-1.2-.2zm-38.5-35.4l1.2-.1c3.2-2.5 6.9-4.4 9.3-7.5 4.5-5.8 10.7-9.9 15.1-15.7l4.1-5c.9-1.2 1.4-2.5 2.2-3.7 2.2-3.3 3.1-7.1 4.6-10.7.7-1.6.8-3.5.7-5.2-.1-1.7-.6-3.4-1.1-5.1-.2-.5-1.3-.8-2-.8s-1.3.5-1.9.9c-3.7 1.9-6.5 4.8-9 7.8-3.3 4.1-6.2 8.4-9.1 12.8-2.1 3.3-3.9 6.8-5.6 10.3-2.4 5.1-4.7 10.3-6.8 15.5-.8 2.1-2.1 4-1.7 6.5zM315.4 177.4c-1.4.4-2.5.5-3.5.9l-15.9 6.7c-2.7 1.1-4.1 3-5 5.8-.8 2.7-2.3 5.3-3.9 7.6-3.2 4.6-6 9.6-10.1 13.6-2.2 2.1-4.5 4.2-7.4 5.5-2.4 1.1-4.8 1.8-7.4 1.6-1.2-.1-2.5 0-3.7.2-5.8 1.1-13.1-3.4-13-10.4 0-1.1 0-2.4-.5-3.3-1.7-3.2-.8-6.5-.5-9.7.1-1.5 1.2-3 1.9-4.5.2-.5.8-.8.8-1.3.1-.9.1-1.9-.2-2.6-.2-.3-1.5-.2-2.2.1-3 1-6 2.2-9 3.1-1.6.5-2.5 1.3-2.7 2.9-.6 5.4-2.6 10.3-5.1 15.1-2.5 4.7-5.7 8.8-9.2 12.6-1.5 1.7-3.1 3.4-4.9 4.7-1.9 1.4-3.9 2.7-6.1 3.5-2.9 1-5.7 2.3-8.9 2.2-5.2-.2-9.4-4-10-9.1-.3-2.7-1-5.3-1.2-7.9-.1-2.4-.1-5 .6-7.3 1.3-4 2.7-8 4.8-11.7 2.2-3.9 5-7.6 8.6-10.4 1.8-1.4 2.3-3.1 2.1-5.1-.5-4.7.9-9 3.4-12.9 1.1-1.7 2.5-3.3 5-3 .6.1 1.3 0 1.8-.2 3-1.2 5.9-.2 8.8.5 2.4.6 4.3 2 5.8 4.2 2.7 3.9 3.8 8.3 4.8 12.9.6 2.7 1.6 3.3 4.1 2.3 5.5-2.2 10.1-5.7 14.9-9.1 5.6-3.9 10.8-8.5 16.7-12.1 4.2-2.5 8.2-5 12.9-6.3 1.8-.5 3.9-.8 5.8-.5 3.1.4 5.6 1.9 6.6 5.2.2.7.4 1.4.8 2 2.1 2.8 2.3 5.9 1.8 9.1-.2 1-.1 2-.2 3.7 1.6-1 2.5-1.7 3.5-2.2 5.4-2.3 9.5-6.5 14.5-9.2 1.5-.8 2.7-2.6 3.6-4.1 1-1.6 1.9-2.7 3.8-3.3 1.2-.4 2.2-1.7 3.2-2.7.6-.6 1-1.5 1.6-2.2 1.5-1.6 3.3-2.3 5.3-1.1 2.8 1.6 4.8.3 6.9-1.4 2.7-2.2 5.6-4.1 8.4-6.2 3.7-2.7 7.9-2.5 12.1-2.4l2.1.3c2.4 0 3.9 1.2 5.5 3 2.7 3 3.8 6.2 3.1 10.2-.4 2-.1 4.1 0 6.1.1 6.6-1.1 13-4.1 18.8-2 4.1-5.2 7.6-8 11.3-1.2 1.5-2.7 2.8-4.2 4.1-3.5 3.1-7.7 4.8-12 6.1-1.2.4-2.6-.2-3.9-.3-4.8-.5-8.2-3-10.8-6.9-2.2-3.4-1.3-7-.1-10.4.6-1.6 2.5-2.1 4.2-1.7 3.6.9 4.5 2.4 3.7 6.2-.3 1.4.3 2.2 1.5 2.6 3.4 1.1 6.5 1.2 9.6-1.2 2.9-2.2 4.9-4.9 6.7-8 1.3-2.3 2.7-4.6 3.9-7 2.6-5.3 4.4-10.9 4.3-16.8 0-3.9-1.9-6.9-5.2-8.9-2.1-1.3-4.4-1-6.4.2-2.7 1.7-5.7 3.1-7.9 5.3-2.6 2.6-5.8 5-7 8.9-.2.7-.6 1.3-1 1.9-3 4.5-6 9-9 13.6-.2.3-.3.6-.4.8-2.5 5.9-5 11.9-7.6 17.8-.9 2-2.1 3.8-3 5.7-.9 2-1.5 4-2.3 6.1-.6 1.6-1.2 3.3-1.9 4.9l-.7 1.4c-2.8 8.5-5.7 16.9-8.4 25.4-.8 2.5-1.2 5.2-1.8 7.8l-2.9 12c-.8 3.6-1.3 7.3-1.8 11-.1.8.1 1.9.5 2.6 1 1.6.7 3.2.1 4.7-.8 1.8-1.7 3.5-2.7 5.2-1 1.7-2.3 3.1-4.5 3.5-.8.2-1.6.5-2.3.9-1.2.7-2.4 1.3-3.6.1-1.2-1.2-1.7-2.5-1.2-4.2 1.1-3.8 2.2-7.5 3.1-11.3 1.5-6.1 2.9-12.2 4.5-18.3 1.6-6.2 3.1-12.4 4.9-18.5 1.1-3.6 2.7-7.1 4-10.6 1.1-2.9 2.1-5.8 3-8.7.8-2.4 1.3-5 2.3-7.3 2.2-5.3 4.5-10.5 6.8-15.8l2.1-4.8c1.3-3 2.5-6.1 3.7-9.1.6-.6.6-1.3.8-2.5zm-55 34.1c.8-.1 1.6-.3 2.4-.2 4.9.5 8.3-2.6 11.3-5.5s5.1-6.9 7.4-10.5c1-1.4 1.7-3.1 2.3-4.7.5-1.3-.1-2-1.5-2-.4 0-.8.1-1.2.2-2.7.3-5.3.3-7.5-1.7-.4-.3-.9-.5-1.4-.6-3.1-.8-4.3-3.3-5.2-6-.4-1.4-.8-2.8-1.3-4.1-.6-1.5-1.3-1.6-2.6-.6-2.9 2.4-5.3 5.1-6.4 8.8-.4 1.5-.8 3.1-1.6 4.3-3.5 5.5-3.8 11.3-1.7 17.4.9 2.8 4.2 5.3 7 5.2zm-63.6 3.4c.3 1.2.2 2.1.6 2.5 1.5 1.5 3 3 4.8 4.2 1.4 1 2.7-.2 4-.9l1.2-.4c2.6-1.8 5.8-2.9 7.5-5.7 2.2-3.4 4.5-6.6 7.8-9 .6-.4 1-1.1 1.3-1.7 1.2-2.9 2.3-5.9 3.4-8.9.4-1.3-.2-2-1.5-2-1.2 0-2.5-.1-3.7.1-3.4.6-6.6.2-9.6-1.5-1.8-1-3-.5-4.3.9-3.8 4-7 8.4-8.9 13.6-1.1 3.1-1.8 6.2-2.6 8.8zm92.5-42.4v-1.4c0-1.5-.4-2.9-1.9-3.6-1.5-.7-2.8-.1-3.9.9-1.8 1.7-3.3 3.6-4.2 6-1.2 3.6-.5 4.9 3.3 5.4.8.1 1.6.2 2.4.1 2.9-.2 3.7-1.1 4-4 .1-.8.2-1.8.3-3.4zm-61.7 14.2c1.1-1.6.9-3.2.3-4.5-.8-1.7-2.1-3.2-3.2-4.8-2.5-3.6-4.1-2.8-6.8-1.5-2.5 1.2-3.2 3.3-1.9 5.8 1.4 2.7 4.1 3.6 6.7 3.7 1.7.2 3.3.5 4.9 1.3zM20.2 357c.1-.9.3-2.1.3-3.3 0-1.1-.1-2.2-.4-3.3-.6-2-.5-2.8 1.2-4 2-1.3 4-2.5 6-3.7 6.4-3.7 12.8-7.5 19.2-11.1l5.4-2.2c4.8-2.4 9.5-4.8 14.3-7.3 11.6-5.8 23.2-11.6 34.7-17.6 6.6-3.4 13.3-6.4 20.2-9.2 6.9-2.7 13.5-6 20.3-9 7.4-3.2 14.7-6.4 22.2-9.3 4.8-1.9 9.8-3.1 14.6-4.8 10.7-3.8 21.2-8 32-11.4 9.8-3.1 19.4-6.8 29.6-8.5 3.5-.6 7-1.7 10.4-2.9 2.7-1 5.1-.3 7.5.5.7.2 1.3 1.1 1.6 1.8 1.4 3.4-1.5 7.2-5.2 7.3-3.7.1-7.3.4-10.8 1.5-2.9.9-5.9 1.6-8.9 2.6l-21 7.1c-8.9 3-17.7 6.1-26.6 9-8.8 2.9-17.4 6.2-25.8 10.2-3.2 1.5-6.7 2.5-10.1 3.7-1.6.6-3.3 1.2-4.8 2-3.9 2-7.7 4.3-11.7 6.2-3.6 1.7-7.4 3.1-11.1 4.6-4.1 1.7-7.9 3.8-11.6 6.4-2.4 1.7-5.3 2.8-7.9 4.2-5 2.7-10 5.3-14.9 8.1-6 3.4-12 6.8-17.9 10.4-6.9 4.2-13.7 8.7-20.6 13.1-1 .7-1.9 1.5-2.9 2.3-5.9 4.6-11.6 9.5-18.1 13.4-2.2 1.3-4.3 2.2-6.6.8-2.4-1.4-3-3.8-3-6.4.4-.2.4-.5.4-1.2zM542.2 185.6c8-.2 14.7-.3 21.4-.5l3-.4c2.1 0 4.3.1 6.4.4 1.3.2 1.9 1.4 2.1 2.8.2 1.3-.2 2.4-1.3 3.2-2.7 2-5.7 1.8-8.6 1-3.5-1-6.9-1-10.4-.9-6.2.3-12.3.8-18.5 1.3-1.9.2-3.9.5-5.8.8-7.7 1.1-15.5 2-23.2 3.5-5.8 1.2-11.6 1.6-17.3 2.7-4.1.8-8.2 2-12.4 2.3-8.4.7-16.6 2.9-25 3.9-3.9.4-7.7 1.1-11.6 1.6-.7.1-1.4.2-2.1.4-10.9 2.7-21.8 5.3-32.6 8.2-11.6 3.1-23.2 6.4-34.7 9.7-5.1 1.5-10.1 3.5-15.2 5.2-5.2 1.7-10.4 3.3-15.6 4.9-.3.1-.6.1-.9.3-4.8 2.5-10.1 3.5-14.9 5.6-.7.3-1.4.9-2.1 1.3-2.1 1.2-4.3 1.9-6.7 1.9-1.5 0-2.4-.6-2.7-1.9-.7-2.5-.3-4.8 1.6-6.6 1.3-1.1 2.9-2 4.4-2.7 2.2-1.1 4.5-1.9 6.8-2.9.5-.2.9-.5 1.4-.6l17.1-5.3c4.9-1.5 9.8-3.2 14.7-4.6 5.7-1.6 11.2-4 17.2-4.8 2.2-.3 4.3-1.4 6.5-2 7.9-2.3 15.8-4.6 23.7-6.7 4.1-1.1 8.2-1.8 12.3-2.7 2.8-.6 5.6-1.4 8.4-2.1 2.8-.7 5.5-1.6 8.4-2.1 7-1.2 14-2.3 21-3.4 6.4-1 12.8-1.9 19.3-2.7 5.8-.7 11.7-1.1 17.5-1.7 4.4-.4 8.8-.8 13.2-1.4 8.8-1.2 17.5-2.4 26.3-3.7 3.3-.5 6.8-1 8.9-1.3zM418.6 132.2c-1.1 1.9-2.1 3.6-2.9 5.3-2.5 5.1-4.7 10.3-7.6 15.1-2.8 4.4-5.5 8.9-8.6 13.1-3 4.1-6 8.1-8.7 12.3-1.6 2.5-4.1 4.3-5.9 6.7-3.1 4-7.8 6.1-11.4 9.4-1.4 1.3-3.2 1.1-4.2 0-1.1-1.2-1-3.9.4-5.1 1.5-1.3 3.4-2.3 4.9-3.7 1.9-1.6 3.5-3.4 5.3-5.2 3.8-3.8 6.7-8.3 10.1-12.5 6.3-7.8 11.4-16.3 16-25.2.7-1.3 1.5-2.5 2.2-3.7 2.9-4.5 4.6-9.4 6.2-14.4.7-2.2 1.7-4.4 2.8-6.5 1.8-3.2 4.4-3.5 7-.9 1.4 1.4 3.1 2.6 3.9 4.3 1.8 3.4 3.4 7 4.7 10.7 2.3 6.2 3.2 12.8 3.8 19.3.2 2.3-.3 4.7-.4 7.1-.1 2.6.4 3.1 3 2.9.6 0 1.2-.1 1.8-.3 7.3-1.9 14.7-4 21.5-7.4 2.6-1.3 5-3.2 7.4-5 1.9-1.4 3.8-2 6.1-1.4 2.4.7 2.7 2.6 1.1 4.5-2.8 3.4-6.8 4.8-10.6 6.3-1.1.4-2.2 1.1-3.3 1.6-2.3 1-4.8 1.9-7 3.1-5.3 2.9-11.1 4.4-16.9 5.7-3.9.9-6.8 3.1-9.2 5.9-2.6 3-6 3.7-9.3 4.9-1 .3-2 .4-3 .6-6.8 1.6-12.4-.9-16.9-5.8-2-2.2-2.3-5.5.8-7.7 2.5-1.8 4.7-2.3 7.7-2 4.6.6 9.2.6 13.8-.5 2.8-.7 3.3-1.1 3.8-4 .5-2.4.9-4.6-.7-6.8-.5-.7-.5-1.8-.8-2.7l-3.8-13.7c-.6-1.8-1-2.5-3.1-4.3zM530.2 45.6c5.9 2 6.6 6.8 6 11.5-.4 2.8-1.4 5.6-2.5 8.2-2.3 5.9-5.8 11.1-8.9 16.5-4.1 7.3-9.3 14-12.2 22-1.3 3.6-3.4 7-3.9 11-.2 1.5-.7 2.7-2.2 3.5-1.6.9-1.9 2.5-2.3 4.2-.7 3.2-3.6 5.5-6.5 5.6-2.2.1-3.6-.9-3.8-3.2-.1-1.8-.1-3.7.3-5.5.9-4.2 2.1-8.4 3.3-12.5.3-1.1.9-2 1.4-3 .4-.8.9-1.6 1.2-2.5 1-3.4 1.8-6.9 2.9-10.4 1.2-3.8 2.7-7.5 4.1-11.2.3-.7.6-1.3.8-2 1-5.1 3.6-9.6 5.7-14.2.7-1.6 1.4-3.2 1.8-4.9.5-2.3 1.8-3.8 3.7-5.1 1.3-.9 2.4-1.9 3.6-2.8 2.6-1.8 5.1-3.5 7.5-5.2zM488 157.8c-1.7 0-2.9-.8-3.8-2-.8-1.2-1.5-2.5-2.1-3.8-.2-.5-.2-1.3 0-1.8 1.6-3.1 2.8-6.5 5.9-8.5 1.7-1.1 3.6-2.1 5.5-2.4 5.6-1 9.2 3.2 7.7 8.8-1 3.8-3.3 6.3-6.9 7.7-1.9.9-4.2 1.4-6.3 2z"/></svg>